<?xml version="1.0" encoding="UTF-8"?>
<svg version="1.1" xmlns="http://www.w3.org/2000/svg" width="512" height="512">
<path d="M0 0 C0.83580534 -0.00581376 1.67161068 -0.01162753 2.53274345 -0.01761746 C5.34015508 -0.03224329 8.14669596 -0.01832019 10.95410156 -0.00457001 C12.98441007 -0.00917789 15.01471525 -0.01553005 17.04501343 -0.02347898 C22.62953845 -0.04021076 28.21379082 -0.03190836 33.79831696 -0.01953411 C39.8188514 -0.01050172 45.83933823 -0.02444435 51.85986328 -0.0354538 C62.97410283 -0.05223318 74.08826718 -0.05074998 85.20250726 -0.03980792 C95.4696496 -0.02974935 105.73676 -0.02711718 116.00390625 -0.0318985 C117.02510539 -0.03235681 117.02510539 -0.03235681 118.06693482 -0.03282438 C120.83045758 -0.03406971 123.59398033 -0.03534331 126.35750306 -0.03666343 C152.28635849 -0.04890198 178.21515843 -0.03780156 204.1440053 -0.01627585 C227.18490045 0.00270687 250.22570718 0.00100837 273.26660156 -0.01811981 C299.1477494 -0.03953406 325.02884819 -0.04803406 350.91000366 -0.03567076 C353.66851806 -0.03438787 356.42703246 -0.03313651 359.18554688 -0.0318985 C359.86477337 -0.03158219 360.54399987 -0.03126588 361.24380898 -0.03093999 C371.50500068 -0.02638832 381.76615696 -0.03171449 392.02734375 -0.04181671 C403.69370525 -0.05324501 415.35998258 -0.05002744 427.02633476 -0.02869374 C432.98146366 -0.01816367 438.93641286 -0.01409491 444.89154053 -0.02729034 C450.33938626 -0.03917939 455.78688514 -0.03270918 461.23469925 -0.01138014 C463.20903809 -0.00689928 465.18340604 -0.00921341 467.15772629 -0.01888329 C469.83538893 -0.03099546 472.51185366 -0.01862507 475.18945312 0 C475.96131392 -0.00936466 476.73317471 -0.01872933 477.52842522 -0.02837777 C482.71669358 0.04406589 485.6679075 1.12583443 489.59472656 4.50336456 C493.12410229 8.77136246 494.09498276 11.66073197 494.09809113 17.15949249 C494.10390489 17.80619998 494.10971865 18.45290747 494.11570859 19.11921215 C494.13029172 21.28345216 494.11643271 23.44655496 494.10266113 25.61078644 C494.10727075 27.17911864 494.11362408 28.74744653 494.12157011 30.31576538 C494.1382783 34.62334124 494.13001037 38.93056292 494.11762524 43.23814011 C494.10858315 47.88443408 494.12254029 52.53066672 494.13354492 57.17694855 C494.15134372 66.27818324 494.1474841 75.37928608 494.13589436 84.48052597 C494.12686567 91.87641483 494.12563359 99.2722667 494.12998962 106.66815948 C494.13060256 107.72025148 494.13121549 108.77234347 494.13184699 109.85631704 C494.13312588 111.99353346 494.13442273 114.13074987 494.13573736 116.26796627 C494.14714714 136.31487727 494.13402319 156.36171515 494.11253589 176.40861416 C494.09466456 193.61471342 494.09776856 210.82070475 494.11621094 228.02680206 C494.1376106 248.00133034 494.14604847 267.9757945 494.13376188 287.95033264 C494.13248767 290.07974496 494.13123019 292.2091573 494.12998962 294.33856964 C494.12937252 295.38631734 494.12875542 296.43406505 494.12811962 297.51356268 C494.12466401 304.90169913 494.13049961 312.28979495 494.13990784 319.67792511 C494.15111915 328.67998731 494.14810604 337.68190996 494.12678486 346.68395615 C494.11626277 351.27812379 494.11217234 355.87205868 494.12538147 360.46622467 C494.13728724 364.67062329 494.13077302 368.87457305 494.10947126 373.07893085 C494.10499747 374.60105094 494.10728892 376.12320883 494.11697441 377.64530468 C494.12912488 379.71315577 494.11667994 381.77946612 494.09809113 383.84723663 C494.09744172 384.99605568 494.09679231 386.14487473 494.09612322 387.32850647 C493.29836155 392.37995638 490.73632116 395.47111976 487.01025391 398.84027863 C482.27147985 401.14767883 478.15398395 401.10617865 472.94628906 401.11273956 C471.93376068 401.12927582 470.9212323 401.14581207 469.87802124 401.16284943 C466.65852752 401.21125726 463.43950595 401.23268487 460.21972656 401.25336456 C458.03090082 401.2815302 455.842097 401.31145845 453.65332031 401.34320831 C448.3004946 401.41701469 442.94792989 401.46663372 437.59472656 401.50336456 C435.61472656 405.46336456 433.63472656 409.42336456 431.59472656 413.50336456 C432.95267334 414.85607452 434.31062012 416.20878448 435.7097168 417.60248566 C440.19011701 422.06677665 444.66821052 426.53337093 449.14472866 431.00155449 C451.85956831 433.71117012 454.5753326 436.41984546 457.29321289 439.12641144 C459.91487904 441.73723167 462.53411225 444.35046977 465.15165901 446.96541977 C466.15195065 447.96386025 467.15312365 448.96141852 468.15517998 449.95808792 C469.55588042 451.35155543 470.95319457 452.74842432 472.3503418 454.14545441 C473.14754135 454.94043335 473.94474091 455.73541229 474.76609802 456.55448151 C477.75298026 459.7377875 477.78271128 462.11991494 478.02050781 466.43305206 C477.37623663 469.56574678 476.1319069 470.57243077 473.59472656 472.50336456 C470.70507536 472.85246506 468.20879946 472.97152076 465.32910156 472.89398956 C464.53570374 472.88832977 463.74230591 472.88266998 462.92486572 472.87683868 C460.39753183 472.85449603 457.87162991 472.80430632 455.34472656 472.75336456 C453.62860125 472.73329671 451.91245364 472.71504643 450.19628906 472.69867706 C445.99521876 472.65463851 441.79521522 472.58562782 437.59472656 472.50336456 C437.62614746 474.10776398 437.62614746 474.10776398 437.65820312 475.7445755 C437.73067282 479.71774629 437.77655119 483.69085882 437.81445312 487.66449738 C437.83455284 489.38334735 437.86183745 491.10212908 437.89648438 492.82074738 C437.9450769 495.29324946 437.96771091 497.76484667 437.98535156 500.23773956 C438.0059967 501.00455048 438.02664185 501.77136139 438.0479126 502.561409 C438.04938094 506.06282991 437.88420794 508.10333383 435.8046875 510.97699738 C433.13431028 512.82136308 430.95074145 513.25511843 427.71224976 513.06697845 C420.00101213 511.01450476 413.82856881 501.39679355 408.83576584 495.68865395 C405.86124696 492.32772678 402.79689369 489.04801882 399.74011803 485.76202488 C397.08958986 482.90359374 394.48440691 480.02212626 391.95703125 477.05390167 C381.47008739 464.79861275 371.40646111 455.09078046 354.70626831 453.46622467 C340.45740194 452.68372522 329.43317603 455.49945891 318.61569214 464.97649384 C312.90752861 470.2960945 307.72056451 476.05697621 302.60614014 481.94098663 C299.63264738 485.31703791 296.54528265 488.58555673 293.46582031 491.86469269 C288.10556404 497.5941977 282.85126122 503.40550515 277.6675415 509.29509735 C274.47402015 512.69730579 272.26675503 512.67543904 267.66503906 512.92914581 C264.53234434 512.28487463 263.52566036 511.0405449 261.59472656 508.50336456 C261.24562607 505.61371336 261.12657036 503.11743746 261.20410156 500.23773956 C261.20976135 499.44434174 261.21542114 498.65094391 261.22125244 497.83350372 C261.2435951 495.30616983 261.29378481 492.78026791 261.34472656 490.25336456 C261.36479442 488.53723925 261.38304469 486.82109164 261.39941406 485.10492706 C261.44345261 480.90385676 261.5124633 476.70385322 261.59472656 472.50336456 C260.52512695 472.52431183 259.45552734 472.54525909 258.35351562 472.56684113 C254.38034483 472.63931082 250.40723231 472.68518919 246.43359375 472.72309113 C244.71474377 472.74319084 242.99596204 472.77047545 241.27734375 472.80512238 C238.80484167 472.8537149 236.33324446 472.87634891 233.86035156 472.89398956 C232.71013519 472.92495728 232.71013519 472.92495728 231.53668213 472.9565506 C228.03526122 472.95801895 225.9947573 472.79284594 223.12109375 470.7133255 C221.27828675 468.04520506 220.84728211 465.85991424 221.02256775 462.62421417 C221.72127924 460.03426545 222.752691 458.79273365 224.56176758 456.81977081 C225.19817169 456.12416046 225.83457581 455.42855011 226.49026489 454.71186066 C230.20591639 450.81252529 233.98899952 446.9872979 237.80957031 443.19086456 C239.09318199 441.90937531 239.09318199 441.90937531 240.40272522 440.60199738 C243.11020037 437.90007594 245.8211491 435.20167097 248.53222656 432.50336456 C250.37946332 430.66114879 252.22647083 428.81870313 254.07324219 426.97602081 C258.57775754 422.48247301 263.08538944 417.99207343 267.59472656 413.50336456 C265.61472656 409.54336456 263.63472656 405.58336456 261.59472656 401.50336456 C260.2087496 401.501898 258.82277264 401.50043144 257.39479637 401.49892044 C224.50043856 401.46322465 191.60618142 401.40699249 158.71190556 401.32544361 C154.66389444 401.31542606 150.6158829 401.30558194 146.56787109 401.29584503 C145.76197897 401.29390366 144.95608684 401.29196229 144.12577374 401.28996208 C131.07391434 401.25893418 118.02207252 401.24195923 104.97018318 401.23017034 C91.57945704 401.21776287 78.18882326 401.19027062 64.79815543 401.1487515 C56.53421761 401.12360448 48.27043295 401.11024816 40.00645633 401.11193499 C34.34086231 401.11196473 28.67542439 401.09735266 23.0098912 401.07120028 C19.74025109 401.05654068 16.47099602 401.05053166 13.20132065 401.05756187 C9.65603548 401.06417056 6.11168847 401.04635454 2.5664978 401.0223465 C1.53341881 401.03010691 0.50033982 401.03786733 -0.56404459 401.04586291 C-6.32948143 400.97656852 -9.96618462 400.55865949 -14.40527344 396.50336456 C-17.7992566 392.15024916 -18.90552627 389.35195179 -18.908638 383.84723663 C-18.91445176 383.20052915 -18.92026553 382.55382166 -18.92625546 381.88751698 C-18.9408386 379.72327697 -18.92697958 377.56017416 -18.91320801 375.39594269 C-18.91781763 373.82761048 -18.92417096 372.2592826 -18.93211699 370.69096375 C-18.94882518 366.38338789 -18.94055724 362.0761662 -18.92817211 357.76858902 C-18.91913002 353.12229505 -18.93308717 348.47606241 -18.9440918 343.82978058 C-18.9618906 334.72854589 -18.95803097 325.62744304 -18.94644123 316.52620316 C-18.93741254 309.1303143 -18.93618047 301.73446243 -18.9405365 294.33856964 C-18.94114943 293.28647765 -18.94176236 292.23438565 -18.94239387 291.15041208 C-18.94367275 289.01319566 -18.94496961 286.87597925 -18.94628423 284.73876286 C-18.95769402 264.69185185 -18.94457007 244.64501398 -18.92308277 224.59811497 C-18.90521144 207.3920157 -18.90831543 190.18602438 -18.92675781 172.97992706 C-18.94815748 153.00539878 -18.95659535 133.03093462 -18.94430876 113.05639648 C-18.94303454 110.92698416 -18.94177706 108.79757183 -18.9405365 106.66815948 C-18.9399194 105.62041178 -18.93930229 104.57266408 -18.93866649 103.49316645 C-18.93521088 96.10503 -18.94104649 88.71693417 -18.95045471 81.32880402 C-18.96166602 72.32674182 -18.95865291 63.32481916 -18.93733174 54.32277298 C-18.92680964 49.72860533 -18.92271921 45.13467045 -18.93592834 40.54050446 C-18.94783411 36.33610584 -18.94131989 32.13215608 -18.92001814 27.92779827 C-18.91554434 26.40567818 -18.91783579 24.88352029 -18.92752129 23.36142445 C-18.93967175 21.29357336 -18.92722682 19.227263 -18.908638 17.15949249 C-18.90798859 16.01067345 -18.90733918 14.8618544 -18.90667009 13.67822266 C-18.08129652 8.45193337 -15.62710525 5.55428483 -11.68060303 2.15982485 C-7.69751416 0.14542345 -4.36152792 -0.0529166 0 0 Z " fill="#EFE6DB" transform="translate(18.4052734375,-0.5033645629882813)"/>
<path d="M0 0 C0.83580534 -0.00581376 1.67161068 -0.01162753 2.53274345 -0.01761746 C5.34015508 -0.03224329 8.14669596 -0.01832019 10.95410156 -0.00457001 C12.98441007 -0.00917789 15.01471525 -0.01553005 17.04501343 -0.02347898 C22.62953845 -0.04021076 28.21379082 -0.03190836 33.79831696 -0.01953411 C39.8188514 -0.01050172 45.83933823 -0.02444435 51.85986328 -0.0354538 C62.97410283 -0.05223318 74.08826718 -0.05074998 85.20250726 -0.03980792 C95.4696496 -0.02974935 105.73676 -0.02711718 116.00390625 -0.0318985 C117.02510539 -0.03235681 117.02510539 -0.03235681 118.06693482 -0.03282438 C120.83045758 -0.03406971 123.59398033 -0.03534331 126.35750306 -0.03666343 C152.28635849 -0.04890198 178.21515843 -0.03780156 204.1440053 -0.01627585 C227.18490045 0.00270687 250.22570718 0.00100837 273.26660156 -0.01811981 C299.1477494 -0.03953406 325.02884819 -0.04803406 350.91000366 -0.03567076 C353.66851806 -0.03438787 356.42703246 -0.03313651 359.18554688 -0.0318985 C359.86477337 -0.03158219 360.54399987 -0.03126588 361.24380898 -0.03093999 C371.50500068 -0.02638832 381.76615696 -0.03171449 392.02734375 -0.04181671 C403.69370525 -0.05324501 415.35998258 -0.05002744 427.02633476 -0.02869374 C432.98146366 -0.01816367 438.93641286 -0.01409491 444.89154053 -0.02729034 C450.33938626 -0.03917939 455.78688514 -0.03270918 461.23469925 -0.01138014 C463.20903809 -0.00689928 465.18340604 -0.00921341 467.15772629 -0.01888329 C469.83538893 -0.03099546 472.51185366 -0.01862507 475.18945312 0 C475.96131392 -0.00936466 476.73317471 -0.01872933 477.52842522 -0.02837777 C482.71669358 0.04406589 485.6679075 1.12583443 489.59472656 4.50336456 C493.12410229 8.77136246 494.09498276 11.66073197 494.09809113 17.15949249 C494.10390489 17.80619998 494.10971865 18.45290747 494.11570859 19.11921215 C494.13029172 21.28345216 494.11643271 23.44655496 494.10266113 25.61078644 C494.10727075 27.17911864 494.11362408 28.74744653 494.12157011 30.31576538 C494.1382783 34.62334124 494.13001037 38.93056292 494.11762524 43.23814011 C494.10858315 47.88443408 494.12254029 52.53066672 494.13354492 57.17694855 C494.15134372 66.27818324 494.1474841 75.37928608 494.13589436 84.48052597 C494.12686567 91.87641483 494.12563359 99.2722667 494.12998962 106.66815948 C494.13060256 107.72025148 494.13121549 108.77234347 494.13184699 109.85631704 C494.13312588 111.99353346 494.13442273 114.13074987 494.13573736 116.26796627 C494.14714714 136.31487727 494.13402319 156.36171515 494.11253589 176.40861416 C494.09466456 193.61471342 494.09776856 210.82070475 494.11621094 228.02680206 C494.1376106 248.00133034 494.14604847 267.9757945 494.13376188 287.95033264 C494.13248767 290.07974496 494.13123019 292.2091573 494.12998962 294.33856964 C494.12937252 295.38631734 494.12875542 296.43406505 494.12811962 297.51356268 C494.12466401 304.90169913 494.13049961 312.28979495 494.13990784 319.67792511 C494.15111915 328.67998731 494.14810604 337.68190996 494.12678486 346.68395615 C494.11626277 351.27812379 494.11217234 355.87205868 494.12538147 360.46622467 C494.13728724 364.67062329 494.13077302 368.87457305 494.10947126 373.07893085 C494.10499747 374.60105094 494.10728892 376.12320883 494.11697441 377.64530468 C494.12912488 379.71315577 494.11667994 381.77946612 494.09809113 383.84723663 C494.09744172 384.99605568 494.09679231 386.14487473 494.09612322 387.32850647 C493.29836155 392.37995638 490.73632116 395.47111976 487.01025391 398.84027863 C482.27147985 401.14767883 478.15398395 401.10617865 472.94628906 401.11273956 C471.93376068 401.12927582 470.9212323 401.14581207 469.87802124 401.16284943 C466.65852752 401.21125726 463.43950595 401.23268487 460.21972656 401.25336456 C458.03090082 401.2815302 455.842097 401.31145845 453.65332031 401.34320831 C448.3004946 401.41701469 442.94792989 401.46663372 437.59472656 401.50336456 C435.61472656 405.46336456 433.63472656 409.42336456 431.59472656 413.50336456 C432.95267334 414.85607452 434.31062012 416.20878448 435.7097168 417.60248566 C440.19011701 422.06677665 444.66821052 426.53337093 449.14472866 431.00155449 C451.85956831 433.71117012 454.5753326 436.41984546 457.29321289 439.12641144 C459.91487904 441.73723167 462.53411225 444.35046977 465.15165901 446.96541977 C466.15195065 447.96386025 467.15312365 448.96141852 468.15517998 449.95808792 C469.55588042 451.35155543 470.95319457 452.74842432 472.3503418 454.14545441 C473.14754135 454.94043335 473.94474091 455.73541229 474.76609802 456.55448151 C477.75298026 459.7377875 477.78271128 462.11991494 478.02050781 466.43305206 C477.37623663 469.56574678 476.1319069 470.57243077 473.59472656 472.50336456 C470.70507536 472.85246506 468.20879946 472.97152076 465.32910156 472.89398956 C464.53570374 472.88832977 463.74230591 472.88266998 462.92486572 472.87683868 C460.39753183 472.85449603 457.87162991 472.80430632 455.34472656 472.75336456 C453.62860125 472.73329671 451.91245364 472.71504643 450.19628906 472.69867706 C445.99521876 472.65463851 441.79521522 472.58562782 437.59472656 472.50336456 C437.62614746 474.10776398 437.62614746 474.10776398 437.65820312 475.7445755 C437.73067282 479.71774629 437.77655119 483.69085882 437.81445312 487.66449738 C437.83455284 489.38334735 437.86183745 491.10212908 437.89648438 492.82074738 C437.9450769 495.29324946 437.96771091 497.76484667 437.98535156 500.23773956 C438.0059967 501.00455048 438.02664185 501.77136139 438.0479126 502.561409 C438.04938094 506.06282991 437.88420794 508.10333383 435.8046875 510.97699738 C433.13431028 512.82136308 430.95074145 513.25511843 427.71224976 513.06697845 C420.00101213 511.01450476 413.82856881 501.39679355 408.83576584 495.68865395 C405.86124696 492.32772678 402.79689369 489.04801882 399.74011803 485.76202488 C397.08958986 482.90359374 394.48440691 480.02212626 391.95703125 477.05390167 C381.47008739 464.79861275 371.40646111 455.09078046 354.70626831 453.46622467 C340.45740194 452.68372522 329.43317603 455.49945891 318.61569214 464.97649384 C312.90752861 470.2960945 307.72056451 476.05697621 302.60614014 481.94098663 C299.63264738 485.31703791 296.54528265 488.58555673 293.46582031 491.86469269 C288.10556404 497.5941977 282.85126122 503.40550515 277.6675415 509.29509735 C274.47402015 512.69730579 272.26675503 512.67543904 267.66503906 512.92914581 C264.53234434 512.28487463 263.52566036 511.0405449 261.59472656 508.50336456 C261.24562607 505.61371336 261.12657036 503.11743746 261.20410156 500.23773956 C261.20976135 499.44434174 261.21542114 498.65094391 261.22125244 497.83350372 C261.2435951 495.30616983 261.29378481 492.78026791 261.34472656 490.25336456 C261.36479442 488.53723925 261.38304469 486.82109164 261.39941406 485.10492706 C261.44345261 480.90385676 261.5124633 476.70385322 261.59472656 472.50336456 C260.52512695 472.52431183 259.45552734 472.54525909 258.35351562 472.56684113 C254.38034483 472.63931082 250.40723231 472.68518919 246.43359375 472.72309113 C244.71474377 472.74319084 242.99596204 472.77047545 241.27734375 472.80512238 C238.80484167 472.8537149 236.33324446 472.87634891 233.86035156 472.89398956 C232.71013519 472.92495728 232.71013519 472.92495728 231.53668213 472.9565506 C228.03526122 472.95801895 225.9947573 472.79284594 223.12109375 470.7133255 C221.27828675 468.04520506 220.84728211 465.85991424 221.02256775 462.62421417 C221.72127924 460.03426545 222.752691 458.79273365 224.56176758 456.81977081 C225.19817169 456.12416046 225.83457581 455.42855011 226.49026489 454.71186066 C230.20591639 450.81252529 233.98899952 446.9872979 237.80957031 443.19086456 C239.09318199 441.90937531 239.09318199 441.90937531 240.40272522 440.60199738 C243.11020037 437.90007594 245.8211491 435.20167097 248.53222656 432.50336456 C250.37946332 430.66114879 252.22647083 428.81870313 254.07324219 426.97602081 C258.57775754 422.48247301 263.08538944 417.99207343 267.59472656 413.50336456 C265.61472656 409.54336456 263.63472656 405.58336456 261.59472656 401.50336456 C260.2087496 401.501898 258.82277264 401.50043144 257.39479637 401.49892044 C224.50043856 401.46322465 191.60618142 401.40699249 158.71190556 401.32544361 C154.66389444 401.31542606 150.6158829 401.30558194 146.56787109 401.29584503 C145.76197897 401.29390366 144.95608684 401.29196229 144.12577374 401.28996208 C131.07391434 401.25893418 118.02207252 401.24195923 104.97018318 401.23017034 C91.57945704 401.21776287 78.18882326 401.19027062 64.79815543 401.1487515 C56.53421761 401.12360448 48.27043295 401.11024816 40.00645633 401.11193499 C34.34086231 401.11196473 28.67542439 401.09735266 23.0098912 401.07120028 C19.74025109 401.05654068 16.47099602 401.05053166 13.20132065 401.05756187 C9.65603548 401.06417056 6.11168847 401.04635454 2.5664978 401.0223465 C1.53341881 401.03010691 0.50033982 401.03786733 -0.56404459 401.04586291 C-6.32948143 400.97656852 -9.96618462 400.55865949 -14.40527344 396.50336456 C-17.7992566 392.15024916 -18.90552627 389.35195179 -18.908638 383.84723663 C-18.91445176 383.20052915 -18.92026553 382.55382166 -18.92625546 381.88751698 C-18.9408386 379.72327697 -18.92697958 377.56017416 -18.91320801 375.39594269 C-18.91781763 373.82761048 -18.92417096 372.2592826 -18.93211699 370.69096375 C-18.94882518 366.38338789 -18.94055724 362.0761662 -18.92817211 357.76858902 C-18.91913002 353.12229505 -18.93308717 348.47606241 -18.9440918 343.82978058 C-18.9618906 334.72854589 -18.95803097 325.62744304 -18.94644123 316.52620316 C-18.93741254 309.1303143 -18.93618047 301.73446243 -18.9405365 294.33856964 C-18.94114943 293.28647765 -18.94176236 292.23438565 -18.94239387 291.15041208 C-18.94367275 289.01319566 -18.94496961 286.87597925 -18.94628423 284.73876286 C-18.95769402 264.69185185 -18.94457007 244.64501398 -18.92308277 224.59811497 C-18.90521144 207.3920157 -18.90831543 190.18602438 -18.92675781 172.97992706 C-18.94815748 153.00539878 -18.95659535 133.03093462 -18.94430876 113.05639648 C-18.94303454 110.92698416 -18.94177706 108.79757183 -18.9405365 106.66815948 C-18.9399194 105.62041178 -18.93930229 104.57266408 -18.93866649 103.49316645 C-18.93521088 96.10503 -18.94104649 88.71693417 -18.95045471 81.32880402 C-18.96166602 72.32674182 -18.95865291 63.32481916 -18.93733174 54.32277298 C-18.92680964 49.72860533 -18.92271921 45.13467045 -18.93592834 40.54050446 C-18.94783411 36.33610584 -18.94131989 32.13215608 -18.92001814 27.92779827 C-18.91554434 26.40567818 -18.91783579 24.88352029 -18.92752129 23.36142445 C-18.93967175 21.29357336 -18.92722682 19.227263 -18.908638 17.15949249 C-18.90798859 16.01067345 -18.90733918 14.8618544 -18.90667009 13.67822266 C-18.08129652 8.45193337 -15.62710525 5.55428483 -11.68060303 2.15982485 C-7.69751416 0.14542345 -4.36152792 -0.0529166 0 0 Z M45.59472656 37.50336456 C44.97334175 39.61768546 44.97334175 39.61768546 45.09472656 41.75336456 C44.68717068 48.36237891 41.65178342 53.96199194 36.71972656 58.37836456 C30.98722914 62.27646281 25.60770052 63.86496591 18.82910156 64.78070831 C15.90179161 65.72747814 15.19639811 66.91108867 13.59472656 69.50336456 C13.14846087 71.70096644 13.14846087 71.70096644 13.21161652 74.07334042 C13.20255988 74.99087076 13.19350324 75.9084011 13.18417215 76.85373539 C13.18950008 77.85810188 13.194828 78.86246837 13.20031738 79.8972702 C13.19422628 80.96705079 13.18813518 82.03683138 13.18185949 83.13902956 C13.16516569 86.73576047 13.1700145 90.33213983 13.17480469 93.92890167 C13.16746811 96.50263082 13.15888309 99.07635666 13.1491394 101.65007782 C13.12807444 107.92243493 13.12354514 114.19469962 13.12532729 120.46708792 C13.12663433 125.56469228 13.12283377 130.66226778 13.11540222 135.75986671 C13.11330306 137.22757818 13.11120545 138.69528965 13.1091094 140.16300112 C13.10806587 140.89349405 13.10702235 141.62398699 13.1059472 142.37661607 C13.0870407 156.19525209 13.08809634 170.01383505 13.09491652 183.83247865 C13.10049293 196.47745557 13.07966324 209.12222994 13.04655606 221.76715951 C13.01283344 234.74778021 12.99764888 247.72830384 13.00227308 260.70896918 C13.00451915 267.9979355 12.99925467 275.2867146 12.97438049 282.57564354 C12.95119373 289.42851014 12.95393265 296.2809477 12.97430801 303.13382149 C12.97773051 305.65215505 12.97257611 308.17051669 12.95832443 310.68881226 C12.94024015 314.12053189 12.95280219 317.55080086 12.9732666 320.98247528 C12.96074875 321.98461105 12.94823091 322.98674682 12.93533373 324.01925033 C12.99483672 328.6570648 13.07116973 330.8078135 15.92922211 334.6047678 C19.14712311 336.8968279 21.50819348 337.35390807 25.40722656 337.87836456 C33.15383951 339.33034751 37.4454192 341.96873137 41.92675781 348.42133331 C44.33343257 352.68191301 45.03722848 356.45481782 45.02832031 361.32758331 C45.9405865 364.83194377 47.80481588 366.25786288 50.59472656 368.50336456 C53.56037604 368.98534901 55.94417964 369.16021315 58.90266418 369.10463715 C59.73589744 369.10890927 60.56913069 369.11318139 61.42761344 369.11758298 C64.21799659 369.12581506 67.00687464 369.09832502 69.79711914 369.07099152 C71.79783086 369.06958109 73.79854516 369.07037292 75.79925537 369.07320404 C81.23083065 369.07463981 86.6618549 369.04522364 92.09330201 369.01033425 C97.76942295 368.97909773 103.44555625 368.97614214 109.12174988 368.97020721 C119.8704514 368.95466086 130.61889893 368.91362149 141.36748856 368.86345977 C153.60433703 368.80759109 165.84119757 368.780086 178.07814181 368.75498259 C203.25047759 368.7027065 228.42258785 368.61474864 253.59472656 368.50336456 C253.65635483 367.20263504 253.71798309 365.90190552 253.78147888 364.56175995 C253.86677514 362.83615093 253.95223826 361.11055016 254.0378418 359.38495636 C254.077911 358.52990257 254.11798019 357.67484879 254.15926361 356.79388428 C254.47647956 350.49566619 255.17686827 344.45672078 256.65722656 338.31586456 C256.8734668 337.40006622 257.08970703 336.48426788 257.3125 335.54071808 C259.5184946 326.83160353 262.94966874 319.16728923 267.59472656 311.50336456 C267.94019531 310.92795929 268.28566406 310.35255402 268.64160156 309.75971222 C281.6563824 288.55606042 302.39842961 273.59496076 326.51904297 267.60102081 C351.89162982 261.91540331 378.20795773 266.39375732 400.59472656 279.50336456 C421.8204708 293.39084035 436.88329424 313.70805981 442.59472656 338.50336456 C444.65900813 338.24646276 446.7211375 337.9722341 448.78222656 337.69086456 C449.93078125 337.54004425 451.07933594 337.38922394 452.26269531 337.23383331 C455.66174558 336.48867223 457.82727834 335.59286386 460.59472656 333.50336456 C461.53202857 330.69145853 461.72314838 328.98094733 461.73174095 326.07205391 C461.73935277 324.70397006 461.73935277 324.70397006 461.74711835 323.30824816 C461.74761611 322.30485978 461.74811387 321.3014714 461.74862671 320.26767731 C461.75300896 319.2028347 461.75739122 318.13799208 461.76190627 317.04088151 C461.77531418 313.45496916 461.78147755 309.8690814 461.78759766 306.28314972 C461.79549688 303.71942279 461.80376572 301.15569698 461.81237793 298.59197235 C461.83634813 290.88679903 461.85152614 283.18162692 461.864438 275.47642809 C461.86814994 273.30070378 461.87212315 271.1249801 461.87619066 268.94925642 C461.90142274 255.4413469 461.92347804 241.93343638 461.93591881 228.4255085 C461.93884854 225.29716361 461.9418102 222.16881875 461.94482422 219.04047394 C461.94594329 217.87416034 461.94594329 217.87416034 461.94708498 216.68428485 C461.95974567 204.08129116 461.99297917 191.47843833 462.03462605 178.87551053 C462.07702173 165.9401385 462.10061092 153.00483866 462.10583937 140.06939733 C462.10925575 132.80498699 462.12103771 125.54079695 462.15394211 118.27645493 C462.18483144 111.44579241 462.19037284 104.6155203 462.17855835 97.78479958 C462.17833673 95.2745184 462.18671407 92.76421991 462.20421219 90.25399971 C462.22676451 86.83320392 462.21867236 83.41382015 462.20272827 79.9930191 C462.21661036 78.99409217 462.23049245 77.99516523 462.2447952 76.96596777 C462.19115115 72.31155676 462.11959497 70.19494774 459.23372841 66.39243889 C456.22313064 64.23736539 454.44307231 63.83934845 450.78222656 63.56586456 C443.25543872 62.58451215 439.32446065 59.37676886 434.21972656 54.00336456 C430.9544433 48.97985185 430.19410069 43.60115772 429.35253906 37.77289581 C428.35564223 34.78734396 427.29553225 34.09341776 424.59472656 32.50336456 C421.62439662 32.05146105 421.62439662 32.05146105 418.2756052 32.12025452 C416.96793456 32.11119788 415.66026391 32.10214124 414.31296688 32.09281015 C412.85826619 32.0979147 411.40356648 32.10330681 409.9488678 32.10895538 C408.40629918 32.10406828 406.86373422 32.09787932 405.32117552 32.09049749 C401.07562261 32.07405192 396.83025483 32.07642524 392.58468115 32.08187246 C388.00858427 32.08453698 383.43253738 32.07002181 378.85646057 32.0577774 C369.8890012 32.03669702 360.92160645 32.03218403 351.95412523 32.03396529 C344.66735537 32.03527155 337.38060571 32.03147574 330.09383965 32.02404022 C327.99702611 32.02194109 325.90021257 32.01984349 323.80339903 32.0177474 C322.23806967 32.01618211 322.23806967 32.01618211 320.64111751 32.0145852 C300.89375221 31.99567247 281.14642405 31.99673626 261.39905345 32.00355452 C243.32221934 32.00913138 225.2455269 31.9883003 207.16872592 31.95519406 C188.61940935 31.92148537 170.07016071 31.90628516 151.52081293 31.91091108 C141.10195324 31.91315855 130.68322452 31.90787209 120.26439095 31.88301849 C111.3950887 31.86204183 102.52598921 31.85837719 93.65667874 31.87731808 C89.12942499 31.88649825 84.60254966 31.88754956 80.07532501 31.86696243 C75.93312056 31.84833406 71.79160662 31.85266348 67.64942914 31.87550825 C66.14879577 31.87971472 64.64811029 31.8754256 63.14753187 31.86191231 C61.11164732 31.84482303 59.07556271 31.86140268 57.03968906 31.87974548 C55.90763273 31.8794731 54.77557639 31.87920072 53.60921532 31.87892008 C49.64254859 32.70060606 48.12773278 34.41816984 45.59472656 37.50336456 Z " fill="#BEBEBE" transform="translate(18.4052734375,-0.5033645629882813)"/>
<path d="M0 0 C19.81227416 16.83516382 32.84519629 38.37145893 35.9375 64.49609375 C37.35775753 85.88954213 33.4969621 105.49192558 23.85571289 124.67871094 C23.4962709 125.39484558 23.13682892 126.11098022 22.76649475 126.84881592 C22.35614235 127.66421844 22.35614235 127.66421844 21.9375 128.49609375 C22.77981422 129.33507706 22.77981422 129.33507706 23.6391449 130.19100952 C28.9244244 135.45627219 34.20730855 140.72392103 39.4875021 145.99428368 C42.20234175 148.70389931 44.91810604 151.41257464 47.63598633 154.11914062 C50.25765248 156.72996086 52.87688568 159.34319896 55.49443245 161.95814896 C56.49472409 162.95658944 57.49589709 163.95414771 58.49795341 164.95081711 C59.89865386 166.34428462 61.29596801 167.74115351 62.69311523 169.13818359 C63.88891457 170.33065201 63.88891457 170.33065201 65.10887146 171.54721069 C68.0957537 174.73051669 68.12548472 177.11264412 68.36328125 181.42578125 C67.71901007 184.55847597 66.47468034 185.56515996 63.9375 187.49609375 C61.0478488 187.84519425 58.5515729 187.96424995 55.671875 187.88671875 C54.87847717 187.88105896 54.08507935 187.87539917 53.26763916 187.86956787 C50.74030527 187.84722522 48.21440335 187.79703551 45.6875 187.74609375 C43.97137468 187.72602589 42.25522708 187.70777562 40.5390625 187.69140625 C36.3379922 187.6473677 32.13798865 187.57835701 27.9375 187.49609375 C27.95844727 188.56569336 27.97939453 189.63529297 28.00097656 190.73730469 C28.07344626 194.71047548 28.11932463 198.683588 28.15722656 202.65722656 C28.17732628 204.37607654 28.20461089 206.09485827 28.23925781 207.81347656 C28.28785034 210.28597864 28.31048435 212.75757585 28.328125 215.23046875 C28.34877014 215.99727966 28.36941528 216.76409058 28.39068604 217.55413818 C28.39215438 221.0555591 28.22698138 223.09606302 26.14746094 225.96972656 C23.47708372 227.81409227 21.29351489 228.24784762 18.05502319 228.05970764 C10.34378556 226.00723395 4.17134225 216.38952274 -0.82146072 210.68138313 C-3.7959796 207.32045597 -6.86033287 204.040748 -9.91710854 200.75475407 C-12.5676367 197.89632293 -15.17281965 195.01485545 -17.70019531 192.04663086 C-28.18713918 179.79134194 -38.25076545 170.08350965 -54.95095825 168.45895386 C-69.19982462 167.6764544 -80.22405053 170.4921881 -91.04153442 179.96922302 C-96.74969795 185.28882369 -101.93666206 191.04970539 -107.05108643 196.93371582 C-110.02457919 200.3097671 -113.11194392 203.57828592 -116.19140625 206.85742188 C-121.55166252 212.58692689 -126.80596535 218.39823434 -131.98968506 224.28782654 C-135.18320641 227.69003498 -137.39047154 227.66816823 -141.9921875 227.921875 C-145.12488222 227.27760382 -146.13156621 226.03327409 -148.0625 223.49609375 C-148.4116005 220.60644255 -148.5306562 218.11016665 -148.453125 215.23046875 C-148.44746521 214.43707092 -148.44180542 213.6436731 -148.43597412 212.82623291 C-148.41363147 210.29889902 -148.36344176 207.7729971 -148.3125 205.24609375 C-148.29243214 203.52996843 -148.27418187 201.81382083 -148.2578125 200.09765625 C-148.21377395 195.89658595 -148.14476326 191.6965824 -148.0625 187.49609375 C-149.13209961 187.51704102 -150.20169922 187.53798828 -151.30371094 187.55957031 C-155.27688173 187.63204001 -159.24999425 187.67791838 -163.22363281 187.71582031 C-164.94248279 187.73592003 -166.66126452 187.76320464 -168.37988281 187.79785156 C-170.85238489 187.84644409 -173.3239821 187.8690781 -175.796875 187.88671875 C-176.94709137 187.91768646 -176.94709137 187.91768646 -178.12054443 187.94927979 C-181.62196535 187.95074813 -183.66246927 187.78557513 -186.53613281 185.70605469 C-188.37893981 183.03793425 -188.80994445 180.85264343 -188.63465881 177.61694336 C-187.93594732 175.02699463 -186.90453556 173.78546283 -185.09545898 171.8125 C-184.14085281 170.76908447 -184.14085281 170.76908447 -183.16696167 169.70458984 C-179.45131017 165.80525448 -175.66822704 161.98002709 -171.84765625 158.18359375 C-170.99191513 157.32926758 -170.13617401 156.47494141 -169.25450134 155.59472656 C-166.54702619 152.89280513 -163.83607746 150.19440016 -161.125 147.49609375 C-159.27776325 145.65387798 -157.43075573 143.81143232 -155.58398438 141.96875 C-151.07946997 137.47520314 -146.57210595 132.98453055 -142.0625 128.49609375 C-142.47441589 127.69011749 -142.88633179 126.88414124 -143.31072998 126.05374146 C-143.85110901 124.98687103 -144.39148804 123.92000061 -144.94824219 122.82080078 C-145.48390808 121.76732452 -146.01957397 120.71384827 -146.57147217 119.62844849 C-148.62249845 115.3196477 -150.0256445 110.95551647 -151.3125 106.37109375 C-151.55484375 105.55511719 -151.7971875 104.73914063 -152.046875 103.8984375 C-158.9776135 80.05519039 -158.11280526 54.23409686 -146.27612305 31.9855957 C-145.23594008 30.1351851 -144.16143201 28.31215511 -143.0625 26.49609375 C-142.38316406 25.36945313 -141.70382812 24.2428125 -141.00390625 23.08203125 C-127.07284725 1.66143044 -105.69657668 -13.35125126 -80.75 -18.94140625 C-52.61992769 -24.62818671 -22.5656935 -17.79448969 0 0 Z " fill="#8B8B8B" transform="translate(428.0625,284.50390625)"/>
<path d="M0 0 C1.03485039 -0.00384115 2.06970078 -0.00768229 3.13591027 -0.01163983 C4.85445014 -0.01034011 4.85445014 -0.01034011 6.60770798 -0.00901413 C7.81799848 -0.01198525 9.02828899 -0.01495637 10.27525496 -0.01801753 C13.64543563 -0.02521355 17.01556534 -0.02787807 20.38575006 -0.028615 C24.01640793 -0.03046256 27.64705468 -0.03800844 31.27770615 -0.04475021 C39.22195057 -0.05834691 47.16618995 -0.06436047 55.11044407 -0.06876087 C60.06912531 -0.07152131 65.0278046 -0.07575833 69.98648453 -0.08026505 C83.71021146 -0.09245998 97.43393683 -0.10275851 111.15766907 -0.10614014 C112.03646999 -0.1063597 112.91527092 -0.10657927 113.82070218 -0.10680549 C114.70163278 -0.10702377 115.58256337 -0.10724204 116.49018884 -0.10746694 C118.27535391 -0.10791041 120.06051898 -0.10835697 121.84568405 -0.10880661 C122.73119177 -0.10902804 123.61669949 -0.10924947 124.52904078 -0.10947761 C138.87733918 -0.11342558 153.22558679 -0.13087855 167.57386556 -0.15416613 C182.29802146 -0.17787123 197.02215187 -0.19034162 211.74632716 -0.19150805 C220.01620164 -0.19242535 228.28600997 -0.19819114 236.55586624 -0.21632767 C243.59818557 -0.23171738 250.64041832 -0.23685586 257.68275127 -0.22858956 C261.27639659 -0.22467888 264.8698675 -0.2256328 268.46349144 -0.23964691 C272.35872582 -0.25469835 276.25371382 -0.24653153 280.14896774 -0.23606491 C281.2857381 -0.24412132 282.42250845 -0.25217772 283.5937264 -0.26047826 C289.9761912 -0.22024082 294.88482914 0.09993592 299.7768364 4.66658401 C303.93358592 10.10233339 304.30244815 13.35075563 304.33543015 20.08455276 C304.34113022 20.97753067 304.34683029 21.87050858 304.35270309 22.79054642 C304.36216 24.68362109 304.36868981 26.57671229 304.37253952 28.46980667 C304.38221989 31.35600752 304.41322605 34.24148865 304.44480515 37.12752151 C304.45133778 38.96736104 304.45658723 40.80720566 304.46043015 42.64705276 C304.47277695 43.50663589 304.48512375 44.36621902 304.4978447 45.25185013 C304.47665524 50.99874411 303.65984715 55.36034656 299.63230515 59.77595901 C295.33404987 63.12277757 292.52267618 64.25492903 287.14156246 64.26564884 C286.10472102 64.27010669 285.06787959 64.27456453 283.99961871 64.27915746 C282.85683831 64.2789731 281.71405791 64.27878873 280.5366478 64.27859879 C279.32550287 64.28227547 278.11435794 64.28595216 276.86651164 64.28974026 C273.4985923 64.29886953 270.1307217 64.30347731 266.76279461 64.30612957 C263.13283411 64.31003205 259.50288774 64.31961033 255.87293625 64.32834244 C247.10434237 64.34810702 238.33574733 64.35817242 229.56713673 64.36707023 C225.43917323 64.37145257 221.31121101 64.37681947 217.18324852 64.3820591 C203.46377167 64.39907031 189.74429562 64.41356541 176.02480984 64.42080784 C172.46436881 64.42271777 168.90392779 64.4246381 165.34348679 64.42659378 C164.01607346 64.42731939 164.01607346 64.42731939 162.66184369 64.42805966 C148.32005897 64.43636347 133.97835755 64.46170678 119.63660922 64.49417446 C104.91694206 64.52722647 90.19731727 64.54525486 75.47761279 64.54845208 C67.21108223 64.55061875 58.94467322 64.55939047 50.67817879 64.58491325 C43.63952731 64.60659479 36.6010269 64.61468323 29.56234583 64.60494647 C25.97066595 64.6003945 22.37929792 64.6023396 18.7876606 64.62170792 C14.8946146 64.6425205 11.00200071 64.63237771 7.10891342 64.61917496 C5.97282519 64.6301442 4.83673695 64.64111345 3.6662218 64.6524151 C-2.50268965 64.60174356 -6.19064346 64.28861214 -10.86769485 60.13142776 C-14.37047129 56.24997279 -15.97155987 53.34975886 -16.04469681 48.12239456 C-16.05753204 47.32113647 -16.07036728 46.51987839 -16.08359146 45.69433975 C-16.09097839 44.83182098 -16.09836533 43.96930222 -16.1059761 43.08064651 C-16.11404785 42.18908356 -16.1221196 41.2975206 -16.13043594 40.37894058 C-16.14426392 38.4918499 -16.15499183 36.60473434 -16.16286087 34.71760941 C-16.18006831 31.84008977 -16.22396473 28.96372096 -16.26808548 26.08650589 C-16.2782134 24.25122786 -16.2867292 22.41594009 -16.2934761 20.58064651 C-16.31098419 19.72420044 -16.32849228 18.86775436 -16.34653091 17.98535538 C-16.32685565 12.53307205 -15.48991146 9.45946978 -11.86769485 5.13142776 C-7.74281109 1.49760159 -5.45519026 0.00757053 0 0 Z " fill="#FEB74F" transform="translate(111.86769485473633,151.86857223510742)"/>
<path d="M0 0 C14.81489071 11.21476867 24.75253219 25.3846095 27.79296875 43.9140625 C30.00126709 62.81162442 25.84498449 79.22309659 14.171875 94.3671875 C5.90318532 104.09766339 -3.71263823 110.5643135 -15.765625 114.69140625 C-17.14814453 115.1709375 -17.14814453 115.1709375 -18.55859375 115.66015625 C-34.54788423 120.4238621 -50.22342322 118.17667431 -65.078125 111.1171875 C-80.47957503 102.68960834 -91.00168528 90.21906672 -96.765625 73.69140625 C-97.0853125 72.80839844 -97.405 71.92539062 -97.734375 71.015625 C-102.86398591 54.9855909 -99.78220628 37.20893978 -92.22802734 22.48095703 C-84.35830681 8.21862357 -71.84351658 -1.46162727 -56.765625 -7.30859375 C-55.5590625 -7.79005859 -55.5590625 -7.79005859 -54.328125 -8.28125 C-36.41750669 -14.29809834 -15.55907626 -10.27435553 0 0 Z " fill="#FEB64F" transform="translate(403.765625,306.30859375)"/>
<path d="M0 0 C3.47551023 1.49235323 5.72315293 3.47518789 8.38549805 6.14257812 C9.24286057 6.99686401 10.10022308 7.8511499 10.98356628 8.73132324 C11.9003566 9.65529907 12.81714691 10.5792749 13.76171875 11.53125 C14.7173117 12.48803569 15.6732753 13.44445131 16.6295929 14.4005127 C18.62898094 16.40146225 20.62497179 18.40571909 22.6184082 20.41259766 C25.17565024 22.9868635 27.73946031 25.55446292 30.30560589 28.11985016 C32.27812332 30.09263922 34.24802603 32.06802145 36.21705055 34.04429626 C37.62144939 35.45342917 39.02735336 36.86106149 40.43327332 38.26867676 C41.28117935 39.12296265 42.12908539 39.97724854 43.00268555 40.85742188 C43.7522905 41.61083862 44.50189545 42.36425537 45.2742157 43.14050293 C48.18078957 46.27227646 48.19339878 48.71475027 48.42578125 52.9296875 C47.78151007 56.06238222 46.53718034 57.06906621 44 59 C41.1103488 59.3491005 38.6140729 59.4681562 35.734375 59.390625 C34.94097717 59.38496521 34.14757935 59.37930542 33.33013916 59.37347412 C30.80280527 59.35113147 28.27690335 59.30094176 25.75 59.25 C24.03387468 59.22993214 22.31772708 59.21168187 20.6015625 59.1953125 C16.4004922 59.15127395 12.20048865 59.08226326 8 59 C8.0314209 60.60439941 8.0314209 60.60439941 8.06347656 62.24121094 C8.13594626 66.21438173 8.18182463 70.18749425 8.21972656 74.16113281 C8.23982628 75.87998279 8.26711089 77.59876452 8.30175781 79.31738281 C8.35035034 81.78988489 8.37298435 84.2614821 8.390625 86.734375 C8.41127014 87.50118591 8.43191528 88.26799683 8.45318604 89.05804443 C8.45465438 92.55946535 8.28948138 94.59996927 6.20996094 97.47363281 C3.53769897 99.31930027 1.35267288 99.75126166 -1.88769531 99.56388855 C-4.42687351 98.88604434 -5.61190657 97.93622167 -7.546875 96.1652832 C-8.24329102 95.52805328 -8.93970703 94.89082336 -9.65722656 94.23428345 C-14.33391242 89.77416723 -18.92901743 85.23574446 -23.5 80.66796875 C-24.58708699 79.58410113 -25.67424647 78.50030622 -26.76147461 77.4165802 C-29.02227495 75.16172497 -31.28104275 72.90485624 -33.53857422 70.64672852 C-36.43658676 67.74861345 -39.34147288 64.85749199 -42.24807739 61.96799755 C-44.48702136 59.74013346 -46.72144481 57.50777854 -48.95458984 55.27410316 C-50.0247382 54.20513666 -51.09651258 53.13779547 -52.16992188 52.0721035 C-53.66101455 50.59074936 -55.14570799 49.10326607 -56.62890625 47.61401367 C-57.47525635 46.76908859 -58.32160645 45.92416351 -59.19360352 45.05363464 C-61 43 -61 43 -61 41 C-59.86304688 40.64808594 -58.72609375 40.29617188 -57.5546875 39.93359375 C-34.17053293 32.53158008 -14.03826645 20.67238393 0 0 Z " fill="#FEDAA8" transform="translate(448,413)"/>
<path d="M0 0 C3.37192262 1.57212105 4.95832182 2.95140759 7.125 6 C20.97677955 24.26447725 40.70262208 36.03977822 63 41 C61.40514339 44.8920723 58.89469003 47.35275296 55.93945312 50.3034668 C55.42543442 50.81938385 54.91141571 51.3353009 54.38182068 51.86685181 C52.68647334 53.56589515 50.9840485 55.25764568 49.28125 56.94921875 C48.10026199 58.12901438 46.9196437 59.30918021 45.73937988 60.48970032 C43.26764881 62.95986865 40.79259786 65.42664446 38.31494141 67.89086914 C35.13533951 71.05345365 31.9623881 74.22260903 28.79166412 77.39409161 C26.35564461 79.82983959 23.91703055 82.26297554 21.4775238 84.69523048 C20.30630992 85.86325755 19.13570481 87.03189538 17.9657135 88.20114708 C16.33315925 89.83153951 14.69735856 91.45860008 13.06054688 93.0847168 C11.66394836 94.47559761 11.66394836 94.47559761 10.23913574 95.89457703 C6.86360059 99.06853791 4.6684723 99.17227054 0.0703125 99.42578125 C-3.06238222 98.78151007 -4.06906621 97.53718034 -6 95 C-6.3491005 92.1103488 -6.4681562 89.6140729 -6.390625 86.734375 C-6.38496521 85.94097717 -6.37930542 85.14757935 -6.37347412 84.33013916 C-6.35113147 81.80280527 -6.30094176 79.27690335 -6.25 76.75 C-6.22993214 75.03387468 -6.21168187 73.31772708 -6.1953125 71.6015625 C-6.15127395 67.4004922 -6.08226326 63.20048865 -6 59 C-7.06959961 59.02094727 -8.13919922 59.04189453 -9.24121094 59.06347656 C-13.21438173 59.13594626 -17.18749425 59.18182463 -21.16113281 59.21972656 C-22.87998279 59.23982628 -24.59876452 59.26711089 -26.31738281 59.30175781 C-28.78988489 59.35035034 -31.2614821 59.37298435 -33.734375 59.390625 C-34.88459137 59.42159271 -34.88459137 59.42159271 -36.05804443 59.45318604 C-39.55946535 59.45465438 -41.59996927 59.28948138 -44.47363281 57.20996094 C-46.31643981 54.5418405 -46.74744445 52.35654968 -46.57215881 49.12084961 C-45.87344732 46.53090088 -44.84203556 45.28936908 -43.03295898 43.31640625 C-42.39655487 42.6207959 -41.76015076 41.92518555 -41.10446167 41.20849609 C-37.38881017 37.30916073 -33.60572704 33.48393334 -29.78515625 29.6875 C-28.50154457 28.40601074 -28.50154457 28.40601074 -27.19200134 27.09863281 C-24.48452619 24.39671138 -21.77357746 21.69830641 -19.0625 19 C-17.21526325 17.15778423 -15.36825573 15.31533857 -13.52148438 13.47265625 C-9.01696997 8.97910939 -4.50960595 4.4884368 0 0 Z " fill="#FEDAA8" transform="translate(286,413)"/>
<path d="M0 0 C0.73986727 -0.00638882 1.47973454 -0.01277764 2.24202204 -0.01936007 C4.716711 -0.03459874 7.18979597 -0.01415803 9.66442871 0.00622559 C11.44028758 0.00272403 13.21614331 -0.00293495 14.99198914 -0.0105896 C19.81233119 -0.02484227 24.63210312 -0.00777134 29.45239067 0.01569557 C34.49625313 0.03579624 39.54009172 0.02992542 44.58398438 0.02758789 C53.05441699 0.02764147 61.5246266 0.04740347 69.99499512 0.07946777 C79.78860712 0.11636091 89.58192696 0.1251434 99.37559938 0.11817026 C108.79586515 0.1118655 118.2160307 0.12261908 127.63627625 0.14213562 C131.64574104 0.1503114 135.65515464 0.15301883 139.66462708 0.15144348 C144.38592849 0.15056468 149.10695217 0.16477968 153.82818031 0.19067001 C155.56118231 0.19783351 157.29421386 0.19991455 159.0272274 0.19655228 C161.39239519 0.19283876 163.75675188 0.20757984 166.12182617 0.22705078 C166.80811301 0.22172286 167.49439984 0.21639493 168.20148325 0.21090555 C172.47091411 0.27157191 175.15680272 1.02426432 178.56091309 3.62145996 C179.96549046 6.4306147 179.80986466 8.5095653 179.56091309 11.62145996 C177.78106904 14.75737566 177.03783102 15.46248732 173.56091309 16.62145996 C171.15201788 16.72518765 168.77156905 16.77362742 166.36233521 16.77536011 C165.25509757 16.78193349 165.25509757 16.78193349 164.1254915 16.78863966 C161.64514117 16.8020241 159.16482637 16.80820566 156.68444824 16.81433105 C154.90888814 16.82223213 153.13332964 16.83050109 151.35777283 16.83911133 C145.52185601 16.86532489 139.68593202 16.88063562 133.84997559 16.89489746 C131.84199392 16.90025691 129.8340123 16.90563441 127.82603073 16.91102982 C119.47575057 16.93265516 111.12547235 16.95139343 102.77517128 16.96265221 C90.80094018 16.97890284 78.82703297 17.01211161 66.85292399 17.06905305 C58.43671904 17.10771419 50.02060088 17.1272802 41.60430944 17.13257277 C36.57550235 17.13623071 31.54704076 17.14829936 26.51832962 17.18067551 C21.78880364 17.2106898 17.05983345 17.2170918 12.33023262 17.20529175 C10.59397246 17.20507047 8.85768699 17.21342 7.12151527 17.23094559 C4.75149026 17.25356855 2.38349256 17.24537647 0.01345825 17.22946167 C-0.67419282 17.24334376 -1.3618439 17.25722584 -2.07033288 17.2715286 C-5.85331919 17.20890172 -7.37641791 16.67179051 -10.36580849 14.27095985 C-12.43908691 11.62145996 -12.43908691 11.62145996 -13.06408691 8.62145996 C-11.58761655 1.5344022 -6.5618994 -0.11968882 0 0 Z " fill="#336699" transform="translate(172.4390869140625,119.3785400390625)"/>
<path d="M0 0 C1.70079964 -0.00832352 1.70079964 -0.00832352 3.43595886 -0.01681519 C7.18364735 -0.02862501 10.93013045 -0.00432053 14.67773438 0.02148438 C17.28177841 0.02319516 19.88582417 0.02313013 22.48986816 0.0213623 C27.94733302 0.02141584 33.40445119 0.04114814 38.86181641 0.07324219 C45.16545045 0.11013354 51.46863051 0.11891739 57.77235842 0.11194468 C63.84380714 0.10563272 69.91507565 0.11662028 75.98649597 0.13591003 C78.56690207 0.14294482 81.14732188 0.14606399 83.72773743 0.1452179 C87.33306708 0.14701417 90.93775069 0.16838292 94.54296875 0.1953125 C95.61117355 0.1923819 96.67937836 0.18945129 97.779953 0.18643188 C106.90331966 0.29165284 106.90331966 0.29165284 110.77148438 3.61523438 C112.17606174 6.42438911 112.02043595 8.50333972 111.77148438 11.61523438 C109.99164033 14.75115008 109.24840231 15.45626173 105.77148438 16.61523438 C104.18415184 16.7148891 102.59301778 16.75875149 101.00259399 16.76913452 C100.02123978 16.77773499 99.03988556 16.78633545 98.02879333 16.79519653 C96.4157003 16.80158646 96.4157003 16.80158646 94.77001953 16.80810547 C93.06965797 16.8203717 93.06965797 16.8203717 91.33494568 16.83288574 C87.57681815 16.8577367 83.81872832 16.87425294 80.06054688 16.88867188 C78.77872906 16.89399555 77.49691124 16.89931923 76.17625046 16.90480423 C70.79065111 16.92603021 65.40506406 16.94516107 60.01943398 16.95642662 C52.30516086 16.97267077 44.59139096 17.0058691 36.87730753 17.06282747 C30.7963042 17.10619564 24.71549835 17.12217123 18.63434982 17.12855911 C16.04831734 17.13528837 13.46229267 17.15055346 10.87636185 17.17444992 C7.26109492 17.20595872 3.64710564 17.20615919 0.03173828 17.19873047 C-1.03960861 17.2151358 -2.11095551 17.23154114 -3.21476746 17.2484436 C-10.45765215 17.18739986 -10.45765215 17.18739986 -14.39321899 14.26626587 C-16.22851562 11.61523438 -16.22851562 11.61523438 -16.85351562 8.61523438 C-14.95432095 -0.50090008 -7.66739512 -0.09520135 0 0 Z " fill="#336699" transform="translate(208.228515625,87.384765625)"/>
<path d="M0 0 C0.9778093 -0.00554901 1.95561859 -0.01109802 2.96305847 -0.01681519 C6.19136748 -0.02861436 9.41827378 -0.00433254 12.64648438 0.02148438 C14.89180436 0.02319546 17.13712635 0.02312982 19.38244629 0.0213623 C24.08670174 0.02301571 28.79048076 0.04171827 33.49462891 0.07324219 C39.52404007 0.11291941 45.55282712 0.11728746 51.58234406 0.10977936 C56.2183402 0.10670954 60.85419609 0.11883071 65.49015808 0.13591003 C67.71330383 0.14294039 69.93646548 0.14606452 72.15962219 0.1452179 C75.26686319 0.14701597 78.37335698 0.16839946 81.48046875 0.1953125 C82.39906174 0.1923819 83.31765472 0.18945129 84.26408386 0.18643188 C89.05386571 0.25042776 92.37603763 0.45115905 96.24023438 3.61523438 C97.64481174 6.42438911 97.48918595 8.50333972 97.24023438 11.61523438 C95.46039033 14.75115008 94.71715231 15.45626173 91.24023438 16.61523438 C89.8556056 16.71340306 88.46683048 16.75861896 87.07876587 16.76913452 C86.23203812 16.77773499 85.38531036 16.78633545 84.51292419 16.79519653 C83.58714066 16.79945648 82.66135712 16.80371643 81.70751953 16.80810547 C80.73000229 16.81628296 79.75248505 16.82446045 78.74534607 16.83288574 C75.50666925 16.85772336 72.26803614 16.87424961 69.02929688 16.88867188 C67.37135164 16.89665739 67.37135164 16.89665739 65.67991257 16.90480423 C59.83218835 16.93152579 53.98448543 16.95090589 48.13671875 16.96533203 C42.09147921 16.98199818 36.04678287 17.02679574 30.00174904 17.07770348 C25.35722206 17.11132053 20.71282508 17.12290327 16.06818771 17.12855911 C13.83940849 17.13528441 11.61063819 17.15053944 9.38197708 17.17444992 C6.2647765 17.20599122 3.14905587 17.20615475 0.03173828 17.19873047 C-0.8899968 17.2151358 -1.81173187 17.23154114 -2.76139832 17.2484436 C-7.25501196 17.20458923 -9.15962973 17.07398583 -12.83267212 14.26626587 C-14.75976562 11.61523438 -14.75976562 11.61523438 -15.38476562 8.61523438 C-13.61716022 0.13072844 -7.26442958 -0.10488857 0 0 Z " fill="#336699" transform="translate(110.759765625,247.384765625)"/>
<path d="M0 0 C0.66569504 -0.00554901 1.33139008 -0.01109802 2.01725769 -0.01681519 C4.20691044 -0.02857861 6.39447797 -0.00437471 8.58398438 0.02148438 C10.11185614 0.02319649 11.63973084 0.02312877 13.16760254 0.0213623 C16.36543997 0.02301365 19.56257476 0.04167599 22.76025391 0.07324219 C26.85265379 0.1129199 30.94413402 0.11728643 35.03668976 0.10977936 C38.19037249 0.1067051 41.3438497 0.11884625 44.4974823 0.13591003 C46.00610565 0.14292529 47.5147523 0.14606636 49.02339172 0.1452179 C51.13450962 0.14702221 53.24453978 0.16845545 55.35546875 0.1953125 C57.15485901 0.20794128 57.15485901 0.20794128 58.99060059 0.2208252 C62.47938538 0.65256382 64.38053785 1.52169287 67.17773438 3.61523438 C68.58231174 6.42438911 68.42668595 8.50333972 68.17773438 11.61523438 C66.39789033 14.75115008 65.65465231 15.45626173 62.17773438 16.61523438 C59.98138324 16.72994826 57.78173889 16.78461539 55.58251953 16.80810547 C54.91711655 16.81628296 54.25171356 16.82446045 53.56614685 16.83288574 C51.36637258 16.85767791 49.16666249 16.87423814 46.96679688 16.88867188 C46.21454205 16.89399555 45.46228722 16.89931923 44.68723679 16.90480423 C40.70686615 16.93150667 36.72652659 16.95089235 32.74609375 16.96533203 C29.45381955 16.97868118 26.16216371 17.00655447 22.87011719 17.04736328 C18.89194295 17.09667402 14.9143303 17.12145046 10.93586349 17.12855911 C9.42158246 17.13527098 7.90731392 17.15049166 6.39320755 17.17444992 C4.27205411 17.20610378 2.15306628 17.20614005 0.03173828 17.19873047 C-1.77670059 17.21086075 -1.77670059 17.21086075 -3.62167358 17.22323608 C-7.75547101 16.43795765 -9.23531615 14.86445309 -11.82226562 11.61523438 C-12.44726562 8.61523438 -12.44726562 8.61523438 -11.82226562 5.61523438 C-8.14529699 1.00473595 -5.84277586 -0.01000643 0 0 Z " fill="#346699" transform="translate(107.822265625,279.384765625)"/>
<path d="M0 0 C3.8125 1.0625 3.8125 1.0625 5.875 2.625 C7.35350395 6.46911028 7.37478838 9.32189896 5.8125 13.0625 C2.14066579 17.97481873 -2.22317167 23.25421728 -8.5 24.5 C-12.1875 24.0625 -12.1875 24.0625 -15.1875 22 C-17.1875 19.0625 -17.1875 19.0625 -17.9375 16.25 C-16.78099653 11.33486027 -13.7082306 8.54752339 -10.1875 5.0625 C-9.68605469 4.5159375 -9.18460937 3.969375 -8.66796875 3.40625 C-5.87450411 0.63587184 -3.8300437 -0.27956523 0 0 Z " fill="#FFC474" transform="translate(297.1875,447.9375)"/>
<path d="M0 0 C5.06598609 2.31463157 9.08784923 6.53795311 12.265625 11.03515625 C13.15235049 14.87763336 13.55306267 17.15368073 12.328125 20.91015625 C9.91388391 23.39755616 7.92477803 24.18843531 4.45703125 24.4375 C0.01968774 23.62280057 -2.71527941 20.16805367 -5.734375 17.03515625 C-6.53875 16.39578125 -7.343125 15.75640625 -8.171875 15.09765625 C-10.5408024 11.97067208 -11.16527573 8.92865215 -10.734375 5.03515625 C-7.98793634 0.69401127 -5.23993117 -1.02998647 0 0 Z " fill="#FFC474" transform="translate(442.734375,447.96484375)"/>
<path d="M0 0 C4.0743356 0.84881992 5.54405875 2.30225596 8 5.625 C8.625 8.625 8.625 8.625 8 11.625 C5.54405875 14.94774404 4.0743356 16.40118008 0 17.25 C-4.0743356 16.40118008 -5.54405875 14.94774404 -8 11.625 C-8.625 8.625 -8.625 8.625 -8 5.625 C-5.54405875 2.30225596 -4.0743356 0.84881992 0 0 Z " fill="#3B6C9C" transform="translate(200,279.375)"/>
<path d="M0 0 C4.0743356 0.84881992 5.54405875 2.30225596 8 5.625 C8.625 8.625 8.625 8.625 8 11.625 C5.54405875 14.94774404 4.0743356 16.40118008 0 17.25 C-4.0743356 16.40118008 -5.54405875 14.94774404 -8 11.625 C-8.625 8.625 -8.625 8.625 -8 5.625 C-5.54405875 2.30225596 -4.0743356 0.84881992 0 0 Z " fill="#3B6C9C" transform="translate(232,247.375)"/>
</svg>
