<?xml version="1.0" encoding="UTF-8"?>
<svg version="1.1" xmlns="http://www.w3.org/2000/svg" width="512" height="512">
<path d="M0 0 C1.8642031 2.25762259 3.12822541 4.10337919 4.5 6.625 C5.26594656 7.91255601 6.03806055 9.19646384 6.81640625 10.4765625 C7.18781738 11.09047852 7.55922852 11.70439453 7.94189453 12.33691406 C13.40121153 20.91764028 23.25852335 26.96754479 32.9765625 29.52734375 C47.46259237 31.79195565 60.98814902 30.23820097 73.109375 21.49609375 C79.44544102 16.48222332 84.35519095 10.11369704 88.25 3.0625 C90 0 90 0 92 -1 C98.41361955 -0.93776496 104.32624005 0.79252905 110.3125 2.9375 C111.58661743 3.38959839 111.58661743 3.38959839 112.88647461 3.85083008 C119.45924 6.26532764 125.78411609 9.09166467 132.0625 12.1875 C132.91303955 12.60314209 133.7635791 13.01878418 134.63989258 13.44702148 C135.43032959 13.84993408 136.2207666 14.25284668 137.03515625 14.66796875 C137.7300415 15.02141357 138.42492676 15.3748584 139.14086914 15.73901367 C141.37376684 17.25351356 142.62286753 18.68128946 144 21 C143.78892986 25.22140288 143.08951672 28.68405864 141.9375 32.75 C139.04071107 44.11602679 141.37790024 55.67134737 146.5078125 66.05078125 C153.63061517 78.02702852 163.53332581 84.85419903 176.8203125 88.84765625 C186.02204931 90.87311144 195.15353796 90.09256542 204 87 C207.0625 86.5625 207.0625 86.5625 210 87 C214.91137896 90.99200753 217.24265608 95.82741085 219.875 101.5 C220.30337158 102.41402588 220.73174316 103.32805176 221.1730957 104.26977539 C224.1932146 110.87455828 226.83533463 117.56737431 229.1875 124.4375 C229.49091309 125.30632812 229.79432617 126.17515625 230.10693359 127.0703125 C231.6035796 131.66206932 232.65949041 135.2606693 231 140 C229.46875 141.43359375 229.46875 141.43359375 227.5 142.4375 C214.51458982 149.7214308 206.0605591 159.18570661 201.1796875 173.38671875 C197.83588758 186.50289167 200.43076997 199.84841906 207.22265625 211.40625 C212.82390667 219.58038248 219.78568621 224.4173958 228.375 228.98046875 C231 231 231 231 232.09375 233.51953125 C231.95012618 238.85156538 230.2467794 243.49222922 228.5 248.5 C228.13559814 249.57137207 227.77119629 250.64274414 227.39575195 251.74658203 C224.91303512 258.86696869 222.0341526 265.45203808 218.453125 272.08984375 C217.06287758 274.87407581 216.20788819 277.43209027 215.4375 280.4375 C214.1437166 285.25545414 211.89628202 288.83988186 208 292 C207.21109375 292.20367187 206.4221875 292.40734375 205.609375 292.6171875 C201.37625419 294.86048805 200.1182523 298.90923955 198.125 303.125 C195.17768005 309.30765163 192.25780365 314.26766769 187.35107422 319.10888672 C185.6234409 321.52707387 185.74546883 323.09384194 186 326 C186.80405273 326.23074219 187.60810547 326.46148437 188.43652344 326.69921875 C249.04327073 344.19822824 249.04327073 344.19822824 258.48828125 359.39453125 C267.37599115 377.30103822 267.17998544 399.13238317 267.1875 418.6875 C267.18899551 419.72665558 267.18899551 419.72665558 267.19052124 420.7868042 C267.18929099 428.33045675 266.83669838 435.46971461 266 443 C198.68 443 131.36 443 62 443 C61.19293382 434.92933816 60.80822107 427.25916696 60.8125 419.1875 C60.81185547 417.92462158 60.81121094 416.66174316 60.81054688 415.3605957 C60.87125141 404.45240554 61.75289357 393.83423715 63 383 C51.12 383 39.24 383 27 383 C27.33 386.0525 27.66 389.105 28 392.25 C28.89534687 401.4221902 29.1923945 410.53611235 29.1875 419.75 C29.18814453 420.9143457 29.18878906 422.07869141 29.18945312 423.27832031 C29.14703168 429.97898101 28.67300615 436.26993849 28 443 C-39.32 443 -106.64 443 -176 443 C-176.66322254 437.6942197 -177.13540373 432.97655661 -177.16796875 427.703125 C-177.17220352 427.03593445 -177.17643829 426.3687439 -177.18080139 425.68133545 C-177.1906157 423.5374916 -177.19073304 421.39386219 -177.1875 419.25 C-177.18689575 418.51523437 -177.1862915 417.78046875 -177.18566895 417.0234375 C-177.0785572 369.03737456 -177.0785572 369.03737456 -164.65234375 354.4140625 C-147.59082512 337.91980664 -118.01380423 332.03727991 -96 326 C-95.74493332 323.09161396 -95.62378637 321.52634615 -97.35327148 319.10668945 C-97.95727783 318.51073975 -98.56128418 317.91479004 -99.18359375 317.30078125 C-103.82558404 312.32713681 -106.40145813 306.73990766 -109.25976562 300.62695312 C-111.80333226 295.47018921 -113.4667694 293.19833756 -119 291 C-123.57671135 286.68253592 -125.55880473 281.82895541 -127.10546875 275.859375 C-128.17411663 272.44343506 -129.66900513 269.3985672 -131.25 266.1875 C-134.28779147 259.91995292 -136.74597627 253.52622877 -139 246.9375 C-139.47228027 245.59884888 -139.47228027 245.59884888 -139.95410156 244.2331543 C-142.85037762 235.52538006 -142.85037762 235.52538006 -141 231 C-138.234375 228.8046875 -138.234375 228.8046875 -134.75 226.875 C-122.20613392 219.80843291 -115.52718636 210.69380336 -111 197 C-108.50747179 184.72666491 -109.84920711 172.05249816 -116.43359375 161.22265625 C-121.52586609 153.99696308 -126.92953014 148.46635653 -134.73828125 144.25390625 C-140.6087398 140.9992997 -140.6087398 140.9992997 -141.8671875 137.78515625 C-142.04321849 134.09368292 -141.19666111 130.92843709 -140.125 127.4375 C-139.90448975 126.70587646 -139.68397949 125.97425293 -139.45678711 125.22045898 C-135.47418659 112.6236803 -129.99379148 98.61470672 -122 88 C-117.43210292 85.71605146 -110.53933391 88.09134843 -105.6875 89.125 C-93.41279477 91.38163105 -81.07004739 88.62981203 -70.6875 81.75 C-61.07606643 74.47606707 -53.66090339 64.20003958 -51.24609375 52.17578125 C-50.27651158 43.60344368 -50.86482679 35.98750906 -53.44140625 27.75390625 C-54.10622447 24.47630594 -53.89252593 22.21578437 -53 19 C-50.32515419 16.88241373 -48.02474861 15.52295035 -45 14 C-44.43748535 13.70867188 -43.8749707 13.41734375 -43.29541016 13.1171875 C-34.73550086 8.71763109 -25.9722744 5.07625554 -16.875 1.9375 C-15.99884033 1.62635254 -15.12268066 1.31520508 -14.2199707 0.99462891 C-9.19960397 -0.66998092 -5.18117193 -1.79741891 0 0 Z M-16.53125 132.8671875 C-30.55937298 149.78485048 -37.16509238 171.00380387 -35.74609375 192.921875 C-33.24255972 215.02514845 -22.70482609 234.17357773 -5.98828125 248.71484375 C1.81335259 254.68079904 11.42648822 260.61132417 21 263 C21.99 262.67 22.98 262.34 24 262 C23.443125 261.319375 22.88625 260.63875 22.3125 259.9375 C17.67773744 254.0500989 14.06467815 248.37987383 10.9375 241.5625 C8.411874 236.1189055 6.31007305 232.55361991 0.76171875 229.9375 C-3.08703481 227.88938281 -4.68265869 223.95202393 -6 220 C-6.0685495 218.10529184 -6.08480372 216.2083166 -6.0625 214.3125 C-6.05347656 213.31863281 -6.04445312 212.32476562 -6.03515625 211.30078125 C-6.02355469 210.54152344 -6.01195312 209.78226562 -6 209 C-4.515 208.505 -4.515 208.505 -3 208 C-3.10658936 206.86739746 -3.10658936 206.86739746 -3.21533203 205.71191406 C-3.53432868 202.22585055 -3.82976447 198.73815307 -4.125 195.25 C-4.23714844 194.06277344 -4.34929687 192.87554687 -4.46484375 191.65234375 C-5.66585882 176.99995987 -3.24833946 163.70651103 5.625 151.6875 C13.75522749 142.2022346 24.51476848 137.8182639 36.5 135.25 C49.67744886 134.30875365 61.84357909 135.2307727 73 143 C73.53496094 143.5465625 74.06992187 144.093125 74.62109375 144.65625 C75.917831 146.23263937 75.917831 146.23263937 78 146 C78.26167969 146.5465625 78.52335937 147.093125 78.79296875 147.65625 C80.1825345 150.35443592 81.71408085 152.9198467 83.3125 155.5 C83.88613281 156.4384375 84.45976562 157.376875 85.05078125 158.34375 C86.88389432 161.1077576 86.88389432 161.1077576 89.60546875 162.96875 C93.89842619 166.61041047 94.2883347 171.55366788 94.75 176.9375 C95.40962139 187.32374196 94.0898844 197.67744741 93 208 C93.99 208.33 94.98 208.66 96 209 C96.47826404 216.22710101 96.38477264 221.99754425 92 228 C89.75299538 230.13465439 88.03169628 231.66170448 85.08203125 232.62890625 C81.82905961 234.77110708 80.74035995 238.11950736 79.1875 241.5625 C76.46679804 247.32262574 73.62665824 252.34109507 69.4453125 257.203125 C67.96373073 259.04509152 66.97773246 260.85468411 66 263 C83.69614673 260.51633028 99.29656573 247.66897294 110 234 C122.33979311 216.68412395 127.91932332 195.99768415 125.375 174.875 C121.71531918 153.71671286 111.29446909 133.91004661 93.91015625 120.90625 C58.23135307 97.53543664 12.65196315 99.8108936 -16.53125 132.8671875 Z " fill="#F2716D" transform="translate(211,35)"/>
<path d="M0 0 C1.8642031 2.25762259 3.12822541 4.10337919 4.5 6.625 C5.26594656 7.91255601 6.03806055 9.19646384 6.81640625 10.4765625 C7.18781738 11.09047852 7.55922852 11.70439453 7.94189453 12.33691406 C13.40121153 20.91764028 23.25852335 26.96754479 32.9765625 29.52734375 C47.46259237 31.79195565 60.98814902 30.23820097 73.109375 21.49609375 C79.44544102 16.48222332 84.35519095 10.11369704 88.25 3.0625 C90 0 90 0 92 -1 C100.50539883 -0.7116814 108.06439866 2.16660347 116 5 C116.36081568 21.95833705 114.74645932 37.84811722 111.5 54.5 C111.28641846 55.60545166 111.07283691 56.71090332 110.8527832 57.84985352 C110.53893677 59.39370728 110.53893677 59.39370728 110.21875 60.96875 C110.03248047 61.89107422 109.84621094 62.81339844 109.65429688 63.76367188 C109 66 109 66 107 68 C106.04222656 67.55269531 105.08445312 67.10539062 104.09765625 66.64453125 C70.76778112 51.37557612 33.78165617 48.11702097 -1 61 C-11.25931529 64.99275579 -21.03328611 69.5551744 -30 76 C-31.010625 76.71542969 -32.02125 77.43085937 -33.0625 78.16796875 C-62.37137207 99.47422127 -80.93970541 131.04305539 -86.60253906 166.79467773 C-87.30165216 172.4326727 -87.47092697 178.07497669 -87.625 183.75 C-87.66367188 184.9359375 -87.70234375 186.121875 -87.7421875 187.34375 C-87.83526085 190.22902375 -87.92108941 193.11431021 -88 196 C-88.80969238 196.32178223 -89.61938477 196.64356445 -90.45361328 196.97509766 C-91.52337402 197.40870605 -92.59313477 197.84231445 -93.6953125 198.2890625 C-94.75250488 198.71396973 -95.80969727 199.13887695 -96.89892578 199.57666016 C-108.95476985 205.11008567 -115.96034718 215.09913311 -121 227 C-123.47734873 234.3985685 -123.33083331 241.29007243 -123 249 C-122.9695459 249.81839355 -122.9390918 250.63678711 -122.90771484 251.47998047 C-122.79318972 254.05362805 -122.62363021 256.61811522 -122.4375 259.1875 C-122.40108398 260.0012207 -122.36466797 260.81494141 -122.32714844 261.65332031 C-121.98774156 266.07534515 -121.98774156 266.07534515 -119.34814453 269.43603516 C-117.21778108 270.71295872 -117.21778108 270.71295872 -114 272 C-114.04640625 271.20078125 -114.0928125 270.4015625 -114.140625 269.578125 C-114.44633423 260.27582983 -113.25165162 251.87747742 -108 244 C-103.75988604 244.47112377 -99.70825096 245.05983982 -95.5625 246.0625 C-75.70051802 250.10222515 -58.85592234 244.33409818 -42 234 C-41.97421875 234.68964844 -41.9484375 235.37929688 -41.921875 236.08984375 C-41.55995302 242.08623287 -40.57138071 246.67509747 -37.92578125 252.0625 C-36.14859007 255.7818537 -35.69985438 258.09956315 -37 262 C-37.068991 264.06145107 -37.08467727 266.12501401 -37.0625 268.1875 C-37.05347656 269.27417969 -37.04445312 270.36085938 -37.03515625 271.48046875 C-37.01775391 272.72763672 -37.01775391 272.72763672 -37 274 C-36.56429687 273.6390625 -36.12859375 273.278125 -35.6796875 272.90625 C-32.59499717 270.5025952 -30.6235727 269.09412418 -26.6875 268.5 C-25.800625 268.665 -24.91375 268.83 -24 269 C-21.51653048 272.72520428 -21.80257992 274.30995969 -22.39453125 278.5859375 C-23.94245722 284.75766814 -27.71884902 289.52555857 -33 293 C-33.99 293.33 -34.98 293.66 -36 294 C-37.36072077 296.48479445 -38.57435091 298.9300501 -39.75 301.5 C-43.0107516 308.34978724 -46.5827038 314.5827038 -52 320 C-52.36760731 322.32817964 -52.70241581 324.6618385 -53 327 C-52.44779785 327.08999268 -51.8955957 327.17998535 -51.32666016 327.27270508 C-43.43994958 328.69250452 -35.95402573 331.12555755 -28.375 333.6875 C-27.71180756 333.91031647 -27.04861511 334.13313293 -26.36532593 334.36270142 C12.16520043 347.34378532 12.16520043 347.34378532 20 360 C31.61685986 384.92722615 30.66905558 416.30944418 28 443 C-39.32 443 -106.64 443 -176 443 C-176.66322254 437.6942197 -177.13540373 432.97655661 -177.16796875 427.703125 C-177.17220352 427.03593445 -177.17643829 426.3687439 -177.18080139 425.68133545 C-177.1906157 423.5374916 -177.19073304 421.39386219 -177.1875 419.25 C-177.18689575 418.51523437 -177.1862915 417.78046875 -177.18566895 417.0234375 C-177.0785572 369.03737456 -177.0785572 369.03737456 -164.65234375 354.4140625 C-147.59082512 337.91980664 -118.01380423 332.03727991 -96 326 C-95.74493332 323.09161396 -95.62378637 321.52634615 -97.35327148 319.10668945 C-97.95727783 318.51073975 -98.56128418 317.91479004 -99.18359375 317.30078125 C-103.82558404 312.32713681 -106.40145813 306.73990766 -109.25976562 300.62695312 C-111.80333226 295.47018921 -113.4667694 293.19833756 -119 291 C-123.57671135 286.68253592 -125.55880473 281.82895541 -127.10546875 275.859375 C-128.17411663 272.44343506 -129.66900513 269.3985672 -131.25 266.1875 C-134.28779147 259.91995292 -136.74597627 253.52622877 -139 246.9375 C-139.47228027 245.59884888 -139.47228027 245.59884888 -139.95410156 244.2331543 C-142.85037762 235.52538006 -142.85037762 235.52538006 -141 231 C-138.234375 228.8046875 -138.234375 228.8046875 -134.75 226.875 C-122.20613392 219.80843291 -115.52718636 210.69380336 -111 197 C-108.50747179 184.72666491 -109.84920711 172.05249816 -116.43359375 161.22265625 C-121.52586609 153.99696308 -126.92953014 148.46635653 -134.73828125 144.25390625 C-140.6087398 140.9992997 -140.6087398 140.9992997 -141.8671875 137.78515625 C-142.04321849 134.09368292 -141.19666111 130.92843709 -140.125 127.4375 C-139.90448975 126.70587646 -139.68397949 125.97425293 -139.45678711 125.22045898 C-135.47418659 112.6236803 -129.99379148 98.61470672 -122 88 C-117.43210292 85.71605146 -110.53933391 88.09134843 -105.6875 89.125 C-93.41279477 91.38163105 -81.07004739 88.62981203 -70.6875 81.75 C-61.07606643 74.47606707 -53.66090339 64.20003958 -51.24609375 52.17578125 C-50.27651158 43.60344368 -50.86482679 35.98750906 -53.44140625 27.75390625 C-54.10622447 24.47630594 -53.89252593 22.21578437 -53 19 C-50.32515419 16.88241373 -48.02474861 15.52295035 -45 14 C-44.43748535 13.70867188 -43.8749707 13.41734375 -43.29541016 13.1171875 C-34.73550086 8.71763109 -25.9722744 5.07625554 -16.875 1.9375 C-15.99884033 1.62635254 -15.12268066 1.31520508 -14.2199707 0.99462891 C-9.19960397 -0.66998092 -5.18117193 -1.79741891 0 0 Z " fill="#FEDA6B" transform="translate(211,35)"/>
<path d="M0 0 C6.34704139 1.91057466 12.10439982 4.36347941 17.9375 7.5 C18.69095703 7.89058594 19.44441406 8.28117187 20.22070312 8.68359375 C20.94064453 9.06644531 21.66058594 9.44929688 22.40234375 9.84375 C23.04679443 10.18599609 23.69124512 10.52824219 24.35522461 10.88085938 C26 12 26 12 28 15 C27.71699352 19.17434561 27.07890764 22.72150243 25.9375 26.75 C23.04071107 38.11602679 25.37790024 49.67134737 30.5078125 60.05078125 C37.63061517 72.02702852 47.53332581 78.85419903 60.8203125 82.84765625 C70.02204931 84.87311144 79.15353796 84.09256542 88 81 C91.0625 80.5625 91.0625 80.5625 94 81 C98.91137896 84.99200753 101.24265608 89.82741085 103.875 95.5 C104.30337158 96.41402588 104.73174316 97.32805176 105.1730957 98.26977539 C108.1932146 104.87455828 110.83533463 111.56737431 113.1875 118.4375 C113.49091309 119.30632812 113.79432617 120.17515625 114.10693359 121.0703125 C115.6035796 125.66206932 116.65949041 129.2606693 115 134 C113.46875 135.43359375 113.46875 135.43359375 111.5 136.4375 C98.51458982 143.7214308 90.0605591 153.18570661 85.1796875 167.38671875 C81.83588758 180.50289167 84.43076997 193.84841906 91.22265625 205.40625 C96.82390667 213.58038248 103.78568621 218.4173958 112.375 222.98046875 C115 225 115 225 116.09375 227.51953125 C115.95012809 232.85149451 114.24693676 237.49232184 112.5 242.5 C112.13777344 243.56412109 111.77554687 244.62824219 111.40234375 245.72460938 C108.56334662 253.8607597 105.22986409 261.49199123 101 269 C100.690625 268.360625 100.38125 267.72125 100.0625 267.0625 C99.1654837 265.06389179 99.1654837 265.06389179 98 264 C95.16926564 263.49830585 95.16926564 263.49830585 92 264 C89.22877725 266.35426499 89.22877725 266.35426499 87 269 C86.34 269.33 85.68 269.66 85 270 C84.12956596 266.99493008 83.86515746 264.31250794 83.875 261.1875 C83.87693359 259.86298828 83.87693359 259.86298828 83.87890625 258.51171875 C84 256 84 256 84.8125 252.5 C85.05787604 247.9196472 83.33301948 245.57315796 81.1484375 241.64453125 C79.32805777 237.45270445 79.57110255 233.47959563 80 229 C78.69289063 229.79664063 78.69289063 229.79664063 77.359375 230.609375 C60.39600827 240.74523217 42.54356064 245.26927491 22.95239258 240.56713867 C19.94727221 239.77068749 16.97047296 238.91777372 14 238 C10.20323764 247.18783619 8.50181011 256.08492447 8 266 C7.40703125 265.67257812 6.8140625 265.34515625 6.203125 265.0078125 C3.3759757 263.71454208 1.07231289 263.86034941 -2 264 C-3.36421031 266.72842061 -2.87807211 268.60953318 -2.5625 271.625 C-2.46066406 272.62789063 -2.35882813 273.63078125 -2.25390625 274.6640625 C-2.17011719 275.43492187 -2.08632813 276.20578125 -2 277 C-6.91803234 275.36250616 -11.83469035 273.72099657 -16.74981689 272.07479858 C-19.63074937 271.11020701 -22.51213083 270.14696049 -25.39355469 269.18383789 C-26.88494402 268.685022 -28.37615425 268.1856703 -29.8671875 267.68579102 C-32.04900071 266.95445297 -34.23146709 266.22509359 -36.4140625 265.49609375 C-37.07153473 265.27521591 -37.72900696 265.05433807 -38.40640259 264.82676697 C-42.57770482 263.43616648 -46.76603165 262.18096083 -51 261 C-50.8671875 259.1484375 -50.8671875 259.1484375 -50 257 C-47.4453125 255.7265625 -47.4453125 255.7265625 -44.125 254.625 C-23.96762136 247.36306228 -8.95587937 233.97373157 1 215 C10.6073365 192.18561611 11.28028014 170.18832664 2 147 C-6.78551445 127.15804178 -22.15807886 113.45391447 -42 105 C-63.07111131 97.49278039 -84.97941971 98.34513383 -105.421875 107.265625 C-111.02474807 109.9814281 -116.03200385 113.2611229 -121 117 C-121.71542969 117.53109375 -122.43085938 118.0621875 -123.16796875 118.609375 C-138.84815548 131.25367727 -148.14348202 151.25912823 -150.53125 170.97265625 C-152.71654978 193.50120984 -145.86074113 214.53596933 -131.625 231.9609375 C-120.91388538 244.58587627 -107.40466525 251.67745785 -92 257 C-92 258.32 -92 259.64 -92 261 C-112.21824532 267.80154275 -112.21824532 267.80154275 -119.9375 270.125 C-126.71588084 272.17096797 -133.35193021 274.56802245 -140 277 C-139.87431641 275.84371094 -139.87431641 275.84371094 -139.74609375 274.6640625 C-139.64425781 273.66117187 -139.54242188 272.65828125 -139.4375 271.625 C-139.33308594 270.62726563 -139.22867188 269.62953125 -139.12109375 268.6015625 C-138.78855292 266.015963 -138.78855292 266.015963 -140 264 C-143.8144511 263.64516734 -145.52998716 263.6795367 -148.75 265.875 C-150.18528848 267.23055023 -151.6040112 268.6040112 -153 270 C-154.33010943 267.33978115 -154.13245509 265.28335256 -154.125 262.3125 C-154.12242187 261.23226563 -154.11984375 260.15203125 -154.1171875 259.0390625 C-154 256 -154 256 -153.25 252.1875 C-152.96030295 248.49386265 -153.94437165 247.18169838 -155.94140625 244.17578125 C-158.20640713 239.52041044 -158.41782284 234.09405013 -159 229 C-159.63164062 229.44730469 -160.26328125 229.89460937 -160.9140625 230.35546875 C-172.03566726 237.87136591 -183.7422835 242.20086355 -197.1875 242.1875 C-198.32143188 242.18737915 -198.32143188 242.18737915 -199.47827148 242.18725586 C-204.42251995 242.13695024 -209.02005081 241.67739766 -213.83984375 240.51171875 C-217.1965551 239.71654843 -220.57439728 239.38062252 -224 239 C-224.64910154 240.58199631 -225.29414694 242.16565724 -225.9375 243.75 C-226.47697266 245.07257813 -226.47697266 245.07257813 -227.02734375 246.421875 C-228.7191046 250.90606038 -229.22704614 254.95780199 -229.5625 259.75 C-229.64628906 260.92046875 -229.73007813 262.0909375 -229.81640625 263.296875 C-229.87699219 264.18890625 -229.93757813 265.0809375 -230 266 C-231.33333333 265.33333333 -232.66666667 264.66666667 -234 264 C-234.71671875 263.80792969 -235.4334375 263.61585938 -236.171875 263.41796875 C-238 262 -238 262 -238.828125 258.17578125 C-238.99091995 256.5567636 -239.13009874 254.93525815 -239.25 253.3125 C-239.32299316 252.45906006 -239.39598633 251.60562012 -239.47119141 250.72631836 C-239.67629713 248.15192936 -239.84532776 245.57787073 -240 243 C-240.04672852 242.28392578 -240.09345703 241.56785156 -240.14160156 240.83007812 C-241.00198685 226.0083148 -236.78752431 214.3203628 -227.2734375 202.93359375 C-221.94704618 197.30318466 -216.20251183 193.50080306 -208.73828125 191.359375 C-207.84794189 191.10124023 -206.95760254 190.84310547 -206.0402832 190.57714844 C-205.03034302 190.29145996 -205.03034302 190.29145996 -204 190 C-204.02094727 189.31711914 -204.04189453 188.63423828 -204.06347656 187.93066406 C-205.06871225 149.94802446 -194.46826453 116.32492388 -168.39453125 88.0234375 C-160.67049265 79.9072492 -152.45835513 72.99522481 -143 67 C-141.89269531 66.29359375 -140.78539062 65.5871875 -139.64453125 64.859375 C-109.69776149 46.80171406 -73.26123043 41.5951243 -39.32226562 49.63427734 C-28.73085949 52.3913991 -18.74330191 55.98611106 -9 61 C-6.55355992 55.311251 -5.59574522 49.50687866 -4.5 43.4375 C-4.27932861 42.21708008 -4.05865723 40.99666016 -3.83129883 39.73925781 C-1.56923176 26.55271263 -0.65508036 13.35934371 0 0 Z " fill="#FED96A" transform="translate(327,41)"/>
<path d="M0 0 C61.42579741 16.37770495 61.42579741 16.37770495 72.8125 32.625 C82.29151788 49.58917338 82.18805271 71.2563825 82.13037109 90.15820312 C82.12496972 92.26179079 82.13037678 94.3651684 82.13671875 96.46875 C82.13605841 97.83854213 82.13477815 99.20833412 82.1328125 100.578125 C82.13168457 101.78887695 82.13055664 102.99962891 82.12939453 104.24707031 C81.98234196 108.5121498 81.4712791 112.75848806 81 117 C13.68 117 -53.64 117 -123 117 C-125.40377946 92.96220544 -129.27151963 51.76933807 -113 31 C-101.05470238 16.92704123 -77.88023232 11.16048837 -61.0625 5.6875 C-59.99588135 5.33751953 -58.9292627 4.98753906 -57.83032227 4.62695312 C-52.18879284 2.82932226 -46.90507334 1.49031295 -41 1 C-40.64808594 2.05058594 -40.29617188 3.10117187 -39.93359375 4.18359375 C-36.49845212 14.08453749 -32.58006151 24.4536486 -23 30 C-19.4229706 30.18826471 -17.30065158 28.67478836 -14.5625 26.5625 C-7.65547964 20.24107485 -4.4191873 12.17325752 -1.76171875 3.37109375 C-1 1 -1 1 0 0 Z " fill="#6CC2EC" transform="translate(396,361)"/>
<path d="M0 0 C0.98214915 2.51158019 1.88141616 5.01217185 2.75 7.5625 C4.99740927 13.83213528 7.30176153 19.14311971 12 24 C12.50660156 24.53367187 13.01320313 25.06734375 13.53515625 25.6171875 C15.79633377 27.7569207 17.34423587 28.96721179 20.5 29.125 C28.61461686 25.47342242 33.25445208 18.33409012 36.48828125 10.3046875 C37.73771562 6.89553502 38.88873827 3.45671238 40 0 C48.00392417 0.96986326 55.38391495 3.48332836 63 6 C63.89976562 6.29326172 64.79953125 6.58652344 65.7265625 6.88867188 C106.11299831 20.12155718 106.11299831 20.12155718 114.62109375 34.03125 C125.92507822 58.36844037 124.59485015 90.05149848 122 116 C54.68 116 -12.64 116 -82 116 C-82.66322254 110.6942197 -83.13540373 105.97655661 -83.16796875 100.703125 C-83.17220352 100.03593445 -83.17643829 99.3687439 -83.18080139 98.68133545 C-83.1906157 96.5374916 -83.19073304 94.39386219 -83.1875 92.25 C-83.18689575 91.51523437 -83.1862915 90.78046875 -83.18566895 90.0234375 C-83.0785572 42.03737456 -83.0785572 42.03737456 -70.65234375 27.4140625 C-56.03008777 13.27796848 -31.46195826 7.45058038 -12.625 1.875 C-11.59060791 1.56747803 -10.55621582 1.25995605 -9.49047852 0.94311523 C-8.06046509 0.53428101 -8.06046509 0.53428101 -6.6015625 0.1171875 C-5.33820068 -0.24463623 -5.33820068 -0.24463623 -4.04931641 -0.61376953 C-2 -1 -2 -1 0 0 Z " fill="#E0DCDE" transform="translate(117,362)"/>
<path d="M0 0 C3.58732418 0.61606998 6.70066012 1.62078364 10.0625 3 C20.02669876 6.66468518 28.78799743 6.22000056 39 4 C40.61844735 3.65516752 42.24369698 3.34022597 43.875 3.0625 C44.89207031 2.86333984 44.89207031 2.86333984 45.9296875 2.66015625 C49.31377202 3.21565692 51.03673429 5.3738966 53 8 C54.83664879 11.07295356 56.36882669 14.25426061 57.875 17.5 C58.30337158 18.41402588 58.73174316 19.32805176 59.1730957 20.26977539 C62.1932146 26.87455828 64.83533463 33.56737431 67.1875 40.4375 C67.49091309 41.30632812 67.79432617 42.17515625 68.10693359 43.0703125 C69.6035796 47.66206932 70.65949041 51.2606693 69 56 C67.46875 57.43359375 67.46875 57.43359375 65.5 58.4375 C52.51458982 65.7214308 44.0605591 75.18570661 39.1796875 89.38671875 C35.83588758 102.50289167 38.43076997 115.84841906 45.22265625 127.40625 C50.82390667 135.58038248 57.78568621 140.4173958 66.375 144.98046875 C69 147 69 147 70.09375 149.51953125 C69.95012809 154.85149451 68.24693676 159.49232184 66.5 164.5 C66.13777344 165.56412109 65.77554688 166.62824219 65.40234375 167.72460938 C62.56334662 175.8607597 59.22986409 183.49199123 55 191 C54.690625 190.360625 54.38125 189.72125 54.0625 189.0625 C53.1654837 187.06389179 53.1654837 187.06389179 52 186 C49.16926564 185.49830585 49.16926564 185.49830585 46 186 C43.22877725 188.35426499 43.22877725 188.35426499 41 191 C40.34 191.33 39.68 191.66 39 192 C38.12956596 188.99493008 37.86515746 186.31250794 37.875 183.1875 C37.87693359 181.86298828 37.87693359 181.86298828 37.87890625 180.51171875 C38 178 38 178 38.8125 174.5 C39.05787604 169.9196472 37.33301948 167.57315796 35.1484375 163.64453125 C33.32805777 159.45270445 33.57110255 155.47959563 34 151 C32.69289063 151.79664063 32.69289063 151.79664063 31.359375 152.609375 C14.39600827 162.74523217 -3.45643936 167.26927491 -23.04760742 162.56713867 C-26.05272779 161.77068749 -29.02952704 160.91777372 -32 160 C-35.79676236 169.18783619 -37.49818989 178.08492447 -38 188 C-38.88945312 187.50886719 -38.88945312 187.50886719 -39.796875 187.0078125 C-42.6240243 185.71454208 -44.92768711 185.86034941 -48 186 C-49.36421031 188.72842061 -48.87807211 190.60953318 -48.5625 193.625 C-48.40974609 195.12933594 -48.40974609 195.12933594 -48.25390625 196.6640625 C-48.17011719 197.43492187 -48.08632813 198.20578125 -48 199 C-52.91803234 197.36250616 -57.83469035 195.72099657 -62.74981689 194.07479858 C-65.63074937 193.11020701 -68.51213083 192.14696049 -71.39355469 191.18383789 C-72.88494402 190.685022 -74.37615425 190.1856703 -75.8671875 189.68579102 C-78.04900071 188.95445297 -80.23146709 188.22509359 -82.4140625 187.49609375 C-83.07153473 187.27521591 -83.72900696 187.05433807 -84.40640259 186.82676697 C-88.57770482 185.43616648 -92.76603165 184.18096083 -97 183 C-96.8671875 181.1484375 -96.8671875 181.1484375 -96 179 C-93.4453125 177.7265625 -93.4453125 177.7265625 -90.125 176.625 C-69.96762136 169.36306228 -54.95587937 155.97373157 -45 137 C-43.0647953 132.40450125 -41.45465705 127.76771271 -40 123 C-39.77699219 122.28457031 -39.55398438 121.56914062 -39.32421875 120.83203125 C-38.49371015 117.85868367 -38.0065157 115.09429331 -37.79296875 112.00390625 C-37.05733923 103.36271152 -34.64088187 97.98200945 -30.09448242 90.73388672 C-19.23830404 73.34617571 -12.74563539 53.56555184 -7 34 C-6.649375 32.81535156 -6.29875 31.63070312 -5.9375 30.41015625 C-3.12630742 20.37185606 -1.46483049 10.30929941 0 0 Z " fill="#FECB33" transform="translate(373,119)"/>
<path d="M0 0 C0.86625 0.556875 1.7325 1.11375 2.625 1.6875 C6.8327436 5.78451351 10.51068968 10.83878193 13.01953125 16.1640625 C14.02843512 18.34721058 14.02843512 18.34721058 17 20.375 C21.59080433 24.39195379 22.24289091 29.02371316 22.75 34.9375 C23.27249278 42.79174636 22.45131598 50.46657396 21.49902344 58.26733398 C21.39364258 59.22454346 21.28826172 60.18175293 21.1796875 61.16796875 C21.02089111 62.45610474 21.02089111 62.45610474 20.85888672 63.77026367 C20.77886527 66.08938318 20.77886527 66.08938318 22.46166992 67.67822266 C22.96931885 68.11440918 23.47696777 68.5505957 24 69 C25.19529736 74.45960146 23.96796156 79.41995127 21.2734375 84.20703125 C18.90664811 87.53941264 16.0422452 90.61495562 11.88671875 91.3984375 C10.95279297 91.69621094 10.95279297 91.69621094 10 92 C9.34541017 94.03267369 8.70212132 96.06953289 8.109375 98.12109375 C6.68670923 101.81301161 4.7192346 104.94601992 2.5625 108.25 C2.17876221 108.83998779 1.79502441 109.42997559 1.3996582 110.0378418 C-0.32142325 112.6332165 -2.05191664 115.05770624 -4.13671875 117.375 C-6.67718696 120.95402439 -7.38969459 124.52034306 -8.375 128.75 C-10.17632305 135.77319125 -12.14991879 141.45198027 -17 147 C-17.56976563 147.67675781 -18.13953125 148.35351562 -18.7265625 149.05078125 C-21.29746652 151.87651056 -23.46193969 153.74814198 -26.9375 155.375 C-32.81024606 154.65588824 -36.40023397 149.73307987 -40.25 145.5625 C-44.23697898 139.72442364 -46.13725179 134.61037444 -47.6875 127.75 C-49.29935788 120.93811182 -52.19795339 116.51066517 -56.671875 111.06640625 C-60.35837721 106.21086223 -66 98.16936311 -66 92 C-67.299375 91.7215625 -67.299375 91.7215625 -68.625 91.4375 C-73.81551847 89.22672361 -76.59043197 85.43470841 -79.375 80.625 C-80.28634331 76.7973581 -80.67841305 72.89540396 -80 69 C-79.49307617 68.58113525 -78.98615234 68.16227051 -78.46386719 67.73071289 C-76.73473056 66.04248557 -76.73473056 66.04248557 -76.87475586 63.37133789 C-76.98698486 62.33227295 -77.09921387 61.29320801 -77.21484375 60.22265625 C-77.32376953 59.06830078 -77.43269531 57.91394531 -77.54492188 56.72460938 C-77.67447266 55.51611328 -77.80402344 54.30761719 -77.9375 53.0625 C-79.68354202 36.75715378 -78.09366382 22.56864832 -67.875 9.1875 C-51.18717585 -9.95522721 -21.15442 -13.84015884 0 0 Z " fill="#FED5AC" transform="translate(284,177)"/>
<path d="M0 0 C-0.49206585 7.38098781 -2.06548879 14.17864563 -5 21 C-5.99 21.495 -5.99 21.495 -7 22 C-9.05533035 21.02816979 -11.06940275 19.96880079 -13.0625 18.875 C-38.16458978 5.73521375 -69.22969379 4.27017662 -96.08105469 12.64941406 C-109.91776893 17.3529384 -123.04884756 24.31725184 -134 34 C-134.90363281 34.76054687 -135.80726563 35.52109375 -136.73828125 36.3046875 C-158.65670999 55.28246951 -170.71208113 83.40101416 -173 112 C-173.18232068 117.0022795 -173.12775175 121.99638996 -173 127 C-172.18917969 127.1959375 -171.37835938 127.391875 -170.54296875 127.59375 C-157.16033003 131.20815301 -148.0139446 137.92251251 -141 150 C-140.65056968 151.32920553 -140.3119143 152.66149398 -140 154 C-139.1028125 154.433125 -139.1028125 154.433125 -138.1875 154.875 C-134.18426986 156.93380407 -132.38048565 160.85854304 -131 165 C-129.26705832 191.59992667 -129.26705832 191.59992667 -133 202 C-136.375 204.125 -136.375 204.125 -140 205 C-142.37791979 207.04044964 -142.37791979 207.04044964 -144 209 C-145.33010943 206.33978115 -145.13245509 204.28335256 -145.125 201.3125 C-145.12242187 200.23226562 -145.11984375 199.15203125 -145.1171875 198.0390625 C-145 195 -145 195 -144.25 191.1875 C-143.96030295 187.49386265 -144.94437165 186.18169838 -146.94140625 183.17578125 C-149.20640713 178.52041044 -149.41782284 173.09405013 -150 168 C-150.63164062 168.44730469 -151.26328125 168.89460937 -151.9140625 169.35546875 C-163.03566726 176.87136591 -174.7422835 181.20086355 -188.1875 181.1875 C-189.32143188 181.18737915 -189.32143188 181.18737915 -190.47827148 181.18725586 C-195.42251995 181.13695024 -200.02005081 180.67739766 -204.83984375 179.51171875 C-208.1965551 178.71654843 -211.57439728 178.38062252 -215 178 C-215.64910154 179.58199631 -216.29414694 181.16565724 -216.9375 182.75 C-217.47697266 184.07257813 -217.47697266 184.07257813 -218.02734375 185.421875 C-219.7191046 189.90606038 -220.22704614 193.95780199 -220.5625 198.75 C-220.64628906 199.92046875 -220.73007813 201.0909375 -220.81640625 202.296875 C-220.87699219 203.18890625 -220.93757813 204.0809375 -221 205 C-222.33333333 204.33333333 -223.66666667 203.66666667 -225 203 C-225.71671875 202.80792969 -226.4334375 202.61585938 -227.171875 202.41796875 C-229 201 -229 201 -229.828125 197.17578125 C-229.99091995 195.5567636 -230.13009874 193.93525815 -230.25 192.3125 C-230.32299316 191.45906006 -230.39598633 190.60562012 -230.47119141 189.72631836 C-230.67629713 187.15192936 -230.84532776 184.57787073 -231 182 C-231.04672852 181.28392578 -231.09345703 180.56785156 -231.14160156 179.83007812 C-232.00198685 165.0083148 -227.78752431 153.3203628 -218.2734375 141.93359375 C-212.94704618 136.30318466 -207.20251183 132.50080306 -199.73828125 130.359375 C-198.84794189 130.10124023 -197.95760254 129.84310547 -197.0402832 129.57714844 C-196.03034302 129.29145996 -196.03034302 129.29145996 -195 129 C-195.02094727 128.31711914 -195.04189453 127.63423828 -195.06347656 126.93066406 C-196.06871225 88.94802446 -185.46826453 55.32492388 -159.39453125 27.0234375 C-151.67049265 18.9072492 -143.45835513 11.99522481 -134 6 C-132.89269531 5.29359375 -131.78539062 4.5871875 -130.64453125 3.859375 C-91.07039494 -20.00351041 -40.9497063 -21.07265908 0 0 Z " fill="#F5CB61" transform="translate(318,102)"/>
<path d="M0 0 C0.02578125 0.68964844 0.0515625 1.37929688 0.078125 2.08984375 C0.44004698 8.08623287 1.42861929 12.67509747 4.07421875 18.0625 C5.85140993 21.7818537 6.30014562 24.09956315 5 28 C4.931009 30.06145107 4.91532273 32.12501401 4.9375 34.1875 C4.94652344 35.27417969 4.95554687 36.36085938 4.96484375 37.48046875 C4.97644531 38.31191406 4.98804688 39.14335937 5 40 C5.65355469 39.45859375 5.65355469 39.45859375 6.3203125 38.90625 C9.40500283 36.5025952 11.3764273 35.09412418 15.3125 34.5 C16.199375 34.665 17.08625 34.83 18 35 C20.48346952 38.72520428 20.19742008 40.30995969 19.60546875 44.5859375 C18.05754278 50.75766814 14.28115098 55.52555857 9 59 C7.515 59.495 7.515 59.495 6 60 C4.63927923 62.48479445 3.42564909 64.9300501 2.25 67.5 C-1.0107516 74.34978724 -4.5827038 80.5827038 -10 86 C-10.27615058 87.59987236 -10.52007625 89.205333 -10.75 90.8125 C-12.9590263 103.17024133 -18.42475715 112.67765111 -27.4375 121.34375 C-30 123 -30 123 -32.53515625 122.95703125 C-40.75093599 119.76706923 -45.27624714 112.66584192 -48.7890625 104.9609375 C-50.86875195 99.87576136 -52.59826215 94.87477662 -53.75 89.5 C-54.92820877 86.20101543 -55.88081202 84.74302557 -58.0625 82.125 C-62.19314506 77.16822593 -64.90411668 71.66536889 -67.62719727 65.85205078 C-70.03718973 60.96793208 -71.84324701 59.18646327 -77 57 C-78.86328125 55.0625 -78.86328125 55.0625 -80.3125 53 C-80.80363281 52.319375 -81.29476562 51.63875 -81.80078125 50.9375 C-83.63871984 47.96806176 -84.15507242 45.42435211 -84.1875 42 C-84.20167969 41.319375 -84.21585937 40.63875 -84.23046875 39.9375 C-84 38 -84 38 -82 35 C-78.53460193 34.54799156 -76.71184211 34.50601704 -73.8046875 36.5234375 C-73.20914063 37.01070313 -72.61359375 37.49796875 -72 38 C-72.04640625 37.20078125 -72.0928125 36.4015625 -72.140625 35.578125 C-72.44633423 26.27582983 -71.25165162 17.87747742 -66 10 C-61.75988604 10.47112377 -57.70825096 11.05983982 -53.5625 12.0625 C-35.99609831 15.63532746 -20.34344403 11.69989095 -5 3 C-0.90909091 0 -0.90909091 0 0 0 Z " fill="#FED5AC" transform="translate(169,269)"/>
<path d="M0 0 C0.66 0 1.32 0 2 0 C2.09796875 0.85722656 2.1959375 1.71445312 2.296875 2.59765625 C3.1221024 10.10725672 3.1221024 10.10725672 6.1875 16.875 C8.51082046 20.88072493 7.90913553 22.53008366 7 27 C6.91990858 28.74866277 6.88008124 30.49951141 6.875 32.25 C6.87242187 33.08015625 6.86984375 33.9103125 6.8671875 34.765625 C6.91330297 37.17220839 6.91330297 37.17220839 8 40 C8.804375 39.195625 9.60875 38.39125 10.4375 37.5625 C14 34 14 34 16.9375 33.8125 C20 34 20 34 22 36 C22.99048953 41.55134828 22.00884033 46.33699642 19.27734375 51.20703125 C16.58124289 54.99146641 13.44924858 57.51691714 9 59 C7.7740573 60.7653878 7.7740573 60.7653878 6.765625 62.97265625 C6.35570312 63.79056641 5.94578125 64.60847656 5.5234375 65.45117188 C4.68825317 67.16381213 3.85485674 68.87732566 3.0234375 70.59179688 C0.38386278 75.85045273 -2.54179716 79.89202015 -6.5234375 84.21069336 C-8.49925944 86.60500536 -9.11808508 88.7085105 -9.625 91.75 C-12.19291668 103.94376004 -16.86263422 112.32403968 -25.93359375 120.80859375 C-28 122 -28 122 -30.50390625 121.87109375 C-37.58431109 119.40015434 -42.14543463 113.07433891 -45.68359375 106.75 C-48.52110363 100.82238292 -50.73014359 94.74354021 -51.375 88.1875 C-52.09857518 84.49726657 -53.64556003 82.91216501 -56.17578125 80.22265625 C-58.56481835 77.31181661 -60.40138508 74.14191595 -62.25 70.875 C-62.5910376 70.27679443 -62.9320752 69.67858887 -63.28344727 69.06225586 C-64.72621971 66.48047142 -66.00850601 63.97668964 -67.0234375 61.1953125 C-68.35002046 58.21315401 -70.45273583 57.4802662 -73.2578125 56.01953125 C-78.11864313 53.17496444 -80.206577 48.11125556 -82 43 C-82.4025104 38.81389189 -82.36672211 37.55008317 -80 34 C-75.94554358 33.56867485 -74.45029042 33.69980639 -71 36 C-70.97421875 35.35675781 -70.9484375 34.71351563 -70.921875 34.05078125 C-70.38058645 25.42707051 -68.86378383 16.29567575 -64 9 C-59.93450704 9.43558853 -56.24293128 9.93358346 -52.28515625 11.015625 C-35.37703543 15.32229918 -18.20332412 10.890453 -3.4140625 2.48828125 C-1.13358389 1.21052736 -1.13358389 1.21052736 0 0 Z " fill="#FED5AC" transform="translate(405,270)"/>
<path d="M0 0 C6.34704139 1.91057466 12.10439982 4.36347941 17.9375 7.5 C18.69095703 7.89058594 19.44441406 8.28117187 20.22070312 8.68359375 C21.30061523 9.25787109 21.30061523 9.25787109 22.40234375 9.84375 C23.04679443 10.18599609 23.69124512 10.52824219 24.35522461 10.88085938 C26 12 26 12 28 15 C27.71699352 19.17434561 27.07890764 22.72150243 25.9375 26.75 C23.04071107 38.11602679 25.37790024 49.67134737 30.5078125 60.05078125 C34.38443196 66.56891119 39.15041325 71.24646617 45 76 C45.66 76.66 46.32 77.32 47 78 C46.77621509 80.86322057 46.42708177 83.55410312 45.9375 86.375 C45.79320557 87.22715088 45.64891113 88.07930176 45.50024414 88.95727539 C39.87055378 120.93309608 28.35170994 151.55722471 11 179 C8.73336441 175.60004662 8.60500608 173.76906952 8.1875 169.75 C5.58353006 150.3003476 -3.49685495 130.77220228 -19.15234375 118.40625 C-21.72618998 116.52472534 -24.31542359 114.71875201 -27 113 C-25.62455545 108.50785661 -23.84190111 104.30144285 -21.9284668 100.0222168 C-16.97785029 88.90153422 -13.16356067 77.74355868 -10 66 C-9.81099121 65.31663574 -9.62198242 64.63327148 -9.42724609 63.92919922 C-8.15655825 59.31133363 -7.02843827 54.67644368 -6 50 C-5.74089844 48.8229248 -5.74089844 48.8229248 -5.4765625 47.62207031 C-2.10442548 31.85488615 -0.86956922 16.07996088 0 0 Z " fill="#FED350" transform="translate(327,41)"/>
<path d="M0 0 C1.57925824 0.7632103 3.15549139 1.53268175 4.73046875 2.3046875 C5.60856201 2.73249512 6.48665527 3.16030273 7.39135742 3.60107422 C15.81124491 8.11637186 19.99378477 14.02725072 23 23 C27.74837722 39.47480443 28.18095935 56.66678081 28.1875 73.6875 C28.18899551 74.72665558 28.18899551 74.72665558 28.19052124 75.7868042 C28.18929099 83.33045675 27.83669838 90.46971461 27 98 C-40.32 98 -107.64 98 -177 98 C-177.33 93.71 -177.66 89.42 -178 85 C-176.46507904 84.99635437 -174.93015808 84.99270874 -173.34872437 84.98895264 C-158.84282589 84.95191907 -144.33717191 84.89428896 -129.83144188 84.81609726 C-122.37492933 84.77642421 -114.91852052 84.74397255 -107.46191406 84.72900391 C-100.95660926 84.71592608 -94.45153386 84.68880704 -87.94635832 84.64538693 C-84.50740876 84.62290848 -81.06874068 84.60708102 -77.62971115 84.60811615 C-57.91164571 84.89211086 -57.91164571 84.89211086 -39 80 C-38.31048248 79.72519302 -37.62096497 79.45038605 -36.91055298 79.16725159 C-21.46488316 72.42393585 -11.12545657 60.02112261 -4.5625 44.8125 C-1.05744297 34.68945717 -0.62977746 24.444151 -0.375 13.8125 C-0.3367036 12.46547279 -0.2976457 11.11846701 -0.2578125 9.77148438 C-0.16442092 6.51445318 -0.078646 3.25741491 0 0 Z " fill="#54B8EA" transform="translate(450,380)"/>
<path d="M0 0 C0.15855469 1.01578125 0.31710937 2.0315625 0.48046875 3.078125 C2.97626953 18.16704449 7.73118927 31.15037917 19 42 C22.27655508 40.59473786 24.15432686 38.97082527 26.4375 36.25 C27.035625 35.54359375 27.63375 34.8371875 28.25 34.109375 C28.8275 33.41328125 29.405 32.7171875 30 32 C30.515625 31.38640625 31.03125 30.7728125 31.5625 30.140625 C32.71475603 28.76577406 33.85842244 27.38373037 35 26 C38.33355357 27.37940148 40.36343728 28.72687457 42 32 C38.21838755 47.10544085 22.98344614 60.35189329 10.17041016 68.10742188 C-4.56982519 76.60397675 -20.6483834 80.17905121 -37.62109375 80.1328125 C-38.7991433 80.13424759 -38.7991433 80.13424759 -40.00099182 80.13571167 C-41.64380983 80.13638691 -43.2866306 80.13457887 -44.92944336 80.13037109 C-47.45497498 80.12496258 -49.98033284 80.13036399 -52.50585938 80.13671875 C-54.10677123 80.13605884 -55.70768297 80.13477949 -57.30859375 80.1328125 C-58.44439125 80.13584885 -58.44439125 80.13584885 -59.60313416 80.13894653 C-64.88501452 80.11498548 -64.88501452 80.11498548 -66 79 C-67.0660355 61.15701235 -66.4657562 38.71177879 -55.125 23.875 C-45.28057676 13.55389942 -30.05021632 8.83279339 -17 4 C-16.34563965 3.75701172 -15.6912793 3.51402344 -15.01708984 3.26367188 C-5.46466726 -0.23461899 -5.46466726 -0.23461899 0 0 Z " fill="#83CBEF" transform="translate(339,367)"/>
<path d="M0 0 C0.29132813 0.99 0.58265625 1.98 0.8828125 3 C3.19981396 10.5796854 5.37498834 17.18291478 11 23 C11.56976563 23.6084375 12.13953125 24.216875 12.7265625 24.84375 C15.45177886 27.48492885 17.12069073 28.88774775 20.9375 29.375 C25.59149171 27.2854527 28.62748401 23.75770183 32 20 C33 22 33 22 32.1796875 24.6875 C30.81978673 28.14018219 29.43499405 31.57779197 28 35 C27.63777344 35.86625 27.27554688 36.7325 26.90234375 37.625 C18.53459964 55.86008394 1.77581854 71.78689597 -17 79 C-17.99 79 -18.98 79 -20 79 C-20.33 79.66 -20.66 80.32 -21 81 C-21.68787598 80.63213379 -22.37575195 80.26426758 -23.08447266 79.88525391 C-30.65298455 75.95653207 -38.33539344 72.85842521 -46.38085938 70.06738281 C-48.36923694 69.37700098 -50.35274949 68.67388351 -52.3359375 67.96875 C-60.80716163 64.98061541 -69.33376748 62.36566091 -78 60 C-78.3125 53.3828125 -78.3125 53.3828125 -75.5 49.9375 C-74.95730469 49.3703125 -74.41460937 48.803125 -73.85546875 48.21875 C-71.44990404 45.34220105 -69.64166201 42.19505735 -67.8125 38.9375 C-67.31363281 38.05276001 -67.31363281 38.05276001 -66.8046875 37.15014648 C-65.25602338 34.36729347 -63.80900421 31.58519632 -62.4765625 28.69140625 C-60.77036417 25.58143099 -59.0469467 24.63761469 -55.81640625 23.25 C-53.7283756 22.00626398 -53.7283756 22.00626398 -52.35546875 19.12890625 C-49.12844095 14.84225738 -45.69130806 13.73218754 -40.75 11.9375 C-39.8619165 11.59952393 -38.97383301 11.26154785 -38.05883789 10.91333008 C-30.13862636 7.94280755 -22.12601322 5.34199508 -14 3 C-12.90171875 2.6803125 -11.8034375 2.360625 -10.671875 2.03125 C-3.48726852 0 -3.48726852 0 0 0 Z " fill="#F28481" transform="translate(236,302)"/>
<path d="M0 0 C0.86625 0.556875 1.7325 1.11375 2.625 1.6875 C6.8327436 5.78451351 10.51068968 10.83878193 13.01953125 16.1640625 C14.02843512 18.34721058 14.02843512 18.34721058 17 20.375 C21.61057405 24.40925229 22.24529174 29.06225576 22.75 35 C24.21660305 58.56679389 24.21660305 58.56679389 20 67 C18.9171875 67.4021875 18.9171875 67.4021875 17.8125 67.8125 C14.2131069 69.33224375 11.92249685 71.41732837 9 74 C6.51257295 69.02514589 7.62511624 61.35861698 8.6875 56 C9.3121045 53.01885573 9.3121045 53.01885573 7.6875 50.9375 C7.130625 50.298125 6.57375 49.65875 6 49 C3.60609181 43.70820295 3.79770316 38.68678894 4 33 C3.20078125 33.53109375 2.4015625 34.0621875 1.578125 34.609375 C-14.49737495 44.94901581 -32.26345945 48.83534225 -51.34326172 45.60302734 C-55.01704232 44.71529141 -58.53043592 43.49171277 -62 42 C-62.29777344 42.89460938 -62.59554687 43.78921875 -62.90234375 44.7109375 C-63.53088846 46.59433483 -64.16521267 48.47587572 -64.81640625 50.3515625 C-66.9557389 56.8703667 -67.65934832 63.16347324 -68 70 C-69.1446875 69.5359375 -69.1446875 69.5359375 -70.3125 69.0625 C-72.18789677 68.32106407 -74.08684652 67.63771783 -76 67 C-79.71891043 47.93607081 -81.2157485 29.01832166 -70.05859375 12.046875 C-61.35489174 0.64954071 -50.32744398 -4.78697629 -36.5 -7.75 C-23.06647453 -8.70953753 -11.4859978 -7.51464867 0 0 Z " fill="#62696B" transform="translate(284,177)"/>
<path d="M0 0 C1.50735718 -0.02779541 1.50735718 -0.02779541 3.04516602 -0.05615234 C14.39461082 0.0383723 23.72453395 3.61184051 31.9375 11.5 C35.47629872 15.38388234 38.41678407 18.90892355 40.0625 23.9375 C40.35125 24.783125 40.64 25.62875 40.9375 26.5 C42.58301962 27.21727778 44.25172289 27.88325228 45.9375 28.5 C53.36928232 38.3205695 50.4110703 55.96257566 49.375 67.5625 C49.27058594 68.83222656 49.16617188 70.10195313 49.05859375 71.41015625 C47.9375 74.5 47.9375 74.5 44.5 76.296875 C42.7365625 76.89242187 42.7365625 76.89242187 40.9375 77.5 C38.55958021 79.54044964 38.55958021 79.54044964 36.9375 81.5 C36.06706596 78.49493008 35.80265746 75.81250794 35.8125 72.6875 C35.81378906 71.80449219 35.81507813 70.92148437 35.81640625 70.01171875 C35.9375 67.5 35.9375 67.5 36.75 64 C36.99537604 59.4196472 35.27051948 57.07315796 33.0859375 53.14453125 C31.26555777 48.95270445 31.50860255 44.97959563 31.9375 40.5 C31.06609375 41.03109375 30.1946875 41.5621875 29.296875 42.109375 C12.33350827 52.24523217 -5.51893936 56.76927491 -25.11010742 52.06713867 C-28.11522779 51.27068749 -31.09202704 50.41777372 -34.0625 49.5 C-37.85926236 58.68783619 -39.56068989 67.58492447 -40.0625 77.5 C-43.34623206 76.82034383 -45.61771747 75.82503808 -48.0625 73.5 C-49.65918292 68.58221659 -49.87165514 63.62736536 -50.0625 58.5 C-50.09811035 57.77925293 -50.1337207 57.05850586 -50.17041016 56.31591797 C-50.87166041 40.78823387 -48.16299399 27.31355484 -37.8125 15.25 C-26.95357387 3.83649939 -15.52876896 0.17817757 0 0 Z " fill="#63696A" transform="translate(375.0625,229.5)"/>
<path d="M0 0 C1.01320312 -0.01844971 2.02640625 -0.03689941 3.0703125 -0.0559082 C13.59890223 0.0306305 22.80956494 3.69433666 30.875 10.5 C35.63911866 15.53471404 38.72994076 19.90558208 40.875 26.5 C42.1903341 27.20151152 43.52617592 27.86525925 44.875 28.5 C53.02404062 39.44299741 50.57287347 55.69417481 49.3125 68.75 C48.76953125 72.0078125 48.76953125 72.0078125 47.875 74.5 C44.5 76.625 44.5 76.625 40.875 77.5 C38.49708021 79.54044964 38.49708021 79.54044964 36.875 81.5 C35.54489057 78.83978115 35.74254491 76.78335256 35.75 73.8125 C35.75257813 72.73226562 35.75515625 71.65203125 35.7578125 70.5390625 C35.875 67.5 35.875 67.5 36.625 63.6875 C36.91469705 59.99386265 35.93062835 58.68169838 33.93359375 55.67578125 C31.66859287 51.02041044 31.45717716 45.59405013 30.875 40.5 C29.92753906 41.17095703 29.92753906 41.17095703 28.9609375 41.85546875 C17.83933274 49.37136591 6.1327165 53.70086355 -7.3125 53.6875 C-8.44643188 53.68737915 -8.44643188 53.68737915 -9.60327148 53.68725586 C-14.54751995 53.63695024 -19.14505081 53.17739766 -23.96484375 52.01171875 C-27.3215551 51.21654843 -30.69939728 50.88062252 -34.125 50.5 C-34.77410154 52.08199631 -35.41914694 53.66565724 -36.0625 55.25 C-36.42214844 56.13171875 -36.78179687 57.0134375 -37.15234375 57.921875 C-38.8441046 62.40606038 -39.35204614 66.45780199 -39.6875 71.25 C-39.77128906 72.42046875 -39.85507813 73.5909375 -39.94140625 74.796875 C-40.00199219 75.68890625 -40.06257813 76.5809375 -40.125 77.5 C-41.45833333 76.83333333 -42.79166667 76.16666667 -44.125 75.5 C-44.84171875 75.30792969 -45.5584375 75.11585938 -46.296875 74.91796875 C-48.125 73.5 -48.125 73.5 -48.953125 69.67578125 C-49.11591995 68.0567636 -49.25509874 66.43525815 -49.375 64.8125 C-49.44799316 63.95906006 -49.52098633 63.10562012 -49.59619141 62.22631836 C-49.80129713 59.65192936 -49.97032776 57.07787073 -50.125 54.5 C-50.19509277 53.42588867 -50.19509277 53.42588867 -50.26660156 52.33007812 C-51.12698685 37.5083148 -46.91252431 25.8203628 -37.3984375 14.43359375 C-33.47596246 10.28723314 -29.21502391 7.07610285 -24.125 4.5 C-22.97064453 3.90832031 -22.97064453 3.90832031 -21.79296875 3.3046875 C-14.63315161 0.30657959 -7.68660515 0.08260757 0 0 Z " fill="#63696B" transform="translate(137.125,229.5)"/>
<path d="M0 0 C0.10957031 0.86882812 0.21914063 1.73765625 0.33203125 2.6328125 C1.16208175 8.66586249 1.92796049 13.65732259 5 19 C5.95259312 22.41345866 6.13859858 23.58420426 5 27 C4.931009 29.06145107 4.91532273 31.12501401 4.9375 33.1875 C4.94652344 34.27417969 4.95554687 35.36085937 4.96484375 36.48046875 C4.97644531 37.31191406 4.98804688 38.14335937 5 39 C5.66 39 6.32 39 7 39 C8.1446875 37.7934375 8.1446875 37.7934375 9.3125 36.5625 C12.06596759 33.93710067 13.2313708 33 17 33 C19.01674559 34.54050205 19.8860944 35.47972849 20.43359375 37.98046875 C20.44518807 44.53125992 19.07637306 49.68508464 14.5390625 54.57421875 C12.43592927 56.43714641 10.68541115 57.87077276 7.88671875 58.3984375 C6.95279297 58.69621094 6.95279297 58.69621094 6 59 C5.34541017 61.03267369 4.70212132 63.06953289 4.109375 65.12109375 C2.68670923 68.81301161 0.7192346 71.94601992 -1.4375 75.25 C-1.82123779 75.83998779 -2.20497559 76.42997559 -2.6003418 77.0378418 C-4.32142325 79.6332165 -6.05191664 82.05770624 -8.13671875 84.375 C-10.67718696 87.95402439 -11.38969459 91.52034306 -12.375 95.75 C-14.17632305 102.77319125 -16.14991879 108.45198027 -21 114 C-21.56976563 114.67675781 -22.13953125 115.35351562 -22.7265625 116.05078125 C-25.29746652 118.87651056 -27.46193969 120.74814198 -30.9375 122.375 C-36.81024606 121.65588824 -40.40023397 116.73307987 -44.25 112.5625 C-49.01069579 105.59148117 -51.04159002 98.60207456 -52.97265625 90.48828125 C-53.93633816 87.21615977 -55.10211936 84.81187415 -57 82 C-55.88882813 81.91363281 -54.77765625 81.82726562 -53.6328125 81.73828125 C-40.03365927 80.5234154 -30.59695126 77.22407877 -21 67 C-14.54318323 58.85249554 -12.54738405 50.17173652 -12.83984375 39.9609375 C-12.85167546 38.06251175 -12.86137776 36.16407175 -12.86914062 34.265625 C-12.89596154 31.31089467 -12.93792483 28.35909945 -13.0168457 25.40527344 C-13.41637283 8.84755126 -13.41637283 8.84755126 -9.78173828 4.10644531 C-6.67953714 1.88731995 -3.90054099 0 0 0 Z " fill="#FECB98" transform="translate(288,210)"/>
<path d="M0 0 C0.14695312 1.28583984 0.14695312 1.28583984 0.296875 2.59765625 C1.1221024 10.10725672 1.1221024 10.10725672 4.1875 16.875 C6.51082046 20.88072493 5.90913553 22.53008366 5 27 C4.91990858 28.74866277 4.88008124 30.49951141 4.875 32.25 C4.87242187 33.08015625 4.86984375 33.9103125 4.8671875 34.765625 C4.91330297 37.17220839 4.91330297 37.17220839 6 40 C6.804375 39.195625 7.60875 38.39125 8.4375 37.5625 C12 34 12 34 14.9375 33.8125 C18 34 18 34 20 36 C20.99048953 41.55134828 20.00884033 46.33699642 17.27734375 51.20703125 C14.58124289 54.99146641 11.44924858 57.51691714 7 59 C5.7740573 60.7653878 5.7740573 60.7653878 4.765625 62.97265625 C4.35570312 63.79056641 3.94578125 64.60847656 3.5234375 65.45117188 C2.68825317 67.16381213 1.85485674 68.87732566 1.0234375 70.59179688 C-1.61613722 75.85045273 -4.54179716 79.89202015 -8.5234375 84.21069336 C-10.49925944 86.60500536 -11.11808508 88.7085105 -11.625 91.75 C-14.19291668 103.94376004 -18.86263422 112.32403968 -27.93359375 120.80859375 C-30 122 -30 122 -32.50390625 121.87109375 C-39.58431109 119.40015434 -44.14543463 113.07433891 -47.68359375 106.75 C-50.53424962 100.79492068 -52.80653278 94.5129824 -53.625 87.9375 C-53.80232037 84.81457626 -53.80232037 84.81457626 -56 82 C-55.18917969 81.90203125 -54.37835938 81.8040625 -53.54296875 81.703125 C-40.89727901 79.99544164 -29.71188294 77.06025228 -21.25 66.8984375 C-15.19542182 58.33120937 -12.38874953 50.0689189 -12.7421875 39.609375 C-12.75691805 37.6640747 -12.76988755 35.71876039 -12.78125 33.7734375 C-12.82067501 30.74855384 -12.87568216 27.72607856 -12.96191406 24.70214844 C-13.39593852 7.69827897 -13.39593852 7.69827897 -9.78613281 3.30664062 C-6.58067644 1.34025854 -3.79943276 0 0 0 Z " fill="#FECB98" transform="translate(407,270)"/>
<path d="M0 0 C0.02578125 0.68964844 0.0515625 1.37929688 0.078125 2.08984375 C0.44004698 8.08623287 1.42861929 12.67509747 4.07421875 18.0625 C5.85140993 21.7818537 6.30014562 24.09956315 5 28 C4.931009 30.06145107 4.91532273 32.12501401 4.9375 34.1875 C4.94652344 35.27417969 4.95554688 36.36085938 4.96484375 37.48046875 C4.97644531 38.31191406 4.98804688 39.14335937 5 40 C5.43570313 39.6390625 5.87140625 39.278125 6.3203125 38.90625 C9.40500283 36.5025952 11.3764273 35.09412418 15.3125 34.5 C16.199375 34.665 17.08625 34.83 18 35 C20.48346952 38.72520428 20.19742008 40.30995969 19.60546875 44.5859375 C18.05754278 50.75766814 14.28115098 55.52555857 9 59 C7.515 59.495 7.515 59.495 6 60 C4.63927923 62.48479445 3.42564909 64.9300501 2.25 67.5 C-1.0107516 74.34978724 -4.5827038 80.5827038 -10 86 C-10.27615058 87.59987236 -10.52007625 89.205333 -10.75 90.8125 C-12.9590263 103.17024133 -18.42475715 112.67765111 -27.4375 121.34375 C-30 123 -30 123 -32.53515625 122.95703125 C-40.75093599 119.76706923 -45.27624714 112.66584192 -48.7890625 104.9609375 C-50.91533275 99.7618638 -52.58242547 94.53687555 -54.0625 89.125 C-54.8710475 85.87685867 -54.8710475 85.87685867 -57 83 C-56.05640625 82.91363281 -55.1128125 82.82726562 -54.140625 82.73828125 C-41.8763237 81.3961037 -30.43970368 78.72359596 -22 69 C-15.35856572 59.87748321 -12.51348162 51.17461107 -12.875 39.9609375 C-12.89169866 38.06251941 -12.90594878 36.16407848 -12.91796875 34.265625 C-12.95094542 31.31052127 -13.00049185 28.35917243 -13.09228516 25.40527344 C-13.56253573 8.82275329 -13.56253573 8.82275329 -9.51953125 4.10644531 C-3.13585659 0 -3.13585659 0 0 0 Z " fill="#FECB98" transform="translate(169,269)"/>
<path d="M0 0 C0.98214915 2.51158019 1.88141616 5.01217185 2.75 7.5625 C4.99740927 13.83213528 7.30176153 19.14311971 12 24 C12.50660156 24.53367187 13.01320312 25.06734375 13.53515625 25.6171875 C15.79633377 27.7569207 17.34423587 28.96721179 20.5 29.125 C28.61461686 25.47342242 33.25445208 18.33409012 36.48828125 10.3046875 C37.73771562 6.89553502 38.88873827 3.45671238 40 0 C44.14954518 0.52313728 47.9926065 1.16661461 51.9375 2.5625 C52.70964844 2.83191406 53.48179687 3.10132813 54.27734375 3.37890625 C54.84582031 3.58386719 55.41429687 3.78882813 56 4 C56.21598112 9.83803499 55.63209467 14.6706148 53.9375 20.25 C53.60468018 21.35480713 53.60468018 21.35480713 53.26513672 22.48193359 C50.05572484 32.56646293 45.05188945 41.04943282 37 48 C32.14423121 46.19053899 29.29580394 42.01332785 26.06640625 38.16796875 C24.78899498 36.70655364 23.39898491 35.34549431 22 34 C18.10885024 33.58890279 18.10885024 33.58890279 16.03515625 35.5390625 C15.38417969 36.22742188 14.73320312 36.91578125 14.0625 37.625 C13.37285156 38.34945312 12.68320313 39.07390625 11.97265625 39.8203125 C9.560223 42.48593181 7.24587361 45.19265799 5 48 C-2.94011547 44.58698823 -7.7060993 36.72890978 -10.90625 29.03125 C-13.85152164 20.86864002 -16.30618691 12.6726636 -17 4 C-2.89108911 -1.44554455 -2.89108911 -1.44554455 0 0 Z " fill="#EFEEEE" transform="translate(117,362)"/>
<path d="M0 0 C2.55088227 0.58685037 5.04560893 1.22854891 7.5625 1.9375 C8.27341797 2.13279297 8.98433594 2.32808594 9.71679688 2.52929688 C11.47931645 3.01428548 13.23985016 3.50648025 15 4 C18.11688942 12.90234856 11.79303977 25.955085 8 34 C4.65541714 39.62288815 0.84088597 44.59919457 -4 49 C-7.33510304 47.88829899 -8.10364173 47.00531858 -10.3125 44.375 C-10.9209375 43.65957031 -11.529375 42.94414062 -12.15625 42.20703125 C-12.7646875 41.47871094 -13.373125 40.75039063 -14 40 C-15.10172106 38.68544647 -16.20568804 37.37277004 -17.3125 36.0625 C-17.78300781 35.49660156 -18.25351562 34.93070312 -18.73828125 34.34765625 C-19.97950473 32.86554616 -19.97950473 32.86554616 -22 32 C-22.37511719 32.86818359 -22.37511719 32.86818359 -22.7578125 33.75390625 C-24.16519751 36.29870619 -25.77282931 37.93448831 -27.875 39.9375 C-30.82763927 42.80961274 -33.52249028 45.69665371 -36 49 C-44.96645135 45.04536425 -49.38430324 35.59639719 -53 27 C-55.63960766 19.93108165 -57.59405535 13.57420569 -57 6 C-57.66 5.67 -58.32 5.34 -59 5 C-56.75194998 4.32678716 -54.50147776 3.66165877 -52.25 3 C-50.99703125 2.62875 -49.7440625 2.2575 -48.453125 1.875 C-45 1 -45 1 -41 1 C-40.64808594 2.05058594 -40.29617188 3.10117187 -39.93359375 4.18359375 C-36.49845212 14.08453749 -32.58006151 24.4536486 -23 30 C-19.4229706 30.18826471 -17.30065158 28.67478836 -14.5625 26.5625 C-7.65547964 20.24107485 -4.4191873 12.17325752 -1.76171875 3.37109375 C-1 1 -1 1 0 0 Z " fill="#71BED7" transform="translate(396,361)"/>
<path d="M0 0 C0.66 0 1.32 0 2 0 C14.48140325 22.66696192 22.26600645 44.32594013 22.0625 70.5 C22.05798828 71.60859375 22.05347656 72.7171875 22.04882812 73.859375 C22.03713172 76.57294027 22.01919945 79.28647744 22 82 C15.07 81.67 8.14 81.34 1 81 C0.9175 78.091875 0.835 75.18375 0.75 72.1875 C0.20985477 59.17774698 -2.23838136 46.45778064 -6.38671875 34.10546875 C-8.29206101 27.56419818 -7.63208868 23.87188289 -5.1875 17.6875 C-4.62240039 16.18375213 -4.06115794 14.67854875 -3.50390625 13.171875 C-3.23852051 12.45451172 -2.97313477 11.73714844 -2.69970703 10.99804688 C-1.43524384 7.38731178 -0.68310586 3.75708223 0 0 Z " fill="#F1B625" transform="translate(367,149)"/>
<path d="M0 0 C12.38369548 4.34721758 22.76731579 13.98048022 32 23 C32.80050781 23.73863281 33.60101563 24.47726563 34.42578125 25.23828125 C40.53253205 31.00752596 46.49603365 37.29308956 50 45 C50.1056695 49.46747182 48.67138403 52.90386183 47 57 C46.5619196 58.34632033 46.1367262 59.69688356 45.72265625 61.05078125 C44.57780312 64.74920368 43.43947565 68.40368626 42 72 C41.01 72.495 41.01 72.495 40 73 C39.52691406 72.05640625 39.05382812 71.1128125 38.56640625 70.140625 C34.11873662 61.43677947 29.23889812 53.57431444 23 46 C22.22914063 45.06414062 21.45828125 44.12828125 20.6640625 43.1640625 C13.30356039 34.66018142 4.7498807 27.62285172 -5 22 C-4.36684209 16.87475334 -3.31839344 12.03469229 -1.9375 7.0625 C-1.75123047 6.37865234 -1.56496094 5.69480469 -1.37304688 4.99023438 C-0.91910943 3.32579707 -0.46009084 1.66274688 0 0 Z " fill="#F4C245" transform="translate(318,103)"/>
<path d="M0 0 C9.93005167 4.96502584 16.22874256 9.99510872 21.01953125 20.1640625 C22.02843512 22.34721058 22.02843512 22.34721058 25 24.375 C29.61057405 28.40925229 30.24529174 33.06225576 30.75 39 C32.21660305 62.56679389 32.21660305 62.56679389 28 71 C26.9171875 71.4021875 26.9171875 71.4021875 25.8125 71.8125 C22.2131069 73.33224375 19.92249685 75.41732837 17 78 C14.51257295 73.02514589 15.62511624 65.35861698 16.6875 60 C17.3121045 57.01885573 17.3121045 57.01885573 15.6875 54.9375 C14.8521875 53.9784375 14.8521875 53.9784375 14 53 C11.60609181 47.70820295 11.79770316 42.68678894 12 37 C11.20335937 37.54140625 11.20335937 37.54140625 10.390625 38.09375 C9.68421875 38.5578125 8.9778125 39.021875 8.25 39.5 C7.55390625 39.9640625 6.8578125 40.428125 6.140625 40.90625 C4 42 4 42 0 42 C0 28.14 0 14.28 0 0 Z " fill="#3C4446" transform="translate(276,173)"/>
<path d="M0 0 C8.55529492 2.13882373 14.37160205 8.73237513 19 16 C19.37125 17.134375 19.7425 18.26875 20.125 19.4375 C20.41375 20.283125 20.7025 21.12875 21 22 C22.64551962 22.71727778 24.31422289 23.38325228 26 24 C33.43178232 33.8205695 30.4735703 51.46257566 29.4375 63.0625 C29.33308594 64.33222656 29.22867187 65.60195313 29.12109375 66.91015625 C28 70 28 70 24.5625 71.796875 C22.7990625 72.39242187 22.7990625 72.39242187 21 73 C18.62208021 75.04044964 18.62208021 75.04044964 17 77 C16.12956596 73.99493008 15.86515746 71.31250794 15.875 68.1875 C15.87628906 67.30449219 15.87757813 66.42148437 15.87890625 65.51171875 C16 63 16 63 16.8125 59.5 C17.05787604 54.9196472 15.33301948 52.57315796 13.1484375 48.64453125 C11.32805777 44.45270445 11.57110255 40.47959563 12 36 C11.30132812 36.433125 10.60265625 36.86625 9.8828125 37.3125 C8.97273438 37.869375 8.06265625 38.42625 7.125 39 C6.22007812 39.556875 5.31515625 40.11375 4.3828125 40.6875 C2 42 2 42 0 42 C0 28.14 0 14.28 0 0 Z " fill="#3E4546" transform="translate(395,234)"/>
<path d="M0 0 C10.47537281 3.49179094 15.88441134 10.36031261 21 20 C21 20.66 21 21.32 21 22 C21.86625 22.309375 21.86625 22.309375 22.75 22.625 C26.66850794 25.01964374 28.57583774 28.72751322 30 33 C31.73294168 59.59992667 31.73294168 59.59992667 28 70 C24.625 72.125 24.625 72.125 21 73 C18.62208021 75.04044964 18.62208021 75.04044964 17 77 C15.66989057 74.33978115 15.86754491 72.28335256 15.875 69.3125 C15.87757813 68.23226562 15.88015625 67.15203125 15.8828125 66.0390625 C16 63 16 63 16.75 59.1875 C17.03969705 55.49386265 16.05562835 54.18169838 14.05859375 51.17578125 C11.79359287 46.52041044 11.58217716 41.09405013 11 36 C10.37351563 36.433125 9.74703125 36.86625 9.1015625 37.3125 C8.28429687 37.869375 7.46703125 38.42625 6.625 39 C5.81289062 39.556875 5.00078125 40.11375 4.1640625 40.6875 C2 42 2 42 0 42 C0 28.14 0 14.28 0 0 Z " fill="#3E4546" transform="translate(157,234)"/>
<path d="M0 0 C2.46983257 2.29975428 4.26010213 4.75614403 6.125 7.5625 C17.47526416 23.83121197 32.11357921 33.94846428 51 40 C51 41.32 51 42.64 51 44 C30.78175468 50.80154275 30.78175468 50.80154275 23.0625 53.125 C16.28411916 55.17096797 9.64806979 57.56802245 3 60 C3.10699219 59.24074219 3.21398437 58.48148437 3.32421875 57.69921875 C3.44410156 56.70535156 3.56398437 55.71148437 3.6875 54.6875 C3.81511719 53.70136719 3.94273437 52.71523438 4.07421875 51.69921875 C4.29588377 48.97101413 4.29588377 48.97101413 2.53515625 47.41796875 C2.02855469 46.95003906 1.52195313 46.48210937 1 46 C0.671875 43.9140625 0.671875 43.9140625 0.75 41.625 C0.76546875 40.87476563 0.7809375 40.12453125 0.796875 39.3515625 C1 37 1 37 1.5 34.68041992 C2.3645726 30.04558467 2.22620518 25.38995133 2.25 20.6875 C2.270625 19.68009766 2.29125 18.67269531 2.3125 17.63476562 C2.34522608 11.35544941 1.60060801 6.72818132 -1 1 C-0.67 0.67 -0.34 0.34 0 0 Z " fill="#FED351" transform="translate(184,258)"/>
<path d="M0 0 C5.75762166 1.08896667 11.39247819 2.29336293 17 4 C16.61957216 18.69834842 10.48934206 35.51065794 0 46 C-1.64638382 46.71529194 -3.31162915 47.39038856 -5 48 C-6.37511396 46.64594906 -7.72452446 45.26576016 -9.0625 43.875 C-10.19365234 42.72644531 -10.19365234 42.72644531 -11.34765625 41.5546875 C-13 39 -13 39 -12.92578125 36.2265625 C-11.78857435 32.26313254 -10.52245238 28.37878247 -9.125 24.5 C-8.86847656 23.76652344 -8.61195313 23.03304688 -8.34765625 22.27734375 C-6.82915669 18.0118098 -5.03614948 14.04973774 -3 10 C-2.39191392 8.22328758 -1.82517124 6.43155581 -1.3125 4.625 C-1.06113281 3.75101562 -0.80976563 2.87703125 -0.55078125 1.9765625 C-0.36902344 1.32429688 -0.18726563 0.67203125 0 0 Z " fill="#E56262" transform="translate(276,302)"/>
<path d="M0 0 C2.55088227 0.58685037 5.04560893 1.22854891 7.5625 1.9375 C8.62887695 2.23043945 8.62887695 2.23043945 9.71679688 2.52929688 C11.47931645 3.01428548 13.23985016 3.50648025 15 4 C18.11688942 12.90234856 11.79303977 25.955085 8 34 C4.65541714 39.62288815 0.84088597 44.59919457 -4 49 C-8.66635051 47.44454983 -11.31173456 44.03614226 -14 40 C-14.30698458 35.29290317 -11.82605571 30.87857704 -10.03515625 26.55859375 C-8.83879353 23.60154627 -7.84240877 20.60983025 -6.85546875 17.578125 C-5.73596865 14.2042891 -4.56102413 10.85086774 -3.375 7.5 C-2.94960938 6.2934375 -2.52421875 5.086875 -2.0859375 3.84375 C-1 1 -1 1 0 0 Z " fill="#58B4D1" transform="translate(396,361)"/>
<path d="M0 0 C0.33 0 0.66 0 1 0 C0.6599776 13.9718294 -5.50334205 24.79167505 -15.4375 34.34375 C-18 36 -18 36 -20.53515625 35.95703125 C-28.74438101 32.76961435 -33.27915792 25.67335257 -36.78125 17.96875 C-41.52409639 6.41566265 -41.52409639 6.41566265 -41 1 C-38.17185223 2.36334478 -35.52248944 3.87636129 -32.875 5.5625 C-26.35431233 9.7086731 -20.72124571 9.74802165 -13 9 C-7.7389424 7.1553094 -3.69926064 4.16166822 0 0 Z " fill="#F7BD8A" transform="translate(157,356)"/>
<path d="M0 0 C0.50789063 0.39832031 1.01578125 0.79664063 1.5390625 1.20703125 C8.63809025 6.67088969 14.76961951 10.44794494 24 10 C30.47675025 8.39033707 35.10394687 5.40644781 40 1 C40.66 1 41.32 1 42 1 C41.22885506 14.10946394 35.3451986 25.21473602 25.875 34.125 C23 36 23 36 20.56640625 35.80078125 C13.42680023 33.5730503 8.82623402 27.0281647 5.3203125 20.75390625 C2.07649784 13.98796146 -0.29080509 7.56093233 0 0 Z " fill="#F5BC89" transform="translate(354,356)"/>
<path d="M0 0 C0.72445312 0.48210937 1.44890625 0.96421875 2.1953125 1.4609375 C3.16210938 2.09257812 4.12890625 2.72421875 5.125 3.375 C6.07632813 4.00148438 7.02765625 4.62796875 8.0078125 5.2734375 C13.44522298 8.41095112 18.72745698 9.89766075 25 9 C31.35883795 7.17897056 36.21277055 4.53527001 41 0 C43.16546733 4.33093465 40.01419466 11.53172023 38.66210938 16.06640625 C37.20959399 20.30826533 34.8998252 23.62955878 32 27 C31.42894531 27.67933594 30.85789062 28.35867188 30.26953125 29.05859375 C27.69875121 31.87907428 25.53464102 33.7497425 22.0625 35.375 C16.18975394 34.65588824 12.59976603 29.73307987 8.75 25.5625 C3.63037713 18.06590936 -0.32703053 9.20590939 0 0 Z " fill="#F6BC89" transform="translate(235,297)"/>
<path d="M0 0 C3.03950359 0.55382634 5.29816564 1.07623953 7.22607422 3.61376953 C8.38133202 5.73096052 9.42337225 7.87421701 10.4375 10.0625 C13.8664475 17.01385864 17.46164212 23.46164212 23 29 C23.04092937 31.33297433 23.04241723 33.66705225 23 36 C18.73128529 37.34018305 14.45969936 38.67097109 10.1875 40 C8.97255859 40.3815625 7.75761719 40.763125 6.50585938 41.15625 C4.76079102 41.69765625 4.76079102 41.69765625 2.98046875 42.25 C1.90692139 42.58515625 0.83337402 42.9203125 -0.27270508 43.265625 C-3 44 -3 44 -6 44 C-5.80664062 43.29875 -5.61328125 42.5975 -5.4140625 41.875 C-5.15367187 40.92625 -4.89328125 39.9775 -4.625 39 C-4.36976563 38.071875 -4.11453125 37.14375 -3.8515625 36.1875 C-3.57054687 35.135625 -3.28953125 34.08375 -3 33 C-2.649375 31.824375 -2.29875 30.64875 -1.9375 29.4375 C-0.5160151 23.71339973 -0.53633225 17.86846051 -0.375 12 C-0.33632813 10.84371094 -0.29765625 9.68742187 -0.2578125 8.49609375 C-0.16419668 5.6642152 -0.07846325 2.83233206 0 0 Z " fill="#F05954" transform="translate(331,326)"/>
<path d="M0 0 C13.86 0 27.72 0 42 0 C41.34 4.29 40.68 8.58 40 13 C27.46 13 14.92 13 2 13 C0 5 0 5 0 0 Z " fill="#F15954" transform="translate(235,405)"/>
<path d="M0 0 C0.66 4.29 1.32 8.58 2 13 C1.01 13.33 0.02 13.66 -1 14 C-2.21869929 16.50447516 -2.21869929 16.50447516 -3 19 C-5.4291373 15.98672998 -7.09184125 12.9594495 -8.6875 9.4375 C-9.12449219 8.48746094 -9.56148438 7.53742188 -10.01171875 6.55859375 C-11 4 -11 4 -11 1 C-3.375 0 -3.375 0 0 0 Z " fill="#FCD355" transform="translate(88,291)"/>
<path d="M0 0 C0.33 0 0.66 0 1 0 C2.5890677 11.32403587 3.49761154 22.57727299 4 34 C1.69 34 -0.62 34 -3 34 C-2.41030329 22.6095425 -1.35007127 11.32486965 0 0 Z " fill="#C3BFC2" transform="translate(201,444)"/>
<path d="M0 0 C2.20283632 3.59038802 2.38592432 6.79129562 2.6328125 10.953125 C2.67437469 11.61334656 2.71593689 12.27356812 2.75875854 12.95379639 C2.88898423 15.05212876 3.00715632 17.15093948 3.125 19.25 C3.21144378 20.67713176 3.29867468 22.10421607 3.38671875 23.53125 C3.60026515 27.02033015 3.80301121 30.5099414 4 34 C1.69 34 -0.62 34 -3 34 C-2.68986764 30.02064515 -2.37646009 26.04155453 -2.0625 22.0625 C-1.93198242 20.38704102 -1.93198242 20.38704102 -1.79882812 18.67773438 C-1.30462158 12.43608879 -0.73195727 6.21833969 0 0 Z " fill="#42ABD6" transform="translate(439,444)"/>
<path d="M0 0 C0.33 0 0.66 0 1 0 C1.42998603 3.91409265 1.85715029 7.82848207 2.28173828 11.74316406 C2.49753938 13.72737551 2.71555385 15.71134582 2.93359375 17.6953125 C3.06894531 18.94570313 3.20429687 20.19609375 3.34375 21.484375 C3.53227539 23.21252441 3.53227539 23.21252441 3.72460938 24.97558594 C4 28 4 28 4 32 C1.69 32 -0.62 32 -3 32 C-3.02736707 30.60427948 -3.04655989 29.20839779 -3.0625 27.8125 C-3.07410156 27.03519531 -3.08570312 26.25789063 -3.09765625 25.45703125 C-3 23 -3 23 -2.52734375 20.67578125 C-1.6002665 15.97172264 -1.54417905 11.17811194 -1.28125 6.3984375 C-1 3 -1 3 0 0 Z " fill="#C2BEC1" transform="translate(72,446)"/>
<path d="M0 0 C1 2 1 2 0.0390625 4.96875 C-0.42757813 6.1340625 -0.89421875 7.299375 -1.375 8.5 C-1.83648437 9.6653125 -2.29796875 10.830625 -2.7734375 12.03125 C-3.46647313 13.70866109 -4.18833426 15.37666852 -5 17 C-8.71860179 15.46126823 -9.35633541 14.52488612 -12 11 C-8.04 7.37 -4.08 3.74 0 0 Z " fill="#E97A79" transform="translate(268,322)"/>
<path d="M0 0 C1.65 0 3.3 0 5 0 C5.33 4.29 5.66 8.58 6 13 C3.69 13 1.38 13 -1 13 C-0.67 8.71 -0.34 4.42 0 0 Z " fill="#42ABD5" transform="translate(308,465)"/>
<path d="M0 0 C0.33 0 0.66 0 1 0 C1.84023188 4.35332736 2.10770995 8.44442519 2.0625 12.875 C2.05347656 14.02742188 2.04445313 15.17984375 2.03515625 16.3671875 C2.02355469 17.23601562 2.01195312 18.10484375 2 19 C1.01 19 0.02 19 -1 19 C-1.02705308 16.58325776 -1.04686438 14.1668206 -1.0625 11.75 C-1.07087891 11.06808594 -1.07925781 10.38617188 -1.08789062 9.68359375 C-1.10428392 6.30657446 -1.05628768 3.22708361 0 0 Z " fill="#5EB8DC" transform="translate(310,446)"/>
<path d="M0 0 C0.33 0 0.66 0 1 0 C1.96205088 6.37358711 2.10655578 12.55929529 2 19 C0.68 18.67 -0.64 18.34 -2 18 C-1.8590651 15.56212615 -1.71245458 13.12482147 -1.5625 10.6875 C-1.52318359 9.99720703 -1.48386719 9.30691406 -1.44335938 8.59570312 C-1.25072585 5.52838465 -0.97677283 2.93031848 0 0 Z " fill="#CBC8CA" transform="translate(72,446)"/>
<path d="M0 0 C1.9451 2.91765 2.45276317 4.62537285 3 8 C0.03 7.01 -2.94 6.02 -6 5 C-5.195625 4.360625 -4.39125 3.72125 -3.5625 3.0625 C-1.7249496 1.59396498 -1.7249496 1.59396498 0 0 Z " fill="#F2B42B" transform="translate(322,310)"/>
<path d="M0 0 C2.97 1.98 2.97 1.98 6 4 C3.53721199 6.46278801 1.29323018 6.99771255 -2 8 C-1.34 5.36 -0.68 2.72 0 0 Z " fill="#F4C147" transform="translate(189,310)"/>
<path d="M0 0 C2.89932357 2.39509338 3.50168276 4.31245243 4 8 C3.34 8 2.68 8 2 8 C1.01 5.69 0.02 3.38 -1 1 C-0.67 0.67 -0.34 0.34 0 0 Z " fill="#F3D25D" transform="translate(184,258)"/>
</svg>
