<svg version="1.1" id="Layer_1" xmlns="http://www.w3.org/2000/svg" xmlns:xlink="http://www.w3.org/1999/xlink" x="0px" y="0px"
	 width="100%" viewBox="0 0 512 512" enable-background="new 0 0 512 512" xml:space="preserve">
<path fill="#F7F7F7" opacity="1.000000" stroke="none" 
	d="
M1.000000,438.000000 
	C1.000000,292.378326 1.000000,146.756653 1.000000,1.067488 
	C171.568939,1.067488 342.137939,1.067488 513.000000,1.067488 
	C513.000000,146.357285 513.000000,291.714752 512.685120,437.391113 
	C510.390198,434.130554 507.301880,432.918701 503.299469,432.955780 
	C493.230896,433.049072 483.160217,432.915375 473.058594,432.414673 
	C473.017242,339.249542 473.013672,246.542404 472.991730,153.835266 
	C472.988342,139.547104 462.422211,129.039413 448.098480,129.004181 
	C435.116516,128.972244 422.134491,128.961411 409.087006,128.480560 
	C408.961945,116.043533 408.902405,104.067215 408.913086,91.672028 
	C409.612122,85.830109 407.412567,82.298172 402.111633,80.670982 
	C400.373749,80.137512 398.753387,79.220726 397.080078,78.477394 
	C352.202332,58.541374 307.311523,38.634720 262.470795,18.615740 
	C258.656952,16.913059 255.377350,16.931581 251.540817,18.649332 
	C216.753677,34.224663 181.894241,49.638500 147.056976,65.101852 
	C134.887543,70.503540 122.606384,75.676636 110.646599,81.508560 
	C108.163162,82.719543 105.461769,86.369949 105.436020,88.922089 
	C105.410324,91.469414 108.501633,94.143364 110.471710,96.561996 
	C111.126221,97.365532 112.546455,97.537155 113.606590,98.019730 
	C126.767044,104.010323 139.925644,110.004974 153.045746,116.460732 
	C152.950836,120.931793 152.894867,124.940704 152.380707,128.968475 
	C123.290726,128.992096 94.658920,128.984589 66.027145,129.006714 
	C51.442528,129.017990 41.008213,139.531693 41.005779,154.213928 
	C40.995956,213.475220 41.011551,272.736511 40.996952,331.997803 
	C40.988667,365.622772 40.940060,399.247742 40.449051,432.922302 
	C30.848724,432.981232 21.701254,433.217865 12.572299,432.908325 
	C7.683459,432.742584 3.792897,433.872559 1.000000,438.000000 
z"/>
<path fill="#8B8A92" opacity="1.000000" stroke="none" 
	d="
M473.090363,432.872681 
	C483.160217,432.915375 493.230896,433.049072 503.299469,432.955780 
	C507.301880,432.918701 510.390198,434.130554 512.685120,437.854980 
	C513.000000,451.354218 513.000000,464.708466 512.692627,478.696655 
	C507.530975,491.949921 498.361908,497.143188 484.861511,497.112885 
	C390.069244,496.899933 295.276337,497.000122 200.483627,496.999939 
	C142.508469,496.999847 84.533272,496.966553 26.558186,497.028931 
	C16.031891,497.040283 8.378636,492.519012 3.379884,483.373901 
	C2.443488,481.660828 1.786122,479.795227 1.000003,478.000000 
	C1.000000,464.979095 1.000000,451.958221 1.000000,438.468658 
	C3.792897,433.872559 7.683459,432.742584 12.572299,432.908325 
	C21.701254,433.217865 30.848724,432.981232 40.923172,432.965790 
	C91.499245,432.973145 141.141342,433.124634 190.781311,432.866241 
	C199.209320,432.822388 206.773575,434.199768 214.114975,438.379395 
	C217.103470,440.080811 221.000366,440.854523 224.495514,440.889343 
	C246.482224,441.108337 268.472717,441.072754 290.460449,440.912201 
	C293.324005,440.891296 296.564789,440.318481 298.967041,438.887146 
	C306.975311,434.115845 315.397797,432.801300 324.670624,432.852142 
	C374.142395,433.123566 423.616852,432.915100 473.090363,432.872681 
z"/>
<path fill="#F7F7F7" opacity="1.000000" stroke="none" 
	d="
M1.000003,478.468658 
	C1.786122,479.795227 2.443488,481.660828 3.379884,483.373901 
	C8.378636,492.519012 16.031891,497.040283 26.558186,497.028931 
	C84.533272,496.966553 142.508469,496.999847 200.483627,496.999939 
	C295.276337,497.000122 390.069244,496.899933 484.861511,497.112885 
	C498.361908,497.143188 507.530975,491.949921 512.692627,479.165283 
	C513.000000,490.324799 513.000000,501.649567 513.000000,512.955872 
	C342.333313,512.955872 171.666656,512.955872 1.000000,512.955872 
	C1.000000,501.586945 1.000000,490.262115 1.000003,478.468658 
z"/>
<path fill="#C8C5CC" opacity="1.000000" stroke="none" 
	d="
M473.058594,432.414673 
	C423.616852,432.915100 374.142395,433.123566 324.670624,432.852142 
	C315.397797,432.801300 306.975311,434.115845 298.967041,438.887146 
	C296.564789,440.318481 293.324005,440.891296 290.460449,440.912201 
	C268.472717,441.072754 246.482224,441.108337 224.495514,440.889343 
	C221.000366,440.854523 217.103470,440.080811 214.114975,438.379395 
	C206.773575,434.199768 199.209320,432.822388 190.781311,432.866241 
	C141.141342,433.124634 91.499245,432.973145 41.383736,432.916199 
	C40.940060,399.247742 40.988667,365.622772 40.996952,331.997803 
	C41.011551,272.736511 40.995956,213.475220 41.005779,154.213928 
	C41.008213,139.531693 51.442528,129.017990 66.027145,129.006714 
	C94.658920,128.984589 123.290726,128.992096 152.441742,129.436447 
	C152.928299,140.232941 152.895645,150.580322 152.406738,160.953796 
	C129.289444,160.986710 106.628372,160.982391 83.967346,161.006409 
	C76.125992,161.014725 73.007904,164.064774 73.006592,171.798264 
	C72.993340,249.945694 72.992981,328.093109 73.007378,406.240540 
	C73.008797,413.954407 76.135986,416.987183 84.005333,416.993866 
	C105.000153,417.011658 125.994987,416.999969 146.989822,416.999969 
	C241.133316,417.000000 335.276794,417.001465 429.420288,416.997498 
	C438.028198,416.997162 440.995392,414.146667 440.996307,405.815582 
	C441.004761,327.834778 441.006195,249.853973 440.993744,171.873169 
	C440.992523,164.078354 437.911591,161.047760 430.108704,161.001526 
	C423.111572,160.960083 416.114410,160.928848 409.071625,160.433197 
	C409.068176,149.629288 409.110352,139.285278 409.152496,128.941269 
	C422.134491,128.961411 435.116516,128.972244 448.098480,129.004181 
	C462.422211,129.039413 472.988342,139.547104 472.991730,153.835266 
	C473.013672,246.542404 473.017242,339.249542 473.058594,432.414673 
z"/>
<path fill="#3F82C3" opacity="1.000000" stroke="none" 
	d="
M153.084717,115.998581 
	C139.925644,110.004974 126.767044,104.010323 113.606590,98.019730 
	C112.546455,97.537155 111.126221,97.365532 110.471710,96.561996 
	C108.501633,94.143364 105.410324,91.469414 105.436020,88.922089 
	C105.461769,86.369949 108.163162,82.719543 110.646599,81.508560 
	C122.606384,75.676636 134.887543,70.503540 147.056976,65.101852 
	C181.894241,49.638500 216.753677,34.224663 251.540817,18.649332 
	C255.377350,16.931581 258.656952,16.913059 262.470795,18.615740 
	C307.311523,38.634720 352.202332,58.541374 397.080078,78.477394 
	C398.753387,79.220726 400.373749,80.137512 402.111633,80.670982 
	C407.412567,82.298172 409.612122,85.830109 408.654480,91.869781 
	C406.872467,93.791557 405.589905,95.396721 403.930969,96.340004 
	C400.371063,98.364189 396.616974,100.046928 392.566711,101.865265 
	C381.764130,106.574295 371.337158,111.287506 360.546844,116.040726 
	C349.080627,120.915894 337.948914,125.685966 326.881104,130.600052 
	C305.008789,140.311310 283.214630,150.200897 261.259521,159.720108 
	C258.847534,160.765884 255.271286,160.703186 252.793442,159.731125 
	C244.631287,156.529068 236.735977,152.649918 228.719772,149.072052 
	C208.396011,140.000931 188.076706,130.919601 167.721893,121.918571 
	C162.910980,119.791153 157.967316,117.963913 153.084717,115.998581 
z"/>
<path fill="#346799" opacity="1.000000" stroke="none" 
	d="
M153.045746,116.460732 
	C157.967316,117.963913 162.910980,119.791153 167.721893,121.918571 
	C188.076706,130.919601 208.396011,140.000931 228.719772,149.072052 
	C236.735977,152.649918 244.631287,156.529068 252.793442,159.731125 
	C255.271286,160.703186 258.847534,160.765884 261.259521,159.720108 
	C283.214630,150.200897 305.008789,140.311310 326.881104,130.600052 
	C337.948914,125.685966 349.080627,120.915894 360.588043,116.502464 
	C361.047363,120.930672 361.102112,124.937134 361.097504,129.412415 
	C361.070404,140.229401 361.102661,150.577591 361.088745,161.395706 
	C361.064270,166.947311 361.086060,172.028992 361.066925,177.569031 
	C361.021179,181.522934 360.878296,185.025116 361.045166,188.512451 
	C361.272430,193.261978 359.289917,196.368835 354.938324,198.297089 
	C323.806854,212.091949 292.733948,226.019882 261.534149,239.657867 
	C259.099365,240.722122 255.424194,240.858521 253.028717,239.813797 
	C221.509186,226.067398 190.121307,212.019379 158.684875,198.082001 
	C154.718719,196.323578 152.860260,193.428955 152.960297,189.087479 
	C153.052231,185.096695 152.921616,181.100784 152.924255,176.634613 
	C152.927292,171.083954 152.895142,166.005844 152.862976,160.927719 
	C152.895645,150.580322 152.928299,140.232941 152.899933,129.417572 
	C152.894867,124.940704 152.950836,120.931793 153.045746,116.460732 
z"/>
<path fill="#56555B" opacity="1.000000" stroke="none" 
	d="
M392.942383,101.869461 
	C396.616974,100.046928 400.371063,98.364189 403.930969,96.340004 
	C405.589905,95.396721 406.872467,93.791557 408.584229,92.288651 
	C408.902405,104.067215 408.961945,116.043533 409.087006,128.480560 
	C409.110352,139.285278 409.068176,149.629288 409.032837,160.907379 
	C409.057648,166.934525 409.075653,172.027618 409.053345,177.579880 
	C408.943054,189.711258 408.873138,201.383438 408.502930,212.891663 
	C404.139771,207.501770 398.185852,209.534363 392.971680,208.304153 
	C392.955566,197.608414 392.931702,187.366089 392.936646,176.649216 
	C392.937744,171.080765 392.909943,165.986832 392.927856,160.433044 
	C392.932281,149.628357 392.890991,139.283554 392.915161,128.478058 
	C392.967926,119.301407 392.955139,110.585434 392.942383,101.869461 
z"/>
<path fill="#8B8A92" opacity="1.000000" stroke="none" 
	d="
M409.093658,177.120697 
	C409.075653,172.027618 409.057648,166.934525 409.078430,161.367279 
	C416.114410,160.928848 423.111572,160.960083 430.108704,161.001526 
	C437.911591,161.047760 440.992523,164.078354 440.993744,171.873169 
	C441.006195,249.853973 441.004761,327.834778 440.996307,405.815582 
	C440.995392,414.146667 438.028198,416.997162 429.420288,416.997498 
	C335.276794,417.001465 241.133316,417.000000 146.989822,416.999969 
	C125.994987,416.999969 105.000153,417.011658 84.005333,416.993866 
	C76.135986,416.987183 73.008797,413.954407 73.007378,406.240540 
	C72.992981,328.093109 72.993340,249.945694 73.006592,171.798264 
	C73.007904,164.064774 76.125992,161.014725 83.967346,161.006409 
	C106.628372,160.982391 129.289444,160.986710 152.406738,160.953796 
	C152.895142,166.005844 152.927292,171.083954 152.465424,176.594910 
	C131.059692,177.027740 110.147995,177.027740 89.303413,177.027740 
	C89.303413,252.055557 89.303413,326.306000 89.303413,400.624817 
	C201.304596,400.624817 313.002350,400.624817 424.723572,400.624817 
	C424.723572,325.998322 424.723572,251.747726 424.723572,177.120697 
	C419.336029,177.120697 414.214844,177.120697 409.093658,177.120697 
z"/>
<path fill="#F5F6F7" opacity="1.000000" stroke="none" 
	d="
M392.566711,101.865273 
	C392.955139,110.585434 392.967926,119.301407 392.457062,128.499756 
	C381.674561,128.969299 371.415710,128.956451 361.156860,128.943604 
	C361.102112,124.937134 361.047363,120.930672 360.951416,116.462463 
	C371.337158,111.287506 381.764130,106.574295 392.566711,101.865273 
z"/>
<path fill="#FFFFFF" opacity="1.000000" stroke="none" 
	d="
M409.053345,177.579880 
	C414.214844,177.120697 419.336029,177.120697 424.723572,177.120697 
	C424.723572,251.747726 424.723572,325.998322 424.723572,400.624817 
	C313.002350,400.624817 201.304596,400.624817 89.303413,400.624817 
	C89.303413,326.306000 89.303413,252.055557 89.303413,177.027740 
	C110.147995,177.027740 131.059692,177.027740 152.430222,177.067444 
	C152.921616,181.100784 153.052231,185.096695 152.960297,189.087479 
	C152.860260,193.428955 154.718719,196.323578 158.684875,198.082001 
	C190.121307,212.019379 221.509186,226.067398 253.028717,239.813797 
	C255.424194,240.858521 259.099365,240.722122 261.534149,239.657867 
	C292.733948,226.019882 323.806854,212.091949 354.938324,198.297089 
	C359.289917,196.368835 361.272430,193.261978 361.045166,188.512451 
	C360.878296,185.025116 361.021179,181.522934 361.525848,177.527512 
	C372.319733,177.059677 382.613770,177.091721 392.907806,177.123749 
	C392.931702,187.366089 392.955566,197.608414 392.512665,208.398865 
	C386.882141,208.964081 381.714661,208.861908 376.555573,209.025345 
	C368.130402,209.292236 361.310242,215.972672 361.048553,224.289749 
	C360.865295,230.114273 360.858368,235.954239 361.048859,241.778259 
	C361.313690,249.875473 368.013489,256.636963 376.133453,256.940033 
	C382.121674,257.163574 388.134277,257.188263 394.119446,256.925049 
	C401.955811,256.580322 408.750061,249.839981 408.919983,242.024185 
	C409.129730,232.373413 408.863678,222.712280 408.803223,213.055634 
	C408.873138,201.383438 408.943054,189.711258 409.053345,177.579880 
M260.500000,288.998901 
	C233.866516,288.998901 207.233032,288.998840 180.599548,288.999207 
	C179.434341,288.999237 178.264679,288.937775 177.104691,289.016632 
	C172.371292,289.338562 169.110611,292.532074 169.038742,296.862000 
	C168.966812,301.196838 172.181976,304.564667 176.839096,304.965942 
	C177.996231,305.065613 179.168137,305.000153 180.333252,305.000153 
	C231.436249,305.001190 282.539246,305.001373 333.642242,304.999298 
	C334.973633,304.999237 336.319336,305.093353 337.633789,304.936951 
	C341.961090,304.422028 345.028015,300.998962 344.962158,296.881378 
	C344.896027,292.746399 341.790833,289.485992 337.403015,289.048065 
	C336.083649,288.916412 334.741882,289.000336 333.410400,289.000244 
	C309.440277,288.998444 285.470123,288.998901 260.500000,288.998901 
M340.238892,336.195374 
	C344.158203,334.156891 345.855438,330.942291 344.556732,326.701477 
	C343.261536,322.471924 339.959900,320.821716 335.657440,320.997040 
	C335.158691,321.017365 334.658356,320.999023 334.158752,320.999023 
	C282.699127,320.998993 231.239532,320.998291 179.779922,321.003235 
	C178.449249,321.003357 177.073517,320.858643 175.796234,321.136932 
	C171.779114,322.012054 169.228668,324.489807 169.090363,328.691467 
	C168.943939,333.139893 171.473221,335.817474 175.687881,336.836761 
	C176.954041,337.142914 178.338516,336.995636 179.668777,336.995789 
	C231.294922,337.001862 282.921051,337.005157 334.547211,336.981598 
	C336.192871,336.980835 337.838379,336.694458 340.238892,336.195374 
M175.307007,368.827698 
	C196.769211,368.885864 218.231415,368.974915 239.693634,368.981720 
	C245.439606,368.983551 249.068787,365.671875 248.964432,360.836792 
	C248.860580,356.025238 245.268387,353.019501 239.372604,353.009979 
	C219.071991,352.977173 198.771149,353.038239 178.470734,352.966156 
	C173.940216,352.950073 170.479538,354.561188 169.323059,359.026062 
	C168.161499,363.510559 170.244171,366.754028 175.307007,368.827698 
M340.252686,257.797455 
	C338.632935,257.530762 337.013794,257.036163 335.393372,257.031982 
	C315.089752,256.979279 294.785858,256.974457 274.482147,257.012115 
	C268.626251,257.022980 265.047546,260.125458 265.036499,264.974792 
	C265.025452,269.821716 268.612579,272.973877 274.441406,272.986023 
	C294.745087,273.028351 315.049072,272.966156 335.352631,273.032410 
	C339.593109,273.046234 342.953094,271.782837 344.463959,267.591034 
	C345.906586,263.588593 344.372101,260.467438 340.252686,257.797455 
M233.481155,262.307312 
	C232.437500,269.456512 237.322296,274.979523 243.033279,272.482147 
	C245.565598,271.374756 248.018509,268.091461 248.742477,265.332703 
	C249.713989,261.630676 247.124832,258.625092 243.394379,257.446228 
	C239.155762,256.106750 235.944046,257.753113 233.481155,262.307312 
M269.610748,353.827087 
	C265.549957,356.082916 264.014709,359.434875 265.605713,363.857635 
	C267.055145,367.886841 271.402679,369.904480 275.336731,368.621307 
	C279.376495,367.303680 281.781708,363.163635 280.816559,359.188995 
	C279.718964,354.668915 275.925171,352.613861 269.610748,353.827087 
M213.112976,258.146698 
	C207.417465,256.077942 202.913116,257.798462 201.354767,262.637909 
	C200.031464,266.747437 202.333466,271.220032 206.587433,272.575745 
	C210.424850,273.798645 213.618439,272.509644 215.676056,269.249817 
	C218.172867,265.294189 217.248672,261.632294 213.112976,258.146698 
z"/>
<path fill="#C8C5CC" opacity="1.000000" stroke="none" 
	d="
M361.097473,129.412415 
	C371.415710,128.956451 381.674561,128.969299 392.391541,128.960449 
	C392.890991,139.283554 392.932281,149.628357 392.469543,160.470154 
	C381.688629,160.953339 371.411774,160.939560 361.134949,160.925781 
	C361.102661,150.577591 361.070404,140.229401 361.097473,129.412415 
z"/>
<path fill="#8B8A92" opacity="1.000000" stroke="none" 
	d="
M361.088745,161.395706 
	C371.411774,160.939560 381.688629,160.953339 392.423798,160.930023 
	C392.909943,165.986832 392.937744,171.080765 392.936646,176.649216 
	C382.613770,177.091721 372.319733,177.059677 361.566772,177.069153 
	C361.086060,172.028992 361.064270,166.947311 361.088745,161.395706 
z"/>
<path fill="#FDAA22" opacity="1.000000" stroke="none" 
	d="
M408.502930,212.891663 
	C408.863678,222.712280 409.129730,232.373413 408.919983,242.024185 
	C408.750061,249.839981 401.955811,256.580322 394.119446,256.925049 
	C388.134277,257.188263 382.121674,257.163574 376.133453,256.940033 
	C368.013489,256.636963 361.313690,249.875473 361.048859,241.778259 
	C360.858368,235.954239 360.865295,230.114273 361.048553,224.289749 
	C361.310242,215.972672 368.130402,209.292236 376.555573,209.025345 
	C381.714661,208.861908 386.882141,208.964081 392.504883,208.852264 
	C398.185852,209.534363 404.139771,207.501770 408.502930,212.891663 
z"/>
<path fill="#57565B" opacity="1.000000" stroke="none" 
	d="
M261.000000,288.998901 
	C285.470123,288.998901 309.440277,288.998444 333.410400,289.000244 
	C334.741882,289.000336 336.083649,288.916412 337.403015,289.048065 
	C341.790833,289.485992 344.896027,292.746399 344.962158,296.881378 
	C345.028015,300.998962 341.961090,304.422028 337.633789,304.936951 
	C336.319336,305.093353 334.973633,304.999237 333.642242,304.999298 
	C282.539246,305.001373 231.436249,305.001190 180.333252,305.000153 
	C179.168137,305.000153 177.996231,305.065613 176.839096,304.965942 
	C172.181976,304.564667 168.966812,301.196838 169.038742,296.862000 
	C169.110611,292.532074 172.371292,289.338562 177.104691,289.016632 
	C178.264679,288.937775 179.434341,288.999237 180.599548,288.999207 
	C207.233032,288.998840 233.866516,288.998901 261.000000,288.998901 
z"/>
<path fill="#57565B" opacity="1.000000" stroke="none" 
	d="
M339.861450,336.368286 
	C337.838379,336.694458 336.192871,336.980835 334.547211,336.981598 
	C282.921051,337.005157 231.294922,337.001862 179.668777,336.995789 
	C178.338516,336.995636 176.954041,337.142914 175.687881,336.836761 
	C171.473221,335.817474 168.943939,333.139893 169.090363,328.691467 
	C169.228668,324.489807 171.779114,322.012054 175.796234,321.136932 
	C177.073517,320.858643 178.449249,321.003357 179.779922,321.003235 
	C231.239532,320.998291 282.699127,320.998993 334.158752,320.999023 
	C334.658356,320.999023 335.158691,321.017365 335.657440,320.997040 
	C339.959900,320.821716 343.261536,322.471924 344.556732,326.701477 
	C345.855438,330.942291 344.158203,334.156891 339.861450,336.368286 
z"/>
<path fill="#57565C" opacity="1.000000" stroke="none" 
	d="
M174.909271,368.688477 
	C170.244171,366.754028 168.161499,363.510559 169.323059,359.026062 
	C170.479538,354.561188 173.940216,352.950073 178.470734,352.966156 
	C198.771149,353.038239 219.071991,352.977173 239.372604,353.009979 
	C245.268387,353.019501 248.860580,356.025238 248.964432,360.836792 
	C249.068787,365.671875 245.439606,368.983551 239.693634,368.981720 
	C218.231415,368.974915 196.769211,368.885864 174.909271,368.688477 
z"/>
<path fill="#57565C" opacity="1.000000" stroke="none" 
	d="
M340.627686,257.957642 
	C344.372101,260.467438 345.906586,263.588593 344.463959,267.591034 
	C342.953094,271.782837 339.593109,273.046234 335.352631,273.032410 
	C315.049072,272.966156 294.745087,273.028351 274.441406,272.986023 
	C268.612579,272.973877 265.025452,269.821716 265.036499,264.974792 
	C265.047546,260.125458 268.626251,257.022980 274.482147,257.012115 
	C294.785858,256.974457 315.089752,256.979279 335.393372,257.031982 
	C337.013794,257.036163 338.632935,257.530762 340.627686,257.957642 
z"/>
<path fill="#5E5D62" opacity="1.000000" stroke="none" 
	d="
M233.651657,261.955322 
	C235.944046,257.753113 239.155762,256.106750 243.394379,257.446228 
	C247.124832,258.625092 249.713989,261.630676 248.742477,265.332703 
	C248.018509,268.091461 245.565598,271.374756 243.033279,272.482147 
	C237.322296,274.979523 232.437500,269.456512 233.651657,261.955322 
z"/>
<path fill="#5E5D62" opacity="1.000000" stroke="none" 
	d="
M269.966797,353.665894 
	C275.925171,352.613861 279.718964,354.668915 280.816559,359.188995 
	C281.781708,363.163635 279.376495,367.303680 275.336731,368.621307 
	C271.402679,369.904480 267.055145,367.886841 265.605713,363.857635 
	C264.014709,359.434875 265.549957,356.082916 269.966797,353.665894 
z"/>
<path fill="#5E5D62" opacity="1.000000" stroke="none" 
	d="
M213.430786,258.371368 
	C217.248672,261.632294 218.172867,265.294189 215.676056,269.249817 
	C213.618439,272.509644 210.424850,273.798645 206.587433,272.575745 
	C202.333466,271.220032 200.031464,266.747437 201.354767,262.637909 
	C202.913116,257.798462 207.417465,256.077942 213.430786,258.371368 
z"/>
</svg>