<?xml version="1.0" encoding="UTF-8"?>
<svg version="1.1" xmlns="http://www.w3.org/2000/svg" width="512" height="512">
<path d="M0 0 C1.33525025 -0.06288915 1.33525025 -0.06288915 2.69747525 -0.12704879 C5.68869148 -0.26407595 8.680296 -0.38638671 11.67219543 -0.50752258 C13.81672756 -0.60028095 15.96125878 -0.69305999 18.10578918 -0.78585815 C37.88031732 -1.61410366 57.66386939 -2.1012475 77.45135021 -2.49348736 C80.11433807 -2.54759562 82.77730949 -2.60212259 85.44026184 -2.65791321 C86.10191769 -2.6717339 86.76357355 -2.68555459 87.44527958 -2.69979409 C97.37805798 -2.9129576 107.29603175 -3.3011392 117.21955872 -3.7858429 C214.88206815 -8.45651175 214.88206815 -8.45651175 244.49176502 17.15959042 C262.03130268 33.12076876 278.59929987 54.38440238 280.67875099 78.76138496 C280.96983675 86.11602505 280.21915711 93.26048114 279.19587708 100.53269958 C278.47946937 106.11458419 278.18565115 111.73475968 277.83740902 117.34944725 C277.56266477 121.69849326 277.23178651 126.00901734 276.68795776 130.33345032 C275.52444173 138.04847353 275.52444173 138.04847353 277.92631531 145.16223145 C279.96028924 146.95277772 281.94080956 148.28034841 284.28474426 149.62406921 C317.33101101 183.53091583 317.66351725 247.46839004 322.74934387 291.35063171 C324.01282845 302.12639352 325.39528354 312.80825276 327.43318176 323.46781921 C329.91784669 336.47789363 330.4585309 349.20255261 330.40974426 362.43656921 C330.40708557 363.74158386 330.40442688 365.04659851 330.40168762 366.39115906 C330.27658963 391.89531428 330.27658963 391.89531428 328.28474426 398.62406921 C328.89962708 398.58926453 329.51450989 398.55445984 330.14802551 398.51860046 C330.9562677 398.49153015 331.76450989 398.46445984 332.59724426 398.43656921 C333.39775208 398.40176453 334.19825989 398.36695984 335.02302551 398.33110046 C337.28474426 398.62406921 337.28474426 398.62406921 339.01521301 399.94828796 C342.54616484 404.60914438 341.46898571 410.95302066 341.47224426 416.49906921 C341.48449036 417.58832703 341.49673645 418.67758484 341.50935364 419.79985046 C341.51128723 420.85301453 341.51322083 421.90617859 341.51521301 422.99125671 C341.5193219 423.95144714 341.52343079 424.91163757 341.52766418 425.90092468 C341.26487918 428.84675784 340.60998689 430.98640231 339.28474426 433.62406921 C336.95558081 434.78865094 335.59660504 434.75465911 333.00228882 434.76451111 C332.10356049 434.77022125 331.20483215 434.7759314 330.27886963 434.78181458 C329.29024429 434.78293243 328.30161896 434.78405029 327.28303528 434.78520203 C326.24393005 434.79016693 325.20482483 434.79513184 324.13423157 434.80024719 C320.6856979 434.81489146 317.23721021 434.82167403 313.78865051 434.82719421 C311.39972939 434.83294309 309.01080829 434.83870085 306.62188721 434.84446716 C301.60903202 434.85498312 296.59619291 434.86082213 291.58332825 434.86430359 C285.14903205 434.86979447 278.71494682 434.89383284 272.2807169 434.92227554 C267.34546277 434.9408649 262.41025987 434.94610551 257.47497368 434.94763947 C255.10222658 434.95067409 252.72948056 434.95872965 250.35676765 434.97182465 C247.0429625 434.98881025 243.72967836 434.9870233 240.41584778 434.98051453 C239.42924667 434.98972931 238.44264557 434.99894409 237.42614746 435.00843811 C236.5245993 435.00286896 235.62305115 434.9972998 234.69418335 434.99156189 C233.91049157 434.99302845 233.12679979 434.99449501 232.31935978 434.99600601 C229.73046632 434.52274473 228.84848678 433.71227273 227.28474426 431.62406921 C226.89656067 428.57719421 226.89656067 428.57719421 226.88630676 424.87406921 C226.88343658 424.21954773 226.88056641 423.56502625 226.87760925 422.89067078 C226.87557059 421.50882602 226.8810868 420.12695228 226.89363098 418.74516296 C226.9096899 416.63122471 226.89377825 414.51919808 226.87458801 412.40531921 C226.87657048 411.061565 226.88041424 409.71781197 226.88630676 408.37406921 C226.88969055 407.15203796 226.89307434 405.93000671 226.89656067 404.67094421 C227.28474426 401.62406921 227.28474426 401.62406921 228.44953918 399.72050476 C231.05451301 398.16417412 233.02499778 398.2850883 236.04646301 398.33110046 C237.16472473 398.34076843 238.28298645 398.3504364 239.43513489 398.36039734 C240.60238098 398.38553406 241.76962708 398.41067078 242.97224426 398.43656921 C244.15109192 398.45010437 245.32993958 398.46363953 246.54450989 398.47758484 C249.45837837 398.51297595 252.37133371 398.56235112 255.28474426 398.62406921 C254.40167498 389.57520635 253.52971826 381.17900067 250.28474426 372.62406921 C250.28474426 371.63406921 250.28474426 370.64406921 250.28474426 369.62406921 C168.44474426 369.62406921 86.60474426 369.62406921 2.28474426 369.62406921 C1.62474426 372.59406921 0.96474426 375.56406921 0.28474426 378.62406921 C-0.06588074 379.88219421 -0.41650574 381.14031921 -0.77775574 382.43656921 C-1.67265359 385.90828373 -1.99903574 389.31320925 -2.27384949 392.88578796 C-2.35820251 393.96175232 -2.44255554 395.03771667 -2.52946472 396.14628601 C-2.59077576 396.96395447 -2.65208679 397.78162292 -2.71525574 398.62406921 C-1.97364197 398.60835876 -1.2320282 398.59264832 -0.46794128 398.57646179 C2.88704322 398.51416207 6.24190612 398.47509415 9.59724426 398.43656921 C11.3481134 398.39886414 11.3481134 398.39886414 13.13435364 398.36039734 C14.25261536 398.35072937 15.37087708 398.3410614 16.52302551 398.33110046 C17.55467834 398.31539001 18.58633118 398.29967957 19.64924622 398.28349304 C22.28474426 398.62406921 22.28474426 398.62406921 24.11994934 399.72050476 C25.87864663 402.59465332 25.67391605 405.0278219 25.68318176 408.37406921 C25.68605194 409.0285907 25.68892212 409.68311218 25.69187927 410.35746765 C25.69391794 411.73931241 25.68840172 413.12118614 25.67585754 414.50297546 C25.65979862 416.61691372 25.67571027 418.72894035 25.69490051 420.84281921 C25.69291804 422.18657343 25.68907428 423.53032646 25.68318176 424.87406921 C25.67979797 426.09610046 25.67641418 427.31813171 25.67292786 428.57719421 C25.28474426 431.62406921 25.28474426 431.62406921 24.03565216 433.29068947 C21.82786152 434.97200196 20.63913505 435.0010343 17.8820343 435.00502014 C16.9819313 435.01347961 16.08182831 435.02193909 15.15444946 435.03065491 C13.67690437 435.02154587 13.67690437 435.02154587 12.16950989 435.01225281 C10.61063301 435.02013824 10.61063301 435.02013824 9.02026367 435.02818298 C5.57702203 435.04141188 2.1342408 435.03263443 -1.30900574 435.02250671 C-3.69649851 435.02452661 -6.08399067 435.02743734 -8.47148132 435.03120422 C-13.47841763 435.03563151 -18.48519352 435.02918337 -23.49211121 435.0151825 C-29.91856911 434.99809058 -36.34465117 435.00792958 -42.77109528 435.02589989 C-47.70208074 435.0367267 -52.63297672 435.03329641 -57.56396484 435.02551651 C-59.93390955 435.02351146 -62.30386231 435.02598441 -64.67379761 435.03295517 C-67.98275865 435.04055135 -71.29110616 435.02899065 -74.60002136 435.01225281 C-75.58505142 435.0183255 -76.57008148 435.02439819 -77.58496094 435.03065491 C-78.48506393 435.02219543 -79.38516693 435.01373596 -80.31254578 435.00502014 C-81.09493874 435.00388906 -81.8773317 435.00275799 -82.68343353 435.00159264 C-85.26779644 434.5214042 -86.12249556 433.68248376 -87.71525574 431.62406921 C-89.32982437 426.78036331 -88.94141372 421.82145938 -88.96525574 416.74906921 C-88.98588074 415.6598114 -89.00650574 414.57055359 -89.02775574 413.44828796 C-89.03291199 412.3951239 -89.03806824 411.34195984 -89.04338074 410.25688171 C-89.05272644 409.29669128 -89.06207214 408.33650085 -89.07170105 407.34721375 C-88.61174825 403.83330034 -87.23712398 401.14593745 -84.71525574 398.62406921 C-83.19597536 398.55226957 -81.67358092 398.54014914 -80.15275574 398.56156921 C-79.32646667 398.57059265 -78.50017761 398.57961609 -77.64884949 398.58891296 C-77.01076355 398.60051453 -76.37267761 398.61211609 -75.71525574 398.62406921 C-75.86865417 398.10457703 -76.02205261 397.58508484 -76.18009949 397.04985046 C-81.32143448 373.74496702 -78.49754243 345.78787913 -74.71525574 322.42875671 C-74.31902822 319.97309112 -73.92322191 317.51735753 -73.52775574 315.06156921 C-73.37010742 314.09440979 -73.37010742 314.09440979 -73.20927429 313.10771179 C-70.99230267 299.43514548 -69.35579722 285.70385669 -67.7250824 271.95088196 C-55.98410368 173.1490001 -55.98410368 173.1490001 -27.71525574 145.62406921 C-27.02254326 145.19310786 -26.32983078 144.76214651 -25.61612701 144.31812572 C-23.50726592 142.7749195 -23.50726592 142.7749195 -23.2186203 140.29386616 C-23.22088245 138.90878754 -23.22088245 138.90878754 -23.22319031 137.49572754 C-23.21099205 135.90398712 -23.21099205 135.90398712 -23.19854736 134.28009033 C-23.21551918 132.53380592 -23.21551918 132.53380592 -23.23283386 130.75224304 C-23.2269651 128.91280624 -23.2269651 128.91280624 -23.22097778 127.03620911 C-23.21498948 124.36756107 -23.21620244 121.70003375 -23.22940063 119.03151894 C-23.24973586 114.80732695 -23.23975936 110.58354021 -23.22514343 106.35934448 C-23.19609634 96.62353361 -23.20682011 86.8878412 -23.2178421 77.15200806 C-23.22752732 68.24190657 -23.22872215 59.332017 -23.19796133 50.42195147 C-23.18462577 46.22829751 -23.19049421 42.03525257 -23.2113266 37.84163535 C-23.22247183 34.60868095 -23.20791922 31.37581465 -23.19767761 28.14286804 C-23.21464943 26.41176537 -23.21464943 26.41176537 -23.23196411 24.64569092 C-23.17753246 17.44857933 -22.40000786 11.48622427 -17.26792145 6.1070528 C-11.6834815 1.22282192 -7.27885821 0.28893949 0 0 Z " fill="#E5E5E5" transform="translate(129.7152557373047,38.37593078613281)"/>
<path d="M0 0 C0 39.27 0 78.54 0 119 C6.6 114.71 13.2 110.42 20 106 C25.64643959 102.37439142 31.30486932 98.77098335 36.98046875 95.19140625 C39.99697643 93.28740149 42.98076136 91.35249342 45.92578125 89.33984375 C51.58554648 85.56888384 55.89515792 82.87884598 62.8515625 83.54296875 C70.07310752 85.07918833 73.3317187 89.06110856 77.3125 94.9375 C79.1569986 100.47099581 77.95714199 104.86787484 75.55859375 109.91015625 C71.21443485 115.73503096 64.97939179 119.42948474 58.8125 123.0625 C58.05090576 123.53236328 57.28931152 124.00222656 56.50463867 124.48632812 C52.19271048 127.14465914 47.84850658 129.61573935 43.34375 131.93359375 C34.05825842 136.43707036 34.05825842 136.43707036 28.21386719 144.3515625 C27.56834863 150.08358982 28.62292159 155.45309472 30 161 C31.4642748 167.26097023 31.1842734 173.53915551 31.1875 179.9375 C31.19974609 181.18080078 31.21199219 182.42410156 31.22460938 183.70507812 C31.24482844 196.67897836 29.12566606 209.0690732 26.5625 221.75 C26.35818359 222.79542969 26.15386719 223.84085938 25.94335938 224.91796875 C24.98212847 229.7151398 23.93030295 234.36587908 22.40234375 239.015625 C20.63568313 244.58928278 20.28967395 250.18654358 20 256 C20.74161377 255.98428955 21.48322754 255.9685791 22.24731445 255.95239258 C25.60229896 255.89009286 28.95716186 255.85102493 32.3125 255.8125 C33.47974609 255.78736328 34.64699219 255.76222656 35.84960938 255.73632812 C37.52700195 255.72182617 37.52700195 255.72182617 39.23828125 255.70703125 C40.7857605 255.68346558 40.7857605 255.68346558 42.36450195 255.65942383 C45 256 45 256 46.83520508 257.09643555 C48.59390237 259.97058411 48.38917178 262.40375269 48.3984375 265.75 C48.40130768 266.40452148 48.40417786 267.05904297 48.40713501 267.73339844 C48.40917368 269.11524319 48.40365746 270.49711693 48.39111328 271.87890625 C48.37505436 273.9928445 48.39096601 276.10487113 48.41015625 278.21875 C48.40817378 279.56250422 48.40433002 280.90625724 48.3984375 282.25 C48.39505371 283.47203125 48.39166992 284.6940625 48.38818359 285.953125 C48 289 48 289 46.7509079 290.66662025 C44.54311726 292.34793274 43.35439079 292.37696509 40.59729004 292.38095093 C39.69718704 292.3894104 38.79708405 292.39786987 37.8697052 292.40658569 C36.39216011 292.39747665 36.39216011 292.39747665 34.88476562 292.38818359 C33.32588875 292.39606903 33.32588875 292.39606903 31.73551941 292.40411377 C28.29227777 292.41734267 24.84949654 292.40856522 21.40625 292.3984375 C19.01875723 292.4004574 16.63126506 292.40336813 14.24377441 292.40713501 C9.23683811 292.41156229 4.23006221 292.40511416 -0.77685547 292.39111328 C-7.20331337 292.37402137 -13.62939543 292.38386036 -20.05583954 292.40183067 C-24.98682501 292.41265749 -29.91772098 292.4092272 -34.84870911 292.4014473 C-37.21865381 292.39944225 -39.58860657 292.4019152 -41.95854187 292.40888596 C-45.26750291 292.41648213 -48.57585042 292.40492144 -51.88476562 292.38818359 C-52.86979568 292.39425629 -53.85482574 292.40032898 -54.8697052 292.40658569 C-55.7698082 292.39812622 -56.66991119 292.38966675 -57.59729004 292.38095093 C-58.379683 292.37981985 -59.16207596 292.37868877 -59.9681778 292.37752342 C-62.55254071 291.89733498 -63.40723982 291.05841455 -65 289 C-66.61456863 284.1562941 -66.22615798 279.19739017 -66.25 274.125 C-66.270625 273.03574219 -66.29125 271.94648438 -66.3125 270.82421875 C-66.31765625 269.77105469 -66.3228125 268.71789062 -66.328125 267.6328125 C-66.3374707 266.67262207 -66.34681641 265.71243164 -66.35644531 264.72314453 C-65.89649251 261.20923113 -64.52186824 258.52186824 -62 256 C-60.48071962 255.92820036 -58.95832518 255.91607993 -57.4375 255.9375 C-56.61121094 255.94652344 -55.78492188 255.95554687 -54.93359375 255.96484375 C-54.29550781 255.97644531 -53.65742187 255.98804688 -53 256 C-53.15339844 255.48050781 -53.30679688 254.96101562 -53.46484375 254.42578125 C-58.60617875 231.1208978 -55.78228669 203.16380992 -52 179.8046875 C-51.60377248 177.3490219 -51.20796617 174.89328832 -50.8125 172.4375 C-50.65485168 171.47034058 -50.65485168 171.47034058 -50.49401855 170.48364258 C-48.27704693 156.81107627 -46.64054149 143.07978748 -45.00982666 129.32681274 C-32.64211916 25.25092571 -32.64211916 25.25092571 -2.796875 1.2265625 C-1 0 -1 0 0 0 Z " fill="#EFB16E" transform="translate(107,181)"/>
<path d="M0 0 C20.59786723 12.35872034 28.51391062 38.87095023 34.2109375 60.79052734 C40.54633015 86.5594233 43.08835503 113.25100993 46.28515625 139.55078125 C46.70983593 143.03398953 47.13588781 146.51702793 47.5625 150 C47.71761047 151.2715947 47.71761047 151.2715947 47.87585449 152.56887817 C49.16737802 163.10697429 50.56521514 173.58462426 52.74438477 183.984375 C55.15672541 195.77518738 55.16920304 207.82184319 55.125 219.8125 C55.12101196 221.77002197 55.12101196 221.77002197 55.11694336 223.76708984 C54.99184537 249.27124506 54.99184537 249.27124506 53 256 C53.61488281 255.96519531 54.22976563 255.93039062 54.86328125 255.89453125 C55.67152344 255.86746094 56.47976563 255.84039062 57.3125 255.8125 C58.11300781 255.77769531 58.91351563 255.74289062 59.73828125 255.70703125 C62 256 62 256 63.73046875 257.32421875 C67.26142058 261.98507516 66.18424145 268.32895144 66.1875 273.875 C66.19974609 274.96425781 66.21199219 276.05351562 66.22460938 277.17578125 C66.22654297 278.22894531 66.22847656 279.28210938 66.23046875 280.3671875 C66.23457764 281.32737793 66.23868652 282.28756836 66.24291992 283.27685547 C65.98013491 286.22268863 65.32524263 288.3623331 64 291 C61.67083655 292.16458173 60.31186078 292.1305899 57.71754456 292.14044189 C56.81881622 292.14615204 55.92008789 292.15186218 54.99412537 292.15774536 C54.00550003 292.15886322 53.01687469 292.15998108 51.99829102 292.16113281 C50.95918579 292.16609772 49.92008057 292.17106262 48.8494873 292.17617798 C45.40095364 292.19082224 41.95246594 292.19760481 38.50390625 292.203125 C36.11498513 292.20887387 33.72606403 292.21463163 31.33714294 292.22039795 C26.32428776 292.2309139 21.31144865 292.23675292 16.29858398 292.24023438 C9.86428779 292.24572526 3.43020256 292.26976363 -3.00402737 292.29820633 C-7.9392815 292.31679568 -12.87448439 292.3220363 -17.80977058 292.32357025 C-20.18251768 292.32660487 -22.55526371 292.33466043 -24.92797661 292.34775543 C-28.24178176 292.36474104 -31.55506591 292.36295408 -34.86889648 292.35644531 C-35.85549759 292.3656601 -36.84209869 292.37487488 -37.8585968 292.3843689 C-38.76014496 292.37879974 -39.66169312 292.37323059 -40.59056091 292.36749268 C-41.37425269 292.36895924 -42.15794447 292.3704258 -42.96538448 292.3719368 C-45.55427794 291.89867552 -46.43625748 291.08820352 -48 289 C-48.38818359 285.953125 -48.38818359 285.953125 -48.3984375 282.25 C-48.40130768 281.59547852 -48.40417786 280.94095703 -48.40713501 280.26660156 C-48.40917368 278.88475681 -48.40365746 277.50288307 -48.39111328 276.12109375 C-48.37505436 274.0071555 -48.39096601 271.89512887 -48.41015625 269.78125 C-48.40817378 268.43749578 -48.40433002 267.09374276 -48.3984375 265.75 C-48.39505371 264.52796875 -48.39166992 263.3059375 -48.38818359 262.046875 C-48 259 -48 259 -46.83520508 257.09643555 C-44.23023125 255.5401049 -42.25974648 255.66101909 -39.23828125 255.70703125 C-38.12001953 255.71669922 -37.00175781 255.72636719 -35.84960938 255.73632812 C-34.68236328 255.76146484 -33.51511719 255.78660156 -32.3125 255.8125 C-31.13365234 255.82603516 -29.95480469 255.83957031 -28.74023438 255.85351562 C-25.82636589 255.88890674 -22.91341055 255.93828191 -20 256 C-20.25837342 253.35243241 -20.5313812 250.70767297 -20.8125 248.0625 C-20.88275391 247.32708984 -20.95300781 246.59167969 -21.02539062 245.83398438 C-21.44853495 241.95798236 -22.09494816 238.45731586 -23.41015625 234.78125 C-25.52971953 228.81523988 -26.52087265 222.65673585 -27.625 216.4375 C-27.8415625 215.25736328 -28.058125 214.07722656 -28.28125 212.86132812 C-30.15511027 202.52617906 -31.19341797 192.70668518 -31.1875 182.1875 C-31.18814453 180.99930664 -31.18878906 179.81111328 -31.18945312 178.58691406 C-31.13810255 169.92967462 -30.55224994 161.47012966 -29.4375 152.890625 C-29.293125 151.60671875 -29.14875 150.3228125 -29 149 C-28.83242188 147.77925781 -28.66484375 146.55851563 -28.4921875 145.30078125 C-28.68208336 141.72125104 -28.68208336 141.72125104 -31.9453125 139.40234375 C-33.3235184 138.55577034 -34.71833007 137.73588446 -36.125 136.9375 C-37.67733859 135.99521205 -39.2294081 135.05248071 -40.78125 134.109375 C-41.61914062 133.61244141 -42.45703125 133.11550781 -43.3203125 132.60351562 C-48.14270721 129.7178115 -52.87874072 126.69612542 -57.625 123.6875 C-59.00969482 122.82596313 -59.00969482 122.82596313 -60.42236328 121.94702148 C-75.47050244 112.48125653 -75.47050244 112.48125653 -78 104 C-78.80830416 98.44290887 -77.50307756 95.2767317 -74.4296875 90.796875 C-71.58382457 87.22010739 -68.62340697 84.54393023 -64 84 C-54.96601316 83.31818967 -48.73149813 87.59539564 -41.4375 92.3125 C-40.62684082 92.83086426 -39.81618164 93.34922852 -38.98095703 93.88330078 C-37.23753285 94.99823131 -35.49538455 96.11515899 -33.75439453 97.23388672 C-30.90312735 99.06211458 -28.04448796 100.87828418 -25.18359375 102.69140625 C-23.24736192 103.91921735 -21.31116331 105.14708085 -19.375 106.375 C-18.47579834 106.94516846 -17.57659668 107.51533691 -16.65014648 108.1027832 C-15.34992554 108.92975708 -15.34992554 108.92975708 -14.0234375 109.7734375 C-13.26981934 110.25216309 -12.51620117 110.73088867 -11.73974609 111.22412109 C-7.80100589 113.77717725 -3.90547871 116.39634753 0 119 C0 79.73 0 40.46 0 0 Z " fill="#EFB16E" transform="translate(405,181)"/>
<path d="M0 0 C11.77950126 8.18165065 19.77350976 20.12897268 22.77851868 34.1723175 C23.58433912 39.49744285 23.42922307 44.8490794 23.3828125 50.22265625 C23.38079834 51.33411011 23.37878418 52.44556396 23.37670898 53.59069824 C23.36631701 57.70634136 23.33839493 61.82192523 23.3125 65.9375 C23.27125 75.156875 23.23 84.37625 23.1875 93.875 C-10.1425 93.875 -43.4725 93.875 -77.8125 93.875 C-77.9053125 80.13875 -77.9053125 80.13875 -78 66.125 C-78.02731201 63.25844727 -78.05462402 60.39189453 -78.08276367 57.43847656 C-78.09153696 55.13086364 -78.0991789 52.82324603 -78.10546875 50.515625 C-78.12081665 49.34628418 -78.13616455 48.17694336 -78.15197754 46.97216797 C-78.15702376 30.88482783 -73.41262905 17.89837738 -62.29296875 6.1640625 C-44.87324799 -9.91145933 -20.40454436 -11.95446297 0 0 Z " fill="#336699" transform="translate(235.8125,148.125)"/>
<path d="M0 0 C0.91311447 0.82408859 1.82622894 1.64817719 2.76701355 2.49723816 C5.84640225 5.14445943 9.05051689 7.43749643 12.42573547 9.69355774 C32.15562395 23.08457718 54.85423144 40.77749196 60.22229064 65.21784174 C65.33288263 93.38439641 63.07649173 123.1081265 61.6733638 151.53131497 C61.09356665 163.49173918 60.82053567 175.45399149 60.56650388 187.42505872 C60.03919945 211.96558439 59.14767298 236.4811755 58 261 C57.4324339 260.69734097 56.8648678 260.39468193 56.28010273 260.08285141 C54.04090442 259.01942606 51.89464217 258.36449727 49.51835632 257.67437744 C43.37033935 255.37750514 38.62050063 252.60454839 35 247 C30.93531468 234.88271944 32.7409376 220.17531241 33.07351518 207.61867428 C33.19279866 202.35408964 33.20348919 197.08927478 33.22599792 191.82354736 C33.28491057 181.866603 33.44060978 171.91365164 33.63163823 161.95846105 C33.84447263 150.61918253 33.94858759 139.27970683 34.04385149 127.93892622 C34.24212361 104.62374213 34.57602058 81.31209534 35 58 C33.72125 58.04640625 32.4425 58.0928125 31.125 58.140625 C29.41669021 58.17817027 27.70835492 58.21456745 26 58.25 C24.74123047 58.30027344 24.74123047 58.30027344 23.45703125 58.3515625 C15.9498831 58.46795239 10.95966285 56.43350057 5.1875 51.6875 C0.09802169 45.43471237 -0.42952627 39.9125958 -0.29296875 32.12890625 C-0.28872391 31.206577 -0.28447906 30.28424774 -0.28010559 29.33396912 C-0.26341364 26.40983965 -0.22577938 23.48641851 -0.1875 20.5625 C-0.17244089 18.57097355 -0.15875464 16.57943621 -0.14648438 14.58789062 C-0.11354122 9.72499062 -0.06182499 4.8626151 0 0 Z " fill="#CCCBCA" transform="translate(347,39)"/>
<path d="M0 0 C0.900103 -0.00845947 1.80020599 -0.01691895 2.72758484 -0.02563477 C3.7126149 -0.01956207 4.69764496 -0.01348938 5.71252441 -0.00723267 C7.27140129 -0.0151181 7.27140129 -0.0151181 8.86177063 -0.02316284 C12.30501227 -0.03639174 15.7477935 -0.02761429 19.19104004 -0.01748657 C21.57853281 -0.01950647 23.96602497 -0.0224172 26.35351562 -0.02618408 C31.36045193 -0.03061136 36.36722783 -0.02416323 41.37414551 -0.01016235 C47.80060341 0.00692956 54.22668547 -0.00290943 60.65312958 -0.02087975 C65.58411505 -0.03170656 70.51501102 -0.02827627 75.44599915 -0.02049637 C77.81594385 -0.01849132 80.18589661 -0.02096427 82.55583191 -0.02793503 C85.86479295 -0.03553121 89.17314046 -0.02397051 92.48205566 -0.00723267 C93.46708572 -0.01330536 94.45211578 -0.01937805 95.46699524 -0.02563477 C96.36709824 -0.01717529 97.26720123 -0.00871582 98.19458008 0 C99.36816952 0.00169662 99.36816952 0.00169662 100.56546783 0.00342751 C103.14983074 0.48361594 104.00452986 1.32253638 105.59729004 3.38095093 C107.21133291 8.22307954 106.78181104 13.1856988 106.78479004 18.25595093 C106.79703613 19.34520874 106.80928223 20.43446655 106.82189941 21.55673218 C106.82383301 22.60989624 106.8257666 23.6630603 106.82775879 24.74813843 C106.83186768 25.70832886 106.83597656 26.66851929 106.84020996 27.6578064 C106.57742495 30.60363955 105.92253267 32.74328403 104.59729004 35.38095093 C102.26812659 36.54553265 100.90915082 36.51154082 98.31483459 36.52139282 C96.9667421 36.52995804 96.9667421 36.52995804 95.59141541 36.53869629 C94.60279007 36.53981415 93.61416473 36.54093201 92.59558105 36.54208374 C91.03692322 36.5495311 91.03692322 36.5495311 89.44677734 36.55712891 C85.99824368 36.57177317 82.54975598 36.57855574 79.10119629 36.58407593 C76.71227517 36.5898248 74.32335406 36.59558256 71.93443298 36.60134888 C66.9215778 36.61186483 61.90873869 36.61770384 56.89587402 36.6211853 C50.46157783 36.62667618 44.0274926 36.65071456 37.59326267 36.67915726 C32.65800854 36.69774661 27.72280565 36.70298723 22.78751945 36.70452118 C20.41477236 36.7075558 18.04202633 36.71561136 15.66931343 36.72870636 C12.35550828 36.74569196 9.04222413 36.74390501 5.72839355 36.73739624 C4.74179245 36.74661102 3.75519135 36.75582581 2.73869324 36.76531982 C1.83714508 36.75975067 0.93559692 36.75418152 0.00672913 36.7484436 C-0.77696265 36.74991016 -1.56065443 36.75137672 -2.36809444 36.75288773 C-4.9569879 36.27962645 -5.83896744 35.46915445 -7.40270996 33.38095093 C-7.79089355 30.33407593 -7.79089355 30.33407593 -7.80114746 26.63095093 C-7.80401764 25.97642944 -7.80688782 25.32190796 -7.80984497 24.64755249 C-7.81188364 23.26570774 -7.80636742 21.883834 -7.79382324 20.50204468 C-7.77776432 18.38810642 -7.79367597 16.27607979 -7.81286621 14.16220093 C-7.81088374 12.81844671 -7.80703998 11.47469369 -7.80114746 10.13095093 C-7.79776367 8.90891968 -7.79437988 7.68688843 -7.79089355 6.42782593 C-7.40270996 3.38095093 -7.40270996 3.38095093 -6.15361786 1.71433067 C-3.94582722 0.03301818 -2.75710075 0.00398584 0 0 Z " fill="#F96D84" transform="translate(364.4027099609375,436.6190490722656)"/>
<path d="M0 0 C1.3460305 -0.00856522 1.3460305 -0.00856522 2.71925354 -0.01730347 C4.20758446 -0.01898026 4.20758446 -0.01898026 5.72598267 -0.02069092 C6.76494186 -0.02565582 7.80390106 -0.03062073 8.87434387 -0.03573608 C12.32831472 -0.05040047 15.78223965 -0.05716672 19.23623657 -0.06268311 C21.62658694 -0.06843093 24.01693728 -0.0741887 26.4072876 -0.07995605 C31.42611914 -0.09047816 36.4449346 -0.09631294 41.46377563 -0.09979248 C47.9059476 -0.10528046 54.34790855 -0.12931006 60.79001427 -0.15776443 C65.72955961 -0.17635533 70.66905376 -0.18159452 75.60863113 -0.18312836 C77.9841693 -0.18616332 80.3597064 -0.19422003 82.73521042 -0.20731354 C86.05391403 -0.22430019 89.37209741 -0.22251177 92.69082642 -0.21600342 C93.67899857 -0.2252182 94.66717072 -0.23443298 95.68528748 -0.243927 C97.03977745 -0.23557327 97.03977745 -0.23557327 98.42163086 -0.22705078 C99.59911675 -0.22925062 99.59911675 -0.22925062 100.80039024 -0.2314949 C103.3912861 0.24148308 104.27323721 1.0504403 105.83779907 3.14044189 C106.22598267 6.18731689 106.22598267 6.18731689 106.23623657 9.89044189 C106.23910675 10.54496338 106.24197693 11.19948486 106.24493408 11.87384033 C106.24697275 13.25568509 106.24145653 14.63755883 106.22891235 16.01934814 C106.21285343 18.1332864 106.22876508 20.24531303 106.24795532 22.35919189 C106.24597285 23.70294611 106.24212909 25.04669914 106.23623657 26.39044189 C106.23285278 27.61247314 106.22946899 28.83450439 106.22598267 30.09356689 C105.83779907 33.14044189 105.83779907 33.14044189 104.58870697 34.80706215 C102.38091633 36.48837464 101.19218986 36.51740698 98.43508911 36.52139282 C97.53498611 36.52985229 96.63488312 36.53831177 95.70750427 36.54702759 C94.72247421 36.5409549 93.73744415 36.5348822 92.7225647 36.52862549 C91.16368782 36.53651093 91.16368782 36.53651093 89.57331848 36.54455566 C86.13007684 36.55778456 82.68729561 36.54900711 79.24404907 36.53887939 C76.8565563 36.54089929 74.46906414 36.54381002 72.08157349 36.5475769 C67.07463718 36.55200419 62.06786129 36.54555605 57.0609436 36.53155518 C50.6344857 36.51446326 44.20840364 36.52430226 37.78195953 36.54227257 C32.85097407 36.55309938 27.92007809 36.5496691 22.98908997 36.54188919 C20.61914526 36.53988414 18.2491925 36.54235709 15.8792572 36.54932785 C12.57029616 36.55692403 9.26194865 36.54536334 5.95303345 36.52862549 C4.96800339 36.53469818 3.98297333 36.54077087 2.96809387 36.54702759 C2.06799088 36.53856812 1.16788788 36.53010864 0.24050903 36.52139282 C-0.54188393 36.52026175 -1.32427689 36.51913067 -2.13037872 36.51796532 C-4.71474163 36.03777688 -5.56944075 35.19885644 -7.16220093 33.14044189 C-8.77676956 28.296736 -8.38835891 23.33783206 -8.41220093 18.26544189 C-8.43282593 17.17618408 -8.45345093 16.08692627 -8.47470093 14.96466064 C-8.47985718 13.91149658 -8.48501343 12.85833252 -8.49032593 11.77325439 C-8.49967163 10.81306396 -8.50901733 9.85287354 -8.51864624 8.86358643 C-7.77182421 3.15807074 -5.59999833 0.02124118 0 0 Z " fill="#F96D84" transform="translate(49.162200927734375,436.85955810546875)"/>
<path d="M0 0 C6.95265422 4.26784057 11.69432417 10.53212005 14.14453125 18.31640625 C15.49789432 27.97989346 13.78591842 36.76040949 7.89453125 44.62890625 C1.17783142 51.19295381 -5.90455297 54.18331594 -15.23046875 54.69140625 C-22.83130635 54.48172797 -29.7805428 51.2314381 -35.3203125 46.09765625 C-41.61560144 38.79319885 -43.27139015 31.41275181 -43.203125 21.97265625 C-42.47177206 14.28112419 -38.75646914 8.23390658 -32.85546875 3.31640625 C-23.31356696 -4.09334492 -11.1387627 -5.30153382 0 0 Z " fill="#EFB06E" transform="translate(222.85546875,86.68359375)"/>
<path d="M0 0 C1.68875999 -0.01268921 1.68875999 -0.01268921 3.41163635 -0.02563477 C5.26552979 -0.01652573 5.26552979 -0.01652573 7.15687561 -0.00723267 C8.45786697 -0.01248962 9.75885834 -0.01774658 11.09927368 -0.02316284 C14.66958372 -0.03685339 18.23963403 -0.03153043 21.80994868 -0.02202559 C25.54502872 -0.01443632 29.28008634 -0.0214727 33.01516724 -0.02618408 C39.28900651 -0.03164446 45.5627399 -0.02444337 51.83656311 -0.01016235 C59.08989994 0.00615767 66.3429837 0.00088163 73.59631437 -0.01564157 C79.82231021 -0.02925692 86.04822987 -0.03117566 92.27423579 -0.02332556 C95.99337159 -0.01864838 99.71238848 -0.01802522 103.43151665 -0.02793503 C107.57840321 -0.03821235 111.72485389 -0.0239665 115.87171936 -0.00723267 C117.10562408 -0.01330536 118.33952881 -0.01937805 119.61082458 -0.02563477 C121.30381432 -0.01294556 121.30381432 -0.01294556 123.03100586 0 C124.50187354 0.00169662 124.50187354 0.00169662 126.00245571 0.00342751 C129.04356265 0.44902102 130.41625277 1.21484345 132.57899475 3.38095093 C133.14149475 6.81845093 133.14149475 6.81845093 132.57899475 10.38095093 C130.37777154 13.14181303 128.52653909 14.24511732 125.0225811 14.74742126 C121.66144979 14.90438816 118.32244587 14.92104443 114.95765686 14.89852905 C113.03499245 14.90904297 113.03499245 14.90904297 111.07348633 14.91976929 C107.56520679 14.93797626 104.05739871 14.93094687 100.54911113 14.91825294 C96.87543022 14.90811364 93.20178921 14.91752099 89.52810669 14.92379761 C83.36034407 14.93107042 77.19277317 14.9214951 71.02503967 14.9024353 C63.89542349 14.88065742 56.7662647 14.88772572 49.63665956 14.90974092 C43.5125156 14.92789399 37.38850931 14.93045406 31.26434714 14.91998625 C27.6078053 14.91375196 23.95147848 14.91291386 20.29495049 14.9261322 C16.22000411 14.93983488 12.1458463 14.92084282 8.07093811 14.89852905 C6.25284637 14.91067444 6.25284637 14.91067444 4.39802551 14.92306519 C2.73461372 14.90614624 2.73461372 14.90614624 1.03759766 14.8888855 C-0.40725053 14.88662334 -0.40725053 14.88662334 -1.88128757 14.88431549 C-5.19086146 14.22836769 -6.38425369 13.027369 -8.42100525 10.38095093 C-9.15279027 4.42213005 -9.15279027 4.42213005 -7.23247433 1.68991661 C-4.74252626 -0.10931729 -3.0592731 0.00353017 0 0 Z " fill="#867A86" transform="translate(190.42100524902344,316.6190490722656)"/>
<path d="M0 0 C1.20156738 -0.00845947 2.40313477 -0.01691895 3.64111328 -0.02563477 C4.97453443 -0.01980168 6.30795425 -0.01365717 7.64137268 -0.00723267 C9.04417836 -0.01129731 10.44698083 -0.01663859 11.84977722 -0.02316284 C15.66180967 -0.03685639 19.47359893 -0.03152917 23.28563571 -0.02202559 C27.27296025 -0.01443799 31.26026377 -0.02147223 35.24758911 -0.02618408 C41.94513187 -0.03164491 48.64257545 -0.02444216 55.34010315 -0.01016235 C63.08421866 0.00615818 70.82809716 0.00088139 78.57220691 -0.01564157 C85.21858005 -0.02925511 91.86488181 -0.03117655 98.51126438 -0.02332556 C102.48190862 -0.01864745 106.45244145 -0.01802781 110.42307854 -0.02793503 C114.15695284 -0.03660031 117.89052165 -0.03059106 121.62436295 -0.01325226 C123.6489037 -0.00739179 125.67347029 -0.01630718 127.69799805 -0.02563477 C129.50457886 -0.01294556 129.50457886 -0.01294556 131.34765625 0 C132.3946038 0.00113108 133.44155134 0.00226215 134.52022457 0.00342751 C137.63835227 0.43667186 139.02089791 1.16900893 141.23731995 3.38095093 C141.73731995 6.31845093 141.73731995 6.31845093 141.23731995 9.38095093 C139.13325897 12.11315663 137.94762001 13.24936192 134.52022457 13.88431549 C133.47327703 13.88582359 132.42632948 13.8873317 131.34765625 13.8888855 C130.14326904 13.90016479 128.93888184 13.91144409 127.69799805 13.92306519 C126.37993668 13.91496826 125.06187531 13.90687134 123.70387268 13.89852905 C122.29929376 13.9039502 120.89472054 13.91107282 119.49015808 13.91976929 C115.67818981 13.93800521 111.86665453 13.93093473 108.05467868 13.91825294 C104.06688692 13.90812855 100.07913232 13.91751687 96.09133911 13.92379761 C89.39554687 13.93107482 82.6999311 13.92148357 76.00416565 13.9024353 C68.25937852 13.88065741 60.51501244 13.88772407 52.77023548 13.90974092 C46.12299251 13.92788231 39.4758764 13.93045974 32.82861668 13.91998625 C28.85742956 13.91374546 24.88644049 13.91293177 20.91526604 13.9261322 C17.18293504 13.93767222 13.45114801 13.92969968 9.71887589 13.90655518 C8.34785555 13.90125844 6.97678956 13.90279839 5.60578728 13.91160583 C3.73720796 13.92250469 1.86852878 13.90642566 0 13.8888855 C-1.56985578 13.88662334 -1.56985578 13.88662334 -3.17142582 13.88431549 C-5.76268005 13.38095093 -5.76268005 13.38095093 -7.59941006 11.54061127 C-9.17157262 8.62182445 -9.17969488 6.64756708 -8.76268005 3.38095093 C-6.33968738 -0.07623893 -4.05175231 0.00437891 0 0 Z " fill="#847784" transform="translate(189.76268005371094,357.6190490722656)"/>
<path d="M0 0 C17.31034916 -0.70654486 32.00370581 1.13334117 45.43359375 13.18359375 C57.78728931 25.87060993 61.34296984 40.17741229 61.1953125 57.34765625 C61.1924826 58.60009628 61.18965271 59.85253632 61.18673706 61.14292908 C61.17749154 64.44238106 61.15958161 67.74163072 61.1373291 71.04101562 C61.11672119 74.41989693 61.10770368 77.79880808 61.09765625 81.17773438 C61.07568627 87.78524436 61.04120325 94.39258309 61 101 C55.06 101 49.12 101 43 101 C42.9906543 99.25050049 42.98130859 97.50100098 42.97167969 95.69848633 C42.93591444 89.86695235 42.88196828 84.03573242 42.81609726 78.20447254 C42.77687148 74.67479113 42.74456308 71.14534988 42.72900391 67.61547852 C42.71072393 63.54143818 42.66066657 59.46829081 42.609375 55.39453125 C42.60814636 54.1492012 42.60691772 52.90387115 42.60565186 51.62080383 C42.40263614 39.26333692 39.60636263 28.82822119 32 19 C31.278125 17.96875 30.55625 16.9375 29.8125 15.875 C22.78162781 7.73636981 10.64764271 1.90618236 0 1 C0 0.67 0 0.34 0 0 Z " fill="#4B83BA" transform="translate(198,141)"/>
<path d="M0 0 C6.59097643 5.42779469 12.58776067 11.42391603 18.62109375 17.453125 C19.73202948 18.56084284 20.8430384 19.66848729 21.95411682 20.77606201 C24.2679763 23.0839676 26.57979426 25.3938961 28.89038086 27.70507812 C31.85680289 30.67160254 34.83009077 33.63114347 37.80511379 36.58903885 C40.09467306 38.86751623 42.37971008 41.15048682 44.66346931 43.43477631 C45.75873759 44.52886235 46.85563275 45.62132221 47.95416069 46.71213531 C49.48128452 48.22951964 51.00201095 49.75303768 52.52124023 51.27832031 C53.38837143 52.14402649 54.25550262 53.00973267 55.14891052 53.90167236 C57 56 57 56 57 58 C51.30750541 58.09935879 45.61552282 58.17169923 39.92236328 58.21972656 C37.98835448 58.23976141 36.05440565 58.26699729 34.12060547 58.30175781 C31.33025257 58.35063571 28.54070499 58.37305019 25.75 58.390625 C24.466698 58.42159271 24.466698 58.42159271 23.1574707 58.45318604 C15.83539963 58.455883 10.81885728 56.3177271 5.1875 51.6875 C0.09802169 45.43471237 -0.42952627 39.9125958 -0.29296875 32.12890625 C-0.28872391 31.206577 -0.28447906 30.28424774 -0.28010559 29.33396912 C-0.26341364 26.40983965 -0.22577938 23.48641851 -0.1875 20.5625 C-0.17244089 18.57097355 -0.15875464 16.57943621 -0.14648438 14.58789062 C-0.11354122 9.72499062 -0.06182499 4.8626151 0 0 Z " fill="#B3B3B3" transform="translate(347,39)"/>
<path d="M0 0 C9.38181142 -0.52938121 17.22730318 -0.25891722 24.99609375 5.47265625 C30.54303305 10.51858168 34.39818291 16.70281483 35.4453125 24.1796875 C35.7510558 32.8424142 33.99050502 40.31331703 28.75 47.3125 C21.13323937 54.75615244 13.35744954 57.19263101 2.8828125 57.265625 C1 57 1 57 -1 55 C-0.41992188 54.64808594 0.16015625 54.29617187 0.7578125 53.93359375 C8.3590001 49.12954284 14.0051328 44.33372402 16.52734375 35.453125 C18.32390242 26.12883703 16.93604602 18.88077882 11.6796875 11.02734375 C8.10686566 6.42953204 4.31462087 4.29078486 -1 2 C-0.67 1.34 -0.34 0.68 0 0 Z " fill="#CF8D4A" transform="translate(202,84)"/>
<path d="M0 0 C3 1.1875 3 1.1875 5 4.1875 C5.46651758 7.80787082 5.4934086 9.51248962 3.3125 12.49609375 C2.549375 13.19863281 1.78625 13.90117188 1 14.625 C0.17242187 15.3984375 -0.65515625 16.171875 -1.5078125 16.96875 C-2.33023438 17.7009375 -3.15265625 18.433125 -4 19.1875 C-4.65742188 19.7753125 -5.31484375 20.363125 -5.9921875 20.96875 C-7.26110398 22.08497529 -8.53734893 23.19291766 -9.8203125 24.29296875 C-13.44099557 27.43997822 -16.95417623 30.70534213 -20.484375 33.953125 C-21.31453125 34.69046875 -22.1446875 35.4278125 -23 36.1875 C-23.62390625 36.80109375 -24.2478125 37.4146875 -24.890625 38.046875 C-28.2971492 39.88892142 -30.35043195 39.27493828 -34 38.1875 C-36.43260891 36.32840968 -38.34325238 34.1464231 -40.3125 31.8125 C-40.83650391 31.22210938 -41.36050781 30.63171875 -41.90039062 30.0234375 C-48.04472653 23.03730398 -48.04472653 23.03730398 -47.8125 18.625 C-47 15.1875 -47 15.1875 -44 13.1875 C-41.125 12.75 -41.125 12.75 -38 13.1875 C-35.3125 15.5 -35.3125 15.5 -33 18.1875 C-32.401875 18.785625 -31.80375 19.38375 -31.1875 20 C-30.795625 20.391875 -30.40375 20.78375 -30 21.1875 C-26.10896725 19.58314052 -23.37616633 16.92093797 -20.375 14.0625 C-19.30770038 13.07367106 -18.23866479 12.08671282 -17.16796875 11.1015625 C-16.63606934 10.61204102 -16.10416992 10.12251953 -15.55615234 9.61816406 C-15.04262207 9.14604492 -14.5290918 8.67392578 -14 8.1875 C-13.08863281 7.34960938 -12.17726563 6.51171875 -11.23828125 5.6484375 C-4.24681501 -0.41154702 -4.24681501 -0.41154702 0 0 Z " fill="#867986" transform="translate(326,85.8125)"/>
<path d="M0 0 C3.4375 0.8125 3.4375 0.8125 5.4375 3.8125 C5.84375 6.69140625 5.84375 6.69140625 5.4375 9.8125 C3.53125 12.33984375 3.53125 12.33984375 0.9375 14.75 C0.0196875 15.61367187 -0.898125 16.47734375 -1.84375 17.3671875 C-7.75761218 22.68626469 -7.75761218 22.68626469 -10.484375 25.01953125 C-13.80183978 27.88178 -17.02650123 30.8465903 -20.265625 33.796875 C-21.02359375 34.46203125 -21.7815625 35.1271875 -22.5625 35.8125 C-23.17609375 36.41578125 -23.7896875 37.0190625 -24.421875 37.640625 C-26.5625 38.8125 -26.5625 38.8125 -29.91796875 38.8984375 C-34.68939709 37.47672573 -36.7324419 35.16201331 -39.875 31.4375 C-40.39900391 30.84710938 -40.92300781 30.25671875 -41.46289062 29.6484375 C-47.60722653 22.66230398 -47.60722653 22.66230398 -47.375 18.25 C-46.5625 14.8125 -46.5625 14.8125 -43.5625 12.8125 C-40.6875 12.375 -40.6875 12.375 -37.5625 12.8125 C-34.875 15.125 -34.875 15.125 -32.5625 17.8125 C-31.964375 18.410625 -31.36625 19.00875 -30.75 19.625 C-30.358125 20.016875 -29.96625 20.40875 -29.5625 20.8125 C-25.82327871 19.2311938 -23.26600263 16.88019602 -20.3125 14.125 C-19.34828125 13.23425781 -18.3840625 12.34351563 -17.390625 11.42578125 C-15.99070312 10.13220703 -15.99070312 10.13220703 -14.5625 8.8125 C-13.06857604 7.47236233 -11.56940806 6.13802098 -10.0625 4.8125 C-9.14984375 4.008125 -9.14984375 4.008125 -8.21875 3.1875 C-5.17506109 0.66066392 -4.06484643 -0.21393929 0 0 Z " fill="#867986" transform="translate(325.5625,210.1875)"/>
<path d="M0 0 C3 1.1875 3 1.1875 5 4.1875 C5.46651758 7.80787082 5.4934086 9.51248962 3.3125 12.49609375 C2.549375 13.19863281 1.78625 13.90117187 1 14.625 C0.17242187 15.3984375 -0.65515625 16.171875 -1.5078125 16.96875 C-2.33023438 17.7009375 -3.15265625 18.433125 -4 19.1875 C-4.65742188 19.7753125 -5.31484375 20.363125 -5.9921875 20.96875 C-7.26110398 22.08497529 -8.53734893 23.19291766 -9.8203125 24.29296875 C-13.44099557 27.43997822 -16.95417623 30.70534213 -20.484375 33.953125 C-21.31453125 34.69046875 -22.1446875 35.4278125 -23 36.1875 C-23.62390625 36.80109375 -24.2478125 37.4146875 -24.890625 38.046875 C-28.2971492 39.88892142 -30.35043195 39.27493828 -34 38.1875 C-36.43260891 36.32840968 -38.34325238 34.1464231 -40.3125 31.8125 C-40.83650391 31.22210938 -41.36050781 30.63171875 -41.90039062 30.0234375 C-48.04472653 23.03730398 -48.04472653 23.03730398 -47.8125 18.625 C-47 15.1875 -47 15.1875 -44 13.1875 C-41.125 12.75 -41.125 12.75 -38 13.1875 C-35.3125 15.5 -35.3125 15.5 -33 18.1875 C-32.401875 18.785625 -31.80375 19.38375 -31.1875 20 C-30.795625 20.391875 -30.40375 20.78375 -30 21.1875 C-26.10896725 19.58314052 -23.37616633 16.92093797 -20.375 14.0625 C-19.30770038 13.07367106 -18.23866479 12.08671282 -17.16796875 11.1015625 C-16.63606934 10.61204102 -16.10416992 10.12251953 -15.55615234 9.61816406 C-15.04262207 9.14604492 -14.5290918 8.67392578 -14 8.1875 C-13.08863281 7.34960938 -12.17726563 6.51171875 -11.23828125 5.6484375 C-4.24681501 -0.41154702 -4.24681501 -0.41154702 0 0 Z " fill="#867986" transform="translate(326,147.8125)"/>
<path d="M0 0 C2.62628762 5.25257525 4.16989356 8.96861002 2.421875 14.9921875 C-1.84453426 24.96007096 -13.1837465 30.16558292 -22 35.5625 C-24.06330915 36.83332262 -26.12582171 38.10543957 -28.1875 39.37890625 C-29.16847656 39.9836377 -30.14945313 40.58836914 -31.16015625 41.21142578 C-34.58780951 43.37021084 -37.93307117 45.63543265 -41.2578125 47.94897461 C-43 49 -43 49 -45 49 C-45.33 49.99 -45.66 50.98 -46 52 C-46.44103095 48.97621933 -46.80274462 45.9743094 -47.125 42.9375 C-47.25648438 42.08994141 -47.38796875 41.24238281 -47.5234375 40.36914062 C-47.77760891 37.62620754 -47.77855166 35.64940797 -47 33 C-44.10057432 29.93776402 -40.65080437 28.06111208 -37 26 C-35.03803701 24.76616958 -33.07975907 23.52646214 -31.125 22.28125 C-28.06070149 20.38374208 -24.99131085 18.49465198 -21.921875 16.60546875 C-9.72261931 9.71617407 -9.72261931 9.71617407 0 0 Z " fill="#CCCCCB" transform="translate(182,290)"/>
<path d="M0 0 C0.87398438 1.00160156 0.87398438 1.00160156 1.765625 2.0234375 C6.12655243 6.37519047 11.55733205 9.3761053 16.75 12.625 C18.99499434 14.0452526 21.23978508 15.46582708 23.484375 16.88671875 C24.58716797 17.58200684 25.68996094 18.27729492 26.82617188 18.99365234 C31.23527296 21.78088255 35.62104978 24.60321244 40 27.4375 C41.05719238 28.1183667 41.05719238 28.1183667 42.13574219 28.81298828 C46.88012433 31.88012433 46.88012433 31.88012433 48 33 C47.93552434 35.12769662 47.79828808 37.25339183 47.625 39.375 C47.48964844 41.11910156 47.48964844 41.11910156 47.3515625 42.8984375 C47 46 47 46 46 49 C41.33728205 47.39185643 37.51906495 44.88949505 33.4375 42.1875 C31.93252905 41.19885729 30.42730963 40.21059276 28.921875 39.22265625 C28.12845703 38.70074707 27.33503906 38.17883789 26.51757812 37.64111328 C23.88466514 35.9248176 21.23400498 34.23910512 18.578125 32.55859375 C17.68037354 31.98665283 16.78262207 31.41471191 15.85766602 30.82543945 C14.10955523 29.71219162 12.35756456 28.60500741 10.60131836 27.50463867 C6.29672829 24.74619413 2.90779398 22.31259834 0 18 C-0.4125 17.401875 -0.825 16.80375 -1.25 16.1875 C-3.16506534 10.60189275 -2.13393189 5.33482971 0 0 Z " fill="#CCCCCB" transform="translate(329,290)"/>
<path d="M0 0 C0.75539063 -0.02578125 1.51078125 -0.0515625 2.2890625 -0.078125 C4.94013099 0.33889701 5.75446963 1.14822122 7.375 3.25 C8.98904287 8.09212861 8.559521 13.05474787 8.5625 18.125 C8.57474609 19.21425781 8.58699219 20.30351562 8.59960938 21.42578125 C8.60250977 23.00552734 8.60250977 23.00552734 8.60546875 24.6171875 C8.60957764 25.57737793 8.61368652 26.53756836 8.61791992 27.52685547 C8.35513491 30.47268863 7.70024263 32.6123331 6.375 35.25 C3.30966836 36.78266582 0.10745728 36.35276471 -3.25 36.3125 C-3.95640625 36.30798828 -4.6628125 36.30347656 -5.390625 36.29882812 C-7.13545275 36.28703875 -8.880237 36.26910324 -10.625 36.25 C-10.13749268 35.72220947 -9.64998535 35.19441895 -9.14770508 34.65063477 C-7.17594672 31.54204091 -7.25207677 29.50457628 -7.26171875 25.83984375 C-7.26236328 24.60298828 -7.26300781 23.36613281 -7.26367188 22.09179688 C-7.27978516 20.80337891 -7.29589844 19.51496094 -7.3125 18.1875 C-7.30927734 16.89521484 -7.30605469 15.60292969 -7.30273438 14.27148438 C-7.05096268 7.37502873 -7.05096268 7.37502873 -9.625 1.25 C-6.41683224 0.42208574 -3.29977612 0.10765991 0 0 Z " fill="#E23E64" transform="translate(462.625,436.75)"/>
<path d="M0 0 C2.60478883 -0.0809313 5.20706653 -0.14045434 7.8125 -0.1875 C8.55048828 -0.21263672 9.28847656 -0.23777344 10.04882812 -0.26367188 C15.47327253 -0.33730687 15.47327253 -0.33730687 17.7121582 1.09643555 C19.64384899 3.95167593 19.38897186 6.33155326 19.3984375 9.75 C19.40130768 10.40452148 19.40417786 11.05904297 19.40713501 11.73339844 C19.40917368 13.11524319 19.40365746 14.49711693 19.39111328 15.87890625 C19.37505436 17.9928445 19.39096601 20.10487113 19.41015625 22.21875 C19.40817378 23.56250422 19.40433002 24.90625724 19.3984375 26.25 C19.39505371 27.47203125 19.39166992 28.6940625 19.38818359 29.953125 C19 33 19 33 17.69848633 34.90356445 C14.82303853 36.75977203 11.61283859 36.3076804 8.3125 36.1875 C7.61060547 36.17396484 6.90871094 36.16042969 6.18554688 36.14648438 C4.45670171 36.11120182 2.72825235 36.05739583 1 36 C1.72908569 34.95598022 1.72908569 34.95598022 2.47290039 33.89086914 C5.19285773 28.74186597 4.47047064 23.14741527 4.4375 17.4375 C4.45748047 16.20580078 4.47746094 14.97410156 4.49804688 13.70507812 C4.49708008 11.93100586 4.49708008 11.93100586 4.49609375 10.12109375 C4.49794678 9.0427124 4.4997998 7.96433105 4.50170898 6.85327148 C3.89079388 3.37893336 2.68182805 2.20298956 0 0 Z " fill="#E33F65" transform="translate(136,437)"/>
<path d="M0 0 C0.33 0 0.66 0 1 0 C1.05492131 2.91693194 1.09410669 5.83278889 1.125 8.75 C1.14175781 9.55566406 1.15851563 10.36132812 1.17578125 11.19140625 C1.23098221 18.20192795 0.19621226 23.82272643 -1 31 C78.2 31 157.4 31 239 31 C238.34 26.71 237.68 22.42 237 18 C236.87581733 14.68929 236.80126124 11.48589143 236.875 8.1875 C236.88402344 7.38763672 236.89304687 6.58777344 236.90234375 5.76367188 C236.92535407 3.84230995 236.96118974 1.92110773 237 0 C237.33 0 237.66 0 238 0 C238.6468142 4.02067618 239.29227555 8.04156842 239.9375 12.0625 C240.21110352 13.7630957 240.21110352 13.7630957 240.49023438 15.49804688 C240.66748047 16.60341797 240.84472656 17.70878906 241.02734375 18.84765625 C241.18968506 19.85836182 241.35202637 20.86906738 241.51928711 21.91040039 C242.04188687 25.26921196 242.51927709 28.63493965 243 32 C161.16 32 79.32 32 -5 32 C-3 20 -3 20 -1.9375 14.875 C-0.92118598 9.94547687 -0.4053049 5.0129817 0 0 Z " fill="#DFDFDF" transform="translate(137,376)"/>
<path d="M0 0 C0.33 0 0.66 0 1 0 C1.6468142 4.02067618 2.29227555 8.04156842 2.9375 12.0625 C3.11990234 13.19623047 3.30230469 14.32996094 3.49023438 15.49804688 C4.37137689 20.99317203 5.23982848 26.48675602 6 32 C4.68 32 3.36 32 2 32 C0.06084339 21.23075524 -0.22256188 10.90553195 0 0 Z " fill="#D1CAC3" transform="translate(374,376)"/>
<path d="M0 0 C0.33 0 0.66 0 1 0 C1.2071352 10.89761308 1.15729044 21.27133239 -1 32 C-2.32 32 -3.64 32 -5 32 C-4.07453844 26.27001461 -3.14025559 20.55417676 -1.9375 14.875 C-0.92118598 9.94547687 -0.4053049 5.0129817 0 0 Z " fill="#D1CBC5" transform="translate(137,376)"/>
</svg>
