<?xml version="1.0" encoding="UTF-8"?>
<svg version="1.1" xmlns="http://www.w3.org/2000/svg" width="512" height="512">
<path d="M0 0 C0.77444458 -0.00700928 1.54888916 -0.01401855 2.34680176 -0.02124023 C4.90344232 -0.03882686 7.45897344 -0.02719576 10.015625 -0.01367188 C11.79394747 -0.01636661 13.57226851 -0.02024888 15.35058594 -0.02526855 C19.07631468 -0.03116448 22.80165964 -0.02259774 26.52734375 -0.00390625 C31.30261787 0.01888354 36.07699276 0.00576094 40.85223389 -0.01819611 C44.52399468 -0.03265162 48.19554235 -0.02804927 51.86730957 -0.01768494 C53.62797146 -0.01501696 55.38865271 -0.01828992 57.14929199 -0.02760315 C59.61046587 -0.03776495 62.0701845 -0.0222744 64.53125 0 C65.2586438 -0.00809692 65.9860376 -0.01619385 66.73547363 -0.02453613 C70.09144609 0.03172156 71.95264916 0.28417043 74.67474365 2.31422424 C77.00189383 5.53730269 77.64227025 8.99996729 78.40625 12.82617188 C78.66411285 14.03177513 78.66411285 14.03177513 78.92718506 15.26173401 C79.2869382 16.95727382 79.63951462 18.65435028 79.98535156 20.3527832 C80.51372343 22.94574624 81.06341247 25.53344957 81.6171875 28.12109375 C81.9647977 29.77252257 82.31119276 31.42420774 82.65625 33.07617188 C82.81869202 33.84714706 82.98113403 34.61812225 83.14849854 35.41246033 C83.90801614 39.16467573 84.46106142 42.68522175 84.265625 46.51757812 C85.49796875 46.90300781 86.7303125 47.2884375 88 47.68554688 C91.83414601 48.96084329 95.51854317 50.44580561 99.21875 52.06835938 C100.25 52.51888672 101.28125 52.96941406 102.34375 53.43359375 C104.47865052 54.3735284 106.6088213 55.32427184 108.734375 56.28515625 C109.76046875 56.72923828 110.7865625 57.17332031 111.84375 57.63085938 C112.76575195 58.04118408 113.68775391 58.45150879 114.63769531 58.87426758 C118.9489709 59.92965695 121.35324474 58.05574967 125.03295898 55.88525391 C126.01594971 55.25087402 126.99894043 54.61649414 128.01171875 53.96289062 C129.09646484 53.26550781 130.18121094 52.568125 131.29882812 51.84960938 C132.43363072 51.11398932 133.56839606 50.37831179 134.703125 49.64257812 C135.8337384 48.91433151 136.96459573 48.18646348 138.09570312 47.45898438 C144.2979807 43.47204147 144.2979807 43.47204147 150.39086914 39.32177734 C153.4188364 37.42142252 155.62436247 36.74187122 159.22142029 36.9511261 C167.17154034 39.15411565 174.41103803 49.51680027 180.07421875 55.19335938 C181.091575 56.21004051 182.10907953 57.22657329 183.12672424 58.2429657 C185.24195158 60.35672986 187.35538734 62.47226428 189.4675293 64.58911133 C192.17657072 67.30389333 194.89013698 70.01410148 197.60502529 72.72303486 C199.69913745 74.81354132 201.79087191 76.90641373 203.88188362 79.00002098 C204.88231056 80.0011149 205.88348059 81.00146678 206.88540459 82.00106239 C208.27815092 83.39127738 209.6673633 84.78503008 211.05639648 86.17895508 C211.84723129 86.97058548 212.6380661 87.76221588 213.4528656 88.57783508 C216.05203419 91.35907521 216.76661853 93.52538724 216.703125 97.36376953 C215.72297451 102.18904165 212.47469044 106.18594998 209.765625 110.20507812 C208.81127563 111.6678418 208.81127563 111.6678418 207.83764648 113.16015625 C205.13186461 117.29229777 202.38218158 121.38695037 199.51953125 125.41210938 C198.79636719 126.43691406 198.07320313 127.46171875 197.328125 128.51757812 C196.70035156 129.36320313 196.07257813 130.20882812 195.42578125 131.08007812 C193.87082829 134.34705 194.47532744 136.01258465 195.265625 139.51757812 C196.03912595 141.5973391 196.87824397 143.65347492 197.76953125 145.68554688 C198.26259766 146.82572266 198.75566406 147.96589844 199.26367188 149.140625 C199.77994141 150.31689453 200.29621094 151.49316406 200.828125 152.70507812 C201.85516304 155.05059375 202.87753526 157.39815968 203.89453125 159.74804688 C204.34900635 160.78340576 204.80348145 161.81876465 205.27172852 162.88549805 C206.265625 165.51757812 206.265625 165.51757812 206.265625 168.51757812 C207.31351196 168.71335449 207.31351196 168.71335449 208.38256836 168.91308594 C231.80491877 173.30633948 231.80491877 173.30633948 242.140625 175.58007812 C242.81601318 175.71768555 243.49140137 175.85529297 244.18725586 175.99707031 C248.38433596 176.95696261 250.65646151 178.08706603 253.265625 181.51757812 C253.66050865 184.20223654 253.81345277 186.4775883 253.78320312 189.16015625 C253.79371704 190.30719276 253.79371704 190.30719276 253.80444336 191.47740173 C253.8220285 194.00158146 253.81039949 196.52463728 253.796875 199.04882812 C253.79956978 200.80473038 253.80345209 202.56063118 253.80847168 204.31652832 C253.81436741 207.99518044 253.80580155 211.67344386 253.78710938 215.35205078 C253.76431956 220.06679473 253.77744228 224.78062791 253.80139923 229.49533844 C253.81585532 233.12077697 253.81125214 236.74599966 253.80088806 240.3714447 C253.79822024 242.10977791 253.8014925 243.84813073 253.81080627 245.58644104 C253.82096906 248.01648846 253.80547631 250.44506232 253.78320312 252.875 C253.79130005 253.59304306 253.79939697 254.31108612 253.80773926 255.05088806 C253.75082557 258.40353625 253.49309282 260.21696785 251.44567871 262.92272949 C248.47907058 265.09299295 245.41803842 265.81343227 241.890625 266.58007812 C240.8380249 266.84062988 240.8380249 266.84062988 239.76416016 267.10644531 C236.24416827 267.95694504 232.93241118 268.54754103 229.3125 268.87304688 C225.46324064 269.28663751 222.6969889 269.70339908 219.265625 271.51757812 C217.01950645 275.3731908 215.78980873 279.06936124 214.5703125 283.33398438 C212.89235094 289.19351151 209.6104099 295.17279322 205.265625 299.51757812 C206.57273437 299.64712891 206.57273437 299.64712891 207.90625 299.77929688 C224.04606992 301.68323667 238.50945377 308.07730944 249.19140625 320.63867188 C256.21940728 330.39316671 260.48438026 341.05982857 260.55615234 353.15527344 C260.56286957 353.8717807 260.56958679 354.58828796 260.57650757 355.32650757 C260.59532057 357.66631214 260.59940173 360.00582792 260.6015625 362.34570312 C260.60799695 363.98378616 260.61472578 365.62186806 260.62173462 367.25994873 C260.63366174 370.67918568 260.63741965 374.09832187 260.63623047 377.51757812 C260.63602635 381.8980984 260.66344347 386.27797666 260.69777489 390.65834427 C260.71999683 394.03496273 260.72406964 397.41142472 260.72301102 400.78810883 C260.72536965 402.40365585 260.73420798 404.01920701 260.74967575 405.6346817 C260.76926223 407.88940453 260.76353052 410.14271563 260.75146484 412.39746094 C260.75431488 413.6790509 260.75716492 414.96064087 260.76010132 416.28106689 C260.18078324 420.07289551 259.25725031 421.2074229 256.265625 423.51757812 C252.97014697 425.16531714 249.30655336 424.64653538 245.68505859 424.63110352 C244.79719162 424.63124954 243.90932465 424.63139557 242.99455261 424.63154602 C240.05103131 424.63084768 237.10757279 424.62305894 234.1640625 424.61523438 C232.12667882 424.61336992 230.08929469 424.61194614 228.0519104 424.61094666 C222.68264534 424.60712367 217.31340723 424.59729524 211.94415283 424.58624268 C206.4679806 424.57602386 200.99180402 424.57144802 195.515625 424.56640625 C184.76561315 424.55567279 174.01562131 424.53859898 163.265625 424.51757812 C163.27450745 425.2353241 163.28338989 425.95307007 163.2925415 426.69256592 C163.3727299 433.46065406 163.43361092 440.22867109 163.47287369 446.99711227 C163.49373808 450.47679682 163.52203321 453.95608846 163.56738281 457.43554688 C163.61920727 461.43688706 163.63857953 465.43781531 163.65625 469.43945312 C163.67689514 470.68748718 163.69754028 471.93552124 163.71881104 473.22137451 C163.71911316 474.382276 163.71941528 475.54317749 163.71972656 476.73925781 C163.72860901 477.76073914 163.73749146 478.78222046 163.74664307 479.83465576 C163.09583866 483.46457702 162.27683112 484.35952683 159.265625 486.51757812 C155.9057437 487.12547474 152.57512352 487.05672172 149.16870117 487.0255127 C148.13088344 487.03175266 147.0930657 487.03799262 146.02379894 487.04442167 C142.53516828 487.06041699 139.04722999 487.0477214 135.55859375 487.03515625 C133.06205842 487.04057444 130.56552629 487.04769538 128.06900024 487.05639648 C121.98540169 487.07276972 115.90207635 487.07033571 109.81848836 487.05874592 C104.87485588 487.04971726 99.93127874 487.04848512 94.98764038 487.05284119 C94.28439548 487.05345412 93.58115057 487.05406705 92.85659522 487.05469856 C91.42802626 487.05597744 89.99945732 487.05727429 88.5708884 487.05858892 C75.17096745 487.06999876 61.7711559 487.05687472 48.37125289 487.03538746 C36.87016849 487.01751607 25.36924556 487.02062007 13.86816406 487.0390625 C0.5166384 487.06046213 -12.83479134 487.06890009 -26.18633175 487.05661345 C-27.60968461 487.05533923 -29.03303749 487.05408175 -30.45639038 487.05284119 C-31.50690219 487.05191553 -31.50690219 487.05191553 -32.57863647 487.05097118 C-37.51709818 487.04751554 -42.45549912 487.0533512 -47.39395142 487.0627594 C-54.03910852 487.07514058 -60.68400731 487.06634259 -67.32915115 487.04318237 C-69.77210608 487.03788047 -72.21508663 487.03943419 -74.65803146 487.04823303 C-77.98485549 487.05911319 -81.31069068 487.04551511 -84.63745117 487.0255127 C-85.61137219 487.03443558 -86.58529322 487.04335847 -87.588727 487.05255175 C-94.09426287 486.97632945 -94.09426287 486.97632945 -97.33536911 484.65351486 C-99.1660461 481.85852289 -99.21744479 480.07060375 -99.18847656 476.73925781 C-99.18817444 475.57835632 -99.18787231 474.41745483 -99.18756104 473.22137451 C-99.16691589 471.97334045 -99.14627075 470.7253064 -99.125 469.43945312 C-99.11934021 468.15774231 -99.11368042 466.87603149 -99.10784912 465.55548096 C-99.09260968 462.15544185 -99.05334416 458.75609119 -99.0090332 455.35632324 C-98.96804299 451.88412793 -98.94983021 448.41182088 -98.9296875 444.93945312 C-98.886847 438.13187946 -98.81861712 431.32476189 -98.734375 424.51757812 C-99.86554749 424.52201935 -100.99671997 424.52646057 -102.16217041 424.53103638 C-112.81540106 424.57155611 -123.4686161 424.60154987 -134.12190628 424.62120247 C-139.59904438 424.63164565 -145.07612033 424.64581468 -150.55322266 424.66845703 C-155.83758913 424.69016623 -161.12189578 424.70214272 -166.40630341 424.70733261 C-168.42375378 424.71103182 -170.44120084 424.71825531 -172.45862579 424.72903824 C-175.28140881 424.74352752 -178.10394368 424.74555713 -180.92675781 424.74462891 C-181.76329391 424.75181946 -182.59983002 424.75901001 -183.4617157 424.76641846 C-190.75141583 424.74043022 -190.75141583 424.74043022 -193.734375 422.51757812 C-196.19084501 418.83287311 -195.99847468 416.98846001 -196.02490234 412.59033203 C-196.03161957 411.88901154 -196.03833679 411.18769104 -196.04525757 410.46511841 C-196.06428271 408.14138725 -196.06816572 405.81794491 -196.0703125 403.49414062 C-196.07674349 401.87047204 -196.08347208 400.24680461 -196.09048462 398.62313843 C-196.10247302 395.2117851 -196.10616446 391.80053307 -196.10498047 388.38916016 C-196.1047786 384.05085137 -196.13193495 379.71320748 -196.16652489 375.37505531 C-196.18895563 372.01521934 -196.19281291 368.65553835 -196.19176102 365.29563522 C-196.19409835 363.69869091 -196.20281465 362.10174108 -196.21842575 360.50487137 C-196.37338901 342.99610611 -192.15344309 328.70374816 -179.98828125 315.61523438 C-168.96979308 305.36059287 -155.42522091 300.9736235 -140.734375 299.51757812 C-141.17007813 298.96972656 -141.60578125 298.421875 -142.0546875 297.85742188 C-148.1383419 289.75905076 -151.55387629 281.05907425 -154.734375 271.51757812 C-157.44628056 270.5792733 -157.44628056 270.5792733 -160.78125 270.01757812 C-162.6375 269.64632812 -162.6375 269.64632812 -164.53125 269.26757812 C-165.8487305 269.01638025 -167.16644207 268.76639142 -168.484375 268.51757812 C-171.04334795 268.02625532 -173.60073108 267.52656115 -176.15625 267.01757812 C-177.29674805 266.80101562 -178.43724609 266.58445312 -179.61230469 266.36132812 C-182.7950375 265.50118388 -185.05607742 264.42387436 -187.734375 262.51757812 C-189.23862102 259.50908608 -188.89913869 256.40287444 -188.91137695 253.10205078 C-188.91794815 252.33765182 -188.92451935 251.57325287 -188.93128967 250.78569031 C-188.95103324 248.25100614 -188.96268673 245.7163812 -188.97265625 243.18164062 C-188.97673178 242.31689495 -188.9808073 241.45214928 -188.98500633 240.56119919 C-189.00587023 235.98546334 -189.02017132 231.40975752 -189.02954102 226.83398438 C-189.04061446 222.10359186 -189.07502396 217.37366859 -189.11471272 212.64344215 C-189.14083221 209.00948195 -189.14922861 205.37563442 -189.15282249 201.74158859 C-189.15769949 199.99764202 -189.16934507 198.25370084 -189.18786049 196.50984573 C-189.2121566 194.0701479 -189.21130503 191.63167579 -189.2043457 189.19189453 C-189.21715576 188.47070938 -189.22996582 187.74952423 -189.24316406 187.00648499 C-189.20827202 183.65323102 -188.96667076 181.82788627 -186.9329834 179.11122131 C-183.78738771 176.83116219 -180.45208488 176.17078527 -176.71484375 175.41210938 C-175.54964958 175.15780403 -175.54964958 175.15780403 -174.36091614 174.89836121 C-171.88400227 174.36161706 -169.40321835 173.84591035 -166.921875 173.33007812 C-165.26469065 172.97266526 -163.60778568 172.61395434 -161.95117188 172.25390625 C-155.22859302 170.80727536 -148.55448402 169.41957268 -141.734375 168.51757812 C-141.62174316 167.82156494 -141.50911133 167.12555176 -141.39306641 166.40844727 C-140.65261895 163.15876663 -139.50660573 160.32785361 -138.1953125 157.26367188 C-137.69773438 156.07966797 -137.20015625 154.89566406 -136.6875 153.67578125 C-135.89757345 151.80857019 -135.10419829 149.94303207 -134.30371094 148.08032227 C-133.52839526 146.27069741 -132.76789258 144.45474863 -132.0078125 142.63867188 C-131.54810059 141.56029053 -131.08838867 140.48190918 -130.61474609 139.37084961 C-129.70226656 136.41351507 -129.56576535 135.31834091 -130.734375 132.51757812 C-132.14360128 130.07317945 -133.5880515 127.70257031 -135.109375 125.33007812 C-135.54620605 124.635354 -135.98303711 123.94062988 -136.43310547 123.22485352 C-138.83950271 119.41507948 -141.3062243 115.65535637 -143.84375 111.93164062 C-144.59906006 110.80858521 -144.59906006 110.80858521 -145.36962891 109.6628418 C-146.34238794 108.22123905 -147.32854588 106.78856253 -148.32958984 105.36645508 C-150.46481425 102.18910216 -151.67326263 99.80544955 -152.4765625 96.02148438 C-150.60306531 87.17660552 -140.26478813 79.90055214 -134.05859375 73.70898438 C-133.04191261 72.69162812 -132.02537983 71.67412359 -131.00898743 70.65647888 C-128.89522327 68.54125154 -126.77968884 66.42781578 -124.6628418 64.31567383 C-121.94805979 61.60663241 -119.23785165 58.89306615 -116.52891827 56.17817783 C-114.43841181 54.08406568 -112.34553939 51.99233121 -110.25193214 49.9013195 C-109.25083823 48.90089257 -108.25048634 47.89972254 -107.25089073 46.89779854 C-105.86067574 45.5050522 -104.46692304 44.11583982 -103.07299805 42.72680664 C-101.88555244 41.54055443 -101.88555244 41.54055443 -100.67411804 40.33033752 C-97.72220055 37.57166482 -95.28899554 36.95191036 -91.22216797 37.00878906 C-85.61508173 38.15551799 -80.95811312 41.97969403 -76.296875 45.14257812 C-75.21599609 45.85542969 -74.13511719 46.56828125 -73.02148438 47.30273438 C-64.29882073 53.06847323 -64.29882073 53.06847323 -61.26123047 55.48535156 C-57.37088607 58.63712282 -57.37088607 58.63712282 -52.61914062 59.39770508 C-50.19222488 58.63615377 -48.02051359 57.63328612 -45.734375 56.51757812 C-43.71747508 55.68435708 -41.69775694 54.85793635 -39.67578125 54.03710938 C-36.4483344 52.67325923 -33.22519768 51.29952923 -30.00195312 49.92578125 C-28.96619141 49.48814453 -27.93042969 49.05050781 -26.86328125 48.59960938 C-25.92556885 48.1997583 -24.98785645 47.79990723 -24.02172852 47.38793945 C-21.734375 46.51757812 -21.734375 46.51757812 -19.734375 46.51757812 C-19.63769531 45.37933594 -19.54101562 44.24109375 -19.44140625 43.06835938 C-18.68349651 36.2896465 -17.27935032 29.63026656 -15.88793945 22.95922852 C-15.41988417 20.69544937 -14.97272007 18.42810922 -14.52539062 16.16015625 C-14.22523943 14.71002071 -13.92385078 13.26014062 -13.62109375 11.81054688 C-13.49175949 11.13759079 -13.36242523 10.4646347 -13.22917175 9.77128601 C-11.49211174 1.74390601 -7.81823015 -0.08702798 0 0 Z M-46.4375 148.84570312 C-58.75387694 163.17291712 -67.01255659 179.23826393 -71.734375 197.51757812 C-72.04503906 198.56300781 -72.35570312 199.6084375 -72.67578125 200.68554688 C-73.05393451 203.68599262 -73.05393451 203.68599262 -70.671875 205.90429688 C-69.7025 206.66355469 -68.733125 207.4228125 -67.734375 208.20507812 C-56.74981919 217.40230452 -51.56032053 229.13813286 -49.859375 243.26757812 C-49.37449655 252.24374259 -50.05085579 262.04167571 -53.078125 270.55273438 C-55.73432293 277.48959985 -55.73432293 277.48959985 -54.375 284.50976562 C-52.01954394 287.45826203 -49.50318549 289.95471222 -46.734375 292.51757812 C-45.83976562 293.46632813 -44.94515625 294.41507813 -44.0234375 295.39257812 C-41.34915058 298.2124566 -38.5821681 300.87407435 -35.734375 303.51757812 C-34.61869141 304.62939453 -34.61869141 304.62939453 -33.48046875 305.76367188 C-25.68013995 312.50586911 -16.4385253 311.1452593 -6.734375 310.51757812 C-7.12294678 310.01685791 -7.51151855 309.5161377 -7.91186523 309.00024414 C-15.48004652 299.19082461 -22.79078725 288.34834138 -26.734375 276.51757812 C-28.63097491 275.16012027 -28.63097491 275.16012027 -30.921875 273.89257812 C-40.25260731 267.87943953 -44.33760365 257.45762069 -46.984375 247.01757812 C-48.56939313 238.90685472 -48.4961484 231.02631479 -44.734375 223.51757812 C-42.50691233 220.90981696 -40.79117022 219.04597574 -37.734375 217.51757812 C-37.76917969 216.40382813 -37.80398437 215.29007812 -37.83984375 214.14257812 C-38.29558539 193.50203947 -34.36228089 175.57903864 -20.734375 159.51757812 C-19.82558594 158.31294922 -19.82558594 158.31294922 -18.8984375 157.08398438 C-7.37140582 143.41384031 11.40475236 135.99181568 28.828125 134.13867188 C46.0490062 133.5320272 62.83892485 139.74853919 76.046875 150.68945312 C78.61086232 152.80203423 81.26459926 154.7537288 83.953125 156.70507812 C84.87738281 157.37796875 85.80164063 158.05085938 86.75390625 158.74414062 C88.66714203 160.09501005 90.64217421 161.35880264 92.640625 162.58007812 C99.11827762 167.36120268 101.62171373 173.81411029 103.265625 181.51757812 C103.61829606 185.48791716 103.5992845 189.4098788 103.515625 193.39257812 C103.49918945 194.96942383 103.49918945 194.96942383 103.48242188 196.578125 C103.38246686 203.58801351 103.12078761 210.55411115 102.265625 217.51757812 C103.19375 218.05382812 104.121875 218.59007812 105.078125 219.14257812 C109.13890222 222.16825527 110.49723955 225.00286209 111.953125 229.76757812 C113.41753429 242.65437992 110.67836051 255.72717414 103.265625 266.51757812 C102.67974609 267.37609375 102.67974609 267.37609375 102.08203125 268.25195312 C99.86325835 271.19091789 98.12730442 272.58179839 94.765625 274.14257812 C90.2315119 276.51666309 89.40720576 280.49798056 87.70703125 285.08789062 C83.8216312 294.33282624 77.39669763 302.65722859 71.265625 310.51757812 C84.68241638 311.8724841 84.68241638 311.8724841 96.703125 306.76757812 C98.60576853 305.07040942 100.45898172 303.31659844 102.265625 301.51757812 C103.32465307 300.53086909 104.38591686 299.54655508 105.44921875 298.56445312 C108.5296689 295.66946532 111.39244397 292.61792135 114.265625 289.51757812 C115.38517578 288.47923828 115.38517578 288.47923828 116.52734375 287.41992188 C118.70600352 285.0427725 119.59792993 283.69580664 120.265625 280.51757812 C119.67640197 275.64051517 118.10850677 270.98467036 116.6640625 266.30664062 C112.34296002 252.18060443 113.69094658 235.78399156 120.265625 222.51757812 C124.8446686 214.95852202 130.41309556 209.05353362 137.265625 203.51757812 C131.22156044 173.18463299 115.27923236 148.21339906 89.36132812 130.82958984 C45.7058121 103.49912117 -11.24639548 111.76514333 -46.4375 148.84570312 Z " fill="#000001" transform="translate(223.734375,12.482421875)"/>
<path d="M0 0 C19.8 0 39.6 0 60 0 C62.8125 14.375 62.8125 14.375 63.67895508 18.84521484 C65.45132787 32.05333137 65.45132787 32.05333137 72 43 C73.87507102 44.05030685 73.87507102 44.05030685 75.97729492 44.90112305 C77.16949898 45.41131233 77.16949898 45.41131233 78.38578796 45.93180847 C79.24203262 46.28817886 80.09827728 46.64454926 80.98046875 47.01171875 C82.31069817 47.57135063 82.31069817 47.57135063 83.6678009 48.14228821 C85.54487882 48.92861954 87.42364637 49.71092784 89.30395508 50.48950195 C92.16587558 51.67851591 95.01744048 52.8902307 97.86914062 54.10351562 C99.69732756 54.86599736 101.52608632 55.62710977 103.35546875 56.38671875 C104.20159225 56.74916183 105.04771576 57.11160492 105.91947937 57.48503113 C111.22245218 59.64838101 115.2663265 60.6215924 121 60 C123.82403929 58.893876 123.82403929 58.893876 126.27734375 57.1484375 C127.20353516 56.54386719 128.12972656 55.93929687 129.08398438 55.31640625 C130.49647461 54.35541016 130.49647461 54.35541016 131.9375 53.375 C132.87529297 52.75753906 133.81308594 52.14007813 134.77929688 51.50390625 C138.40875119 49.10781063 142.02236736 46.70207213 145.55517578 44.16503906 C146.34263184 43.6078418 147.13008789 43.05064453 147.94140625 42.4765625 C148.63049072 41.97463379 149.3195752 41.47270508 150.02954102 40.95556641 C152 40 152 40 153.87101746 40.20942688 C156.59317273 41.22026785 157.99177124 42.63130148 160.03417969 44.69360352 C160.81468689 45.47433731 161.59519409 46.25507111 162.39935303 47.0594635 C163.23178528 47.90737961 164.06421753 48.75529572 164.921875 49.62890625 C166.21185394 50.92525246 166.21185394 50.92525246 167.52789307 52.24778748 C170.27570575 55.01240612 173.01291036 57.78726862 175.75 60.5625 C177.60998825 62.43753251 179.47065707 64.31189018 181.33203125 66.18554688 C185.89594973 70.78256017 190.45119938 75.38802955 195 80 C193.48790336 83.92113656 191.6987502 87.24749749 189.41015625 90.78125 C188.35731445 92.41513672 188.35731445 92.41513672 187.28320312 94.08203125 C186.54314217 95.22146682 185.80290627 96.36078878 185.0625 97.5 C183.61451129 99.73869818 182.16869077 101.97878819 180.72265625 104.21875 C180.08078369 105.20810547 179.43891113 106.19746094 178.77758789 107.21679688 C178.19098389 108.13525391 177.60437988 109.05371094 177 110 C176.40759521 110.79986328 175.81519043 111.59972656 175.20483398 112.42382812 C173.26657428 116.56820834 174.27745891 119.8658038 175.70846558 124.09262085 C176.60020397 126.44213968 177.55251148 128.75796809 178.52734375 131.07421875 C178.87632217 131.92047318 179.2253006 132.7667276 179.58485413 133.6386261 C180.69490827 136.32476092 181.81619132 139.00604682 182.9375 141.6875 C183.68755384 143.50035956 184.43690988 145.313508 185.18554688 147.12695312 C186.55969335 150.4452881 187.93437588 153.76337224 189.32006836 157.0769043 C189.59684921 157.73973923 189.87363007 158.40257416 190.15879822 159.085495 C190.43639481 159.71728165 190.71399139 160.3490683 191 161 C191.29125259 161.70957352 191.58250519 162.41914703 191.88258362 163.15022278 C193.97888123 166.62044537 198.2821216 167.06040941 202 168 C207.67125079 169.31564918 213.36054387 170.51250565 219.0625 171.6875 C224.321875 172.780625 229.58125 173.87375 235 175 C235 194.47 235 213.94 235 234 C222 237 222 237 219 237 C218.91363281 235.85144531 218.82726562 234.70289063 218.73828125 233.51953125 C217.32741923 217.09319303 213.03386408 203.44096129 200.8125 191.75 C188.05861475 181.04970644 173.26758677 178.06734894 157 179 C154.66281411 179.30515187 152.32786461 179.63040306 150 180 C149.6596875 178.741875 149.319375 177.48375 148.96875 176.1875 C143.02804236 154.92623982 133.5187163 135.94027735 118 120 C117.23042969 119.16855469 116.46085937 118.33710938 115.66796875 117.48046875 C95.276817 96.03517022 64.87320615 83.59665191 35.46875 82.796875 C1.1604663 82.34507396 -29.96141508 92.76104222 -55.16381836 116.64428711 C-63.03986893 124.35811592 -69.55271967 132.41782857 -75 142 C-75.36029297 142.63373535 -75.72058594 143.2674707 -76.09179688 143.92041016 C-82.39898572 155.26593656 -86.93022702 167.38583337 -90 180 C-91.175625 179.835 -92.35125 179.67 -93.5625 179.5 C-111.67278007 177.59515108 -126.7500974 180.28817653 -141.28125 191.80859375 C-153.41691245 203.03408152 -158.15014102 218.31089357 -158.921875 234.39453125 C-158.94765625 235.25433594 -158.9734375 236.11414063 -159 237 C-160.35490296 236.88325099 -161.70890696 236.75606577 -163.0625 236.625 C-163.81660156 236.55539062 -164.57070312 236.48578125 -165.34765625 236.4140625 C-168.62451493 235.90250577 -171.81105932 234.91112591 -175 234 C-175 214.53 -175 195.06 -175 175 C-156.8125 171.125 -156.8125 171.125 -151.09692383 169.91455078 C-149.59188434 169.59182229 -148.08691535 169.26876481 -146.58203125 168.9453125 C-145.8087146 168.78281006 -145.03539795 168.62030762 -144.23864746 168.45288086 C-137.04633801 167.28735813 -137.04633801 167.28735813 -131.65722656 163.01074219 C-131.32174805 162.19766602 -130.98626953 161.38458984 -130.640625 160.546875 C-130.25108643 159.62777344 -129.86154785 158.70867187 -129.46020508 157.76171875 C-129.0608374 156.76785156 -128.66146973 155.77398437 -128.25 154.75 C-127.82678467 153.73035156 -127.40356934 152.71070313 -126.9675293 151.66015625 C-126.08194492 149.52173382 -125.20341008 147.38037988 -124.33154297 145.23632812 C-123.03342608 142.0812424 -121.68416052 138.95356128 -120.31640625 135.828125 C-119.48103134 133.88573454 -118.64636777 131.94303795 -117.8125 130 C-117.41385742 129.09991211 -117.01521484 128.19982422 -116.60449219 127.27246094 C-116.24645508 126.41942383 -115.88841797 125.56638672 -115.51953125 124.6875 C-115.20089111 123.94886719 -114.88225098 123.21023437 -114.55395508 122.44921875 C-113.51741157 117.86631683 -114.42015434 114.14319354 -116.51879883 110.00561523 C-117.15841553 109.03309814 -117.79803223 108.06058105 -118.45703125 107.05859375 C-119.15763672 105.98029297 -119.85824219 104.90199219 -120.58007812 103.79101562 C-121.32395182 102.67299944 -122.06809451 101.55516218 -122.8125 100.4375 C-123.5460561 99.3164966 -124.27848784 98.1947566 -125.00976562 97.07226562 C-128.30931902 92.02784319 -131.65506808 87.01438025 -135 82 C-133.57286275 78.76323367 -131.83340731 76.56258304 -129.36401367 74.04174805 C-128.61951462 73.27803391 -127.87501556 72.51431976 -127.10795593 71.72746277 C-126.30276016 70.91376724 -125.49756439 70.10007172 -124.66796875 69.26171875 C-123.83920731 68.42155716 -123.01044586 67.58139557 -122.15657043 66.71577454 C-120.40336291 64.94368839 -118.64723894 63.17448357 -116.88842773 61.40795898 C-114.19416592 58.69421413 -111.52195848 55.95991251 -108.84960938 53.22460938 C-107.14455204 51.50649866 -105.43821436 49.78965742 -103.73046875 48.07421875 C-102.53178413 46.83849373 -102.53178413 46.83849373 -101.30888367 45.57780457 C-100.55492813 44.82985123 -99.8009726 44.08189789 -99.02416992 43.3112793 C-98.36623947 42.64605759 -97.70830902 41.98083588 -97.03044128 41.29545593 C-95 40 -95 40 -92.45332336 40.16999817 C-88.93310879 41.3609478 -86.08064589 43.38835881 -83.0625 45.5 C-81.72945807 46.40407566 -80.39611749 47.30771109 -79.0625 48.2109375 C-77.05733207 49.58254138 -75.05712556 50.96004096 -73.06640625 52.35253906 C-71.24214041 53.62592213 -69.40378042 54.8763999 -67.5625 56.125 C-65.95568359 57.24261719 -65.95568359 57.24261719 -64.31640625 58.3828125 C-59.8309205 60.57008117 -55.71760533 60.75240531 -50.94847107 59.43200684 C-48.79306863 58.63161716 -46.69426672 57.75029479 -44.58984375 56.82421875 C-43.81870743 56.4983931 -43.04757111 56.17256744 -42.25306702 55.83686829 C-39.80861713 54.80038441 -37.37318068 53.74440238 -34.9375 52.6875 C-33.29938644 51.98892372 -31.66071845 51.29164602 -30.02148438 50.59570312 C-26.32819694 49.02440934 -22.63771383 47.4473364 -18.96156311 45.83628845 C-17.6487124 45.2765706 -16.32404787 44.74382655 -14.98948669 44.23805237 C-11.43810731 42.92091583 -11.43810731 42.92091583 -8.78979492 40.33813477 C-8.62584229 39.69158936 -8.46188965 39.04504395 -8.29296875 38.37890625 C-8.0820459 37.58371582 -7.87112305 36.78852539 -7.65380859 35.96923828 C-7.33017334 34.49946533 -7.33017334 34.49946533 -7 33 C-6.7107666 31.73784668 -6.4215332 30.47569336 -6.12353516 29.17529297 C-5.13721005 24.77223987 -4.22320212 20.3569115 -3.3125 15.9375 C-2.219375 10.678125 -1.12625 5.41875 0 0 Z " fill="#326598" transform="translate(226,29)"/>
<path d="M0 0 C4.85223655 -0.10043639 9.70384113 -0.17218965 14.55688477 -0.21972656 C16.20054693 -0.23958568 17.84414096 -0.26668256 19.48754883 -0.30175781 C41.24986864 -0.75389278 58.53371951 4.81629695 74.89453125 19.7265625 C79.01598526 23.9503551 81.66156491 28.7821341 84.3125 34 C84.65039551 34.66451172 84.98829102 35.32902344 85.33642578 36.01367188 C89.11285042 43.79215058 90.29949997 50.97075408 90.22705078 59.53710938 C90.22734283 60.45511322 90.22763489 61.37311707 90.22793579 62.31893921 C90.22655201 65.32730852 90.21103588 68.33542441 90.1953125 71.34375 C90.19157898 73.43981796 90.18873361 75.53588767 90.18673706 77.63195801 C90.17912728 83.12940348 90.15950169 88.62674206 90.1373291 94.12414551 C90.11320169 100.73051749 90.10407705 107.33692536 90.09242249 113.94332886 C90.0730757 123.96229342 90.03473451 133.98102377 90 144 C76.47 144 62.94 144 49 144 C48.95101562 138.62074219 48.90203125 133.24148438 48.8515625 127.69921875 C48.81618427 124.29490285 48.78022896 120.89061276 48.7421875 117.48632812 C48.68183871 112.08084776 48.62364788 106.67540359 48.578125 101.26977539 C48.5412971 96.91248951 48.49494406 92.55540028 48.44193649 88.19828224 C48.42337924 86.53451798 48.40827621 84.87071155 48.39665604 83.20688438 C48.37981619 80.87949792 48.35078727 78.55256312 48.31884766 76.2253418 C48.31668747 75.53482224 48.31452728 74.84430267 48.31230164 74.13285828 C48.24904004 70.53336742 48.05791628 69.08687442 46 66 C42.67583445 64.82238259 42.67583445 64.82238259 39 65 C35.56229385 67.60770852 34.16362741 69.12697808 33.36076355 73.41059875 C33.35410172 74.71409775 33.34743988 76.01759674 33.34057617 77.3605957 C33.32485062 78.44433723 33.32485062 78.44433723 33.30880737 79.54997253 C33.28012528 81.92568265 33.28634011 84.29992949 33.29296875 86.67578125 C33.27984942 88.32775188 33.26454447 89.97970647 33.24714661 91.63163757 C33.20731055 95.9701484 33.19710711 100.30823948 33.19311523 104.64691162 C33.18213872 109.85753597 33.13428572 115.06793694 33.09262848 120.27838898 C33.03353088 128.18578093 33.02122174 136.09200716 33 144 C20.13 144 7.26 144 -6 144 C0 137 0 137 2.15234375 134.98828125 C4.79881373 132.50395823 6.88511464 130.43002984 7.18496704 126.69763184 C7.08348358 125.82481567 6.98200012 124.95199951 6.87744141 124.05273438 C6.7574176 122.98796875 6.6373938 121.92320312 6.51373291 120.82617188 C6.34420105 119.56353516 6.17466919 118.30089844 6 117 C5.90292503 116.26825562 5.80585007 115.53651123 5.70583344 114.78259277 C4.99308095 109.45473767 4.23152391 104.13453882 3.45615768 98.81547546 C3.01554189 95.78952653 2.58013129 92.7628689 2.14614868 89.73596191 C0.9129074 81.13928814 -0.32776358 72.54370308 -1.57617188 63.94921875 C-2.34244356 58.67139868 -3.10127815 53.39255336 -3.85544968 48.11299133 C-4.14364427 46.10629554 -4.43472663 44.10001228 -4.72874832 42.09416199 C-5.13816238 39.30005652 -5.53815278 36.50475175 -5.93603516 33.70898438 C-6.05961899 32.88195007 -6.18320282 32.05491577 -6.31053162 31.20281982 C-7.08144125 25.68846454 -7.17880348 22.74919226 -4.0625 18.125 C-1.85123762 14.46900628 -1.41487319 10.9509916 -0.87109375 6.7421875 C-0.70407959 5.48003418 -0.53706543 4.21788086 -0.36499023 2.91748047 C-0.24454346 1.95471191 -0.12409668 0.99194336 0 0 Z " fill="#326598" transform="translate(281,339)"/>
<path d="M0 0 C0.76695694 0.00141495 1.53391388 0.0028299 2.32411194 0.00428772 C4.74866815 0.00983859 7.17312844 0.02238162 9.59765625 0.03515625 C11.25195178 0.04017761 12.90624878 0.0447394 14.56054688 0.04882812 C18.59378637 0.05979187 22.62695511 0.07702201 26.66015625 0.09765625 C26.70333984 0.82863525 26.74652344 1.55961426 26.79101562 2.31274414 C27.322732 9.72905391 27.322732 9.72905391 30.16015625 16.53515625 C32.68575671 20.99166637 33.99918536 24.14137822 33.2421875 29.28999329 C33.12431885 30.11837708 33.0064502 30.94676086 32.88500977 31.80024719 C32.74893311 32.70059189 32.61285645 33.60093658 32.47265625 34.52856445 C32.334646 35.483508 32.19663574 36.43845154 32.05444336 37.42233276 C31.75385953 39.49571871 31.44976149 41.56859753 31.14257812 43.64101601 C30.65653463 46.92289147 30.18043519 50.20607093 29.70703125 53.48979187 C28.52910572 61.64734209 27.33621472 69.80268457 26.13964844 77.95751953 C25.12917169 84.84484151 24.12638562 91.73318764 23.13476562 98.62325096 C22.66654245 101.85436757 22.18691005 105.0836617 21.70703125 108.31306458 C21.41996669 110.30147711 21.13347784 112.28997287 20.84765625 114.27856445 C20.71157959 115.17283646 20.57550293 116.06710846 20.43530273 116.98847961 C19.22799395 125.2719403 19.22799395 125.2719403 21.87524414 132.97802734 C22.3727417 133.43773926 22.87023926 133.89745117 23.3828125 134.37109375 C23.92099609 134.88542969 24.45917969 135.39976562 25.01367188 135.9296875 C25.57763672 136.43886719 26.14160156 136.94804687 26.72265625 137.47265625 C28.71187848 139.33769321 30.68934371 141.21304818 32.66015625 143.09765625 C32.66015625 143.42765625 32.66015625 143.75765625 32.66015625 144.09765625 C19.79015625 144.09765625 6.92015625 144.09765625 -6.33984375 144.09765625 C-6.36111328 136.17185547 -6.36111328 136.17185547 -6.3828125 128.0859375 C-6.40287227 124.73626136 -6.42439193 121.38672206 -6.45117188 118.03710938 C-6.4935291 112.72170669 -6.53050968 107.40665086 -6.53540039 102.09106445 C-6.53968245 97.80487366 -6.56813663 93.51945941 -6.61327553 89.23351097 C-6.62625364 87.59932162 -6.63055707 85.96503935 -6.62599754 84.33080482 C-6.62109332 82.03910363 -6.64717041 79.7496737 -6.68041992 77.45825195 C-6.68708176 76.15475296 -6.69374359 74.85125397 -6.7006073 73.508255 C-7.50347116 69.22463433 -8.9021376 67.70536477 -12.33984375 65.09765625 C-16.0156782 64.92003884 -16.0156782 64.92003884 -19.33984375 66.09765625 C-21.71468397 69.65991658 -21.64582092 72.20885345 -21.65869141 76.32299805 C-21.67375984 77.42093185 -21.67375984 77.42093185 -21.68913269 78.54104614 C-21.7200156 80.9596478 -21.73701379 83.3781385 -21.75390625 85.796875 C-21.77261381 87.47411558 -21.79218692 89.15134671 -21.81259155 90.8285675 C-21.86396234 95.24258863 -21.90356152 99.6566403 -21.94073486 104.07080078 C-21.98777808 109.36727204 -22.04939707 114.66359122 -22.10858154 119.95993805 C-22.19685412 128.0057829 -22.26657506 136.05159772 -22.33984375 144.09765625 C-35.86984375 144.09765625 -49.39984375 144.09765625 -63.33984375 144.09765625 C-63.50027899 121.15987384 -63.50027899 121.15987384 -63.53515625 111.31835938 C-63.55898895 104.62527649 -63.58706281 97.93241426 -63.64160156 91.23950195 C-63.68533428 85.83836652 -63.70903846 80.437468 -63.71935272 75.03616905 C-63.72669513 72.98426273 -63.741032 70.93236811 -63.76276398 68.88056374 C-63.9664364 48.83845522 -60.5875758 32.78315391 -46.23046875 17.73828125 C-33.25593246 5.88586701 -17.58813449 -0.12444578 0 0 Z " fill="#326598" transform="translate(204.33984375,338.90234375)"/>
<path d="M0 0 C0.99 0.33 1.98 0.66 3 1 C4.01374921 3.45811755 4.87257373 5.85190136 5.6875 8.375 C8.02658829 15.16313589 10.84437779 20.24262609 15.36328125 25.86328125 C17.52114155 28.6803447 18.03883391 30.39160206 17.8125 33.9375 C17.75554068 37.03493625 17.75554068 37.03493625 19.5 39.375 C23.13251074 41.73613198 25.71843297 41.2854378 30 41 C30.67439115 50.68500625 29.24595316 59.21737165 23.1875 67.0625 C20.76504425 69.68785179 20.00043151 69.99989761 16.3125 70.875 C12.98527113 71.58389667 12.98527113 71.58389667 12.13671875 73.6171875 C11.6851997 75.12963781 11.26078962 76.65030087 10.85546875 78.17578125 C6.47592847 92.63426354 -3.53573478 106.8857055 -16.6875 114.5703125 C-25.52914876 119.06824428 -33.93612009 120.61961887 -43.828125 118.3515625 C-57.62225628 113.27636326 -68.60586874 100.93653224 -75 88 C-77.22051724 82.7405635 -79.19497067 77.41508798 -81 72 C-82.5778125 71.62875 -82.5778125 71.62875 -84.1875 71.25 C-89.03786267 70.00759153 -91.40678298 67.16259907 -94 63 C-97.65931065 55.69270783 -98.56403096 49.10011123 -98 41 C-96.7625 41.0825 -95.525 41.165 -94.25 41.25 C-91.32752441 41.21890983 -90.12210703 41.06715887 -87.5 39.625 C-85.76553882 36.58969294 -85.98385112 35.52351645 -86.25 32.125 C-86.411116 27.55333346 -86.411116 27.55333346 -84.65625 25.19140625 C-73.00693839 16.00086328 -57.93535387 13.73553744 -43.60546875 12.36328125 C-21.68917322 10.88181766 -21.68917322 10.88181766 -2.2109375 1.74609375 C-1.48132813 1.16988281 -0.75171875 0.59367188 0 0 Z " fill="#FEDCAA" transform="translate(290,204)"/>
<path d="M0 0 C0.82986923 -0.0065712 1.65973846 -0.0131424 2.51475525 -0.01991272 C5.25983784 -0.03961173 8.00486566 -0.05130414 10.75 -0.0612793 C12.16178024 -0.06739259 12.16178024 -0.06739259 13.6020813 -0.07362938 C18.58904804 -0.0944811 23.57598739 -0.10878364 28.56298828 -0.11816406 C33.6893556 -0.12919373 38.8152847 -0.16355633 43.9414978 -0.20333576 C47.90347035 -0.22961429 51.86534056 -0.23786609 55.82739258 -0.24144554 C57.71544333 -0.24628679 59.60349027 -0.25782966 61.49145508 -0.27648354 C75.59569112 -0.40711654 87.75356847 0.32305682 98.75 10.17700195 C99.36617188 10.69004883 99.98234375 11.2030957 100.6171875 11.73168945 C106.5796988 17.0800365 110.16003589 24.34290474 111.75 32.17700195 C111.83641198 34.13216493 111.86770716 36.09005199 111.86352539 38.04711914 C111.86340454 39.24449707 111.86328369 40.441875 111.86315918 41.67553711 C111.85804321 42.92898926 111.85292725 44.18244141 111.84765625 45.47387695 C111.84664917 46.62968262 111.84564209 47.78548828 111.84460449 48.97631836 C111.83937308 53.29322299 111.82541182 57.61011347 111.8125 61.92700195 C111.791875 71.57950195 111.77125 81.23200195 111.75 91.17700195 C85.02 91.17700195 58.29 91.17700195 30.75 91.17700195 C30.42 81.60700195 30.09 72.03700195 29.75 62.17700195 C26.94318809 42.95034038 19.03061382 25.71259533 3.75 13.17700195 C-1.33590441 9.53928728 -6.65319233 5.97540579 -12.25 3.17700195 C-12.25 2.51700195 -12.25 1.85700195 -12.25 1.17700195 C-8.16345882 0.04292234 -4.21524278 0.01452603 0 0 Z " fill="#EDEDED" transform="translate(356.25,328.822998046875)"/>
<path d="M0 0 C0.83179779 -0.00189835 1.66359558 -0.00379669 2.52059937 -0.00575256 C5.25064738 -0.00943595 7.98042514 0.00120817 10.71044922 0.01245117 C12.61660735 0.01364437 14.52276607 0.01409584 16.42892456 0.01383972 C20.41489365 0.01540033 24.40077238 0.02365856 28.38671875 0.03710938 C33.49221785 0.05412159 38.59761803 0.05792277 43.70314217 0.05716419 C47.63566021 0.05743624 51.5681567 0.06292272 55.50066757 0.07016563 C57.38330802 0.07334381 59.26595091 0.07531772 61.1485939 0.07605934 C63.77879236 0.07823062 66.40888652 0.08699126 69.0390625 0.09765625 C69.81425232 0.09720306 70.58944214 0.09674988 71.38812256 0.09628296 C75.17867548 0.11872497 78.70473228 0.32826391 82.39013672 1.24291992 C82.39013672 1.90291992 82.39013672 2.56291992 82.39013672 3.24291992 C80.67679349 4.28489993 78.91610212 5.24917653 77.14013672 6.18041992 C60.43409431 15.69577191 47.86207867 31.48365517 42.57763672 50.05541992 C39.11340231 63.59742717 39.87546034 77.16853478 39.39013672 91.24291992 C12.66013672 91.24291992 -14.06986328 91.24291992 -41.60986328 91.24291992 C-41.69236328 81.73479492 -41.77486328 72.22666992 -41.85986328 62.43041992 C-41.8962793 59.45034912 -41.93269531 56.47027832 -41.97021484 53.39990234 C-41.98190976 51.00773842 -41.99209968 48.61556647 -42.00048828 46.22338867 C-42.02095215 45.00574829 -42.04141602 43.78810791 -42.0625 42.53356934 C-42.06758236 29.95344921 -38.55776969 20.44191319 -29.98486328 11.18041992 C-21.71308651 3.12429469 -11.3527046 -0.0827301 0 0 Z " fill="#EDEDED" transform="translate(85.60986328125,328.757080078125)"/>
<path d="M0 0 C7.37797749 5.24518399 13.64231419 12.91432513 16.13671875 21.73828125 C18.89401037 39.31601534 15.27479697 57.2441745 4.9140625 71.87109375 C-0.47618235 78.45234943 -6.97088008 82.97727854 -15.42578125 84.52734375 C-25.52175989 85.45817866 -33.59952695 83.863542 -41.61328125 77.46484375 C-50.68403713 68.79641978 -54.24988537 58.29915615 -57.42578125 46.52734375 C-57.60536377 45.87636719 -57.78494629 45.22539062 -57.9699707 44.5546875 C-60.49695972 33.31520341 -58.98730618 20.77959098 -52.8828125 11.07421875 C-40.36503365 -6.22724217 -18.4913256 -11.2258128 0 0 Z " fill="#FDDBAA" transform="translate(141.42578125,228.47265625)"/>
<path d="M0 0 C5.75358948 4.28950644 9.97039475 8.91622227 13.3125 15.26953125 C13.82103516 16.22859375 13.82103516 16.22859375 14.33984375 17.20703125 C19.5278972 29.44796841 16.66590429 45.28756094 12.3125 57.26953125 C7.87632047 68.12346907 2.03081686 76.97468272 -8.6875 82.26953125 C-16.36539318 85.37021888 -25.1448194 85.50471165 -32.9375 82.70703125 C-42.63261722 78.23952124 -49.6147407 70.22484476 -53.45849609 60.2734375 C-55.06407546 55.65885212 -56.41514396 50.98566087 -57.6875 46.26953125 C-57.86708252 45.61855469 -58.04666504 44.96757812 -58.23168945 44.296875 C-60.76659389 33.02218486 -59.18156119 20.64837443 -53.21484375 10.8515625 C-47.90225716 3.3536566 -40.22738166 -2.76286952 -31.29296875 -5.29296875 C-20.02565693 -7.18493115 -9.67081197 -6.22699085 0 0 Z " fill="#FDDBAA" transform="translate(412.6875,228.73046875)"/>
<path d="M0 0 C2.63151752 2.19930607 5.11352465 4.4914162 7.5859375 6.8671875 C10.03908107 9.03452794 12.46580061 10.58360742 15.3125 12.1875 C20.52043029 15.13538507 24.05131577 18.1539473 26 24 C26.65155809 36.35454383 25.59735569 47.92538813 23 60 C20 60 20 60 18.5703125 58.6015625 C12.77502545 50.67611589 8.7940162 42.40424965 6 33 C3.4871503 34.24267841 1.02535573 35.53162415 -1.4375 36.875 C-12.44558936 42.30299244 -23.84069431 43.85259906 -35.875 45 C-61.69267059 47.39971394 -61.69267059 47.39971394 -83 61 C-83.34192668 59.16824992 -83.67306214 57.33448463 -84 55.5 C-84.2784375 53.96859375 -84.2784375 53.96859375 -84.5625 52.40625 C-86.36688459 38.35782713 -82.44527594 24.32864441 -74 13 C-65.09889137 2.26376021 -53.64021712 -5.58258059 -40 -9 C-39.175 -9.226875 -38.35 -9.45375 -37.5 -9.6875 C-23.83774323 -11.3952821 -11.40573592 -7.5504808 0 0 Z " fill="#7C6359" transform="translate(286,172)"/>
<path d="M0 0 C1.12535156 0.00580078 1.12535156 0.00580078 2.2734375 0.01171875 C3.02367187 0.00785156 3.77390625 0.00398438 4.546875 0 C10.14682697 0.01010822 10.14682697 0.01010822 11.2734375 1.13671875 C11.62933559 4.13643119 11.8706597 6.23131346 11.2734375 9.13671875 C9.93359375 10.68359375 9.93359375 10.68359375 8.2734375 12.07421875 C6.36370673 13.71154273 5.37206705 14.56429906 4.93851471 17.08052158 C5.12266961 22.57086991 5.64450523 27.92238615 6.46679688 33.35327148 C6.6569915 34.66251083 6.6569915 34.66251083 6.85102844 35.99819946 C7.12486515 37.87770052 7.4016027 39.75678083 7.6809845 41.63546562 C8.12402263 44.61630041 8.55883302 47.59823612 8.99157715 50.58058167 C10.06763452 57.98524101 11.15688845 65.38794526 12.24713135 72.79052734 C13.16954724 79.05603876 14.08621453 85.32233726 14.99507141 91.5898304 C15.42149915 94.514159 15.85628792 97.43716448 16.29138184 100.36021423 C16.55470813 102.17033784 16.81762792 103.98052065 17.08007812 105.79077148 C17.20163773 106.59159653 17.32319733 107.39242157 17.44844055 108.21751404 C19.53471558 122.83555714 19.53471558 122.83555714 16.89648438 127.64892578 C15.95385742 128.51300049 15.95385742 128.51300049 14.9921875 129.39453125 C14.31542969 130.0390625 13.63867188 130.68359375 12.94140625 131.34765625 C12.22597656 131.97929687 11.51054687 132.6109375 10.7734375 133.26171875 C9.70029297 134.2671875 9.70029297 134.2671875 8.60546875 135.29296875 C6.84866141 136.9326556 5.07313112 138.54443663 3.2734375 140.13671875 C-1.04097063 138.14004535 -4.05945099 135.38860728 -7.4765625 132.13671875 C-8.37955078 131.34587891 -8.37955078 131.34587891 -9.30078125 130.5390625 C-11.75013222 128.18968503 -13.55842756 126.35962221 -14.03249359 122.91157627 C-13.88369615 117.12879491 -13.40119444 111.50902968 -12.53320312 105.79077148 C-12.40640671 104.91619293 -12.27961029 104.04161438 -12.14897156 103.14053345 C-11.87546846 101.26045371 -11.59872804 99.38084251 -11.3190155 97.50167656 C-10.87548979 94.52110256 -10.44087527 91.53934367 -10.00842285 88.55714417 C-9.08903246 82.22833488 -8.15839323 75.9012065 -7.2265625 69.57421875 C-6.14611451 62.23368768 -5.07037223 54.89251627 -4.00492859 47.54979134 C-3.57811667 44.62381339 -3.14356591 41.69905463 -2.70861816 38.77427673 C-2.44535214 36.96732845 -2.18243513 35.16032928 -1.91992188 33.35327148 C-1.79836227 32.55042221 -1.67680267 31.74757294 -1.55155945 30.9203949 C-0.33172955 23.03543131 -0.33172955 23.03543131 -0.7265625 15.13671875 C-2.15571159 13.41526292 -3.6748737 12.11751572 -5.38671875 10.68359375 C-7.12466116 8.6771063 -7.15941093 7.44770273 -7.1640625 4.82421875 C-6.49254817 -0.83568775 -5.32991272 0.00962078 0 0 Z " fill="#D45689" transform="translate(253.7265625,338.86328125)"/>
</svg>
