<?xml version="1.0" encoding="UTF-8"?>
<svg version="1.1" xmlns="http://www.w3.org/2000/svg" width="512" height="512">
<path d="M0 0 C0.7648491 -0.00175304 1.52969821 -0.00350607 2.31772456 -0.00531223 C4.87750534 -0.00995964 7.43722901 -0.00750998 9.99701214 -0.00507832 C11.85208723 -0.00694692 13.70716193 -0.00924782 15.56223601 -0.01194364 C20.65782713 -0.01806189 25.75340185 -0.01792801 30.8489958 -0.01674926 C36.34536881 -0.01654526 41.84173655 -0.02206392 47.33810711 -0.02680683 C58.10556394 -0.03511398 68.8730153 -0.0378617 79.64047507 -0.03841921 C88.39213087 -0.03889432 97.14378487 -0.04094881 105.8954401 -0.04411983 C126.66820068 -0.05149339 147.44096016 -0.05764464 168.21372223 -0.05712128 C168.87789505 -0.0571057 169.54206787 -0.05709012 170.22636714 -0.05707407 C173.5925989 -0.05699096 176.95883067 -0.05689192 180.32506243 -0.05678936 C181.32786418 -0.05675944 181.32786418 -0.05675944 182.35092454 -0.05672892 C183.70286381 -0.05668848 185.05480308 -0.05664669 186.40674234 -0.05660353 C207.44055724 -0.05599078 228.47435602 -0.06349765 249.50816631 -0.07717609 C273.14469792 -0.09254081 296.78122147 -0.10112942 320.41775912 -0.10021287 C332.93093771 -0.09988077 345.44409811 -0.10263369 357.95727253 -0.11339092 C368.61044516 -0.12249045 379.26359137 -0.12467566 389.9167662 -0.1178815 C395.35186237 -0.1146136 400.78690781 -0.11456941 406.22199917 -0.12323475 C411.19929505 -0.1310886 416.1764999 -0.12967968 421.15379354 -0.12095062 C422.95253942 -0.11941318 424.75129206 -0.12124095 426.55002997 -0.12681069 C453.67221597 -0.20521876 453.67221597 -0.20521876 464.38878155 9.87863445 C470.22260228 16.01044996 473.25902412 22.60309867 473.27300262 31.07927418 C473.27746047 32.33023605 473.28191831 33.58119791 473.28651124 34.87006772 C473.28642194 36.26599988 473.28623208 37.66193205 473.28595257 39.05786419 C473.28925117 40.53484344 473.29297672 42.01182178 473.29709405 43.48879898 C473.30712276 47.55781177 473.31083224 51.62680981 473.31348336 55.69583321 C473.31738386 60.08045804 473.32696241 64.46507116 473.33569622 68.84968853 C473.35546838 79.4440477 473.36552804 90.03840784 473.37442401 100.63278085 C473.3788059 105.62057451 473.38417298 110.60836711 473.38941288 115.59615993 C473.40642632 132.17479831 473.42092061 148.75343603 473.42816162 165.33208179 C473.43007155 169.63535977 473.43199188 173.93863775 473.43394756 178.2419157 C473.4344313 179.31148911 473.43491504 180.38106251 473.43541344 181.48304723 C473.44371414 198.81033364 473.46905122 216.13755102 473.50152824 233.46480729 C473.53459245 251.25021229 473.55260983 269.0355822 473.55580586 286.8210181 C473.55797161 296.80853007 473.56672965 306.79594139 473.59226704 316.78342342 C473.61396535 325.28918803 473.62202875 333.79482755 473.61230025 342.3006167 C473.60775296 346.6399713 473.60966663 350.97906777 473.6290617 355.31838703 C473.64667574 359.29359408 473.64571014 363.26835435 473.63016441 367.24356602 C473.62778564 368.67902945 473.63212593 370.11452366 473.64399306 371.54994 C473.70673556 379.64260753 473.30762574 386.07714653 469.13878155 393.12863445 C468.76082874 393.78097596 468.38287593 394.43331747 467.99347001 395.10542691 C463.46979007 402.53085298 456.14520385 406.11366897 448.06192303 408.49527264 C442.89649973 409.6144733 437.77385798 409.44076567 432.51378155 409.31613445 C431.41421124 409.3025993 430.31464092 409.28906414 429.1817503 409.27511883 C426.50022823 409.24014245 423.81978082 409.19106517 421.13878155 409.12863445 C421.14766399 409.96944057 421.15654644 410.8102467 421.16569805 411.67653179 C421.24590272 419.60691941 421.30677572 427.53717048 421.34603024 435.46787071 C421.36689007 439.544991 421.39517773 443.62177567 421.44053936 447.69870281 C421.48405536 451.63445927 421.50793073 455.56989327 421.51829052 459.50587177 C421.52567166 461.00618661 421.54008558 462.50648414 421.56170177 464.00666142 C421.59081417 466.11109977 421.59473456 468.21421212 421.59288311 470.31882 C421.60176556 471.51572964 421.610648 472.71263927 421.61979961 473.9458189 C421.02769991 477.86364296 420.01872226 479.4293876 417.13878155 482.12863445 C412.91541861 483.85069651 409.35032152 484.3789581 404.80896759 484.38031673 C403.54978258 484.38553223 402.29059757 484.39074772 400.99325544 484.39612126 C399.60359726 484.39179752 398.21393966 484.38728423 396.82428265 484.38260174 C395.34201424 484.38490678 393.85974699 484.3880836 392.37748212 484.39205623 C388.30767728 484.40040736 384.23796621 484.39627745 380.16816103 484.39008379 C375.77741556 484.38556142 371.38668629 484.39254213 366.99594402 484.39804363 C358.39438477 484.40694267 349.7928604 484.40501302 341.19129977 484.39921835 C334.19830339 484.39470241 327.20531679 484.39408867 320.21231937 484.39626598 C319.21717822 484.39657245 318.22203706 484.39687892 317.19674012 484.39719467 C315.17509236 484.39783412 313.15344461 484.39848255 311.13179686 484.39913985 C292.16730235 484.40484502 273.20282715 484.39828309 254.23833581 484.38753912 C237.97475399 484.37861032 221.71120074 484.38014975 205.44761944 484.38937664 C186.55894045 484.40008783 167.67027844 484.40428844 148.78159684 484.39815211 C146.76583874 484.39751503 144.75008065 484.39688628 142.73432255 484.39626598 C141.74256061 484.39595743 140.75079867 484.39564888 139.72898335 484.39533098 C132.74896902 484.39360608 125.76896548 484.39651489 118.78895283 484.40122509 C110.27565242 484.40684365 101.76238888 484.40529726 93.24909268 484.3946636 C88.90752135 484.38941896 84.56601141 484.38732942 80.22444057 484.39396191 C76.24503545 484.39994896 72.26574825 484.39660102 68.28635373 484.3860068 C66.85162394 484.38378433 65.41688407 484.38488297 63.98216084 484.38975838 C49.03709952 484.43662251 35.27400046 483.02726317 23.76378155 472.50363445 C17.61803414 465.8575026 12.99831444 456.88745109 13.02525616 447.72726727 C13.02533169 446.86667706 13.02540722 446.00608685 13.02548504 445.11941814 C13.03064632 444.19949078 13.03580761 443.27956341 13.0411253 442.33175945 C13.04254025 441.38298931 13.04395519 440.43421917 13.04541302 439.45669842 C13.05100413 436.43064483 13.06355502 433.40466562 13.07628155 430.37863445 C13.0812977 428.32525011 13.0858604 426.2718646 13.08995342 424.2184782 C13.10097066 419.18850169 13.11822922 414.15858068 13.13878155 409.12863445 C12.46411846 409.1443449 11.78945538 409.16005535 11.09434795 409.17624187 C7.98424731 409.23929524 4.87428183 409.27784576 1.76378155 409.31613445 C0.17243389 409.35383953 0.17243389 409.35383953 -1.4510622 409.39230633 C-12.55329294 409.4944741 -21.04556749 407.37690483 -29.42371845 399.81613445 C-35.55018051 393.06131732 -39.10623743 387.22899248 -39.11848736 377.80885124 C-39.12493625 376.55191623 -39.13138514 375.29498122 -39.13802946 373.99995726 C-39.13508745 372.61285149 -39.13195204 371.22574612 -39.12864399 369.83864117 C-39.13238166 368.35907138 -39.13698365 366.87950357 -39.14237463 365.39993888 C-39.1546056 361.33768282 -39.15434406 357.27550911 -39.15198588 353.21323884 C-39.15157774 348.83070521 -39.16261659 344.448198 -39.17210102 340.06567669 C-39.18871241 331.48083781 -39.19421063 322.89602641 -39.19532578 314.31117281 C-39.19627616 307.33293698 -39.20038599 300.35471021 -39.20672703 293.37647724 C-39.22433963 273.5913398 -39.23356584 253.80622406 -39.23206608 234.02107873 C-39.23198617 232.95450425 -39.23190626 231.88792976 -39.23182392 230.78903484 C-39.23174216 229.72115794 -39.2316604 228.65328104 -39.23157616 227.55304424 C-39.2307632 210.24534379 -39.24990328 192.93773037 -39.27810065 175.63005509 C-39.30682592 157.85811045 -39.32064115 140.08620825 -39.3189131 122.3142398 C-39.31824909 112.33683905 -39.3237464 102.35952953 -39.3452692 92.3821497 C-39.36347626 83.88743016 -39.36783222 75.39284321 -39.35425036 66.89811262 C-39.34771837 62.56481793 -39.34761176 58.23177764 -39.36495686 53.89850712 C-39.3806825 49.92896264 -39.37782938 45.95987437 -39.36038859 41.99034104 C-39.35731756 40.55698952 -39.36095505 39.12360398 -39.37210874 37.69029256 C-39.45573585 26.17814078 -37.63701493 18.40924307 -29.72059345 9.91769695 C-21.08093898 1.6047521 -11.80174877 -0.03461693 0 0 Z " fill="#DDEDF4" transform="translate(38.86121845245361,13.871365547180176)"/>
<path d="M0 0 C0.7648491 -0.00175304 1.52969821 -0.00350607 2.31772456 -0.00531223 C4.87750534 -0.00995964 7.43722901 -0.00750998 9.99701214 -0.00507832 C11.85208723 -0.00694692 13.70716193 -0.00924782 15.56223601 -0.01194364 C20.65782713 -0.01806189 25.75340185 -0.01792801 30.8489958 -0.01674926 C36.34536881 -0.01654526 41.84173655 -0.02206392 47.33810711 -0.02680683 C58.10556394 -0.03511398 68.8730153 -0.0378617 79.64047507 -0.03841921 C88.39213087 -0.03889432 97.14378487 -0.04094881 105.8954401 -0.04411983 C126.66820068 -0.05149339 147.44096016 -0.05764464 168.21372223 -0.05712128 C168.87789505 -0.0571057 169.54206787 -0.05709012 170.22636714 -0.05707407 C173.5925989 -0.05699096 176.95883067 -0.05689192 180.32506243 -0.05678936 C181.32786418 -0.05675944 181.32786418 -0.05675944 182.35092454 -0.05672892 C183.70286381 -0.05668848 185.05480308 -0.05664669 186.40674234 -0.05660353 C207.44055724 -0.05599078 228.47435602 -0.06349765 249.50816631 -0.07717609 C273.14469792 -0.09254081 296.78122147 -0.10112942 320.41775912 -0.10021287 C332.93093771 -0.09988077 345.44409811 -0.10263369 357.95727253 -0.11339092 C368.61044516 -0.12249045 379.26359137 -0.12467566 389.9167662 -0.1178815 C395.35186237 -0.1146136 400.78690781 -0.11456941 406.22199917 -0.12323475 C411.19929505 -0.1310886 416.1764999 -0.12967968 421.15379354 -0.12095062 C422.95253942 -0.11941318 424.75129206 -0.12124095 426.55002997 -0.12681069 C453.67221597 -0.20521876 453.67221597 -0.20521876 464.38878155 9.87863445 C470.22260228 16.01044996 473.25902412 22.60309867 473.27300262 31.07927418 C473.27746047 32.33023605 473.28191831 33.58119791 473.28651124 34.87006772 C473.28642194 36.26599988 473.28623208 37.66193205 473.28595257 39.05786419 C473.28925117 40.53484344 473.29297672 42.01182178 473.29709405 43.48879898 C473.30712276 47.55781177 473.31083224 51.62680981 473.31348336 55.69583321 C473.31738386 60.08045804 473.32696241 64.46507116 473.33569622 68.84968853 C473.35546838 79.4440477 473.36552804 90.03840784 473.37442401 100.63278085 C473.3788059 105.62057451 473.38417298 110.60836711 473.38941288 115.59615993 C473.40642632 132.17479831 473.42092061 148.75343603 473.42816162 165.33208179 C473.43007155 169.63535977 473.43199188 173.93863775 473.43394756 178.2419157 C473.4344313 179.31148911 473.43491504 180.38106251 473.43541344 181.48304723 C473.44371414 198.81033364 473.46905122 216.13755102 473.50152824 233.46480729 C473.53459245 251.25021229 473.55260983 269.0355822 473.55580586 286.8210181 C473.55797161 296.80853007 473.56672965 306.79594139 473.59226704 316.78342342 C473.61396535 325.28918803 473.62202875 333.79482755 473.61230025 342.3006167 C473.60775296 346.6399713 473.60966663 350.97906777 473.6290617 355.31838703 C473.64667574 359.29359408 473.64571014 363.26835435 473.63016441 367.24356602 C473.62778564 368.67902945 473.63212593 370.11452366 473.64399306 371.54994 C473.70673556 379.64260753 473.30762574 386.07714653 469.13878155 393.12863445 C468.76082874 393.78097596 468.38287593 394.43331747 467.99347001 395.10542691 C463.46979007 402.53085298 456.14520385 406.11366897 448.06192303 408.49527264 C442.89649973 409.6144733 437.77385798 409.44076567 432.51378155 409.31613445 C431.41421124 409.3025993 430.31464092 409.28906414 429.1817503 409.27511883 C426.50022823 409.24014245 423.81978082 409.19106517 421.13878155 409.12863445 C421.13731499 408.16434175 421.13584843 407.20004904 421.13433743 406.20653534 C421.09775972 382.7546786 421.03833287 359.30296487 420.95487881 335.85122681 C420.91505144 324.5101812 420.88267773 313.16920536 420.86778545 301.82809734 C420.85478811 291.94440921 420.82787253 282.06087433 420.78416848 272.1772725 C420.76151054 266.94284243 420.74587346 261.7086017 420.7468977 256.47411823 C420.74764175 251.54845101 420.72979365 246.62320302 420.69761372 241.69764423 C420.68908676 239.88886202 420.68738368 238.08003294 420.69297886 236.27123928 C420.69959839 233.80270521 420.68174867 231.33551299 420.65776348 228.86711407 C420.6655239 228.15017999 420.67328432 227.43324592 420.6812799 226.69458658 C420.62055522 223.16792187 420.19418013 221.21634905 418.29384518 218.20747948 C414.40273488 214.45398692 410.20119696 214.97682393 405.10931683 214.97041607 C404.28187597 214.96547809 403.45443512 214.96054011 402.60192031 214.9554525 C399.81969448 214.94005197 397.03749177 214.93170996 394.25523663 214.92331219 C392.26466956 214.91373567 390.27410455 214.90372573 388.28354168 214.89331341 C382.87068186 214.86623373 377.4578133 214.84524075 372.04492307 214.82531142 C366.39143443 214.80347075 360.73797286 214.77607269 355.08450603 214.74925518 C344.37483222 214.69930231 333.66514341 214.65437311 322.95544022 214.61123282 C310.76453273 214.5618826 298.57365238 214.50695626 286.38277113 214.45155323 C261.30146533 214.33769335 236.22013461 214.23159921 211.13878155 214.12863445 C211.13878155 188.05863445 211.13878155 161.98863445 211.13878155 135.12863445 C181.75000253 135.16097399 181.75000253 135.16097399 152.3614378 135.23996258 C140.37232359 135.28254184 128.38334998 135.32004012 116.39415264 135.32419109 C107.66143797 135.32723823 98.92896744 135.3478293 90.196347 135.38915902 C85.57588603 135.41042278 80.95577159 135.42312386 76.33526134 135.41478825 C71.97826994 135.40720595 67.62197822 135.42323904 63.26511478 135.4566946 C61.6737445 135.46487785 60.08230398 135.46473742 58.49094105 135.45523167 C44.94900002 135.38240754 34.33802499 137.99761306 24.33409405 147.6637907 C16.34813751 156.63022945 13.83569341 165.43718126 13.86030865 177.15767193 C13.85451625 178.15187257 13.84872384 179.14607322 13.84275591 180.17040116 C13.8257863 183.49301921 13.82288199 186.81549809 13.81993389 190.13815594 C13.81063363 192.52339804 13.80046482 194.90863688 13.78949261 197.29387188 C13.76502292 203.0928725 13.7495978 208.89184616 13.73817752 214.69088601 C13.72439533 221.44082169 13.69943515 228.19070212 13.67379422 234.94060148 C13.62836638 246.97713777 13.59173503 259.01368404 13.56065655 271.05026531 C13.53045457 282.74006175 13.49609675 294.42983383 13.45616436 306.11960125 C13.45247204 307.20112205 13.45247204 307.20112205 13.44870512 308.30449175 C13.4363302 311.92174279 13.42387373 315.53899354 13.41137671 319.15624416 C13.30786894 349.14700716 13.21879283 379.13779899 13.13878155 409.12863445 C9.34726572 409.21692507 5.5560199 409.26945391 1.76378155 409.31613445 C0.17243389 409.35383953 0.17243389 409.35383953 -1.4510622 409.39230633 C-12.55329294 409.4944741 -21.04556749 407.37690483 -29.42371845 399.81613445 C-35.55018051 393.06131732 -39.10623743 387.22899248 -39.11848736 377.80885124 C-39.12493625 376.55191623 -39.13138514 375.29498122 -39.13802946 373.99995726 C-39.13508745 372.61285149 -39.13195204 371.22574612 -39.12864399 369.83864117 C-39.13238166 368.35907138 -39.13698365 366.87950357 -39.14237463 365.39993888 C-39.1546056 361.33768282 -39.15434406 357.27550911 -39.15198588 353.21323884 C-39.15157774 348.83070521 -39.16261659 344.448198 -39.17210102 340.06567669 C-39.18871241 331.48083781 -39.19421063 322.89602641 -39.19532578 314.31117281 C-39.19627616 307.33293698 -39.20038599 300.35471021 -39.20672703 293.37647724 C-39.22433963 273.5913398 -39.23356584 253.80622406 -39.23206608 234.02107873 C-39.23198617 232.95450425 -39.23190626 231.88792976 -39.23182392 230.78903484 C-39.23174216 229.72115794 -39.2316604 228.65328104 -39.23157616 227.55304424 C-39.2307632 210.24534379 -39.24990328 192.93773037 -39.27810065 175.63005509 C-39.30682592 157.85811045 -39.32064115 140.08620825 -39.3189131 122.3142398 C-39.31824909 112.33683905 -39.3237464 102.35952953 -39.3452692 92.3821497 C-39.36347626 83.88743016 -39.36783222 75.39284321 -39.35425036 66.89811262 C-39.34771837 62.56481793 -39.34761176 58.23177764 -39.36495686 53.89850712 C-39.3806825 49.92896264 -39.37782938 45.95987437 -39.36038859 41.99034104 C-39.35731756 40.55698952 -39.36095505 39.12360398 -39.37210874 37.69029256 C-39.45573585 26.17814078 -37.63701493 18.40924307 -29.72059345 9.91769695 C-21.08093898 1.6047521 -11.80174877 -0.03461693 0 0 Z " fill="#427395" transform="translate(38.86121845245361,13.871365547180176)"/>
<path d="M0 0 C0.7648491 -0.00175304 1.52969821 -0.00350607 2.31772456 -0.00531223 C4.87750534 -0.00995964 7.43722901 -0.00750998 9.99701214 -0.00507832 C11.85208723 -0.00694692 13.70716193 -0.00924782 15.56223601 -0.01194364 C20.65782713 -0.01806189 25.75340185 -0.01792801 30.8489958 -0.01674926 C36.34536881 -0.01654526 41.84173655 -0.02206392 47.33810711 -0.02680683 C58.10556394 -0.03511398 68.8730153 -0.0378617 79.64047507 -0.03841921 C88.39213087 -0.03889432 97.14378487 -0.04094881 105.8954401 -0.04411983 C126.66820068 -0.05149339 147.44096016 -0.05764464 168.21372223 -0.05712128 C168.87789505 -0.0571057 169.54206787 -0.05709012 170.22636714 -0.05707407 C173.5925989 -0.05699096 176.95883067 -0.05689192 180.32506243 -0.05678936 C181.32786418 -0.05675944 181.32786418 -0.05675944 182.35092454 -0.05672892 C183.70286381 -0.05668848 185.05480308 -0.05664669 186.40674234 -0.05660353 C207.44055724 -0.05599078 228.47435602 -0.06349765 249.50816631 -0.07717609 C273.14469792 -0.09254081 296.78122147 -0.10112942 320.41775912 -0.10021287 C332.93093771 -0.09988077 345.44409811 -0.10263369 357.95727253 -0.11339092 C368.61044516 -0.12249045 379.26359137 -0.12467566 389.9167662 -0.1178815 C395.35186237 -0.1146136 400.78690781 -0.11456941 406.22199917 -0.12323475 C411.19929505 -0.1310886 416.1764999 -0.12967968 421.15379354 -0.12095062 C422.95253942 -0.11941318 424.75129206 -0.12124095 426.55002997 -0.12681069 C453.67221597 -0.20521876 453.67221597 -0.20521876 464.38878155 9.87863445 C478.02947373 24.2161007 473.13878155 39.35142371 473.13878155 60.12863445 C304.17878155 60.12863445 135.21878155 60.12863445 -38.86121845 60.12863445 C-38.86121845 19.72238445 -38.86121845 19.72238445 -29.72059345 9.91769695 C-21.08093898 1.6047521 -11.80174877 -0.03461693 0 0 Z " fill="#F94655" transform="translate(38.86121845245361,13.871365547180176)"/>
<path d="M0 0 C1.64706885 0.00141333 3.29414085 0.00061293 4.94120789 -0.00221252 C9.37658813 -0.00363698 13.8112812 0.0255938 18.24650288 0.06065726 C22.89491021 0.09208417 27.54333631 0.0948643 32.1918335 0.1007843 C40.97828596 0.11627502 49.76442437 0.15723836 58.55073905 0.20753175 C70.43503827 0.27406986 82.31942441 0.30089833 94.20386314 0.33004284 C112.90534935 0.37694411 131.6061731 0.4765879 150.30761719 0.56762695 C150.30761719 26.63762695 150.30761719 52.70762695 150.30761719 79.56762695 C109.58364017 79.68853606 109.58364017 79.68853606 92.49902344 79.71411133 C80.70943277 79.73190195 68.91990649 79.75279983 57.13037109 79.79394531 C48.54354915 79.82389898 39.95677952 79.84321412 31.36990678 79.84989244 C26.82555499 79.85379459 22.28135282 79.8629302 17.7370491 79.88481712 C13.45415426 79.90527663 9.1714698 79.91144173 4.88853073 79.90695 C3.32208867 79.90777098 1.7556391 79.91368005 0.1892395 79.92524338 C-14.35635234 80.02729544 -26.27852533 77.8405488 -37.02441406 67.2746582 C-41.91032196 61.57292153 -44.65820824 55.7619393 -46.69238281 48.56762695 C-46.88316406 47.91665039 -47.07394531 47.26567383 -47.27050781 46.5949707 C-49.2827852 36.92485994 -47.36416843 27.80631438 -42.40722656 19.3840332 C-31.64148731 4.00012169 -17.970749 -0.21808895 0 0 Z " fill="#B4C0C6" transform="translate(99.6923828125,148.432373046875)"/>
<path d="M0 0 C168.96 0 337.92 0 512 0 C512 0.33 512 0.66 512 1 C353.6 1 195.2 1 32 1 C32.0825 53.201875 32.165 105.40375 32.25 159.1875 C32.26579102 175.67098389 32.28158203 192.15446777 32.29785156 209.13745117 C32.33107099 223.91184901 32.33107099 223.91184901 32.36956787 238.68623352 C32.38657443 245.26735551 32.39276049 251.84837815 32.39154053 258.42951965 C32.39017008 266.02494138 32.40265963 273.62019178 32.43203889 281.21555908 C32.44662756 285.09843001 32.45514624 288.98103479 32.44582415 292.8639282 C32.43596135 297.03093574 32.4571057 301.19723093 32.48101807 305.36418152 C32.47325726 306.56328816 32.46549644 307.76239481 32.45750046 308.99783802 C32.57342356 320.48031163 34.66365082 330.7867515 42.89453125 339.1875 C45.76718437 341.6604333 48.58502685 343.3636587 52 345 C52 346.32 52 347.64 52 349 C48.20848417 349.08829061 44.41723835 349.14081946 40.625 349.1875 C39.03365234 349.22520508 39.03365234 349.22520508 37.41015625 349.26367188 C26.30792551 349.36583964 17.81565096 347.24827038 9.4375 339.6875 C3.51080245 333.15293603 -0.25316461 327.34184393 -0.24609566 318.20168495 C-0.2500774 317.06076267 -0.25405914 315.91984039 -0.25816154 314.74434471 C-0.25233622 313.50151033 -0.24651089 312.25867596 -0.24050903 310.97817993 C-0.24138444 309.63980019 -0.24313931 308.30142079 -0.24569702 306.96304321 C-0.25017923 303.28397314 -0.24216121 299.60501966 -0.23214546 295.92596439 C-0.22341077 291.89814493 -0.22633477 287.87033083 -0.2277813 283.8425045 C-0.22884456 276.02413876 -0.21961041 268.20581896 -0.20677864 260.38746502 C-0.19238016 251.34383608 -0.19078922 242.30023474 -0.18920898 233.2565918 C-0.17870777 209.37938725 -0.15078555 185.50219293 -0.125 161.625 C-0.08375 108.28875 -0.0425 54.9525 0 0 Z " fill="#3C6887" transform="translate(0,74)"/>
<path d="M0 0 C1.55105315 3.01706786 2.65633802 5.95403733 3.6875 9.1875 C5.9571484 15.44572169 9.10422266 21.85624112 15.15170968 25.18403757 C21.4856617 28.70679016 21.4856617 28.70679016 22.83492827 32.09927487 C23.14360722 34.66195867 23.16991574 37.09562924 23.10006714 39.67617798 C23.10972382 40.6447232 23.1193805 41.61326842 23.1293298 42.6111635 C23.15083228 45.8549972 23.10821075 49.09479661 23.06591797 52.33837891 C23.06833076 54.66459878 23.07474221 56.99081745 23.08485413 59.3170166 C23.09794954 64.32652141 23.08255587 69.33484721 23.04507065 74.34422684 C22.99078344 81.59971216 22.98639703 88.85443309 22.99664988 96.11008458 C23.01216298 107.89956558 22.98977499 119.68864621 22.94140625 131.47802734 C22.89467251 142.89859906 22.85813922 154.31908855 22.84082031 165.73974609 C22.83920972 166.79356175 22.83920972 166.79356175 22.8375666 167.8686666 C22.82623664 175.54956578 22.81912936 183.23046019 22.81700325 190.91136742 C22.8168079 191.58786331 22.81661256 192.2643592 22.81641129 192.96135496 C22.81568679 195.6670364 22.8150081 198.37271769 22.81486632 201.07839923 C22.81430554 209.62029341 22.79466576 218.16182512 22.75454402 226.70362401 C22.73383446 231.6120533 22.72507191 236.52045767 22.71891594 241.42892456 C22.71335849 243.69761447 22.70260145 245.96629882 22.68613243 248.23493576 C22.56748355 265.01106602 22.46039052 280.2985539 35.03515625 293.06640625 C40.69517169 297.82246278 47.10891891 300.46977226 54 303 C54 303.33 54 303.66 54 304 C25.07686748 305.14022538 25.07686748 305.14022538 12.625 294.8125 C4.89390463 287.34242232 0.01111323 278.72377968 -0.24609566 267.87512302 C-0.25446094 265.84812597 -0.25184337 263.82106527 -0.24050903 261.79408264 C-0.24221788 260.67329187 -0.24392673 259.55250111 -0.24568737 258.39774698 C-0.24897846 254.64669116 -0.23798462 250.8958147 -0.22705078 247.14477539 C-0.22648659 244.45411781 -0.22671535 241.76347118 -0.22793579 239.07281494 C-0.2289831 233.28232534 -0.22272259 227.49188091 -0.21146011 221.70140266 C-0.19518722 213.32941055 -0.18999528 204.95744022 -0.18748413 196.58543401 C-0.18310984 183.00152371 -0.16980794 169.41763747 -0.15087891 155.83374023 C-0.13251323 142.64038208 -0.11836009 129.44703047 -0.10986328 116.25366211 C-0.10933783 115.44005138 -0.10881239 114.62644065 -0.10827102 113.78817505 C-0.10566089 109.70641808 -0.10313349 105.62466107 -0.10064721 101.54290402 C-0.07992298 67.6952519 -0.04470468 33.8476289 0 0 Z " fill="#C9D6DD" transform="translate(52,193)"/>
<path d="M0 0 C25.41 0 50.82 0 77 0 C77 20.46 77 40.92 77 62 C51.59 62 26.18 62 0 62 C0 41.54 0 21.08 0 0 Z " fill="#FEBA57" transform="translate(348,264)"/>
<path d="M0 0 C1.16136803 -0.01043099 2.32273606 -0.02086198 3.51929706 -0.03160906 C4.79602993 -0.02268617 6.0727628 -0.01376328 7.38818455 -0.00457001 C8.75751378 -0.00917785 10.12683807 -0.01552998 11.49615198 -0.02347898 C15.26291818 -0.04021211 19.02928019 -0.03190812 22.79604805 -0.01953411 C26.85680752 -0.01050202 30.91749637 -0.02444422 34.97824192 -0.0354538 C42.93506963 -0.05326384 50.89174662 -0.04938787 58.84858029 -0.03780323 C65.31441641 -0.0287783 71.78021023 -0.02754083 78.24605083 -0.0318985 C79.62520237 -0.0328179 79.62520237 -0.0328179 81.03221555 -0.03375587 C82.89990478 -0.03503474 84.76759398 -0.03633159 86.63528318 -0.03764623 C104.15939513 -0.04905948 121.68342345 -0.035927 139.20752168 -0.01444477 C154.24960115 0.00342391 169.29155714 0.00032545 184.33363438 -0.01811981 C201.79247893 -0.03951853 219.25125012 -0.04795763 236.71010596 -0.03567076 C238.57132056 -0.03439653 240.43253518 -0.03313905 242.29374981 -0.0318985 C243.66745146 -0.03097285 243.66745146 -0.03097285 245.06890465 -0.03002849 C251.52774518 -0.02657237 257.98653925 -0.03240964 264.44537258 -0.04181671 C272.3155493 -0.05302712 280.1855664 -0.05001701 288.05572479 -0.02869374 C292.07256492 -0.01816988 296.0891388 -0.014084 300.10597706 -0.02729034 C303.78182253 -0.03919292 307.45715448 -0.0326876 311.13295323 -0.01138014 C313.09549463 -0.00478167 315.05807155 -0.01786942 317.02057594 -0.03160906 C318.18455172 -0.02117807 319.3485275 -0.01074708 320.54777527 0 C321.55224557 0.00064941 322.55671588 0.00129882 323.59162468 0.00196791 C327.11859527 0.6461548 328.81267089 1.99932191 331.3368082 4.50336456 C331.8993082 7.50336456 331.8993082 7.50336456 331.3368082 10.50336456 C329.25444623 13.17752062 328.06902385 14.36403398 324.70184845 15.00476122 C323.69038082 15.00541063 322.6789132 15.00606004 321.63679504 15.00672913 C319.88244271 15.02237561 319.88244271 15.02237561 318.09264892 15.03833818 C316.16383041 15.02495385 316.16383041 15.02495385 314.19604588 15.01129913 C312.8170417 15.01590691 311.43804244 15.02225901 310.05905348 15.03020811 C306.26562386 15.04694159 302.47259556 15.03863712 298.67916429 15.02626324 C294.58981314 15.01723147 290.50053212 15.03117307 286.4111948 15.04218292 C278.39889048 15.05999235 270.38673583 15.05611755 262.37442558 15.04453236 C255.8647127 15.03550845 249.35504185 15.03426951 242.84532452 15.03862762 C241.91976199 15.03924056 240.99419946 15.03985349 240.04058959 15.04048499 C238.16049491 15.04176386 236.28040024 15.04306071 234.40030558 15.04437536 C216.76084634 15.05578809 199.12147018 15.04265626 181.48202456 15.02117389 C166.33583987 15.00329932 151.18977779 15.00640863 136.04359531 15.02484894 C118.46684279 15.04623833 100.8901631 15.05469251 83.31339937 15.04239988 C81.44042497 15.04112565 79.56745055 15.03986816 77.69447613 15.03862762 C76.77286539 15.03801052 75.85125464 15.03739342 74.9017163 15.03675762 C68.39685165 15.03329913 61.89203308 15.03914371 55.38717556 15.04854584 C47.46424119 15.05974564 39.5414654 15.05676834 31.61854928 15.03542286 C27.57360377 15.02488555 23.52892298 15.02083592 19.48397923 15.03401947 C15.78480044 15.04589407 12.08613304 15.03946347 8.38700099 15.01810926 C6.40707494 15.01148804 4.4271137 15.02462326 2.44722408 15.03833818 C0.69678337 15.0226917 0.69678337 15.0226917 -1.08901978 15.00672913 C-2.10032505 15.00607972 -3.11163032 15.00543031 -4.1535812 15.00476122 C-6.6631918 14.50336456 -6.6631918 14.50336456 -8.4842338 12.65940428 C-10.10155957 9.70169195 -10.1476802 7.82557074 -9.6631918 4.50336456 C-6.71092198 0.69959213 -4.74683277 0.00306941 0 0 Z " fill="#427396" transform="translate(100.66319179534912,357.4966354370117)"/>
<path d="M0 0 C5.17650897 0.95078736 7.76876263 5.00694934 10.6496582 9.15942383 C11.56013151 10.52552445 12.4644155 11.89576528 13.36328125 13.26953125 C13.8445195 13.99492599 14.32575775 14.72032074 14.82157898 15.46769714 C16.34488118 17.7665516 17.86003516 20.07064481 19.375 22.375 C20.41157408 23.94241143 21.44867813 25.50947251 22.48632812 27.07617188 C25.01786758 30.90092227 27.54211739 34.73038938 30.0625 38.5625 C30.0718457 37.55348633 30.08119141 36.54447266 30.09082031 35.50488281 C30.1307477 31.75476224 30.19651281 28.00545971 30.27001953 24.25585938 C30.29821347 22.63422163 30.31943594 21.01244687 30.33349609 19.390625 C30.35494872 17.05657895 30.40160575 14.72417739 30.453125 12.390625 C30.45435364 11.66756165 30.45558228 10.94449829 30.45684814 10.19952393 C30.55602956 6.77720784 30.82974644 4.87165077 32.91308594 2.10449219 C35.0625 0.5625 35.0625 0.5625 38.0625 0.0625 C41.79184415 0.68405736 42.74989032 1.61648189 45.0625 4.5625 C45.56370544 7.37036133 45.56370544 7.37036133 45.56420898 10.64453125 C45.57358994 11.87260498 45.58297089 13.10067871 45.59263611 14.3659668 C45.58215771 15.70231829 45.57078869 17.03866306 45.55859375 18.375 C45.55874878 19.74975664 45.56023845 21.12451371 45.56300354 22.49926758 C45.56438674 25.37763845 45.55184376 28.25551055 45.52905273 31.13378906 C45.5006675 34.8193933 45.50340606 38.50416905 45.51614285 42.18983459 C45.52310496 45.02778168 45.51530483 47.86553798 45.50288582 50.70346069 C45.49837643 52.06219755 45.49803005 53.42095492 45.50195122 54.7796936 C45.50486828 56.67998638 45.48617891 58.58027509 45.46655273 60.48046875 C45.46114975 61.56094482 45.45574677 62.6414209 45.45018005 63.75463867 C45.0096793 66.94506601 44.34055095 68.30980454 42.0625 70.5625 C37.33184207 71.86750908 37.33184207 71.86750908 34.0625 70.5625 C31.98510742 68.32324219 31.98510742 68.32324219 29.85546875 65.359375 C29.47008438 64.82681091 29.08470001 64.29424683 28.68763733 63.74554443 C24.26175851 57.56711383 20.11967827 51.19714847 16 44.8125 C15.22239271 43.61433176 14.44439936 42.41641397 13.66601562 41.21875 C11.79374563 38.33618877 9.92662517 35.4503371 8.0625 32.5625 C8.04791748 33.60704346 8.03333496 34.65158691 8.01831055 35.7277832 C7.96034449 39.60264345 7.88311226 43.47692151 7.80004883 47.35131836 C7.76679137 49.02830559 7.73876192 50.70540497 7.71606445 52.38256836 C7.68253263 54.79329225 7.63022022 57.20298762 7.57421875 59.61328125 C7.56463387 60.73842888 7.56463387 60.73842888 7.55485535 61.88630676 C7.40809563 67.08001764 7.40809563 67.08001764 5.65161133 69.53222656 C3.67444153 70.81409114 2.4111634 70.99555177 0.0625 71 C-0.618125 71.01933594 -1.29875 71.03867187 -2 71.05859375 C-4.826707 70.33481998 -5.45695578 69.03941059 -6.9375 66.5625 C-7.32518005 63.75463867 -7.32518005 63.75463867 -7.34155273 60.48046875 C-7.35423691 59.25239502 -7.36692108 58.02432129 -7.37998962 56.7590332 C-7.37793825 55.42268709 -7.37495028 54.08634213 -7.37109375 52.75 C-7.37565631 51.37524152 -7.3809621 50.00048531 -7.38697815 48.62573242 C-7.39590436 45.7474642 -7.39349152 42.86947353 -7.38354492 39.99121094 C-7.37204806 36.30550149 -7.39227856 32.62074912 -7.42146206 28.93516541 C-7.43982005 26.09722832 -7.43953266 23.25952087 -7.43382454 20.42153931 C-7.43367131 19.06278133 -7.43971699 17.70400781 -7.45211601 16.3453064 C-7.46701561 14.44510156 -7.4537242 12.54473906 -7.43920898 10.64453125 C-7.43904282 9.56405518 -7.43887665 8.4835791 -7.43870544 7.37036133 C-6.63055633 2.84293516 -4.46023887 0.85408829 0 0 Z " fill="#437496" transform="translate(97.9375,259.4375)"/>
<path d="M0 0 C3.76503544 0.62750591 4.70227476 1.48203793 7 4.5 C7.54589844 7.89160156 7.54589844 7.89160156 7.609375 11.890625 C7.63417938 12.94754547 7.63417938 12.94754547 7.65948486 14.02581787 C7.70791139 16.26730102 7.72932187 18.50810613 7.75 20.75 C7.77816448 22.27347151 7.80809259 23.79691152 7.83984375 25.3203125 C7.91366593 29.04672756 7.96327469 32.7730138 8 36.5 C8.42152344 35.86191406 8.84304687 35.22382813 9.27734375 34.56640625 C9.82519531 33.74011719 10.37304688 32.91382813 10.9375 32.0625 C11.75541016 30.82693359 11.75541016 30.82693359 12.58984375 29.56640625 C14 27.5 14 27.5 15 26.5 C21.18333333 25.91666667 21.18333333 25.91666667 24.1875 28.0625 C26.42660413 31.073709 28.15733448 34.2305086 30 37.5 C30.01458252 36.48574951 30.02916504 35.47149902 30.04418945 34.42651367 C30.10216253 30.66345971 30.17939459 26.90100479 30.26245117 23.13842773 C30.29570536 21.50994591 30.32373584 19.88134869 30.34643555 18.25268555 C30.37997357 15.91144639 30.43228585 13.57126514 30.48828125 11.23046875 C30.49467117 10.50224411 30.5010611 9.77401947 30.50764465 9.02372742 C30.59245828 6.1080245 30.6621273 4.00170495 32.31713867 1.54418945 C35.23753575 -0.26787181 37.67663625 0.09186761 41 0.5 C43.81734387 2.61877825 44.87454378 3.80647828 45.50793457 7.30786133 C45.51111694 8.3883374 45.51429932 9.46881348 45.51757812 10.58203125 C45.53018677 11.81010498 45.54279541 13.03817871 45.55578613 14.3034668 C45.54862627 15.63981705 45.54042227 16.97616205 45.53125 18.3125 C45.53394577 19.68725865 45.53782889 21.06201544 45.54284668 22.43676758 C45.54873793 25.31512644 45.54019176 28.19298809 45.52148438 31.07128906 C45.49869389 34.75704016 45.51181913 38.44162622 45.53577423 42.12733459 C45.55024299 44.96529893 45.54562154 47.80298798 45.53526306 50.64096069 C45.5325987 51.99970641 45.53585541 53.35847728 45.54518127 54.7171936 C45.55536241 56.61744699 45.53708729 58.51778824 45.51757812 60.41796875 C45.51280457 62.03868286 45.51280457 62.03868286 45.50793457 63.69213867 C44.87498155 67.19110177 43.79512592 68.361565 41 70.5 C37.625 71.25 37.625 71.25 34 70.5 C31.43148859 68.21168983 29.7918491 65.41445336 28 62.5 C27.28972656 61.39269531 26.57945312 60.28539062 25.84765625 59.14453125 C20 49.92317794 20 49.92317794 20 47.5 C17.64482059 49.68642958 16.01369281 51.90351572 14.37109375 54.66015625 C13.89349609 55.45357422 13.41589844 56.24699219 12.92382812 57.06445312 C12.43333984 57.88880859 11.94285156 58.71316406 11.4375 59.5625 C10.45963446 61.20077538 9.47927639 62.83756631 8.49609375 64.47265625 C8.06482178 65.19718994 7.6335498 65.92172363 7.18920898 66.66821289 C6 68.5 6 68.5 4 70.5 C-1.68348624 71.0412844 -1.68348624 71.0412844 -4 70.5 C-7.13003066 67.27077455 -7.38199579 64.82886368 -7.40405273 60.41796875 C-7.41673691 59.18989502 -7.42942108 57.96182129 -7.44248962 56.6965332 C-7.44043825 55.36018709 -7.43745028 54.02384213 -7.43359375 52.6875 C-7.43815631 51.31274152 -7.4434621 49.93798531 -7.44947815 48.56323242 C-7.45840436 45.6849642 -7.45599152 42.80697353 -7.44604492 39.92871094 C-7.43454806 36.24300149 -7.45477856 32.55824912 -7.48396206 28.87266541 C-7.50232005 26.03472832 -7.50203266 23.19702087 -7.49632454 20.35903931 C-7.49617131 19.00028133 -7.50221699 17.64150781 -7.51461601 16.2828064 C-7.52951561 14.38260156 -7.5162242 12.48223906 -7.50170898 10.58203125 C-7.50154282 9.50155518 -7.50137665 8.4210791 -7.50120544 7.30786133 C-6.68633026 2.74275426 -4.5196446 0.7532741 0 0 Z " fill="#437496" transform="translate(211,259.5)"/>
<path d="M0 0 C0.76784507 -0.00115384 1.53569014 -0.00230769 2.32680324 -0.0034965 C4.89668093 -0.00614087 7.46649582 -0.001659 10.03637028 0.00279331 C11.89857198 0.00235717 13.76077362 0.00148146 15.62297493 0.00020415 C20.73787554 -0.00203226 25.85275521 0.00196882 30.96765316 0.00698221 C36.48428241 0.01129875 42.00091047 0.00983943 47.51754093 0.00907993 C57.07473817 0.00855546 66.63192858 0.01169425 76.18912411 0.01731777 C90.00724295 0.02544317 103.8253585 0.02804906 117.64347947 0.02930576 C140.0622104 0.03149464 162.48093799 0.03814171 184.89966679 0.04760838 C206.67798691 0.056794 228.45630605 0.06387703 250.23462772 0.06811619 C250.9060322 0.06824771 251.57743668 0.06837924 252.26918675 0.06851475 C259.01175937 0.06983328 265.75433199 0.07110909 272.49690463 0.07235361 C329.03488845 0.08279317 385.57286825 0.10043805 442.11084843 0.12304783 C442.11084843 0.45304783 442.11084843 0.78304783 442.11084843 1.12304783 C441.21959046 1.12364492 440.3283325 1.12424201 439.41006672 1.12485719 C386.59280834 1.16074717 333.77560694 1.21738006 280.95840139 1.30096878 C274.61729022 1.3109863 268.27617879 1.32083042 261.93506718 1.33056736 C260.67266023 1.33250873 259.41025329 1.33445011 258.10959159 1.33645031 C237.66595995 1.36747567 217.22233955 1.38445247 196.7786888 1.39624205 C175.80331829 1.40865081 154.82800672 1.43614605 133.85267341 1.47766089 C120.90863848 1.50280407 107.96470131 1.5161645 95.02064161 1.5144774 C86.14572844 1.51444766 77.27091487 1.52906535 68.39604051 1.55521211 C63.27486553 1.569867 58.15389484 1.57805323 53.03270245 1.56885052 C48.34181678 1.5605637 43.65134158 1.57071833 38.9605168 1.59538445 C37.26587731 1.60106822 35.57119893 1.60005238 33.87657119 1.59156027 C21.16760365 1.53334299 11.55986369 2.91071233 2.02100468 11.97851658 C-4.09300597 18.84271258 -6.07854637 27.56373873 -6.30321407 36.58789158 C-6.33882442 37.8291782 -6.37443478 39.07046482 -6.41112423 40.34936619 C-6.44512325 41.90405613 -6.47912228 43.45874607 -6.51415157 45.06054783 C-6.69977657 52.51648533 -6.69977657 52.51648533 -6.88915157 60.12304783 C-17.44915157 60.12304783 -28.00915157 60.12304783 -38.88915157 60.12304783 C-38.98151245 55.30232337 -39.06098039 50.48472711 -39.10887814 45.66381931 C-39.12886489 44.02764519 -39.156064 42.39154132 -39.19090939 40.75561619 C-39.45215633 28.16581873 -38.67565831 19.48779437 -29.74852657 9.91211033 C-21.10074651 1.59134716 -11.8124255 -0.04410587 0 0 Z " fill="#D54353" transform="translate(38.88915157318115,13.876952171325684)"/>
<path d="M0 0 C3.86415053 3.1170406 7.26688819 6.36808306 8.62890625 11.2578125 C8.81190059 14.45726193 8.40287204 16.50415749 6.375 19 C3.14680238 20.3592411 1.47580743 20.69516149 -2 20 C-3.75664155 18.32842583 -5.17220092 16.58336238 -6.60546875 14.62890625 C-8.00371518 12.71264829 -8.00371518 12.71264829 -11 12 C-12.97564353 11.85550849 -14.95679761 11.77938001 -16.9375 11.75 C-17.97777344 11.72421875 -19.01804687 11.6984375 -20.08984375 11.671875 C-23.35910025 12.04048916 -24.70572709 12.6731071 -27 15 C-27.44215665 18.03193129 -27.61174751 20.0000281 -25.984375 22.66015625 C-22.8558137 24.77255099 -19.46396293 24.40043129 -15.8125 24.4375 C-8.09163702 24.72773977 -2.72348221 25.37161655 2.98828125 30.9375 C8.38821233 36.82439881 9.38077745 40.97066615 9.265625 48.92578125 C8.78655152 54.47035221 7.2079817 58.12300607 2.94140625 61.75 C-5.41197042 67.61004164 -12.92309824 68.76211862 -23 68 C-29.58805536 66.82108483 -34.51921418 63.9651951 -39 59 C-41.47249665 55.36852054 -42.0219712 53.65913597 -41.875 49.25 C-41 46 -41 46 -38 44 C-35.125 43.5625 -35.125 43.5625 -32 44 C-29.125 46.375 -29.125 46.375 -27 49 C-27 49.66 -27 50.32 -27 51 C-21.97821694 53.06021869 -17.36092439 53.7644812 -12 53 C-8.38885789 51.59503453 -8.38885789 51.59503453 -6 49 C-5.16650049 45.95659873 -5.16650049 45.95659873 -6 43 C-7.78485577 41.01423115 -9.21964832 40.10312439 -11.88623047 39.75073242 C-14.17572789 39.65889382 -16.45873039 39.63524343 -18.75 39.625 C-27.42557941 39.36602748 -32.25777065 37.94451202 -38.3125 31.5625 C-42.4703605 25.24871183 -44.01613557 20.54509863 -43 13 C-41.10815256 6.26549905 -36.89428262 2.47806015 -31 -1 C-21.42842515 -6.28430695 -9.35463293 -5.32714211 0 0 Z " fill="#447597" transform="translate(308,263)"/>
<path d="M0 0 C1.10927856 -0.00574036 1.10927856 -0.00574036 2.2409668 -0.01159668 C3.8009579 -0.01431271 5.36099478 -0.00697292 6.92089844 0.00976562 C9.30507186 0.03118327 11.68623249 0.00995737 14.0703125 -0.015625 C15.5885483 -0.01298166 17.10678223 -0.00785656 18.625 0 C19.33551514 -0.00809692 20.04603027 -0.01619385 20.77807617 -0.02453613 C24.17551033 0.0396399 26.01650335 0.30819032 28.76171875 2.37695312 C30.3125 4.53125 30.3125 4.53125 30.8125 7.53125 C30.19286593 11.24905442 29.23752546 12.21657903 26.3125 14.53125 C23.65527344 14.98535156 23.65527344 14.98535156 20.671875 14.921875 C19.60195312 14.90898437 18.53203125 14.89609375 17.4296875 14.8828125 C16.31851563 14.84929687 15.20734375 14.81578125 14.0625 14.78125 C12.93585938 14.76320313 11.80921875 14.74515625 10.6484375 14.7265625 C7.86942821 14.67946065 5.09085631 14.60771852 2.3125 14.53125 C2.3125 19.15125 2.3125 23.77125 2.3125 28.53125 C3.91480469 28.48484375 5.51710937 28.4384375 7.16796875 28.390625 C9.27862718 28.35310218 11.38930578 28.31670257 13.5 28.28125 C15.08264648 28.23097656 15.08264648 28.23097656 16.69726562 28.1796875 C24.52348469 28.08093395 24.52348469 28.08093395 28.515625 30.359375 C30.3125 32.53125 30.3125 32.53125 30.875 35.53125 C30.183744 39.21794866 29.22367267 40.22365801 26.3125 42.53125 C23.65527344 42.98535156 23.65527344 42.98535156 20.671875 42.921875 C19.06699219 42.90253906 19.06699219 42.90253906 17.4296875 42.8828125 C16.31851563 42.84929687 15.20734375 42.81578125 14.0625 42.78125 C12.37253906 42.75417969 12.37253906 42.75417969 10.6484375 42.7265625 C7.86942821 42.67946065 5.09085631 42.60771852 2.3125 42.53125 C2.3125 47.15125 2.3125 51.77125 2.3125 56.53125 C4.71595703 56.46164062 4.71595703 56.46164062 7.16796875 56.390625 C9.27862718 56.35310218 11.38930578 56.31670257 13.5 56.28125 C15.08264648 56.23097656 15.08264648 56.23097656 16.69726562 56.1796875 C24.52607022 56.08090132 24.52607022 56.08090132 28.51171875 58.36328125 C30.3125 60.53125 30.3125 60.53125 30.9375 63.46875 C30.09629467 67.59065611 28.56889369 68.91104099 25.3125 71.53125 C21.88671875 72.16235352 21.88671875 72.16235352 18 72.16015625 C16.9629895 72.16377419 16.9629895 72.16377419 15.9050293 72.16746521 C14.44932292 72.16648956 12.99357814 72.15316289 11.53808594 72.12817383 C9.3183709 72.09384081 7.1026374 72.10752843 4.8828125 72.12695312 C3.46352484 72.12005414 2.04424738 72.11038126 0.625 72.09765625 C-0.65761719 72.08677979 -1.94023437 72.07590332 -3.26171875 72.06469727 C-7.33715865 71.43008807 -8.80735958 70.4450692 -11.6875 67.53125 C-12.31568909 64.6854248 -12.31568909 64.6854248 -12.31860352 61.35742188 C-12.33113663 60.10932739 -12.34366974 58.86123291 -12.35658264 57.57531738 C-12.34431427 56.21686764 -12.33089424 54.85842788 -12.31640625 53.5 C-12.3172352 52.10282201 -12.31969557 50.70564413 -12.32371521 49.30847168 C-12.32657149 46.38292012 -12.31189062 43.45813488 -12.28442383 40.53271484 C-12.25033957 36.78639738 -12.25635986 33.04144989 -12.2750864 29.29506683 C-12.28566517 26.41075258 -12.27671098 23.52675604 -12.26170158 20.64247131 C-12.25652562 19.26140792 -12.25699451 17.88031126 -12.26324654 16.49925232 C-12.26870814 14.56781718 -12.24545223 12.63636553 -12.22094727 10.70507812 C-12.21474869 9.60683716 -12.20855011 8.50859619 -12.2021637 7.3770752 C-10.95497607 0.48076992 -6.11650609 -0.06970279 0 0 Z " fill="#437497" transform="translate(164.6875,259.46875)"/>
<path d="M0 0 C1.77917061 -0.01258347 1.77917061 -0.01258347 3.59428406 -0.02542114 C5.54096733 -0.00856262 5.54096733 -0.00856262 7.52697754 0.00863647 C8.91022602 0.00649012 10.29347274 0.00261169 11.67671204 -0.00286865 C15.430934 -0.0125607 19.18468024 0.00273919 22.93884468 0.02303743 C26.86742738 0.0406087 30.79599539 0.03708334 34.72460938 0.03631592 C41.32206173 0.03818886 47.91933009 0.0555516 54.51672363 0.08285522 C62.14437857 0.114306 69.771832 0.1248514 77.3995471 0.12338412 C84.73691828 0.12216329 92.07422385 0.13237659 99.41157532 0.14896774 C102.53429171 0.15602863 105.65698488 0.15969356 108.77970886 0.16075516 C112.45692503 0.16276468 116.13397209 0.17497946 119.81113243 0.19508743 C121.80463809 0.2037137 123.79817843 0.20259466 125.79170227 0.20120239 C126.97781601 0.20973236 128.16392975 0.21826233 129.38598633 0.22705078 C130.41688637 0.23040247 131.44778641 0.23375416 132.50992584 0.23720741 C135.25678862 0.50059342 136.89302405 0.99466446 139.19299316 2.49447632 C140.71791314 5.54431628 140.42861864 8.13681322 140.19299316 11.49447632 C139.04032898 13.19332314 139.04032898 13.19332314 137.19299316 14.49447632 C134.58332825 14.87199974 134.58332825 14.87199974 131.38562012 14.87542725 C130.17419342 14.88388672 128.96276672 14.89234619 127.71463013 14.90106201 C126.37017688 14.89522896 125.02572496 14.88908444 123.68127441 14.88265991 C122.26699416 14.88672449 120.85271709 14.89206573 119.43844604 14.89859009 C115.59549063 14.91228319 111.75277645 14.90695693 107.90981674 14.89745283 C103.89132784 14.88986651 99.87285982 14.89689898 95.85437012 14.90161133 C89.10555303 14.90707189 82.35683438 14.89986943 75.60803223 14.8855896 C67.8014134 14.86926246 59.99502961 14.87455076 52.18841648 14.89106882 C45.49025489 14.90467516 38.79216413 14.90660753 32.09399319 14.89875281 C28.09152307 14.89407158 24.08916349 14.8934637 20.08670044 14.90336227 C16.32410281 14.91201735 12.56180871 14.90603708 8.79924393 14.8886795 C7.41693247 14.8847068 6.03459554 14.8858621 4.65229416 14.8924675 C2.76832735 14.90064129 0.88430482 14.88858291 -0.99963379 14.87542725 C-2.58249931 14.87373063 -2.58249931 14.87373063 -4.19734192 14.87199974 C-6.80700684 14.49447632 -6.80700684 14.49447632 -8.6426239 13.18551064 C-10.6289005 10.30083946 -10.22145613 7.8692777 -9.80700684 4.49447632 C-6.85429765 0.60623906 -4.79615158 -0.00506894 0 0 Z " fill="#355E7A" transform="translate(337.8070068359375,101.50552368164063)"/>
<path d="M0 0 C16.5 0 33 0 50 0 C50 13.2 50 26.4 50 40 C33.5 40 17 40 0 40 C0 26.8 0 13.6 0 0 Z " fill="#FA4655" transform="translate(98,406)"/>
<path d="M0 0 C1.43839737 -0.01485695 1.43839737 -0.01485695 2.90585327 -0.03001404 C3.95117218 -0.02551239 4.99649109 -0.02101074 6.07348633 -0.01637268 C7.7325853 -0.02666756 7.7325853 -0.02666756 9.42520142 -0.03717041 C13.08543696 -0.05548886 16.74524599 -0.05159389 20.40551758 -0.0459137 C22.94612773 -0.05047274 25.48673664 -0.05577748 28.02734375 -0.0617981 C33.35365385 -0.07073892 38.67980805 -0.06852786 44.00610352 -0.05836487 C50.16152312 -0.04687934 56.31650724 -0.06096673 62.47186947 -0.08776134 C68.39644471 -0.11258486 74.32088451 -0.11509749 80.24551392 -0.10864449 C82.76535771 -0.10849084 85.28520973 -0.11457072 87.80502319 -0.12693596 C91.3245304 -0.14177393 94.84307233 -0.1312211 98.36254883 -0.11402893 C99.93052719 -0.12853088 99.93052719 -0.12853088 101.53018188 -0.14332581 C108.55914582 -0.07124163 108.55914582 -0.07124163 111.86523438 2.23153687 C113.72765439 5.19996834 113.79137428 6.94753987 113.21801758 10.38768005 C111.86523438 12.54283142 111.86523438 12.54283142 109.21801758 14.38768005 C105.6054931 14.99949121 102.01896444 14.93358037 98.36254883 14.90525818 C97.25648285 14.91226746 96.15041687 14.91927673 95.01083374 14.92649841 C91.35047385 14.94412022 87.6908855 14.93244006 84.03051758 14.91893005 C81.48990734 14.92162374 78.94929811 14.92550513 76.40869141 14.93052673 C71.0823287 14.9364275 65.75624315 14.92822085 60.42993164 14.90916443 C54.27449539 14.88739571 48.1195891 14.89444725 41.96416569 14.91647005 C36.03957269 14.9368175 30.11514419 14.93465335 24.19052124 14.92294312 C21.67068406 14.92027145 19.15083339 14.92356095 16.63101196 14.93286133 C13.11147032 14.94300019 9.59295163 14.92756147 6.07348633 14.90525818 C4.50550797 14.91740356 4.50550797 14.91740356 2.90585327 14.92979431 C-4.10968723 14.84727501 -4.10968723 14.84727501 -7.42919922 12.57798767 C-9.42250786 9.35059758 -9.3209272 7.09292539 -8.78198242 3.38768005 C-5.94666638 0.62071491 -3.90498865 0.01140755 0 0 Z " fill="#355E7A" transform="translate(320.781982421875,139.61231994628906)"/>
<path d="M0 0 C8.91 0 17.82 0 27 0 C27 20.46 27 40.92 27 62 C18.09 62 9.18 62 0 62 C0 41.54 0 21.08 0 0 Z " fill="#E6A74E" transform="translate(348,264)"/>
<path d="M0 0 C0.9070015 -0.00990463 1.81400299 -0.01980927 2.74848938 -0.03001404 C3.73613281 -0.02551239 4.72377625 -0.02101074 5.74134827 -0.01637268 C6.78728653 -0.02323593 7.83322479 -0.03009918 8.91085815 -0.03717041 C12.37150105 -0.05548555 15.83169265 -0.05159404 19.29237366 -0.0459137 C21.69606677 -0.05047324 24.09975858 -0.05577813 26.50344849 -0.0617981 C31.54308872 -0.07073851 36.58257056 -0.06829541 41.62220764 -0.05836487 C48.08326699 -0.04687465 54.54377987 -0.06708339 61.00476742 -0.09628201 C65.96929401 -0.11462045 70.93368909 -0.11435619 75.89824104 -0.10864449 C78.28049549 -0.10849098 80.6627587 -0.11455929 83.044981 -0.12693596 C86.37510926 -0.14179894 89.70422077 -0.13120238 93.03431702 -0.11402893 C94.01993622 -0.1236969 95.00555542 -0.13336487 96.02104187 -0.14332581 C100.32538922 -0.09680069 102.80267482 0.00313364 106.56851196 2.23153687 C108.45252991 4.38768005 108.45252991 4.38768005 109.01502991 7.38768005 C108.29551541 11.22509068 107.65261091 12.13347225 104.45252991 14.38768005 C100.96253615 15.00140266 97.50017944 14.94402115 93.96424866 14.92112732 C92.36367111 14.93405067 92.36367111 14.93405067 90.73075867 14.94723511 C87.20026968 14.96995562 83.67057048 14.963145 80.14002991 14.9540863 C77.68909976 14.95931895 75.23817164 14.9655941 72.7872467 14.97286987 C67.64921089 14.98328521 62.51145184 14.97869573 57.37342834 14.96409607 C50.78211739 14.94690205 44.1916776 14.97040644 37.60046387 15.00558567 C32.53901875 15.02752226 27.47778331 15.02612724 22.41630554 15.01782036 C19.98577417 15.01699889 17.5552277 15.0238994 15.1247406 15.03859138 C11.7295489 15.0559684 8.33593856 15.0415502 4.94081116 15.01878357 C3.42893723 15.03632187 3.42893723 15.03632187 1.88652039 15.05421448 C-4.89749733 14.96143698 -4.89749733 14.96143698 -8.20298767 12.04354858 C-9.54747009 9.38768005 -9.54747009 9.38768005 -9.54747009 6.26268005 C-7.87066578 1.44186764 -4.95476616 0.01531268 0 0 Z " fill="#427396" transform="translate(323.54747009277344,438.61231994628906)"/>
<path d="M0 0 C0.91404099 -0.00990463 1.82808197 -0.01980927 2.76982117 -0.03001404 C3.77041061 -0.02551239 4.77100006 -0.02101074 5.8019104 -0.01637268 C7.38522911 -0.02666756 7.38522911 -0.02666756 9.00053406 -0.03717041 C12.49907789 -0.05551123 15.99717634 -0.05159004 19.49575806 -0.0459137 C21.92330065 -0.05047238 24.35084194 -0.05577701 26.77838135 -0.0617981 C31.8710758 -0.07074383 36.96361357 -0.06828982 42.05630493 -0.05836487 C48.58577222 -0.0468806 55.1146983 -0.06707158 61.64409447 -0.09628201 C66.65923505 -0.11462144 71.67424546 -0.11435588 76.68941116 -0.10864449 C79.09678531 -0.10849096 81.50416812 -0.11456119 83.91151047 -0.12693596 C87.27766672 -0.14179884 90.64281706 -0.13120197 94.00894165 -0.11402893 C95.50375313 -0.12853088 95.50375313 -0.12853088 97.02876282 -0.14332581 C101.35719543 -0.09704191 103.86976333 -0.00501406 107.65753174 2.23153687 C109.53482056 4.38768005 109.53482056 4.38768005 110.09732056 7.38768005 C109.37780606 11.22509068 108.73490156 12.13347225 105.53482056 14.38768005 C102.0448268 15.00140266 98.58247008 14.94402115 95.04653931 14.92112732 C93.44596176 14.93405067 93.44596176 14.93405067 91.81304932 14.94723511 C88.28256033 14.96995562 84.75286113 14.963145 81.22232056 14.9540863 C78.77139041 14.95931895 76.32046229 14.9655941 73.86953735 14.97286987 C68.73150154 14.98328521 63.59374249 14.97869573 58.45571899 14.96409607 C51.86440804 14.94690205 45.27396825 14.97040644 38.68275452 15.00558567 C33.6213094 15.02752226 28.56007396 15.02612724 23.49859619 15.01782036 C21.06806482 15.01699889 18.63751835 15.0238994 16.20703125 15.03859138 C12.81183955 15.0559684 9.41822921 15.0415502 6.02310181 15.01878357 C4.51122787 15.03632187 4.51122787 15.03632187 2.96881104 15.05421448 C-3.81423551 14.96145026 -3.81423551 14.96145026 -7.12460327 12.04354858 C-8.8494422 8.6264019 -8.64116389 6.99403234 -7.46517944 3.38768005 C-5.19318133 0.4481432 -3.65886035 0.01118962 0 0 Z " fill="#427396" transform="translate(184.46517944335938,438.61231994628906)"/>
<path d="M0 0 C0.9239003 -0.00990463 1.8478006 -0.01980927 2.79969788 -0.03001404 C3.81120911 -0.02551239 4.82272034 -0.02101074 5.86488342 -0.01637268 C6.93178909 -0.02323593 7.99869476 -0.03009918 9.09793091 -0.03717041 C12.63374544 -0.05551026 16.1691193 -0.05159053 19.70497131 -0.0459137 C22.15732977 -0.05047208 24.60968694 -0.05577662 27.06204224 -0.0617981 C32.20601078 -0.07074338 37.34982419 -0.06828992 42.49378967 -0.05836487 C49.09285537 -0.04687444 55.69138605 -0.06708128 62.29038143 -0.09628201 C67.35609349 -0.11460918 72.42167653 -0.11435845 77.48741341 -0.10864449 C79.92073377 -0.10849084 82.35406265 -0.11457066 84.78735161 -0.12693596 C88.18723696 -0.14177762 91.58612354 -0.13121811 94.98597717 -0.11402893 C96.50020767 -0.12853088 96.50020767 -0.12853088 98.04502869 -0.14332581 C104.81574629 -0.07147654 104.81574629 -0.07147654 108.14663696 2.19638062 C109.49012756 4.38768005 109.49012756 4.38768005 109.49012756 7.95018005 C108.37613659 11.77952403 107.81381448 12.42820995 104.49012756 14.38768005 C102.32522678 14.7707901 102.32522678 14.7707901 99.94265747 14.78208923 C99.03565598 14.79343903 98.12865448 14.80478882 97.19416809 14.81648254 C96.20652466 14.81355194 95.21888123 14.81062134 94.2013092 14.80760193 C93.15537094 14.81607147 92.10943268 14.82454102 91.03179932 14.83326721 C87.57117078 14.85668388 84.11098562 14.85765824 80.65028381 14.85643005 C78.24659038 14.86352866 75.84289866 14.87122721 73.43920898 14.87950134 C68.39957469 14.89295682 63.36009708 14.89451 58.32044983 14.88865662 C51.85929781 14.8827589 45.39889677 14.91335117 38.93789005 14.9537735 C33.97335757 14.97961051 29.00900688 14.98253152 24.04441643 14.97888184 C21.66215057 14.98057674 19.27987664 14.99025466 16.89767647 15.00802612 C13.567385 15.03013628 10.23862623 15.02055303 6.90834045 15.00291443 C5.42991165 15.0228093 5.42991165 15.0228093 3.9216156 15.04310608 C-0.71913501 14.98593304 -2.84213292 14.88420124 -6.66101074 12.04454041 C-8.50987244 9.38768005 -8.50987244 9.38768005 -8.50987244 6.26268005 C-6.85790115 1.51326261 -5.01896732 0.0151834 0 0 Z " fill="#437496" transform="translate(322.50987243652344,398.61231994628906)"/>
<path d="M0 0 C1.0670517 -0.00700928 2.13410339 -0.01401855 3.23348999 -0.02124023 C6.76399689 -0.03885902 10.29370356 -0.02718305 13.82421875 -0.01367188 C16.27514805 -0.01636565 18.72607631 -0.02024712 21.17700195 -0.02526855 C26.31504485 -0.0311689 31.45280971 -0.022583 36.59082031 -0.00390625 C43.1820336 0.01888311 49.77259541 0.00576297 56.36378479 -0.01819611 C61.42522097 -0.03263931 66.48650231 -0.02805477 71.54794312 -0.01768494 C73.97846554 -0.01501359 76.40900196 -0.01830168 78.83950806 -0.02760315 C82.23453091 -0.03774395 85.62849375 -0.0223008 89.0234375 0 C90.53531143 -0.01214539 90.53531143 -0.01214539 92.07772827 -0.02453613 C98.8371384 0.0578625 98.8371384 0.0578625 102.16723633 2.32727051 C103.51171875 4.51757812 103.51171875 4.51757812 103.51171875 8.08007812 C102.39772778 11.9094221 101.83540566 12.55810803 98.51171875 14.51757812 C96.34681797 14.90068817 96.34681797 14.90068817 93.96424866 14.9119873 C93.05724716 14.9233371 92.15024567 14.93468689 91.21575928 14.94638062 C90.22811584 14.94345001 89.24047241 14.94051941 88.22290039 14.9375 C87.17696213 14.94596954 86.13102386 14.95443909 85.0533905 14.96316528 C81.59276196 14.98658195 78.1325768 14.98755632 74.671875 14.98632812 C72.26818157 14.99342673 69.86448984 15.00112528 67.46080017 15.00939941 C62.42116588 15.02285489 57.38168826 15.02440807 52.34204102 15.01855469 C45.880889 15.01265697 39.42048796 15.04324924 32.95948124 15.08367157 C27.99494876 15.10950858 23.03059806 15.11242959 18.06600761 15.10877991 C15.68374176 15.11047481 13.30146783 15.12015273 10.91926765 15.13792419 C7.58897618 15.16003435 4.26021742 15.1504511 0.92993164 15.1328125 C-0.54849716 15.15270737 -0.54849716 15.15270737 -2.05679321 15.17300415 C-6.7116529 15.11565729 -8.8066636 15.03782774 -12.60426331 12.13928223 C-14.48828125 9.51757812 -14.48828125 9.51757812 -15.05078125 6.95507812 C-13.23992722 -0.89195601 -6.61463965 -0.0531376 0 0 Z " fill="#437496" transform="translate(190.48828125,398.482421875)"/>
<path d="M0 0 C0.8996347 -0.00686325 1.79926941 -0.0137265 2.72616577 -0.02079773 C5.69984726 -0.03909818 8.67300279 -0.03522353 11.64672852 -0.02954102 C13.71411817 -0.03410132 15.78150629 -0.03940644 17.84889221 -0.04542542 C22.18236447 -0.05436295 26.51565251 -0.05192611 30.84912109 -0.04199219 C36.40220179 -0.03050291 41.95464656 -0.05071034 47.5076437 -0.07990932 C51.77732889 -0.09825655 56.04686129 -0.09798177 60.316576 -0.0922718 C62.36390131 -0.0921184 64.41123685 -0.09817826 66.4585247 -0.11056328 C69.32171374 -0.12544302 72.18372286 -0.11481821 75.046875 -0.09765625 C75.89223312 -0.10732422 76.73759125 -0.11699219 77.60856628 -0.12695312 C81.57530645 -0.07717133 83.63810326 0.13448043 87.114151 2.21665955 C89.08813477 4.40405273 89.08813477 4.40405273 89.71313477 7.90405273 C89.08813477 11.40405273 89.08813477 11.40405273 87.11315918 13.58946228 C82.99925818 16.05722599 79.77537523 15.97394765 75.06274414 15.9375 C74.16296341 15.94611557 73.26318268 15.95473114 72.33613586 15.96360779 C69.36775792 15.98627404 66.40032346 15.97952807 63.43188477 15.97045898 C61.36592325 15.975694 59.29996414 15.98197004 57.23400879 15.98924255 C52.90646102 15.99964779 48.57924205 15.99508299 44.25170898 15.98046875 C38.70636019 15.96327466 33.16204692 15.98678368 27.61681366 16.02195835 C23.35139095 16.04391867 19.08621658 16.04249425 14.820755 16.03419304 C12.7762183 16.03337289 10.73166348 16.04024833 8.68717957 16.05496407 C5.82864704 16.07238598 2.97198275 16.05788749 0.11352539 16.03515625 C-1.15215523 16.05269455 -1.15215523 16.05269455 -2.44340515 16.07058716 C-6.73155196 16.00121289 -8.44026533 15.76048747 -11.9720459 13.09117126 C-13.91186523 10.40405273 -13.91186523 10.40405273 -13.97436523 6.77905273 C-11.71227035 -0.40642513 -6.73540691 -0.03578129 0 0 Z " fill="#355E7B" transform="translate(388.911865234375,176.595947265625)"/>
<path d="M0 0 C0.71431686 -0.00686325 1.42863373 -0.0137265 2.16459656 -0.02079773 C4.52147403 -0.03907104 6.87768615 -0.03522762 9.23461914 -0.02954102 C10.87602454 -0.03410272 12.51742803 -0.03940826 14.15882874 -0.04542542 C17.59782676 -0.05435763 21.03659258 -0.05193239 24.47558594 -0.04199219 C28.87858033 -0.03050461 33.28077247 -0.05070957 37.68366146 -0.07990932 C41.07321753 -0.09827287 44.46258142 -0.09797856 47.85217476 -0.0922718 C49.47525724 -0.09211859 51.09835275 -0.09816272 52.72138786 -0.11056328 C54.99315286 -0.12547446 57.26343698 -0.11479714 59.53515625 -0.09765625 C60.82659042 -0.09749008 62.1180246 -0.09732391 63.44859314 -0.09715271 C67.41559527 0.49045656 69.08751769 1.516311 71.83227539 4.40405273 C72.39477539 7.90405273 72.39477539 7.90405273 71.83227539 11.40405273 C70.25083923 13.58946228 70.25083923 13.58946228 67.83227539 15.40405273 C64.53761292 15.91871643 64.53761292 15.91871643 60.57275391 15.9375 C59.84868347 15.94611557 59.12461304 15.95473114 58.37860107 15.96360779 C55.98909585 15.98627931 53.60076241 15.97952709 51.21118164 15.97045898 C49.54735465 15.9756944 47.88353064 15.98197058 46.2197113 15.98924255 C42.73357167 15.99964913 39.24784014 15.99508233 35.76171875 15.98046875 C31.2980155 15.96328737 26.83560024 15.98676566 22.37204075 16.02195835 C18.93612669 16.04393909 15.50052045 16.04248922 12.06455803 16.03419304 C10.41914394 16.03337374 8.7737072 16.04023313 7.12835884 16.05496407 C4.82516931 16.07242229 2.52428881 16.05786064 0.22119141 16.03515625 C-1.08800766 16.03419449 -2.39720673 16.03323273 -3.74607849 16.03224182 C-8.04248713 15.24345276 -9.551765 13.84629209 -12.16772461 10.40405273 C-12.23168278 6.69447887 -12.17670194 4.45496258 -9.54930115 1.71836853 C-6.26874024 -0.09206794 -3.73977322 0.01565577 0 0 Z " fill="#355E7B" transform="translate(291.167724609375,176.595947265625)"/>
<path d="M0 0 C0.67544861 -0.00700928 1.35089722 -0.01401855 2.04681396 -0.02124023 C4.26861279 -0.03877494 6.48912684 -0.02721516 8.7109375 -0.01367188 C10.26123294 -0.01636813 11.81152674 -0.02025166 13.36181641 -0.02526855 C16.60660954 -0.03115741 19.8509614 -0.02262092 23.09570312 -0.00390625 C27.24873988 0.01888356 31.40074261 0.00575711 35.55374146 -0.01819611 C38.75374094 -0.03267102 41.95349647 -0.02804047 45.15350342 -0.01768494 C46.68446984 -0.0150223 48.21545863 -0.01827114 49.74639893 -0.02760315 C51.88881844 -0.03779746 54.02957866 -0.02223108 56.171875 0 C57.3892334 0.00318237 58.6065918 0.00636475 59.86083984 0.00964355 C63.72016598 0.61746551 65.39262375 1.72267995 68.0859375 4.51757812 C68.7109375 8.01757812 68.7109375 8.01757812 68.0859375 11.51757812 C65.37736238 14.33731899 63.70508682 15.42139847 59.81614685 16.0255127 C58.57800735 16.02869507 57.33986786 16.03187744 56.06420898 16.03515625 C55.37740051 16.04216553 54.69059204 16.0491748 53.98297119 16.05639648 C51.7239073 16.07393147 49.46610676 16.0623725 47.20703125 16.04882812 C45.63191997 16.05152406 44.05681031 16.05540733 42.48170471 16.0604248 C39.1856395 16.06631344 35.89000874 16.05777669 32.59399414 16.0390625 C28.37136295 16.01625398 24.14974767 16.02941119 19.92715359 16.05335236 C16.67658339 16.06781184 13.42625382 16.06320411 10.17567635 16.05284119 C8.61876365 16.05017526 7.06182902 16.05343899 5.50494194 16.0627594 C3.3287969 16.07293029 1.15429428 16.05742063 -1.02172852 16.03515625 C-2.25907242 16.03197388 -3.49641632 16.0287915 -4.77125549 16.0255127 C-8.50741766 15.42168118 -9.69663369 14.53941406 -11.9140625 11.51757812 C-12.4765625 8.01757812 -12.4765625 8.01757812 -11.9140625 4.51757812 C-8.1212977 0.57445006 -5.37449852 0.01404981 0 0 Z " fill="#E0E7EE" transform="translate(395.9140625,36.482421875)"/>
<path d="M0 0 C6.6 0 13.2 0 20 0 C20 13.2 20 26.4 20 40 C13.4 40 6.8 40 0 40 C0 26.8 0 13.6 0 0 Z " fill="#E13F4D" transform="translate(98,406)"/>
<path d="M0 0 C1.27939453 -0.01933594 2.55878906 -0.03867188 3.87695312 -0.05859375 C5.71870117 -0.04892578 5.71870117 -0.04892578 7.59765625 -0.0390625 C8.71793213 -0.03342285 9.83820801 -0.0277832 10.99243164 -0.02197266 C13.9375 0.625 13.9375 0.625 16.33764648 2.93603516 C17.9375 5.625 17.9375 5.625 17.875 9.3125 C16.9375 12.625 16.9375 12.625 13.9375 14.625 C9.79252538 15.01025252 5.64734187 14.95421451 1.48583984 14.94067383 C-0.55555454 14.93751076 -2.59550319 14.96099127 -4.63671875 14.98632812 C-6.56451172 14.98729492 -6.56451172 14.98729492 -8.53125 14.98828125 C-9.71138672 14.99126221 -10.89152344 14.99424316 -12.10742188 14.99731445 C-15.0625 14.625 -15.0625 14.625 -16.90820312 13.28198242 C-18.72895639 10.66830805 -19.0625 8.8013239 -19.0625 5.625 C-14.74504798 -1.44937922 -7.51698845 -0.11395132 0 0 Z " fill="#355E7A" transform="translate(300.0625,101.375)"/>
<path d="M0 0 C1.28068359 -0.00386719 2.56136719 -0.00773438 3.88085938 -0.01171875 C4.88064819 -0.00229248 4.88064819 -0.00229248 5.90063477 0.00732422 C7.93118819 0.02335682 9.95974347 0.0074856 11.99023438 -0.01171875 C13.91319336 -0.00591797 13.91319336 -0.00591797 15.875 0 C17.63734985 0.00507568 17.63734985 0.00507568 19.43530273 0.01025391 C22.77532565 0.43277252 24.18975338 0.97981057 26.50390625 3.3984375 C27.06438586 7.25173484 27.23878531 9.41204256 24.87109375 12.59008789 C21.79364844 14.94101997 19.97524684 14.90085747 16.12890625 14.89453125 C14.28039062 14.89549805 14.28039062 14.89549805 12.39453125 14.89648438 C11.110625 14.87650391 9.82671875 14.85652344 8.50390625 14.8359375 C7.22 14.84302734 5.93609375 14.85011719 4.61328125 14.85742188 C-6.02750214 14.78507345 -6.02750214 14.78507345 -9.49609375 11.3984375 C-9.9921875 9.4609375 -9.9921875 9.4609375 -9.93359375 7.3984375 C-9.93230469 6.7178125 -9.93101562 6.0371875 -9.9296875 5.3359375 C-8.72663962 -0.039844 -4.84425105 0.01396517 0 0 Z " fill="#355E7A" transform="translate(451.49609375,139.6015625)"/>
<path d="M0 0 C2.875 2.0625 2.875 2.0625 5 5 C5.06625411 8.8427383 4.81899419 10.99200716 2.375 14 C-1.11581787 15.46981805 -3.39148956 14.98413921 -7 14 C-9 12.375 -9 12.375 -10 10 C-9.93351603 6.21041394 -9.83225402 3.92142409 -7.25 1.0625 C-4.45370167 -0.25797421 -3.05488134 -0.59607441 0 0 Z " fill="#E0E3EA" transform="translate(89,37)"/>
<path d="M0 0 C3.4375 0.9375 3.4375 0.9375 5.375 2.0625 C7.13047303 5.16039358 6.92473574 7.46594534 6.4375 10.9375 C4.01890437 13.63250656 2.42986035 14.74386871 -1.125 15.4375 C-4.4874123 14.7477744 -5.6111167 13.75616476 -7.5625 10.9375 C-8.12895882 6.97228823 -8.13840314 4.85894502 -6 1.4375 C-3.5625 -0.0625 -3.5625 -0.0625 0 0 Z " fill="#E0E6ED" transform="translate(118.5625,37.0625)"/>
<path d="M0 0 C4.36689189 1.42398649 4.36689189 1.42398649 5.875 3.9375 C6.37530235 7.86844707 6.4746142 10.0380787 4.25 13.375 C1.15814769 15.40911336 -0.48867425 15.54355429 -4.125 14.9375 C-6.5 13.375 -6.5 13.375 -8.125 10.9375 C-8.6875 7.4375 -8.6875 7.4375 -8.125 3.9375 C-5.45043116 0.79094842 -4.15592269 -0.08311845 0 0 Z " fill="#E0E7EE" transform="translate(56.125,37.0625)"/>
<path d="M0 0 C2 1.0625 2 1.0625 3 3 C3.49891602 6.92005446 3.55253414 9.11594538 1.4375 12.5 C-1 14 -1 14 -4.5625 14 C-8 13 -8 13 -9.9375 11.3125 C-11.3174949 8.30898169 -11.41747718 6.27023793 -11 3 C-8.76734719 -1.18622402 -4.17412169 -0.61742217 0 0 Z " fill="#DFE9F0" transform="translate(153,38)"/>
</svg>
