<?xml version="1.0" encoding="UTF-8"?>
<svg version="1.1" xmlns="http://www.w3.org/2000/svg" width="512" height="512">
<path d="M0 0 C11.28607381 8.34266576 18.29316576 19.07894741 21.44140625 32.8046875 C23.08414933 48.81774926 20.35566035 62.82897661 10.44140625 75.8046875 C3.41380776 84.22027322 -5.23232996 89.36259957 -15.55859375 92.8046875 C-11.95277682 93.84563855 -8.3492247 94.85963889 -4.71875 95.8125 C14.82121739 101.05104618 30.99399374 110.49454257 45.44140625 124.8046875 C45.77140625 125.4646875 46.10140625 126.1246875 46.44140625 126.8046875 C49.84571741 125.35540204 51.78444613 123.53229632 54.25390625 120.8046875 C67.62862989 107.18917505 85.21782482 99.47116284 103.44140625 94.8046875 C105.77870146 94.15110619 108.10991386 93.47881851 110.44140625 92.8046875 C109.66796875 92.51335937 108.89453125 92.22203125 108.09765625 91.921875 C101.41206716 89.29066543 95.84264785 86.54917436 90.44140625 81.8046875 C89.77496094 81.25425781 89.10851562 80.70382813 88.421875 80.13671875 C80.4028991 72.94570595 74.2737673 61.35556064 73.22412109 50.57250977 C72.36378424 33.13741173 75.82462283 19.27930209 87.44140625 5.8046875 C101.01645248 -5.98416844 114.64379299 -9.01861484 132.01855469 -8.37451172 C143.54720283 -7.52182855 155.9690167 -0.49685198 163.50390625 8.1796875 C174.01799958 22.42458814 176.72292503 35.47799492 175.44140625 52.8046875 C173.03215752 65.60812358 165.55805177 76.7490896 155.44140625 84.8046875 C150.11428018 88.11158427 144.38684682 90.82287398 138.44140625 92.8046875 C142.04722318 93.84563855 145.6507753 94.85963889 149.28125 95.8125 C169.05626765 101.11406172 186.16786205 110.86799191 200.44140625 125.8046875 C200.44140625 126.4646875 200.44140625 127.1246875 200.44140625 127.8046875 C201.5876896 126.80520338 202.73339478 125.80505619 203.87890625 124.8046875 C204.61625 124.16402344 205.35359375 123.52335938 206.11328125 122.86328125 C207.60327983 121.54578251 209.07429632 120.20629708 210.51953125 118.83984375 C224.48361027 105.78084393 241.67814 98.35564259 260.1875 94.53125 C263.27852368 94.14624257 263.27852368 94.14624257 264.44140625 92.8046875 C263.29865234 92.38509766 263.29865234 92.38509766 262.1328125 91.95703125 C248.9781513 86.84954107 237.6621516 78.21855302 231.50390625 65.1796875 C225.89916938 52.12205681 225.35620273 37.07216044 230.19140625 23.69140625 C236.57829464 8.94168589 246.7146101 -0.23002798 261.44140625 -6.1953125 C267.14141435 -8.20510309 272.27978596 -8.54717882 278.25390625 -8.5078125 C279.14392334 -8.50217285 280.03394043 -8.4965332 280.95092773 -8.49072266 C294.08490167 -8.24743401 305.84247525 -3.34510943 315.53125 5.70703125 C326.39154643 17.63336905 330.87478504 31.16198209 330.328125 47.109375 C329.09956424 60.16468331 322.92346409 73.26822939 312.96875 81.96484375 C306.47249498 86.73660272 300.01528873 90.05535494 292.44140625 92.8046875 C296.04722318 93.84563855 299.6507753 94.85963889 303.28125 95.8125 C331.20456155 103.30105534 352.91555874 120.00738661 368.12890625 144.5546875 C376.48036416 159.39741781 380.6241953 175.26612226 380.87890625 192.2421875 C380.90130371 193.17820801 380.92370117 194.11422852 380.94677734 195.07861328 C380.92187689 202.3849312 379.38961181 206.77458735 374.19140625 212.1171875 C366.21585747 217.01127425 356.77809868 216.11139953 347.75390625 216.12353516 C346.16653437 216.13284385 344.57916735 216.14301392 342.99180603 216.15397644 C338.70110455 216.18118442 334.41043574 216.19639845 330.11967087 216.20940447 C325.62865215 216.22507542 321.13769974 216.25185295 316.64672852 216.2774353 C308.1507294 216.32415305 299.65471772 216.36093099 291.15865612 216.39410818 C281.48267651 216.43237914 271.80676361 216.48177623 262.1308403 216.53209233 C242.2344116 216.63530797 222.33794062 216.724602 202.44140625 216.8046875 C203.13115036 217.69137115 203.82089447 218.57805481 204.53153992 219.49160767 C205.44390838 220.66961167 206.35615904 221.84770691 207.26831055 223.02587891 C207.72205803 223.60854019 208.17580551 224.19120148 208.64330292 224.79151917 C211.93973861 229.05621423 214.81636164 233.36250581 217.25390625 238.1796875 C217.62008057 238.88883301 217.98625488 239.59797852 218.36352539 240.32861328 C231.10359638 265.71838012 232.39005099 294.65673196 224.03027344 321.5871582 C215.64444222 346.76197796 196.96669901 368.54244173 173.46386719 380.83935547 C148.32788196 393.3213921 118.28797829 396.17938274 91.484375 387.55078125 C77.96826129 382.9584586 66.31667567 376.08005695 55.44140625 366.8046875 C54.43078125 366.0415625 53.42015625 365.2784375 52.37890625 364.4921875 C32.50593139 346.31052965 21.08658696 319.70978314 19.52734375 293.07080078 C18.5183461 266.46422065 26.70226588 242.05605732 43.078125 221.10717773 C44.0230481 219.89698219 44.0230481 219.89698219 44.98706055 218.66233826 C45.46699463 218.04931351 45.94692871 217.43628876 46.44140625 216.8046875 C45.61995149 216.80229915 44.79849672 216.79991079 43.95214939 216.79745007 C23.94546125 216.73826139 3.93889319 216.6626865 -16.06766415 216.56897259 C-25.74277086 216.52404617 -35.41784103 216.48462422 -45.09301758 216.45825195 C-53.52791156 216.43524634 -61.96268956 216.40181966 -70.39749151 216.35598594 C-74.86183828 216.33208829 -79.32607043 216.31333687 -83.79047966 216.30707359 C-87.99711779 216.30100707 -92.20346279 216.28095085 -96.40999222 216.25041199 C-97.94940845 216.24165682 -99.48886304 216.23790393 -101.02830315 216.23967934 C-110.26903885 216.24696817 -118.43168902 216.03686657 -126.43359375 210.9921875 C-131.69592451 205.5750823 -132.0783748 200.16631171 -131.99609375 192.9921875 C-131.98852051 192.06583496 -131.98094727 191.13948242 -131.97314453 190.18505859 C-131.36504578 164.3208877 -119.49406147 140.93271392 -101.55859375 122.8046875 C-100.965625 122.15113281 -100.37265625 121.49757812 -99.76171875 120.82421875 C-86.94669553 106.96242384 -68.49968753 99.30109065 -50.55859375 94.8046875 C-48.2206162 94.15323503 -45.88985042 93.47998855 -43.55859375 92.8046875 C-44.33203125 92.51335937 -45.10546875 92.22203125 -45.90234375 91.921875 C-59.98079111 86.38109992 -70.37230728 77.39164864 -77.30859375 63.8046875 C-82.55946813 51.51866103 -82.77566908 37.49467344 -78.5859375 24.875 C-72.72216634 10.8417036 -63.21032485 1.36316632 -49.703125 -5.40625 C-33.22723201 -11.46841828 -14.69301037 -9.48088309 0 0 Z " fill="#5F98D6" transform="translate(131.55859375,64.1953125)"/>
<path d="M0 0 C11.28607381 8.34266576 18.29316576 19.07894741 21.44140625 32.8046875 C23.08414933 48.81774926 20.35566035 62.82897661 10.44140625 75.8046875 C3.41380776 84.22027322 -5.23232996 89.36259957 -15.55859375 92.8046875 C-11.95277682 93.84563855 -8.3492247 94.85963889 -4.71875 95.8125 C10.85516267 99.98777108 23.99125737 106.49863083 36.44140625 116.8046875 C37.76205078 117.87976563 37.76205078 117.87976563 39.109375 118.9765625 C46.62619859 125.3341939 46.62619859 125.3341939 47.44140625 129.8046875 C46.0802537 132.15407409 44.77509586 133.98478484 43.06640625 136.0546875 C34.45809538 147.27016417 28.87519084 160.10569425 25.44140625 173.8046875 C25.10496094 175.11566406 25.10496094 175.11566406 24.76171875 176.453125 C22.81551746 185.33100211 20.838807 198.42257238 25.50390625 206.6171875 C28.26896978 210.12850397 31.43148775 211.90908966 35.44140625 213.8046875 C36.77614902 214.46852782 38.10982575 215.13452663 39.44140625 215.8046875 C19.5177604 215.8748402 -0.4058603 215.92770634 -20.32960415 215.96012402 C-29.5810249 215.97557773 -38.83236881 215.9966386 -48.08374023 216.03100586 C-56.14940143 216.06095406 -64.21500695 216.08027337 -72.2807222 216.08695298 C-76.54950197 216.09085607 -80.8181225 216.09999757 -85.08685112 216.12187767 C-89.10956049 216.14232857 -93.1320459 216.14850402 -97.15480232 216.14401054 C-98.6265243 216.14483191 -100.09825421 216.15074621 -101.56993103 216.16230392 C-110.74179614 216.23076588 -118.54020525 215.96845416 -126.43359375 210.9921875 C-131.69592451 205.5750823 -132.0783748 200.16631171 -131.99609375 192.9921875 C-131.98852051 192.06583496 -131.98094727 191.13948242 -131.97314453 190.18505859 C-131.36504578 164.3208877 -119.49406147 140.93271392 -101.55859375 122.8046875 C-100.965625 122.15113281 -100.37265625 121.49757812 -99.76171875 120.82421875 C-86.94669553 106.96242384 -68.49968753 99.30109065 -50.55859375 94.8046875 C-48.2206162 94.15323503 -45.88985042 93.47998855 -43.55859375 92.8046875 C-44.33203125 92.51335937 -45.10546875 92.22203125 -45.90234375 91.921875 C-59.98079111 86.38109992 -70.37230728 77.39164864 -77.30859375 63.8046875 C-82.55946813 51.51866103 -82.77566908 37.49467344 -78.5859375 24.875 C-72.72216634 10.8417036 -63.21032485 1.36316632 -49.703125 -5.40625 C-33.22723201 -11.46841828 -14.69301037 -9.48088309 0 0 Z " fill="#FD63A3" transform="translate(131.55859375,64.1953125)"/>
<path d="M0 0 C0.89001709 0.00563965 1.78003418 0.0112793 2.69702148 0.01708984 C15.83099542 0.26037849 27.588569 5.16270307 37.27734375 14.21484375 C48.13764018 26.14118155 52.62087879 39.66979459 52.07421875 55.6171875 C50.84565799 68.67249581 44.66955784 81.77604189 34.71484375 90.47265625 C28.21858873 95.24441522 21.76138248 98.56316744 14.1875 101.3125 C17.79331693 102.35345105 21.39686905 103.36745139 25.02734375 104.3203125 C52.9506553 111.80886784 74.66165249 128.51519911 89.875 153.0625 C98.22645791 167.90523031 102.37028905 183.77393476 102.625 200.75 C102.65859619 202.15403076 102.65859619 202.15403076 102.69287109 203.58642578 C102.66797064 210.8927437 101.13570556 215.28239985 95.9375 220.625 C88.09415408 225.43796227 79.02188465 224.58591808 70.14257812 224.53955078 C68.6241761 224.53898594 67.10577353 224.53930465 65.58737183 224.54043579 C61.48462222 224.54100745 57.38199057 224.52928344 53.27926826 224.51528788 C48.98448415 224.50274935 44.68969706 224.50160756 40.39489746 224.49923706 C32.27071503 224.49303145 24.14658669 224.4766331 16.02242804 224.45653808 C6.76970549 224.43415044 -2.48301969 224.42317845 -11.7357626 224.41314721 C-30.76137235 224.39226603 -49.78693182 224.35710798 -68.8125 224.3125 C-66.34636932 223.07134014 -63.87164945 221.86773429 -61.375 220.6875 C-57.08507555 218.19167935 -54.87112827 214.76969563 -52.8125 210.3125 C-52.141036 207.37899247 -52.09534525 204.62497202 -52.1875 201.625 C-52.20369385 200.80902344 -52.2198877 199.99304688 -52.23657227 199.15234375 C-53.05791926 178.70992979 -60.45002198 158.46769961 -73.18359375 142.44140625 C-74.69783892 140.46235681 -75.78669694 138.57545249 -76.8125 136.3125 C-61.07565258 119.41947603 -43.24213939 108.93382402 -20.8125 103.3125 C-18.47452245 102.66104753 -16.14375667 101.98780105 -13.8125 101.3125 C-14.95525391 100.89291016 -14.95525391 100.89291016 -16.12109375 100.46484375 C-29.27575495 95.35735357 -40.59175465 86.72636552 -46.75 73.6875 C-52.35473687 60.62986931 -52.89770352 45.57997294 -48.0625 32.19921875 C-41.67561161 17.44949839 -31.53929615 8.27778452 -16.8125 2.3125 C-11.1124919 0.30270941 -5.97412029 -0.03936632 0 0 Z " fill="#EEEBEB" transform="translate(409.8125,55.6875)"/>
<path d="M0 0 C1.87910173 0.75661723 3.77466574 1.47197331 5.67089844 2.18457031 C15.97586625 6.73017967 19.10305272 13.82840634 22.99121094 23.80175781 C23.48234375 24.98640625 23.97347656 26.17105469 24.47949219 27.39160156 C34.40660486 52.95611297 33.53630271 81.12660249 22.74121094 106.30175781 C11.33413464 131.14383508 -8.79148722 151.14072803 -34.21582031 161.45410156 C-60.96649734 171.3073512 -87.45766705 171.26399179 -114.00878906 160.80175781 C-115.16459473 160.34784668 -115.16459473 160.34784668 -116.34375 159.88476562 C-126.44709882 155.73509977 -133.12251032 151.34109232 -137.43457031 141.08300781 C-137.97166312 139.66052766 -138.4958976 138.23314205 -139.00878906 136.80175781 C-139.29286621 136.02832031 -139.57694336 135.25488281 -139.86962891 134.45800781 C-149.41292796 107.70890681 -149.7114439 78.62368503 -137.85791016 52.50415039 C-133.08519888 42.4950284 -127.07372954 33.34592021 -120.00878906 24.80175781 C-123.47378906 24.30675781 -123.47378906 24.30675781 -127.00878906 23.80175781 C-127.00878906 23.47175781 -127.00878906 23.14175781 -127.00878906 22.80175781 C-126.31914062 22.82238281 -125.62949219 22.84300781 -124.91894531 22.86425781 C-117.75431989 22.70700952 -114.5802632 21.16067445 -109.55957031 16.18457031 C-80.32336332 -11.12643468 -35.86189903 -14.44319739 0 0 Z " fill="#918D8D" transform="translate(298.0087890625,256.1982421875)"/>
<path d="M0 0 C20.06380255 9.80897014 34.92830812 31.391951 42.30297852 51.97924805 C51.238359 78.67537326 49.72586111 108.78356689 37.1796875 134.12036133 C24.11738792 158.86609078 2.65562668 178.08038444 -24.06738281 186.6640625 C-51.84744677 194.96524473 -81.96198911 192.96189722 -107.59350586 179.12890625 C-114.27251193 175.36515773 -120.18038828 170.96346772 -126 166 C-127.5159375 164.8553125 -127.5159375 164.8553125 -129.0625 163.6875 C-133.56590195 159.5673663 -137.24491477 154.79935655 -141 150 C-141.87591797 148.90365234 -141.87591797 148.90365234 -142.76953125 147.78515625 C-144 146 -144 146 -144 144 C-140.54081886 145.32339884 -137.21728086 146.84097366 -133.88818359 148.4621582 C-107.09552956 161.41505883 -79.74473663 161.99060453 -51.77661133 152.6081543 C-39.07460003 148.05994886 -27.95916473 141.08555379 -18 132 C-17.22269531 131.30390625 -16.44539063 130.6078125 -15.64453125 129.890625 C-1.886545 116.91407343 7.36561649 99.20170915 12 81 C12.29777344 79.96230469 12.59554687 78.92460937 12.90234375 77.85546875 C19.33203068 52.87746839 13.92726379 26.14942361 1.13671875 4.14453125 C0 2 0 2 0 0 Z " fill="#7A7A7A" transform="translate(313,265)"/>
<path d="M0 0 C0.89001709 0.00563965 1.78003418 0.0112793 2.69702148 0.01708984 C15.83099542 0.26037849 27.588569 5.16270307 37.27734375 14.21484375 C48.13764018 26.14118155 52.62087879 39.66979459 52.07421875 55.6171875 C50.84565799 68.67249581 44.66955784 81.77604189 34.71484375 90.47265625 C20.49931414 100.91453094 7.44965196 103.58924522 -9.8125 102.3125 C-23.2507198 99.78380273 -34.45705308 91.80530212 -42.56640625 80.96875 C-50.88556582 68.12513522 -52.92205378 53.50024591 -50.1171875 38.625 C-46.51823544 25.8018431 -39.1019525 13.93224551 -27.30078125 7.19921875 C-18.26217875 2.4249887 -10.19781515 -0.06719825 0 0 Z " fill="#FED1A3" transform="translate(409.8125,55.6875)"/>
<path d="M0 0 C11.28607381 8.34266576 18.29316576 19.07894741 21.44140625 32.8046875 C23.08414933 48.81774926 20.35566035 62.82897661 10.44140625 75.8046875 C2.37980351 85.45849868 -9.14888175 92.77213625 -21.85253906 94.03222656 C-38.76091047 95.08445007 -50.90899384 91.32205214 -64.74609375 81.5546875 C-75.80955733 70.73707867 -81.23075216 57.1238308 -81.55859375 41.8046875 C-80.97916884 27.89848975 -75.82186742 16.16699364 -66.55859375 5.8046875 C-47.56465454 -10.69733549 -21.57017363 -13.9184748 0 0 Z " fill="#FED1A3" transform="translate(131.55859375,64.1953125)"/>
<path d="M0 0 C11.13544481 7.71954579 18.37092691 19.29864356 21.25390625 32.5625 C22.68284094 49.51262187 20.08881888 63.72261642 9.13671875 77.16015625 C0.5580203 86.48421702 -11.5258477 93.26649163 -24.3828125 93.8984375 C-41.20552806 94.19972998 -54.28511607 90.69986257 -66.93359375 79.0625 C-78.12259304 67.41536845 -81.37160514 53.22098831 -81.05859375 37.52734375 C-80.50622402 25.31767125 -74.6195505 14.6951309 -66.74609375 5.5625 C-47.32031769 -11.3072529 -21.79993256 -13.57423888 0 0 Z " fill="#FED1A3" transform="translate(285.74609375,64.4375)"/>
<path d="M0 0 C4.60776793 1.80303963 7.08972958 5.11963944 10 9 C11.21077701 12.63233102 11.12444164 15.95121987 11.09765625 19.73046875 C11.0962413 20.48088943 11.09482635 21.23131012 11.09336853 22.00447083 C11.0877756 24.3988546 11.07522444 26.79314453 11.0625 29.1875 C11.05748408 30.81184761 11.05292134 32.43619668 11.04882812 34.06054688 C11.03780848 38.04040069 11.02054873 42.02018444 11 46 C12.54324951 45.9685791 12.54324951 45.9685791 14.11767578 45.93652344 C17.95298213 45.86385006 21.78822822 45.81810179 25.62402344 45.78027344 C27.28070325 45.76021991 28.93731282 45.73296971 30.59375 45.69824219 C32.98194758 45.64944488 35.36920547 45.62696936 37.7578125 45.609375 C38.85973434 45.57840729 38.85973434 45.57840729 39.98391724 45.54681396 C46.68563624 45.54392259 50.04496827 48.25747172 54.875 52.5625 C57.72481821 56.18702607 57.64225773 59.91131232 57.41796875 64.37890625 C56.57706784 69.65221946 54.07967211 72.18473738 49.9375 75.3125 C45.33748621 77.95506111 41.65277807 78.13539308 36.48828125 78.09765625 C35.76005661 78.0962413 35.03183197 78.09482635 34.28153992 78.09336853 C31.95848461 78.08777659 29.63552612 78.07522562 27.3125 78.0625 C25.73632952 78.05748396 24.16015752 78.05292123 22.58398438 78.04882812 C18.72261902 78.0378098 14.86132592 78.02055074 11 78 C11.0314209 79.43666016 11.0314209 79.43666016 11.06347656 80.90234375 C11.13639479 84.48796376 11.18198558 88.07351953 11.21972656 91.65966797 C11.23972503 93.20567887 11.26693331 94.75161527 11.30175781 96.29736328 C11.6531829 112.30787695 11.6531829 112.30787695 7 119 C2.15319692 123.50060286 -0.99192942 124.36123579 -7.4609375 124.27734375 C-11.22460402 123.86623556 -13.21790187 122.5171364 -16 120 C-20.23135791 114.3963098 -21.1477936 110.34985821 -21.09765625 103.48828125 C-21.0962413 102.76005661 -21.09482635 102.03183197 -21.09336853 101.28153992 C-21.08777659 98.95848461 -21.07522562 96.63552612 -21.0625 94.3125 C-21.05748396 92.73632952 -21.05292123 91.16015752 -21.04882812 89.58398438 C-21.0378098 85.72261902 -21.02055074 81.86132592 -21 78 C-22.48995483 78.0314209 -22.48995483 78.0314209 -24.01000977 78.06347656 C-27.72047318 78.13626804 -31.4308744 78.18194048 -35.1418457 78.21972656 C-36.74319091 78.23975347 -38.3444638 78.26698354 -39.94555664 78.30175781 C-42.25685537 78.35067419 -44.56718154 78.37305711 -46.87890625 78.390625 C-47.9402755 78.42159271 -47.9402755 78.42159271 -49.02308655 78.45318604 C-54.56045945 78.45564565 -57.54217382 77.03679663 -62 74 C-66.55700028 68.96331548 -67.51963287 65.61015288 -67.484375 58.90234375 C-66.66910742 54.01731299 -63.76129553 51.05031894 -60 48 C-56.22310467 45.46553446 -52.33303781 45.74399518 -47.953125 45.8046875 C-46.79632233 45.80893234 -46.79632233 45.80893234 -45.6161499 45.81326294 C-43.16060668 45.82442987 -40.7054324 45.84952771 -38.25 45.875 C-36.58203653 45.88503432 -34.91406732 45.89415939 -33.24609375 45.90234375 C-29.16392103 45.92435775 -25.082023 45.95886333 -21 46 C-21.01571045 45.00145996 -21.0314209 44.00291992 -21.04760742 42.97412109 C-21.10212619 39.25057113 -21.13642934 35.5270561 -21.16479492 31.80322266 C-21.17983176 30.19508928 -21.20026672 28.58699656 -21.22631836 26.97900391 C-21.26292822 24.66037936 -21.27977722 22.34229951 -21.29296875 20.0234375 C-21.30845261 19.31069672 -21.32393646 18.59795593 -21.33988953 17.86361694 C-21.34174234 12.30130895 -19.89622765 8.50425717 -16.5625 4.1015625 C-11.49592123 -0.68635444 -6.76969997 -1.04068369 0 0 Z " fill="#DDF3FA" transform="translate(261,290)"/>
<path d="M0 0 C1.27416653 0.43169027 2.5449456 0.87348305 3.8125 1.32421875 C4.52148438 1.57091309 5.23046875 1.81760742 5.9609375 2.07177734 C22.67124566 8.04131506 39.01580376 17.97316458 49.8125 32.32421875 C50.56015625 33.27425781 51.3078125 34.22429687 52.078125 35.203125 C65.74333621 53.02754508 73.98947108 74.06141078 74.4375 96.63671875 C74.47242554 97.77367187 74.47242554 97.77367187 74.50805664 98.93359375 C74.40729287 105.9448777 71.31928944 110.81742931 66.4375 115.69921875 C63.19473442 117.70664506 60.56710862 118.58560722 56.8125 119.32421875 C56.05839844 119.47890625 55.30429687 119.63359375 54.52734375 119.79296875 C49.97609123 120.31228758 47.57181246 119.82504186 43.69140625 117.265625 C40.746795 114.83683097 38.07711714 112.42055157 35.8125 109.32421875 C35.9921875 106.90234375 35.9921875 106.90234375 36.8125 104.32421875 C38.66430072 80.49366845 30.82615271 57.40878537 16.8125 38.32421875 C16.4107959 37.77282227 16.0090918 37.22142578 15.59521484 36.65332031 C2.02527724 18.42823672 -17.37575824 7.40935749 -38.95703125 1.33203125 C-42.1875 0.32421875 -42.1875 0.32421875 -45.1875 -1.67578125 C-34.69627505 -6.92139373 -10.85933793 -3.29846166 0 0 Z " fill="#3D87D0" transform="translate(284.1875,160.67578125)"/>
<path d="M0 0 C10.20306064 2.87197262 22.69846996 12.34814942 28.515625 21.34375 C29 24 29 24 27.2890625 26.953125 C26.41350585 28.06203932 25.5244658 29.1603892 24.625 30.25 C16.01668913 41.46547667 10.43378459 54.30100675 7 68 C6.77570313 68.87398438 6.55140625 69.74796875 6.3203125 70.6484375 C4.37411121 79.52631461 2.39740075 92.61788488 7.0625 100.8125 C9.82756353 104.32381647 12.9900815 106.10440216 17 108 C18.32 108.66 19.64 109.32 21 110 C4.17 110 -12.66 110 -30 110 C-33.38095238 99.85714286 -33.38095238 99.85714286 -33.3984375 95.21484375 C-33.40456055 94.1976123 -33.41068359 93.18038086 -33.41699219 92.13232422 C-33.40313477 91.07803223 -33.38927734 90.02374023 -33.375 88.9375 C-33.36629883 87.83422363 -33.35759766 86.73094727 -33.34863281 85.59423828 C-33.19040712 76.72192738 -32.15577241 68.60450539 -30 60 C-29.58234375 58.14761719 -29.58234375 58.14761719 -29.15625 56.2578125 C-26.83555166 46.63491682 -23.28943185 37.87853334 -19 29 C-18.69046387 28.35498535 -18.38092773 27.7099707 -18.06201172 27.04541016 C-13.33458694 17.33787521 -7.69700243 7.69700243 0 0 Z " fill="#D8588C" transform="translate(150,170)"/>
<path d="M0 0 C1.85249565 2.06209582 3.4537159 4.06921033 5.0625 6.3125 C5.54420654 6.97967041 6.02591309 7.64684082 6.5222168 8.33422852 C23.10848612 31.95413894 32.16758049 59.1565456 32.1875 88 C32.19974609 88.93328125 32.21199219 89.8665625 32.22460938 90.828125 C32.23701162 96.74812909 31.78611176 102.32404208 30 108 C29 109 29 109 27.09544373 109.12025452 C26.26271439 109.11803391 25.42998505 109.11581329 24.57202148 109.11352539 C23.63112167 109.11344986 22.69022186 109.11337433 21.72080994 109.11329651 C20.69790359 109.10813522 19.67499725 109.10297394 18.62109375 109.09765625 C17.57929459 109.0962413 16.53749542 109.09482635 15.46412659 109.09336853 C12.12188906 109.0877508 8.77971743 109.0751953 5.4375 109.0625 C3.17773534 109.05748728 0.91796963 109.05292398 -1.34179688 109.04882812 C-6.89455391 109.03777561 -12.44727225 109.02102024 -18 109 C-15.83112914 107.36528842 -13.65512455 105.75606371 -11.4375 104.1875 C-7.62022296 100.76173855 -5.89962164 97.08561222 -5.53125 91.99609375 C-4.99925314 68.94459361 -11.95077552 46.27811485 -26.37109375 28.12890625 C-27.88533892 26.14985681 -28.97419694 24.26295249 -30 22 C-9.50570342 0 -9.50570342 0 0 0 Z " fill="#DCDCDD" transform="translate(363,170)"/>
<path d="M0 0 C10.15054331 1.78323219 17.32355693 9.57151291 23.0546875 17.7265625 C30.39536442 30.07894656 32.2721513 43.21105361 29.9921875 57.265625 C26.0958734 71.93049222 17.85952911 83.00801643 5 91 C-8.19083473 97.45238422 -23.301118 99.88159995 -37.625 95.375 C-49.76236946 90.47566802 -61.45950172 82.30603135 -67 70 C-67 69.01 -67 68.02 -67 67 C-66.19296631 67.20894897 -66.19296631 67.20894897 -65.36962891 67.42211914 C-49.79036575 71.20373791 -33.52476101 70.40002808 -19.62109375 61.9453125 C-13.63838782 57.70236277 -8.85120411 53.24693644 -5 47 C-4.62488281 46.42636719 -4.24976563 45.85273437 -3.86328125 45.26171875 C1.03363656 37.34291113 2.48037371 29.74183425 2.3125 20.5625 C2.31733398 19.24668945 2.31733398 19.24668945 2.32226562 17.90429688 C2.27229982 11.74033363 1.40801067 5.99553028 0 0 Z " fill="#FEBD86" transform="translate(431,61)"/>
<path d="M0 0 C8.94197015 1.30403731 15.52250196 8.81989455 21 15.5625 C30.03468233 27.818852 31.08422149 41.34085271 30 56 C27.58779252 68.81915977 20.11022314 79.91994215 10 88 C-3.71994662 96.70877435 -18.68750888 99.33764664 -34.62109375 96.3125 C-48.67928659 91.92502759 -60.38103284 82.87498867 -67.35546875 69.8125 C-67.56816406 69.214375 -67.78085938 68.61625 -68 68 C-67.505 67.01 -67.505 67.01 -67 66 C-66.20601807 66.31723022 -66.20601807 66.31723022 -65.39599609 66.64086914 C-59.36874844 68.87146144 -54.02655611 69.51111468 -47.625 69.4375 C-46.70033936 69.42992676 -45.77567871 69.42235352 -44.82299805 69.41455078 C-33.50825028 69.14152208 -25.33170745 65.18714301 -16 59 C-15.113125 58.4225 -14.22625 57.845 -13.3125 57.25 C-4.98775318 49.15024634 1.87932259 37.33098607 2.265625 25.546875 C2.27355776 23.94792786 2.26795578 22.34886599 2.25 20.75 C2.24613281 19.91750732 2.24226563 19.08501465 2.23828125 18.22729492 C2.15118526 12.00295588 1.52318166 6.05192712 0 0 Z " fill="#FEBD86" transform="translate(277,61)"/>
<path d="M0 0 C5.48865613 0.34304101 8.96416547 3.59943572 13 7 C13.67546875 7.55558594 14.3509375 8.11117187 15.046875 8.68359375 C23.66592937 16.45076484 29.72602788 28.76315577 30.3359375 40.3828125 C30.65942462 57.23949639 26.99247292 70.72052888 15.1875 83.3125 C4.08272646 93.73521451 -8.66967001 97.62810732 -23.63183594 97.47265625 C-37.06569269 97.00468396 -49.35804912 91.42768531 -59 82 C-62.93574298 77.04911824 -66.51986888 72.24944252 -68 66 C-67.21471924 66.31723022 -67.21471924 66.31723022 -66.41357422 66.64086914 C-60.2255621 68.94497376 -54.69833101 69.50922148 -48.125 69.4375 C-47.15336914 69.42992676 -46.18173828 69.42235352 -45.18066406 69.41455078 C-38.12703853 69.25224868 -32.26931387 68.41093179 -26 65 C-24.73542969 64.36384766 -24.73542969 64.36384766 -23.4453125 63.71484375 C-10.84105137 56.83805082 -2.56782391 45.77664697 1.58520508 32.06835938 C2.39466724 28.03200658 2.18464926 23.9147136 2.1875 19.8125 C2.19974609 18.90435547 2.21199219 17.99621094 2.22460938 17.06054688 C2.2374758 11.06908172 1.49958645 5.80274757 0 0 Z " fill="#FEBD86" transform="translate(123,61)"/>
</svg>
