<?xml version="1.0" encoding="UTF-8"?>
<svg version="1.1" xmlns="http://www.w3.org/2000/svg" width="512" height="512">
<path d="M0 0 C4.91893774 4.33353093 9.77369371 8.71274158 14.52734375 13.2265625 C15.06149902 13.73203613 15.5956543 14.23750977 16.14599609 14.75830078 C24.44404761 22.66672611 31.70349525 31.02385171 38.52734375 40.2265625 C38.95112305 40.78956055 39.37490234 41.35255859 39.81152344 41.93261719 C76.81711047 91.2259933 92.48749745 154.77368736 84.00610352 215.76342773 C78.56194032 250.30704771 66.55495652 284.38145191 46.52734375 313.2265625 C46.00946289 313.97599121 45.49158203 314.72541992 44.95800781 315.49755859 C37.44635359 326.26075492 29.387848 336.18563932 20.18261719 345.54052734 C18.59609359 347.15653501 17.0325888 348.79196011 15.47265625 350.43359375 C8.38885835 357.80612071 0.72297498 364.13017107 -7.47265625 370.2265625 C-8.03710449 370.65179199 -8.60155273 371.07702148 -9.18310547 371.51513672 C-39.87526731 394.55418807 -75.70609899 408.8925487 -113.47265625 415.2265625 C-114.68179687 415.4328125 -115.8909375 415.6390625 -117.13671875 415.8515625 C-172.89806503 424.15629587 -234.1994738 410.35475895 -280.47265625 378.2265625 C-281.22208496 377.70868164 -281.97151367 377.19080078 -282.74365234 376.65722656 C-293.50684867 369.14557234 -303.43173307 361.08706675 -312.78662109 351.88183594 C-314.40262876 350.29531234 -316.03805386 348.73180755 -317.6796875 347.171875 C-325.05221446 340.0880771 -331.37626482 332.42219373 -337.47265625 324.2265625 C-338.11050049 323.37989014 -338.11050049 323.37989014 -338.76123047 322.51611328 C-361.79101358 291.83629842 -376.22798083 255.99642903 -382.47265625 218.2265625 C-382.6010791 217.50339844 -382.72950195 216.78023438 -382.86181641 216.03515625 C-392.78669953 158.40142936 -376.22967621 95.71642163 -343.35546875 48.1640625 C-341.43952554 45.48025099 -339.47777908 42.84424831 -337.47265625 40.2265625 C-336.85003906 39.41058594 -336.22742188 38.59460938 -335.5859375 37.75390625 C-330.24100949 30.91283206 -324.44741951 24.51537886 -318.47265625 18.2265625 C-317.96573242 17.69095703 -317.45880859 17.15535156 -316.93652344 16.60351562 C-309.02963777 8.30695811 -300.67364137 1.04913141 -291.47265625 -5.7734375 C-290.9096582 -6.1972168 -290.34666016 -6.62099609 -289.76660156 -7.05761719 C-256.89951489 -31.73163898 -218.15062443 -46.59575294 -177.47265625 -51.7734375 C-176.75513184 -51.86915039 -176.03760742 -51.96486328 -175.29833984 -52.06347656 C-113.59269428 -59.34137769 -47.48595921 -40.24233832 0 0 Z M-167.2109375 64.25 C-170.63344803 69.61157997 -170.75412795 74.94236417 -170.69970703 81.07763672 C-170.69999908 81.94658066 -170.70029114 82.8155246 -170.70059204 83.71080017 C-170.69920463 86.56772024 -170.68367118 89.42437578 -170.66796875 92.28125 C-170.66423653 94.26807513 -170.66139054 96.25490211 -170.65939331 98.24172974 C-170.65177334 103.4597282 -170.63213888 108.67761454 -170.60998535 113.89556885 C-170.58949168 119.22463464 -170.58038406 124.55371862 -170.5703125 129.8828125 C-170.54889146 140.33077831 -170.51477526 150.77866106 -170.47265625 161.2265625 C-172.11850708 161.21656975 -172.11850708 161.21656975 -173.79760742 161.20637512 C-184.15524955 161.14546987 -194.51285518 161.10054466 -204.87063599 161.07112598 C-210.19524621 161.05549294 -215.51971147 161.03429771 -220.84423828 161.00024414 C-225.98598652 160.96756662 -231.1275956 160.94969173 -236.2694397 160.94193077 C-238.22777495 160.93640233 -240.18610289 160.92560666 -242.14437866 160.90937233 C-244.89459488 160.88748652 -247.64424148 160.88460023 -250.39453125 160.88598633 C-251.59971153 160.86980759 -251.59971153 160.86980759 -252.82923889 160.853302 C-259.29910846 160.8884161 -264.92865359 162.0289264 -269.96875 166.3828125 C-270.60941406 167.15625 -271.25007813 167.9296875 -271.91015625 168.7265625 C-272.56886719 169.5 -273.22757812 170.2734375 -273.90625 171.0703125 C-277.57453563 176.11992264 -277.01571583 182.25290715 -276.47265625 188.2265625 C-274.77803108 193.80045012 -270.30010599 198.14500862 -265.47265625 201.2265625 C-260.40475748 203.32574664 -256.0066741 203.50137997 -250.62158203 203.45361328 C-249.75263809 203.45390533 -248.88369415 203.45419739 -247.98841858 203.45449829 C-245.13149851 203.45311088 -242.27484297 203.43757743 -239.41796875 203.421875 C-237.43114362 203.41814278 -235.44431664 203.41529679 -233.45748901 203.41329956 C-228.23949055 203.40567959 -223.02160421 203.38604513 -217.8036499 203.3638916 C-212.47458411 203.34339793 -207.14550013 203.33429031 -201.81640625 203.32421875 C-191.36844044 203.30279771 -180.92055769 203.26868151 -170.47265625 203.2265625 C-170.47931808 204.32379639 -170.48597992 205.42103027 -170.49284363 206.55151367 C-170.55374888 216.9091558 -170.59867409 227.26676143 -170.62809277 237.62454224 C-170.64372581 242.94915246 -170.66492104 248.27361772 -170.69897461 253.59814453 C-170.73165213 258.73989277 -170.74952702 263.88150185 -170.75728798 269.02334595 C-170.76281642 270.9816812 -170.77361209 272.94000914 -170.78984642 274.89828491 C-170.81173223 277.64850113 -170.81461852 280.39814773 -170.81323242 283.1484375 C-170.82401825 283.95189102 -170.83480408 284.75534454 -170.84591675 285.58314514 C-170.81080265 292.05301471 -169.67029235 297.68255984 -165.31640625 302.72265625 C-164.54296875 303.36332031 -163.76953125 304.00398437 -162.97265625 304.6640625 C-162.19921875 305.32277344 -161.42578125 305.98148438 -160.62890625 306.66015625 C-155.57929611 310.32844188 -149.4463116 309.76962208 -143.47265625 309.2265625 C-137.89876863 307.53193733 -133.55421013 303.05401224 -130.47265625 298.2265625 C-128.37347211 293.15866373 -128.19783878 288.76058035 -128.24560547 283.37548828 C-128.24531342 282.50654434 -128.24502136 281.6376004 -128.24472046 280.74232483 C-128.24610787 277.88540476 -128.26164132 275.02874922 -128.27734375 272.171875 C-128.28107597 270.18504987 -128.28392196 268.19822289 -128.28591919 266.21139526 C-128.29353916 260.9933968 -128.31317362 255.77551046 -128.33532715 250.55755615 C-128.35582082 245.22849036 -128.36492844 239.89940638 -128.375 234.5703125 C-128.39642104 224.12234669 -128.43053724 213.67446394 -128.47265625 203.2265625 C-126.82680542 203.23655525 -126.82680542 203.23655525 -125.14770508 203.24674988 C-114.79006295 203.30765513 -104.43245732 203.35258034 -94.07467651 203.38199902 C-88.75006629 203.39763206 -83.42560103 203.41882729 -78.10107422 203.45288086 C-72.95932598 203.48555838 -67.8177169 203.50343327 -62.6758728 203.51119423 C-60.71753755 203.51672267 -58.75920961 203.52751834 -56.80093384 203.54375267 C-54.05071762 203.56563848 -51.30107102 203.56852477 -48.55078125 203.56713867 C-47.74732773 203.5779245 -46.94387421 203.58871033 -46.11607361 203.599823 C-39.64620404 203.5647089 -34.01665891 202.4241986 -28.9765625 198.0703125 C-28.33589844 197.296875 -27.69523438 196.5234375 -27.03515625 195.7265625 C-26.37644531 194.953125 -25.71773437 194.1796875 -25.0390625 193.3828125 C-21.37077687 188.33320236 -21.92959667 182.20021785 -22.47265625 176.2265625 C-24.16728142 170.65267488 -28.64520651 166.30811638 -33.47265625 163.2265625 C-38.54055502 161.12737836 -42.9386384 160.95174503 -48.32373047 160.99951172 C-49.19267441 160.99921967 -50.06161835 160.99892761 -50.95689392 160.99862671 C-53.81381399 161.00001412 -56.67046953 161.01554757 -59.52734375 161.03125 C-61.51416888 161.03498222 -63.50099586 161.03782821 -65.48782349 161.03982544 C-70.70582195 161.04744541 -75.92370829 161.06707987 -81.1416626 161.0892334 C-86.47072839 161.10972707 -91.79981237 161.11883469 -97.12890625 161.12890625 C-107.57687206 161.15032729 -118.02475481 161.18444349 -128.47265625 161.2265625 C-128.46599442 160.12932861 -128.45933258 159.03209473 -128.45246887 157.90161133 C-128.39156362 147.5439692 -128.34663841 137.18636357 -128.31721973 126.82858276 C-128.30158669 121.50397254 -128.28039146 116.17950728 -128.24633789 110.85498047 C-128.21366037 105.71323223 -128.19578548 100.57162315 -128.18802452 95.42977905 C-128.18249608 93.4714438 -128.17170041 91.51311586 -128.15546608 89.55484009 C-128.13358027 86.80462387 -128.13069398 84.05497727 -128.13208008 81.3046875 C-128.12129425 80.50123398 -128.11050842 79.69778046 -128.09939575 78.86997986 C-128.13450985 72.40011029 -129.27502015 66.77056516 -133.62890625 61.73046875 C-134.40234375 61.08980469 -135.17578125 60.44914062 -135.97265625 59.7890625 C-136.74609375 59.13035156 -137.51953125 58.47164063 -138.31640625 57.79296875 C-148.43266857 50.44401732 -160.09498316 56.02278704 -167.2109375 64.25 Z " fill="#1993CC" transform="translate(405.47265625,73.7734375)"/>
</svg>
