<?xml version="1.0" encoding="UTF-8"?>
<!DOCTYPE svg PUBLIC "-//W3C//DTD SVG 1.1//EN" "http://www.w3.org/Graphics/SVG/1.1/DTD/svg11.dtd">
<svg xmlns="http://www.w3.org/2000/svg" version="1.1" width="512px" height="512px" style="shape-rendering:geometricPrecision; text-rendering:geometricPrecision; image-rendering:optimizeQuality; fill-rule:evenodd; clip-rule:evenodd" xmlns:xlink="http://www.w3.org/1999/xlink">
<g><path style="opacity:0.991" fill="#fcc732" d="M 316.5,43.5 C 316.667,78.5016 316.5,113.502 316,148.5C 311.406,166.407 299.906,173.907 281.5,171C 271.8,167.303 265.633,160.469 263,150.5C 262.333,120.833 262.333,91.1667 263,61.5C 269.019,51.1551 277.519,48.6551 288.5,54C 291.106,55.9384 292.939,58.4384 294,61.5C 294.667,84.1667 294.667,106.833 294,129.5C 288.785,134.019 284.451,133.353 281,127.5C 280.5,106.836 280.333,86.1694 280.5,65.5C 279.167,65.5 277.833,65.5 276.5,65.5C 276.333,93.1687 276.5,120.835 277,148.5C 281.389,157.839 288.222,160.006 297.5,155C 299.43,152.742 300.93,150.242 302,147.5C 302.831,112.664 302.664,77.9976 301.5,43.5C 299.791,30.2916 292.291,22.9582 279,21.5C 265.725,22.9416 258.225,30.2749 256.5,43.5C 251.5,44.8333 246.5,44.8333 241.5,43.5C 243.596,20.5702 256.096,8.23692 279,6.5C 301.955,8.28827 314.455,20.6216 316.5,43.5 Z M 301.5,43.5 C 286.5,43.5 271.5,43.5 256.5,43.5C 258.225,30.2749 265.725,22.9416 279,21.5C 292.291,22.9582 299.791,30.2916 301.5,43.5 Z"/></g>
<g><path style="opacity:0.995" fill="#e2f0fe" d="M 241.5,43.5 C 246.5,44.8333 251.5,44.8333 256.5,43.5C 271.5,43.5 286.5,43.5 301.5,43.5C 302.664,77.9976 302.831,112.664 302,147.5C 300.93,150.242 299.43,152.742 297.5,155C 288.222,160.006 281.389,157.839 277,148.5C 276.5,120.835 276.333,93.1687 276.5,65.5C 277.833,65.5 279.167,65.5 280.5,65.5C 280.333,86.1694 280.5,106.836 281,127.5C 284.451,133.353 288.785,134.019 294,129.5C 294.667,106.833 294.667,84.1667 294,61.5C 292.939,58.4384 291.106,55.9384 288.5,54C 277.519,48.6551 269.019,51.1551 263,61.5C 262.333,91.1667 262.333,120.833 263,150.5C 265.633,160.469 271.8,167.303 281.5,171C 299.906,173.907 311.406,166.407 316,148.5C 316.5,113.502 316.667,78.5016 316.5,43.5C 321.5,43.5 326.5,43.5 331.5,43.5C 331.5,139.167 331.5,234.833 331.5,330.5C 290.306,341.458 249.306,352.792 208.5,364.5C 204.252,365.588 202.752,368.255 204,372.5C 205.214,374.049 206.714,375.215 208.5,376C 225.618,380.188 242.618,384.688 259.5,389.5C 259.333,410.836 259.5,432.169 260,453.5C 282.21,466.625 306.043,474.625 331.5,477.5C 225.833,477.5 120.167,477.5 14.5,477.5C 14.5,332.833 14.5,188.167 14.5,43.5C 90.1667,43.5 165.833,43.5 241.5,43.5 Z"/></g>
<g><path style="opacity:1" fill="#cfe8fe" d="M 331.5,43.5 C 337.167,43.5 342.833,43.5 348.5,43.5C 348.5,138.167 348.5,232.833 348.5,327.5C 342.686,327.704 337.019,328.704 331.5,330.5C 331.5,234.833 331.5,139.167 331.5,43.5 Z"/></g>
<g><path style="opacity:1" fill="#346799" d="M 72.5,103.5 C 71.5027,124.994 71.1693,146.66 71.5,168.5C 93.5,168.5 115.5,168.5 137.5,168.5C 137.5,156.167 137.5,143.833 137.5,131.5C 141.833,127.833 145.833,123.833 149.5,119.5C 150.497,138.326 150.83,157.326 150.5,176.5C 150.262,179.148 148.928,180.982 146.5,182C 118.5,182.667 90.5,182.667 62.5,182C 61,181.167 59.8333,180 59,178.5C 58.3333,149.833 58.3333,121.167 59,92.5C 59.8333,91.6667 60.6667,90.8333 61.5,90C 81.5,89.3333 101.5,89.3333 121.5,90C 122.931,90.4652 124.097,91.2986 125,92.5C 125.667,95.1667 125.667,97.8333 125,100.5C 124.097,101.701 122.931,102.535 121.5,103C 105.17,103.5 88.8367,103.667 72.5,103.5 Z"/></g>
<g><path style="opacity:1" fill="#2fd530" d="M 150.5,118.5 C 149.833,118.5 149.5,118.833 149.5,119.5C 145.833,123.833 141.833,127.833 137.5,131.5C 136.833,131.5 136.5,131.833 136.5,132.5C 128.702,139.798 121.035,147.298 113.5,155C 108.726,156.361 105.226,154.861 103,150.5C 98.9199,142.671 94.5865,135.004 90,127.5C 88.8172,118.844 92.3172,116.01 100.5,119C 104.338,124.994 108.338,130.827 112.5,136.5C 128.319,121.181 143.986,105.681 159.5,90C 167.333,88.5 170.5,91.6667 169,99.5C 162.631,105.702 156.464,112.035 150.5,118.5 Z"/></g>
<g><path style="opacity:1" fill="#8cadcc" d="M 149.5,119.5 C 149.5,118.833 149.833,118.5 150.5,118.5C 151.833,137.833 151.833,157.167 150.5,176.5C 150.83,157.326 150.497,138.326 149.5,119.5 Z"/></g>
<g><path style="opacity:1" fill="#a4bfda" d="M 72.5,103.5 C 72.5,124.833 72.5,146.167 72.5,167.5C 93.8333,167.5 115.167,167.5 136.5,167.5C 136.5,155.833 136.5,144.167 136.5,132.5C 136.5,131.833 136.833,131.5 137.5,131.5C 137.5,143.833 137.5,156.167 137.5,168.5C 115.5,168.5 93.5,168.5 71.5,168.5C 71.1693,146.66 71.5027,124.994 72.5,103.5 Z"/></g>
<g><path style="opacity:1" fill="#d85d8f" d="M 63.5,216.5 C 142.167,216.333 220.834,216.5 299.5,217C 306.532,220.479 307.199,224.813 301.5,230C 221.5,230.667 141.5,230.667 61.5,230C 57.0883,224.714 57.755,220.214 63.5,216.5 Z"/></g>
<g><path style="opacity:1" fill="#d85d8f" d="M 61.5,258.5 C 141.501,258.333 221.501,258.5 301.5,259C 307.199,264.187 306.532,268.521 299.5,272C 220.833,272.667 142.167,272.667 63.5,272C 57.6611,268.295 56.9945,263.795 61.5,258.5 Z"/></g>
<g><path style="opacity:1" fill="#d85c8f" d="M 61.5,299.5 C 141.501,299.333 221.501,299.5 301.5,300C 307.187,305.238 306.521,309.571 299.5,313C 220.5,313.667 141.5,313.667 62.5,313C 57.5882,308.797 57.2548,304.297 61.5,299.5 Z"/></g>
<g><path style="opacity:1" fill="#346698" d="M 348.5,327.5 C 394.84,338.508 440.84,350.508 486.5,363.5C 480.5,365.5 474.5,367.5 468.5,369.5C 428.548,365.505 388.548,362.338 348.5,360C 344.043,365.135 344.71,369.468 350.5,373C 375.472,375.564 400.472,377.731 425.5,379.5C 399.939,387.68 373.939,394.68 347.5,400.5C 301.045,388.97 254.712,376.97 208.5,364.5C 249.306,352.792 290.306,341.458 331.5,330.5C 337.019,328.704 342.686,327.704 348.5,327.5 Z"/></g>
<g><path style="opacity:1" fill="#d85b8e" d="M 61.5,340.5 C 98.5015,340.333 135.502,340.5 172.5,341C 175.616,343.961 176.283,347.461 174.5,351.5C 173.335,352.584 172.002,353.417 170.5,354C 134.5,354.667 98.5,354.667 62.5,354C 57.5882,349.797 57.2548,345.297 61.5,340.5 Z"/></g>
<g><path style="opacity:0.998" fill="#f9d936" d="M 468.5,369.5 C 473.162,369.962 477.829,370.462 482.5,371C 485.079,372.076 486.746,373.909 487.5,376.5C 488.484,392.089 488.817,407.756 488.5,423.5C 484.548,422.728 480.548,422.395 476.5,422.5C 475.391,422.557 474.391,422.89 473.5,423.5C 473.5,410.5 473.5,397.5 473.5,384.5C 468.859,383.873 464.193,383.54 459.5,383.5C 448.336,381.755 437.003,380.421 425.5,379.5C 400.472,377.731 375.472,375.564 350.5,373C 344.71,369.468 344.043,365.135 348.5,360C 388.548,362.338 428.548,365.505 468.5,369.5 Z"/></g>
<g><path style="opacity:0.953" fill="#2c4e6f" d="M 486.5,363.5 C 492.095,364.56 493.929,367.893 492,373.5C 490.729,374.883 489.229,375.883 487.5,376.5C 486.746,373.909 485.079,372.076 482.5,371C 477.829,370.462 473.162,369.962 468.5,369.5C 474.5,367.5 480.5,365.5 486.5,363.5 Z"/></g>
<g><path style="opacity:0.997" fill="#284c70" d="M 208.5,364.5 C 254.712,376.97 301.045,388.97 347.5,400.5C 373.939,394.68 399.939,387.68 425.5,379.5C 437.003,380.421 448.336,381.755 459.5,383.5C 451.972,385.966 444.305,387.966 436.5,389.5C 425.234,391.928 414.234,394.928 403.5,398.5C 384.966,403.092 366.466,407.758 348,412.5C 318.362,405.343 288.862,397.676 259.5,389.5C 242.618,384.688 225.618,380.188 208.5,376C 206.714,375.215 205.214,374.049 204,372.5C 202.752,368.255 204.252,365.588 208.5,364.5 Z"/></g>
<g><path style="opacity:1" fill="#d85b8e" d="M 61.5,381.5 C 98.5015,381.333 135.502,381.5 172.5,382C 176.689,386.678 176.356,391.011 171.5,395C 135.167,395.667 98.8333,395.667 62.5,395C 57.5968,390.843 57.2635,386.343 61.5,381.5 Z"/></g>
<g><path style="opacity:1" fill="#274f76" d="M 436.5,389.5 C 436.667,411.169 436.5,432.836 436,454.5C 426.41,460.419 416.243,465.086 405.5,468.5C 406.157,444.809 405.49,421.476 403.5,398.5C 414.234,394.928 425.234,391.928 436.5,389.5 Z"/></g>
<g><path style="opacity:0.998" fill="#3b6d9e" d="M 259.5,389.5 C 288.862,397.676 318.362,405.343 348,412.5C 366.466,407.758 384.966,403.092 403.5,398.5C 405.49,421.476 406.157,444.809 405.5,468.5C 381.491,476.418 356.825,479.418 331.5,477.5C 306.043,474.625 282.21,466.625 260,453.5C 259.5,432.169 259.333,410.836 259.5,389.5 Z"/></g>
<g><path style="opacity:1" fill="#d85b8e" d="M 61.5,422.5 C 111.168,422.333 160.834,422.5 210.5,423C 214.559,425.467 215.559,428.967 213.5,433.5C 212.335,434.584 211.002,435.417 209.5,436C 160.5,436.667 111.5,436.667 62.5,436C 57.5968,431.843 57.2635,427.343 61.5,422.5 Z"/></g>
<g><path style="opacity:0.953" fill="#f19a00" d="M 476.5,422.5 C 480.548,422.395 484.548,422.728 488.5,423.5C 498.674,432.188 499.008,441.188 489.5,450.5C 486.574,451.461 483.574,452.127 480.5,452.5C 478.585,452.784 476.919,452.451 475.5,451.5C 486.914,446.33 489.414,438.33 483,427.5C 481.035,425.45 478.868,423.783 476.5,422.5 Z"/></g>
<g><path style="opacity:0.999" fill="#f8ab00" d="M 476.5,422.5 C 478.868,423.783 481.035,425.45 483,427.5C 489.414,438.33 486.914,446.33 475.5,451.5C 474.391,451.443 473.391,451.11 472.5,450.5C 464.4,444.165 462.9,436.498 468,427.5C 469.432,425.561 471.265,424.228 473.5,423.5C 474.391,422.89 475.391,422.557 476.5,422.5 Z"/></g>
<g><path style="opacity:0.936" fill="#f2671f" d="M 489.5,450.5 C 492.545,455.797 494.712,461.464 496,467.5C 496.667,477.833 496.667,488.167 496,498.5C 494.833,501 493,502.833 490.5,504C 487.183,504.498 483.85,504.665 480.5,504.5C 483.228,502.931 485.062,500.598 486,497.5C 486.667,486.833 486.667,476.167 486,465.5C 484.703,460.91 482.87,456.577 480.5,452.5C 483.574,452.127 486.574,451.461 489.5,450.5 Z"/></g>
<g><path style="opacity:1" fill="#fe8647" d="M 472.5,450.5 C 473.391,451.11 474.391,451.443 475.5,451.5C 476.919,452.451 478.585,452.784 480.5,452.5C 482.87,456.577 484.703,460.91 486,465.5C 486.667,476.167 486.667,486.833 486,497.5C 485.062,500.598 483.228,502.931 480.5,504.5C 475.235,505.429 470.735,504.096 467,500.5C 466.333,488.167 466.333,475.833 467,463.5C 468.848,459.141 470.682,454.808 472.5,450.5 Z"/></g>
</svg>
