<?xml version="1.0" encoding="UTF-8"?>
<!DOCTYPE svg PUBLIC "-//W3C//DTD SVG 1.1//EN" "http://www.w3.org/Graphics/SVG/1.1/DTD/svg11.dtd">
<svg xmlns="http://www.w3.org/2000/svg" version="1.1" width="512px" height="512px" style="shape-rendering:geometricPrecision; text-rendering:geometricPrecision; image-rendering:optimizeQuality; fill-rule:evenodd; clip-rule:evenodd" xmlns:xlink="http://www.w3.org/1999/xlink">
<g><path style="opacity:1" fill="#33679b" d="M 445.5,-0.5 C 450.5,-0.5 455.5,-0.5 460.5,-0.5C 462.5,0.833333 464.5,2.16667 466.5,3.5C 458.859,7.66611 455.193,14.1661 455.5,23C 455.273,27.0765 456.107,30.9099 458,34.5C 460.335,37.6653 462.835,40.6653 465.5,43.5C 459.513,46.7757 453.18,47.7757 446.5,46.5C 441.715,44.2644 437.382,41.2644 433.5,37.5C 424.833,20.8371 428.833,8.17039 445.5,-0.5 Z"/></g>
<g><path style="opacity:0.978" fill="#3487db" d="M 466.5,3.5 C 475.791,10.1266 478.957,19.1266 476,30.5C 473.897,36.0823 470.397,40.4156 465.5,43.5C 462.835,40.6653 460.335,37.6653 458,34.5C 456.107,30.9099 455.273,27.0765 455.5,23C 455.193,14.1661 458.859,7.66611 466.5,3.5 Z"/></g>
<g><path style="opacity:0.959" fill="#b1dbfc" d="M 433.5,37.5 C 437.382,41.2644 441.715,44.2644 446.5,46.5C 422.944,83.7149 398.611,120.382 373.5,156.5C 370.833,154.5 368.167,152.5 365.5,150.5C 363.25,149.87 361.25,148.87 359.5,147.5C 384.525,111.129 409.192,74.4624 433.5,37.5 Z"/></g>
<g><path style="opacity:1" fill="#fed306" d="M 268.5,101.5 C 253.851,114.923 253.851,128.256 268.5,141.5C 267.025,143.41 265.025,144.576 262.5,145C 256.796,145.687 251.13,145.521 245.5,144.5C 241.167,140.833 237.167,136.833 233.5,132.5C 228.406,113.022 235.739,101.355 255.5,97.5C 260.103,98.0834 264.436,99.4168 268.5,101.5 Z"/></g>
<g><path style="opacity:0.981" fill="#fde45a" d="M 268.5,101.5 C 276.558,106.981 280.225,114.648 279.5,124.5C 278.004,129.828 275.671,134.828 272.5,139.5C 271.395,140.6 270.062,141.267 268.5,141.5C 253.851,128.256 253.851,114.923 268.5,101.5 Z"/></g>
<g><path style="opacity:1" fill="#336699" d="M 426.5,109.5 C 438.838,109.333 451.171,109.5 463.5,110C 461.859,111.129 460.859,112.629 460.5,114.5C 459.5,241.332 459.167,368.332 459.5,495.5C 446.833,495.5 434.167,495.5 421.5,495.5C 421.5,368.167 421.5,240.833 421.5,113.5C 421.967,110.703 423.633,109.369 426.5,109.5 Z"/></g>
<g><path style="opacity:0.976" fill="#3387db" d="M 426.5,109.5 C 443.662,108.338 460.995,108.171 478.5,109C 481.767,108.937 483.934,110.437 485,113.5C 485.5,240.833 485.667,368.166 485.5,495.5C 492.589,495.116 499.589,495.616 506.5,497C 509.394,499.909 510.227,503.409 509,507.5C 508.31,509.35 507.144,510.684 505.5,511.5C 338.833,511.5 172.167,511.5 5.5,511.5C 1.75934,508.444 0.592672,504.444 2,499.5C 2.83333,498.667 3.66667,497.833 4.5,497C 11.4112,495.616 18.4112,495.116 25.5,495.5C 47.1667,496.833 68.8333,496.833 90.5,495.5C 101.833,495.5 113.167,495.5 124.5,495.5C 137.656,496.496 150.99,496.829 164.5,496.5C 172.918,496.802 181.252,496.469 189.5,495.5C 200.833,495.5 212.167,495.5 223.5,495.5C 244.833,496.833 266.167,496.833 287.5,495.5C 298.833,495.5 310.167,495.5 321.5,495.5C 321.833,495.5 322.167,495.5 322.5,495.5C 343.833,496.833 365.167,496.833 386.5,495.5C 397.833,495.5 409.167,495.5 420.5,495.5C 433.656,496.496 446.99,496.829 460.5,496.5C 460.5,369.167 460.5,241.833 460.5,114.5C 460.859,112.629 461.859,111.129 463.5,110C 451.171,109.5 438.838,109.333 426.5,109.5 Z"/></g>
<g><path style="opacity:1" fill="#3370ac" d="M 421.5,113.5 C 421.5,240.833 421.5,368.167 421.5,495.5C 434.167,495.5 446.833,495.5 459.5,495.5C 459.167,368.332 459.5,241.332 460.5,114.5C 460.5,241.833 460.5,369.167 460.5,496.5C 446.99,496.829 433.656,496.496 420.5,495.5C 420.167,367.999 420.5,240.666 421.5,113.5 Z"/></g>
<g><path style="opacity:0.95" fill="#b1dbfb" d="M 279.5,124.5 C 298.55,134.692 317.883,144.358 337.5,153.5C 336.25,155.932 334.75,158.266 333,160.5C 332.059,163.154 331.226,165.821 330.5,168.5C 311.167,158.833 291.833,149.167 272.5,139.5C 275.671,134.828 278.004,129.828 279.5,124.5 Z"/></g>
<g><path style="opacity:0.979" fill="#b1dbfb" d="M 233.5,132.5 C 237.167,136.833 241.167,140.833 245.5,144.5C 223.167,166.5 200.833,188.5 178.5,210.5C 176.167,206.833 173.167,203.833 169.5,201.5C 168.306,200.728 167.306,199.728 166.5,198.5C 188.833,176.5 211.167,154.5 233.5,132.5 Z"/></g>
<g><path style="opacity:1" fill="#02ba67" d="M 359.5,147.5 C 361.25,148.87 363.25,149.87 365.5,150.5C 365.649,151.552 365.483,152.552 365,153.5C 355.313,163.056 353.979,173.723 361,185.5C 363.04,187.37 364.873,189.37 366.5,191.5C 354.861,197.887 344.361,196.22 335,186.5C 331.345,181.036 329.845,175.036 330.5,168.5C 331.226,165.821 332.059,163.154 333,160.5C 334.75,158.266 336.25,155.932 337.5,153.5C 343.917,148.477 351.25,146.477 359.5,147.5 Z"/></g>
<g><path style="opacity:0.976" fill="#42cb8e" d="M 365.5,150.5 C 368.167,152.5 370.833,154.5 373.5,156.5C 379.892,166.008 380.059,175.675 374,185.5C 371.894,188.118 369.394,190.118 366.5,191.5C 364.873,189.37 363.04,187.37 361,185.5C 353.979,173.723 355.313,163.056 365,153.5C 365.483,152.552 365.649,151.552 365.5,150.5 Z"/></g>
<g><path style="opacity:1" fill="#7b7b7b" d="M 166.5,198.5 C 167.306,199.728 168.306,200.728 169.5,201.5C 159.564,208.939 156.731,218.606 161,230.5C 163.356,234.34 165.856,238.006 168.5,241.5C 158.358,246.153 148.691,245.153 139.5,238.5C 136.337,233.843 134.004,228.843 132.5,223.5C 134.244,202.086 145.577,193.753 166.5,198.5 Z"/></g>
<g><path style="opacity:0.98" fill="#aca1a1" d="M 169.5,201.5 C 173.167,203.833 176.167,206.833 178.5,210.5C 183.545,223.696 180.211,234.03 168.5,241.5C 165.856,238.006 163.356,234.34 161,230.5C 156.731,218.606 159.564,208.939 169.5,201.5 Z"/></g>
<g><path style="opacity:0.992" fill="#fde458" d="M 267.5,208.5 C 273.176,208.334 278.843,208.501 284.5,209C 285.333,209.833 286.167,210.667 287,211.5C 287.5,306.166 287.667,400.833 287.5,495.5C 266.167,496.833 244.833,496.833 223.5,495.5C 236.5,495.5 249.5,495.5 262.5,495.5C 262.333,401.499 262.5,307.499 263,213.5C 264.025,211.313 265.525,209.646 267.5,208.5 Z"/></g>
<g><path style="opacity:1" fill="#ffd301" d="M 267.5,208.5 C 265.525,209.646 264.025,211.313 263,213.5C 262.5,307.499 262.333,401.499 262.5,495.5C 249.5,495.5 236.5,495.5 223.5,495.5C 223.333,400.833 223.5,306.166 224,211.5C 224.833,210.667 225.667,209.833 226.5,209C 240.163,208.5 253.829,208.333 267.5,208.5 Z"/></g>
<g><path style="opacity:0.963" fill="#b1dafb" d="M 132.5,223.5 C 134.004,228.843 136.337,233.843 139.5,238.5C 120.14,248.18 100.807,257.847 81.5,267.5C 80.5039,261.843 78.1705,256.843 74.5,252.5C 93.8068,242.847 113.14,233.18 132.5,223.5 Z"/></g>
<g><path style="opacity:1" fill="#d9578c" d="M 70.5,249.5 C 57.1717,263.127 57.1717,276.794 70.5,290.5C 62.4025,295.63 54.0692,295.797 45.5,291C 34.7291,283.348 31.5625,273.181 36,260.5C 44.154,246.505 55.654,242.838 70.5,249.5 Z"/></g>
<g><path style="opacity:0.987" fill="#f45395" d="M 70.5,249.5 C 71.8333,250.5 73.1667,251.5 74.5,252.5C 78.1705,256.843 80.5039,261.843 81.5,267.5C 82.943,277.614 79.2763,285.281 70.5,290.5C 57.1717,276.794 57.1717,263.127 70.5,249.5 Z"/></g>
<g><path style="opacity:1" fill="#01ba66" d="M 365.5,258.5 C 363.856,259.316 362.69,260.65 362,262.5C 361.5,340.166 361.333,417.833 361.5,495.5C 348.5,495.5 335.5,495.5 322.5,495.5C 322.167,495.5 321.833,495.5 321.5,495.5C 321.333,418.166 321.5,340.833 322,263.5C 322.273,261.671 323.107,260.171 324.5,259C 338.163,258.5 351.829,258.333 365.5,258.5 Z"/></g>
<g><path style="opacity:0.982" fill="#42ca8d" d="M 365.5,258.5 C 371.509,258.334 377.509,258.501 383.5,259C 384.333,259.833 385.167,260.667 386,261.5C 386.5,339.499 386.667,417.499 386.5,495.5C 365.167,496.833 343.833,496.833 322.5,495.5C 335.5,495.5 348.5,495.5 361.5,495.5C 361.333,417.833 361.5,340.166 362,262.5C 362.69,260.65 363.856,259.316 365.5,258.5 Z"/></g>
<g><path style="opacity:0.963" fill="#aca1a1" d="M 168.5,307.5 C 174.176,307.334 179.843,307.501 185.5,308C 187.487,309.319 188.654,311.152 189,313.5C 189.5,374.166 189.667,434.832 189.5,495.5C 181.252,496.469 172.918,496.802 164.5,496.5C 164.333,434.832 164.5,373.166 165,311.5C 166.102,310.051 167.269,308.718 168.5,307.5 Z"/></g>
<g><path style="opacity:1" fill="#7a7a7a" d="M 168.5,307.5 C 167.269,308.718 166.102,310.051 165,311.5C 164.5,373.166 164.333,434.832 164.5,496.5C 150.99,496.829 137.656,496.496 124.5,495.5C 124.333,434.166 124.5,372.832 125,311.5C 125.5,309.667 126.667,308.5 128.5,308C 141.829,307.5 155.163,307.333 168.5,307.5 Z"/></g>
<g><path style="opacity:1" fill="#d8588c" d="M 70.5,356.5 C 68.8968,357.596 67.3968,358.93 66,360.5C 65.5,405.499 65.3333,450.499 65.5,495.5C 73.8333,495.5 82.1667,495.5 90.5,495.5C 68.8333,496.833 47.1667,496.833 25.5,495.5C 25.3333,450.832 25.5,406.165 26,361.5C 26.935,358.898 28.7683,357.398 31.5,357C 44.4957,356.5 57.4957,356.333 70.5,356.5 Z"/></g>
<g><path style="opacity:0.999" fill="#f45295" d="M 70.5,356.5 C 76.2617,356.149 81.9284,356.649 87.5,358C 88.7014,358.903 89.5348,360.069 90,361.5C 90.5,406.165 90.6667,450.832 90.5,495.5C 82.1667,495.5 73.8333,495.5 65.5,495.5C 65.3333,450.499 65.5,405.499 66,360.5C 67.3968,358.93 68.8968,357.596 70.5,356.5 Z"/></g>
</svg>
