<?xml version="1.0" encoding="UTF-8"?>
<!DOCTYPE svg PUBLIC "-//W3C//DTD SVG 1.1//EN" "http://www.w3.org/Graphics/SVG/1.1/DTD/svg11.dtd">
<svg xmlns="http://www.w3.org/2000/svg" version="1.1" width="512px" height="512px" style="shape-rendering:geometricPrecision; text-rendering:geometricPrecision; image-rendering:optimizeQuality; fill-rule:evenodd; clip-rule:evenodd" xmlns:xlink="http://www.w3.org/1999/xlink">
<g><path style="opacity:1" fill="#d3dcfa" d="M 133.5,-0.5 C 138.167,-0.5 142.833,-0.5 147.5,-0.5C 153.813,2.31434 158.313,6.98101 161,13.5C 162.274,20.1028 162.774,26.7695 162.5,33.5C 161.507,42.3178 161.173,51.3178 161.5,60.5C 162.02,65.8515 161.02,70.8515 158.5,75.5C 152.135,83.5673 143.802,86.4007 133.5,84C 131.416,83.3028 129.749,82.1361 128.5,80.5C 132.742,78.0614 135.575,74.3947 137,69.5C 137.667,51.1667 137.667,32.8333 137,14.5C 135.142,9.80901 132.309,5.80901 128.5,2.5C 130.072,1.31271 131.739,0.312714 133.5,-0.5 Z"/></g>
<g><path style="opacity:1" fill="#d3dbf9" d="M 329.5,-0.5 C 334.167,-0.5 338.833,-0.5 343.5,-0.5C 349.424,2.25536 353.924,6.58869 357,12.5C 358.339,19.4264 358.839,26.4264 358.5,33.5C 358.5,42.1667 358.5,50.8333 358.5,59.5C 358.727,65.2582 357.394,70.5915 354.5,75.5C 348.214,83.9608 339.881,86.7941 329.5,84C 327.416,83.3028 325.749,82.1361 324.5,80.5C 326.716,79.7974 328.549,78.4641 330,76.5C 331.725,73.326 333.058,69.9927 334,66.5C 334.667,49.8333 334.667,33.1667 334,16.5C 332.14,10.8309 328.973,6.16428 324.5,2.5C 326.368,1.73685 328.035,0.736849 329.5,-0.5 Z"/></g>
<g><path style="opacity:0.988" fill="#ebf2f9" d="M 128.5,2.5 C 132.309,5.80901 135.142,9.80901 137,14.5C 137.667,32.8333 137.667,51.1667 137,69.5C 135.575,74.3947 132.742,78.0614 128.5,80.5C 125.885,79.5501 123.885,77.8835 122.5,75.5C 119.918,70.5063 118.585,65.173 118.5,59.5C 118.5,50.8333 118.5,42.1667 118.5,33.5C 118.334,27.4908 118.501,21.4908 119,15.5C 120.456,9.88316 123.622,5.54982 128.5,2.5 Z"/></g>
<g><path style="opacity:0.987" fill="#eaf4fb" d="M 324.5,2.5 C 328.973,6.16428 332.14,10.8309 334,16.5C 334.667,33.1667 334.667,49.8333 334,66.5C 333.058,69.9927 331.725,73.326 330,76.5C 328.549,78.4641 326.716,79.7974 324.5,80.5C 321.865,79.5265 319.865,77.8598 318.5,75.5C 316.119,70.8021 315.119,65.8021 315.5,60.5C 315.827,51.3178 315.493,42.3178 314.5,33.5C 314.171,26.7586 314.671,20.092 316,13.5C 317.521,8.81294 320.355,5.14627 324.5,2.5 Z"/></g>
<g><path style="opacity:0.998" fill="#fe4055" d="M 118.5,33.5 C 118.5,42.1667 118.5,50.8333 118.5,59.5C 111.385,59.0753 104.385,59.5753 97.5,61C 93.2207,66.033 93.5541,70.6997 98.5,75C 106.493,75.4997 114.493,75.6664 122.5,75.5C 123.885,77.8835 125.885,79.5501 128.5,80.5C 129.749,82.1361 131.416,83.3028 133.5,84C 143.802,86.4007 152.135,83.5673 158.5,75.5C 166.174,75.6664 173.841,75.4997 181.5,75C 188.433,69.5795 188.1,64.5795 180.5,60C 174.085,59.2098 167.752,59.3765 161.5,60.5C 161.173,51.3178 161.507,42.3178 162.5,33.5C 213.167,33.5 263.833,33.5 314.5,33.5C 315.493,42.3178 315.827,51.3178 315.5,60.5C 309.248,59.3765 302.915,59.2098 296.5,60C 289.328,64.0424 288.661,69.0424 294.5,75C 302.493,75.4997 310.493,75.6664 318.5,75.5C 319.865,77.8598 321.865,79.5265 324.5,80.5C 325.749,82.1361 327.416,83.3028 329.5,84C 339.881,86.7941 348.214,83.9608 354.5,75.5C 362.174,75.6664 369.841,75.4997 377.5,75C 382.916,71.7973 383.916,67.464 380.5,62C 379.167,61.3333 377.833,60.6667 376.5,60C 370.509,59.5005 364.509,59.3338 358.5,59.5C 358.5,50.8333 358.5,42.1667 358.5,33.5C 374.5,33.5 390.5,33.5 406.5,33.5C 421.528,36.6899 431.361,45.6899 436,60.5C 436.5,77.4967 436.667,94.4967 436.5,111.5C 296.5,111.5 156.5,111.5 16.5,111.5C 16.3334,94.1635 16.5001,76.8301 17,59.5C 20.8333,46.3333 29.3333,37.8333 42.5,34C 67.8311,33.5 93.1645,33.3334 118.5,33.5 Z"/></g>
<g><path style="opacity:1" fill="#e80054" d="M 406.5,33.5 C 415.839,33.3335 425.173,33.5002 434.5,34C 448.109,37.9419 456.609,46.7752 460,60.5C 460.5,91.4982 460.667,122.498 460.5,153.5C 452.5,153.5 444.5,153.5 436.5,153.5C 436.5,144.5 436.5,135.5 436.5,126.5C 296.5,126.5 156.5,126.5 16.5,126.5C 16.5,121.5 16.5,116.5 16.5,111.5C 156.5,111.5 296.5,111.5 436.5,111.5C 436.667,94.4967 436.5,77.4967 436,60.5C 431.361,45.6899 421.528,36.6899 406.5,33.5 Z"/></g>
<g><path style="opacity:1" fill="#e80554" d="M 118.5,59.5 C 118.585,65.173 119.918,70.5063 122.5,75.5C 114.493,75.6664 106.493,75.4997 98.5,75C 93.5541,70.6997 93.2207,66.033 97.5,61C 104.385,59.5753 111.385,59.0753 118.5,59.5 Z"/></g>
<g><path style="opacity:1" fill="#e80454" d="M 158.5,75.5 C 161.02,70.8515 162.02,65.8515 161.5,60.5C 167.752,59.3765 174.085,59.2098 180.5,60C 188.1,64.5795 188.433,69.5795 181.5,75C 173.841,75.4997 166.174,75.6664 158.5,75.5 Z"/></g>
<g><path style="opacity:1" fill="#e80755" d="M 315.5,60.5 C 315.119,65.8021 316.119,70.8021 318.5,75.5C 310.493,75.6664 302.493,75.4997 294.5,75C 288.661,69.0424 289.328,64.0424 296.5,60C 302.915,59.2098 309.248,59.3765 315.5,60.5 Z"/></g>
<g><path style="opacity:1" fill="#e80354" d="M 358.5,59.5 C 364.509,59.3338 370.509,59.5005 376.5,60C 377.833,60.6667 379.167,61.3333 380.5,62C 383.916,67.464 382.916,71.7973 377.5,75C 369.841,75.4997 362.174,75.6664 354.5,75.5C 357.394,70.5915 358.727,65.2582 358.5,59.5 Z"/></g>
<g><path style="opacity:1" fill="#fe4457" d="M 16.5,126.5 C 156.5,126.5 296.5,126.5 436.5,126.5C 436.5,135.5 436.5,144.5 436.5,153.5C 296.5,153.5 156.5,153.5 16.5,153.5C 16.5,144.5 16.5,135.5 16.5,126.5 Z"/></g>
<g><path style="opacity:1" fill="#eaf4fb" d="M 16.5,153.5 C 156.5,153.5 296.5,153.5 436.5,153.5C 436.5,194.167 436.5,234.833 436.5,275.5C 412.323,260.67 385.989,254.003 357.5,255.5C 332.486,257.683 309.82,266.016 289.5,280.5C 289.666,273.825 289.5,267.158 289,260.5C 288.535,259.069 287.701,257.903 286.5,257C 278.611,255.565 270.611,255.065 262.5,255.5C 259.944,256.543 257.777,258.21 256,260.5C 255.333,268.167 255.333,275.833 256,283.5C 256.992,286.323 258.825,288.323 261.5,289.5C 267.5,289.5 273.5,289.5 279.5,289.5C 250.4,317.426 236.733,351.76 238.5,392.5C 174.499,392.667 110.499,392.5 46.5,392C 29.9911,388.657 19.9911,378.824 16.5,362.5C 16.5,292.833 16.5,223.167 16.5,153.5 Z"/></g>
<g><path style="opacity:1" fill="#d3dcfb" d="M 436.5,153.5 C 444.5,153.5 452.5,153.5 460.5,153.5C 460.5,200.833 460.5,248.167 460.5,295.5C 452.767,288.427 444.767,281.76 436.5,275.5C 436.5,234.833 436.5,194.167 436.5,153.5 Z"/></g>
<g><path style="opacity:1" fill="#2a428c" d="M 56.5,187.5 C 64.5069,187.334 72.5069,187.5 80.5,188C 81.6667,189.167 82.8333,190.333 84,191.5C 84.6667,200.167 84.6667,208.833 84,217.5C 83.1667,218.333 82.3333,219.167 81.5,220C 73.6112,221.435 65.6112,221.935 57.5,221.5C 58.412,219.405 59.5787,217.405 61,215.5C 61.6667,208.167 61.6667,200.833 61,193.5C 59.668,191.34 58.168,189.34 56.5,187.5 Z"/></g>
<g><path style="opacity:1" fill="#2b438d" d="M 125.5,187.5 C 133.943,187.062 142.277,187.562 150.5,189C 151.211,190.255 152.044,191.421 153,192.5C 153.667,200.167 153.667,207.833 153,215.5C 152.215,217.286 151.049,218.786 149.5,220C 141.946,221.432 134.279,221.932 126.5,221.5C 125.876,219.495 126.71,217.828 129,216.5C 129.667,208.5 129.667,200.5 129,192.5C 128.003,190.677 126.836,189.01 125.5,187.5 Z"/></g>
<g><path style="opacity:1" fill="#2b428c" d="M 193.5,187.5 C 201.943,187.062 210.277,187.562 218.5,189C 219.701,189.903 220.535,191.069 221,192.5C 221.667,200.5 221.667,208.5 221,216.5C 219.833,218.333 218.333,219.833 216.5,221C 209.174,221.5 201.841,221.666 194.5,221.5C 194.389,220.883 194.056,220.383 193.5,220C 195.333,219.5 196.5,218.333 197,216.5C 197.667,208.167 197.667,199.833 197,191.5C 195.624,190.295 194.458,188.962 193.5,187.5 Z"/></g>
<g><path style="opacity:1" fill="#2a428c" d="M 261.5,187.5 C 269.507,187.334 277.507,187.5 285.5,188C 286.667,189.167 287.833,190.333 289,191.5C 289.667,199.833 289.667,208.167 289,216.5C 288.535,217.931 287.701,219.097 286.5,220C 278.611,221.435 270.611,221.935 262.5,221.5C 263.072,219.745 263.906,218.078 265,216.5C 265.667,208.167 265.667,199.833 265,191.5C 263.624,190.295 262.458,188.962 261.5,187.5 Z"/></g>
<g><path style="opacity:1" fill="#2d448d" d="M 329.5,187.5 C 337.507,187.334 345.507,187.5 353.5,188C 357.973,192.322 359.639,197.655 358.5,204C 358.333,207.5 358.167,211 358,214.5C 357.654,216.848 356.487,218.681 354.5,220C 346.611,221.435 338.611,221.935 330.5,221.5C 331.412,219.405 332.579,217.405 334,215.5C 334.667,208.167 334.667,200.833 334,193.5C 333.021,191.032 331.521,189.032 329.5,187.5 Z"/></g>
<g><path style="opacity:1" fill="#2b438c" d="M 398.5,187.5 C 406.943,187.062 415.277,187.562 423.5,189C 424.701,189.903 425.535,191.069 426,192.5C 426.667,200.167 426.667,207.833 426,215.5C 425.215,217.286 424.049,218.786 422.5,220C 414.946,221.432 407.279,221.932 399.5,221.5C 399.389,220.883 399.056,220.383 398.5,220C 400.487,218.681 401.654,216.848 402,214.5C 402.667,207.167 402.667,199.833 402,192.5C 401.003,190.677 399.836,189.01 398.5,187.5 Z"/></g>
<g><path style="opacity:1" fill="#3f5aa1" d="M 56.5,187.5 C 58.168,189.34 59.668,191.34 61,193.5C 61.6667,200.833 61.6667,208.167 61,215.5C 59.5787,217.405 58.412,219.405 57.5,221.5C 54.5512,220.386 52.3845,218.386 51,215.5C 50.3333,207.833 50.3333,200.167 51,192.5C 52.0545,189.944 53.8878,188.277 56.5,187.5 Z"/></g>
<g><path style="opacity:1" fill="#3c58a0" d="M 125.5,187.5 C 126.836,189.01 128.003,190.677 129,192.5C 129.667,200.5 129.667,208.5 129,216.5C 126.71,217.828 125.876,219.495 126.5,221.5C 123.805,221.067 121.638,219.734 120,217.5C 119.333,208.833 119.333,200.167 120,191.5C 121.412,189.548 123.245,188.215 125.5,187.5 Z"/></g>
<g><path style="opacity:1" fill="#3d58a0" d="M 193.5,187.5 C 194.458,188.962 195.624,190.295 197,191.5C 197.667,199.833 197.667,208.167 197,216.5C 196.5,218.333 195.333,219.5 193.5,220C 194.056,220.383 194.389,220.883 194.5,221.5C 191.325,221.16 189.159,219.493 188,216.5C 187.333,208.167 187.333,199.833 188,191.5C 189.451,189.536 191.284,188.203 193.5,187.5 Z"/></g>
<g><path style="opacity:1" fill="#3d59a0" d="M 261.5,187.5 C 262.458,188.962 263.624,190.295 265,191.5C 265.667,199.833 265.667,208.167 265,216.5C 263.906,218.078 263.072,219.745 262.5,221.5C 259.247,220.749 257.08,218.749 256,215.5C 255.333,207.833 255.333,200.167 256,192.5C 257.055,189.944 258.888,188.277 261.5,187.5 Z"/></g>
<g><path style="opacity:1" fill="#405ba1" d="M 329.5,187.5 C 331.521,189.032 333.021,191.032 334,193.5C 334.667,200.833 334.667,208.167 334,215.5C 332.579,217.405 331.412,219.405 330.5,221.5C 327.551,220.386 325.385,218.386 324,215.5C 323.333,207.833 323.333,200.167 324,192.5C 325.055,189.944 326.888,188.277 329.5,187.5 Z"/></g>
<g><path style="opacity:1" fill="#3c58a0" d="M 398.5,187.5 C 399.836,189.01 401.003,190.677 402,192.5C 402.667,199.833 402.667,207.167 402,214.5C 401.654,216.848 400.487,218.681 398.5,220C 399.056,220.383 399.389,220.883 399.5,221.5C 396.805,221.067 394.638,219.734 393,217.5C 392.333,208.833 392.333,200.167 393,191.5C 394.451,189.536 396.284,188.203 398.5,187.5 Z"/></g>
<g><path style="opacity:1" fill="#2a428c" d="M 57.5,255.5 C 65.6112,255.065 73.6112,255.565 81.5,257C 82.3333,257.833 83.1667,258.667 84,259.5C 84.6667,268.167 84.6667,276.833 84,285.5C 82.8333,286.667 81.6667,287.833 80.5,289C 72.5069,289.5 64.5069,289.666 56.5,289.5C 60.9732,284.82 62.6398,279.154 61.5,272.5C 61.3333,268.833 61.1667,265.167 61,261.5C 59.5787,259.595 58.412,257.595 57.5,255.5 Z"/></g>
<g><path style="opacity:1" fill="#2b438c" d="M 125.5,255.5 C 133.174,255.334 140.841,255.5 148.5,256C 150.378,257.543 151.878,259.376 153,261.5C 153.667,268.833 153.667,276.167 153,283.5C 152.293,285.081 151.46,286.581 150.5,288C 142.277,289.438 133.943,289.938 125.5,289.5C 126.421,287.731 127.588,286.065 129,284.5C 129.667,276.5 129.667,268.5 129,260.5C 127.588,258.935 126.421,257.269 125.5,255.5 Z"/></g>
<g><path style="opacity:1" fill="#2b428c" d="M 193.5,255.5 C 201.943,255.062 210.277,255.562 218.5,257C 219.701,257.903 220.535,259.069 221,260.5C 221.667,268.5 221.667,276.5 221,284.5C 220.535,285.931 219.701,287.097 218.5,288C 210.277,289.438 201.943,289.938 193.5,289.5C 194.836,287.99 196.003,286.323 197,284.5C 197.667,276.5 197.667,268.5 197,260.5C 196.003,258.677 194.836,257.01 193.5,255.5 Z"/></g>
<g><path style="opacity:1" fill="#2a428c" d="M 262.5,255.5 C 270.611,255.065 278.611,255.565 286.5,257C 287.701,257.903 288.535,259.069 289,260.5C 289.5,267.158 289.666,273.825 289.5,280.5C 286.192,283.471 282.859,286.471 279.5,289.5C 273.5,289.5 267.5,289.5 261.5,289.5C 262.458,288.038 263.624,286.705 265,285.5C 265.667,276.833 265.667,268.167 265,259.5C 263.519,258.529 262.685,257.196 262.5,255.5 Z"/></g>
<g><path style="opacity:1" fill="#1a87ea" d="M 357.5,255.5 C 385.989,254.003 412.323,260.67 436.5,275.5C 444.767,281.76 452.767,288.427 460.5,295.5C 494.253,334.646 503.086,378.98 487,428.5C 467.321,475.355 432.488,503.021 382.5,511.5C 373.5,511.5 364.5,511.5 355.5,511.5C 417.407,501.428 455.24,465.761 469,404.5C 475.738,348.655 455.905,305.155 409.5,274C 393.059,264.911 375.726,258.745 357.5,255.5 Z"/></g>
<g><path style="opacity:1" fill="#405aa1" d="M 57.5,255.5 C 58.412,257.595 59.5787,259.595 61,261.5C 61.1667,265.167 61.3333,268.833 61.5,272.5C 62.6398,279.154 60.9732,284.82 56.5,289.5C 53.5392,288.607 51.7059,286.607 51,283.5C 50.3333,275.833 50.3333,268.167 51,260.5C 52.5579,257.979 54.7245,256.312 57.5,255.5 Z"/></g>
<g><path style="opacity:1" fill="#3c58a0" d="M 125.5,255.5 C 126.421,257.269 127.588,258.935 129,260.5C 129.667,268.5 129.667,276.5 129,284.5C 127.588,286.065 126.421,287.731 125.5,289.5C 123.284,288.797 121.451,287.464 120,285.5C 119.333,276.833 119.333,268.167 120,259.5C 121.432,257.561 123.265,256.228 125.5,255.5 Z"/></g>
<g><path style="opacity:1" fill="#3c58a0" d="M 193.5,255.5 C 194.836,257.01 196.003,258.677 197,260.5C 197.667,268.5 197.667,276.5 197,284.5C 196.003,286.323 194.836,287.99 193.5,289.5C 190.888,288.723 189.055,287.056 188,284.5C 187.333,276.5 187.333,268.5 188,260.5C 189.055,257.944 190.888,256.277 193.5,255.5 Z"/></g>
<g><path style="opacity:1" fill="#3d59a0" d="M 262.5,255.5 C 262.685,257.196 263.519,258.529 265,259.5C 265.667,268.167 265.667,276.833 265,285.5C 263.624,286.705 262.458,288.038 261.5,289.5C 258.825,288.323 256.992,286.323 256,283.5C 255.333,275.833 255.333,268.167 256,260.5C 257.777,258.21 259.944,256.543 262.5,255.5 Z"/></g>
<g><path style="opacity:0.997" fill="#4fabf6" d="M 357.5,255.5 C 375.726,258.745 393.059,264.911 409.5,274C 455.905,305.155 475.738,348.655 469,404.5C 455.24,465.761 417.407,501.428 355.5,511.5C 353.833,511.5 352.167,511.5 350.5,511.5C 299.588,502.871 264.588,474.538 245.5,426.5C 241.923,415.433 239.59,404.1 238.5,392.5C 236.733,351.76 250.4,317.426 279.5,289.5C 282.859,286.471 286.192,283.471 289.5,280.5C 309.82,266.016 332.486,257.683 357.5,255.5 Z"/></g>
<g><path style="opacity:1" fill="#d2dcfa" d="M 354.5,290.5 C 399.888,286.947 432.722,305.614 453,346.5C 469.574,395.061 457.074,434.228 415.5,464C 396.415,475.064 376.082,479.231 354.5,476.5C 390.112,470.776 415.278,451.443 430,418.5C 445.526,370.41 432.692,331.91 391.5,303C 379.923,296.53 367.589,292.363 354.5,290.5 Z"/></g>
<g><path style="opacity:1" fill="#eaf4fb" d="M 354.5,290.5 C 367.589,292.363 379.923,296.53 391.5,303C 432.692,331.91 445.526,370.41 430,418.5C 415.278,451.443 390.112,470.776 354.5,476.5C 318.656,470.489 293.49,450.822 279,417.5C 263.888,368.832 277.388,330.332 319.5,302C 330.358,295.658 342.025,291.825 354.5,290.5 Z"/></g>
<g><path style="opacity:1" fill="#425da2" d="M 373.5,367.5 C 368.833,366.167 364.167,366.167 359.5,367.5C 358.339,352.339 358.172,337.006 359,321.5C 361.913,316.311 366.08,315.144 371.5,318C 372.701,318.903 373.535,320.069 374,321.5C 374.828,337.006 374.661,352.339 373.5,367.5 Z"/></g>
<g><path style="opacity:1" fill="#3f5aa0" d="M 79.5,324.5 C 72.1591,324.334 64.8258,324.5 57.5,325C 59.0488,326.214 60.2155,327.714 61,329.5C 61.6667,336.833 61.6667,344.167 61,351.5C 60.1959,354.146 58.6959,356.146 56.5,357.5C 53.8878,356.723 52.0545,355.056 51,352.5C 44.6602,326.671 54.1602,317.338 79.5,324.5 Z"/></g>
<g><path style="opacity:1" fill="#2d448d" d="M 79.5,324.5 C 81.7525,324.916 83.2525,326.249 84,328.5C 84.9424,337.602 84.6091,346.602 83,355.5C 81.5806,356.46 80.0806,357.293 78.5,358C 70.9882,358.822 63.6549,358.655 56.5,357.5C 58.6959,356.146 60.1959,354.146 61,351.5C 61.6667,344.167 61.6667,336.833 61,329.5C 60.2155,327.714 59.0488,326.214 57.5,325C 64.8258,324.5 72.1591,324.334 79.5,324.5 Z"/></g>
<g><path style="opacity:1" fill="#3d589f" d="M 147.5,324.5 C 140.159,324.334 132.826,324.5 125.5,325C 127.049,326.214 128.215,327.714 129,329.5C 129.667,337.167 129.667,344.833 129,352.5C 127.975,354.687 126.475,356.354 124.5,357.5C 122.292,356.977 120.792,355.644 120,353.5C 119.333,344.833 119.333,336.167 120,327.5C 121.214,325.951 122.714,324.785 124.5,324C 132.345,323.178 140.011,323.344 147.5,324.5 Z"/></g>
<g><path style="opacity:1" fill="#2d448e" d="M 147.5,324.5 C 150.091,325.254 151.924,326.921 153,329.5C 153.905,337.911 153.572,346.245 152,354.5C 150.421,356.041 148.587,357.208 146.5,358C 139.087,358.796 131.754,358.63 124.5,357.5C 126.475,356.354 127.975,354.687 129,352.5C 129.667,344.833 129.667,337.167 129,329.5C 128.215,327.714 127.049,326.214 125.5,325C 132.826,324.5 140.159,324.334 147.5,324.5 Z"/></g>
<g><path style="opacity:1" fill="#2d448d" d="M 215.5,324.5 C 217.716,325.203 219.549,326.536 221,328.5C 221.94,337.27 221.607,345.936 220,354.5C 218.681,356.487 216.848,357.654 214.5,358C 207.321,358.821 200.321,358.655 193.5,357.5C 194.836,355.99 196.003,354.323 197,352.5C 197.667,344.5 197.667,336.5 197,328.5C 196.167,327 195,325.833 193.5,325C 200.826,324.5 208.159,324.334 215.5,324.5 Z"/></g>
<g><path style="opacity:1" fill="#3d58a0" d="M 215.5,324.5 C 208.159,324.334 200.826,324.5 193.5,325C 195,325.833 196.167,327 197,328.5C 197.667,336.5 197.667,344.5 197,352.5C 196.003,354.323 194.836,355.99 193.5,357.5C 191.284,356.797 189.451,355.464 188,353.5C 187.058,344.398 187.391,335.398 189,326.5C 190.255,325.789 191.421,324.956 192.5,324C 200.345,323.178 208.011,323.344 215.5,324.5 Z"/></g>
<g><path style="opacity:0.989" fill="#d2dcfb" d="M 16.5,362.5 C 19.9911,378.824 29.9911,388.657 46.5,392C 110.499,392.5 174.499,392.667 238.5,392.5C 239.59,404.1 241.923,415.433 245.5,426.5C 176.788,426.987 108.122,426.487 39.5,425C 27.8097,420.645 20.3097,412.478 17,400.5C 16.5001,387.838 16.3334,375.171 16.5,362.5 Z"/></g>
<g><path style="opacity:1" fill="#fddc43" d="M 373.5,367.5 C 374.987,368.804 376.654,369.97 378.5,371C 379.697,373.015 381.03,374.849 382.5,376.5C 383.833,381.167 383.833,385.833 382.5,390.5C 375.702,401.129 366.702,403.295 355.5,397C 348.661,389.452 347.828,381.285 353,372.5C 354.965,370.45 357.132,368.783 359.5,367.5C 364.167,366.167 368.833,366.167 373.5,367.5 Z"/></g>
<g><path style="opacity:1" fill="#425da2" d="M 382.5,390.5 C 383.833,385.833 383.833,381.167 382.5,376.5C 391.991,375.342 401.658,375.175 411.5,376C 416.535,379.013 417.702,383.18 415,388.5C 414.097,389.701 412.931,390.535 411.5,391C 401.658,391.825 391.991,391.658 382.5,390.5 Z"/></g>
</svg>
