<?xml version="1.0" encoding="UTF-8"?>
<!DOCTYPE svg PUBLIC "-//W3C//DTD SVG 1.1//EN" "http://www.w3.org/Graphics/SVG/1.1/DTD/svg11.dtd">
<svg xmlns="http://www.w3.org/2000/svg" version="1.1" width="512px" height="512px" style="shape-rendering:geometricPrecision; text-rendering:geometricPrecision; image-rendering:optimizeQuality; fill-rule:evenodd; clip-rule:evenodd" xmlns:xlink="http://www.w3.org/1999/xlink">
<g><path style="opacity:1" fill="#4d4b6a" d="M 156.5,52.5 C 150.833,53.8333 145.167,53.8333 139.5,52.5C 139.83,45.4684 139.497,38.4684 138.5,31.5C 135.752,30.1871 132.919,29.1871 130,28.5C 127.081,29.1871 124.248,30.1871 121.5,31.5C 120.503,38.4684 120.17,45.4684 120.5,52.5C 120.5,62.8333 120.5,73.1667 120.5,83.5C 120.953,84.4584 121.619,85.2917 122.5,86C 126.54,86.9087 130.54,87.9087 134.5,89C 137.394,91.9087 138.227,95.4087 137,99.5C 134.868,102.316 132.035,103.649 128.5,103.5C 124.312,103.12 120.312,102.12 116.5,100.5C 110.398,98.066 106.398,93.7326 104.5,87.5C 104.5,67.5 104.5,47.5 104.5,27.5C 106.552,20.9452 110.886,16.4452 117.5,14C 148.821,8.15437 161.821,20.9877 156.5,52.5 Z M 139.5,52.5 C 133.167,52.5 126.833,52.5 120.5,52.5C 120.17,45.4684 120.503,38.4684 121.5,31.5C 124.248,30.1871 127.081,29.1871 130,28.5C 132.919,29.1871 135.752,30.1871 138.5,31.5C 139.497,38.4684 139.83,45.4684 139.5,52.5 Z"/></g>
<g><path style="opacity:1" fill="#4c4b6b" d="M 282.5,52.5 C 276.833,53.8333 271.167,53.8333 265.5,52.5C 265.666,45.825 265.5,39.1583 265,32.5C 262.347,30.0593 259.18,29.0593 255.5,29.5C 251.82,29.0593 248.653,30.0593 246,32.5C 245.5,39.1583 245.334,45.825 245.5,52.5C 245.5,62.8333 245.5,73.1667 245.5,83.5C 246.749,85.1361 248.416,86.3028 250.5,87C 253.956,87.1802 257.289,87.8468 260.5,89C 265.013,94.766 264.013,99.4326 257.5,103C 251.907,103.768 246.574,102.934 241.5,100.5C 235.797,98.2968 231.964,94.2968 230,88.5C 229.813,76.4245 229.313,64.4245 228.5,52.5C 228.334,44.8261 228.5,37.1594 229,29.5C 230.326,22.6818 234.16,17.8485 240.5,15C 250.5,11.6667 260.5,11.6667 270.5,15C 276.84,17.8485 280.674,22.6818 282,29.5C 282.5,37.1594 282.666,44.8261 282.5,52.5 Z M 265.5,52.5 C 258.833,52.5 252.167,52.5 245.5,52.5C 245.334,45.825 245.5,39.1583 246,32.5C 248.653,30.0593 251.82,29.0593 255.5,29.5C 259.18,29.0593 262.347,30.0593 265,32.5C 265.5,39.1583 265.666,45.825 265.5,52.5 Z"/></g>
<g><path style="opacity:1" fill="#4d4c6b" d="M 407.5,52.5 C 401.833,53.8333 396.167,53.8333 390.5,52.5C 390.83,45.4684 390.497,38.4684 389.5,31.5C 386.752,30.1871 383.919,29.1871 381,28.5C 378.081,29.1871 375.248,30.1871 372.5,31.5C 371.503,38.4684 371.17,45.4684 371.5,52.5C 371.5,52.8333 371.5,53.1667 371.5,53.5C 370.177,63.6742 370.177,74.0075 371.5,84.5C 375.914,86.6835 380.581,88.1835 385.5,89C 388.886,92.3731 389.386,96.2064 387,100.5C 383.662,103.318 379.829,104.151 375.5,103C 372.708,102.458 370.042,101.624 367.5,100.5C 361.487,97.9865 357.321,93.6531 355,87.5C 354.5,75.8381 354.333,64.1714 354.5,52.5C 349.179,20.9877 362.179,8.15437 393.5,14C 400.026,16.5257 404.526,21.0257 407,27.5C 407.5,35.8267 407.666,44.16 407.5,52.5 Z M 390.5,52.5 C 384.167,52.5 377.833,52.5 371.5,52.5C 371.17,45.4684 371.503,38.4684 372.5,31.5C 375.248,30.1871 378.081,29.1871 381,28.5C 383.919,29.1871 386.752,30.1871 389.5,31.5C 390.497,38.4684 390.83,45.4684 390.5,52.5 Z"/></g>
<g><path style="opacity:1" fill="#d22e2e" d="M 120.5,52.5 C 126.833,52.5 133.167,52.5 139.5,52.5C 145.167,53.8333 150.833,53.8333 156.5,52.5C 180.5,52.5 204.5,52.5 228.5,52.5C 229.313,64.4245 229.813,76.4245 230,88.5C 231.964,94.2968 235.797,98.2968 241.5,100.5C 246.384,110.106 253.717,112.606 263.5,108C 273.109,98.8497 272.775,90.1831 262.5,82C 256.537,79.7302 250.87,80.2302 245.5,83.5C 245.5,73.1667 245.5,62.8333 245.5,52.5C 252.167,52.5 258.833,52.5 265.5,52.5C 271.167,53.8333 276.833,53.8333 282.5,52.5C 306.5,52.5 330.5,52.5 354.5,52.5C 354.333,64.1714 354.5,75.8381 355,87.5C 357.321,93.6531 361.487,97.9865 367.5,100.5C 371.372,109.597 378.038,112.43 387.5,109C 395.453,103.685 397.619,96.5183 394,87.5C 387.726,80.0512 380.393,78.7179 372,83.5C 371.5,73.5056 371.334,63.5056 371.5,53.5C 371.5,53.1667 371.5,52.8333 371.5,52.5C 377.833,52.5 384.167,52.5 390.5,52.5C 396.167,53.8333 401.833,53.8333 407.5,52.5C 423.837,52.3334 440.17,52.5001 456.5,53C 472.946,54.6166 482.946,63.4499 486.5,79.5C 486.5,103.833 486.5,128.167 486.5,152.5C 332.5,152.5 178.5,152.5 24.5,152.5C 24.2133,126.812 24.5466,101.145 25.5,75.5C 29.974,61.3631 39.6407,54.0298 54.5,53.5C 70.8333,53.5 87.1667,53.5 103.5,53.5C 103.172,65.0123 103.505,76.3456 104.5,87.5C 106.398,93.7326 110.398,98.066 116.5,100.5C 121.182,110.229 128.516,112.729 138.5,108C 144.115,103.032 145.948,96.865 144,89.5C 138.007,80.2237 130.174,78.2237 120.5,83.5C 120.5,73.1667 120.5,62.8333 120.5,52.5 Z"/></g>
<g><path style="opacity:1" fill="#9e7482" d="M 104.5,27.5 C 104.5,47.5 104.5,67.5 104.5,87.5C 103.505,76.3456 103.172,65.0123 103.5,53.5C 87.1667,53.5 70.8333,53.5 54.5,53.5C 70.6581,52.5036 86.9915,52.1702 103.5,52.5C 103.174,43.9832 103.507,35.6499 104.5,27.5 Z"/></g>
<g><path style="opacity:1" fill="#ad201f" d="M 116.5,100.5 C 120.312,102.12 124.312,103.12 128.5,103.5C 132.035,103.649 134.868,102.316 137,99.5C 138.227,95.4087 137.394,91.9087 134.5,89C 130.54,87.9087 126.54,86.9087 122.5,86C 121.619,85.2917 120.953,84.4584 120.5,83.5C 130.174,78.2237 138.007,80.2237 144,89.5C 145.948,96.865 144.115,103.032 138.5,108C 128.516,112.729 121.182,110.229 116.5,100.5 Z"/></g>
<g><path style="opacity:1" fill="#ad201f" d="M 241.5,100.5 C 246.574,102.934 251.907,103.768 257.5,103C 264.013,99.4326 265.013,94.766 260.5,89C 257.289,87.8468 253.956,87.1802 250.5,87C 248.416,86.3028 246.749,85.1361 245.5,83.5C 250.87,80.2302 256.537,79.7302 262.5,82C 272.775,90.1831 273.109,98.8497 263.5,108C 253.717,112.606 246.384,110.106 241.5,100.5 Z"/></g>
<g><path style="opacity:1" fill="#ae2524" d="M 371.5,53.5 C 371.334,63.5056 371.5,73.5056 372,83.5C 380.393,78.7179 387.726,80.0512 394,87.5C 397.619,96.5183 395.453,103.685 387.5,109C 378.038,112.43 371.372,109.597 367.5,100.5C 370.042,101.624 372.708,102.458 375.5,103C 379.829,104.151 383.662,103.318 387,100.5C 389.386,96.2064 388.886,92.3731 385.5,89C 380.581,88.1835 375.914,86.6835 371.5,84.5C 370.177,74.0075 370.177,63.6742 371.5,53.5 Z"/></g>
<g><path style="opacity:0.667" fill="#db7070" d="M 25.5,75.5 C 24.5466,101.145 24.2133,126.812 24.5,152.5C 24.5,152.833 24.5,153.167 24.5,153.5C 24.1667,153.5 23.8333,153.5 23.5,153.5C 23.3334,128.831 23.5,104.164 24,79.5C 24.21,77.9419 24.71,76.6085 25.5,75.5 Z"/></g>
<g><path style="opacity:1" fill="#d44b4a" d="M 486.5,79.5 C 487.498,103.994 487.831,128.661 487.5,153.5C 487.167,153.5 486.833,153.5 486.5,153.5C 332.5,153.5 178.5,153.5 24.5,153.5C 24.5,153.167 24.5,152.833 24.5,152.5C 178.5,152.5 332.5,152.5 486.5,152.5C 486.5,128.167 486.5,103.833 486.5,79.5 Z"/></g>
<g><path style="opacity:1" fill="#dfdada" d="M 23.5,153.5 C 23.8333,153.5 24.1667,153.5 24.5,153.5C 24.5,157.5 24.5,161.5 24.5,165.5C 178.5,165.5 332.5,165.5 486.5,165.5C 486.5,161.5 486.5,157.5 486.5,153.5C 486.833,153.5 487.167,153.5 487.5,153.5C 487.5,157.833 487.5,162.167 487.5,166.5C 332.833,166.5 178.167,166.5 23.5,166.5C 23.5,162.167 23.5,157.833 23.5,153.5 Z"/></g>
<g><path style="opacity:1" fill="#d0c9c8" d="M 24.5,153.5 C 178.5,153.5 332.5,153.5 486.5,153.5C 486.5,157.5 486.5,161.5 486.5,165.5C 332.5,165.5 178.5,165.5 24.5,165.5C 24.5,161.5 24.5,157.5 24.5,153.5 Z"/></g>
<g><path style="opacity:1" fill="#e9e7e7" d="M 23.5,166.5 C 178.167,166.5 332.833,166.5 487.5,166.5C 487.5,243.833 487.5,321.167 487.5,398.5C 487.167,398.5 486.833,398.5 486.5,398.5C 464.831,398.333 443.164,398.5 421.5,399C 416.667,401.167 413.167,404.667 411,409.5C 410.5,431.164 410.333,452.831 410.5,474.5C 290.667,475.666 170.667,475.833 50.5,475C 35.8829,471.217 26.8829,462.051 23.5,447.5C 23.5,353.833 23.5,260.167 23.5,166.5 Z"/></g>
<g><path style="opacity:1" fill="#484868" d="M 130.5,196.5 C 132.596,198.433 134.096,200.767 135,203.5C 135.667,216.5 135.667,229.5 135,242.5C 133.668,244.66 132.168,246.66 130.5,248.5C 117.401,248.962 104.401,248.462 91.5,247C 90.1068,245.829 89.2735,244.329 89,242.5C 88.3333,228.833 88.3333,215.167 89,201.5C 89.9299,199.448 91.4299,197.948 93.5,197C 105.829,196.5 118.162,196.333 130.5,196.5 Z"/></g>
<g><path style="opacity:1" fill="#3f3e55" d="M 130.5,196.5 C 135.765,195.571 140.265,196.904 144,200.5C 145.133,207.733 145.633,215.066 145.5,222.5C 145.333,229.167 145.167,235.833 145,242.5C 144.315,245.057 142.815,246.891 140.5,248C 137.183,248.498 133.85,248.665 130.5,248.5C 132.168,246.66 133.668,244.66 135,242.5C 135.667,229.5 135.667,216.5 135,203.5C 134.096,200.767 132.596,198.433 130.5,196.5 Z"/></g>
<g><path style="opacity:1" fill="#494969" d="M 222.5,196.5 C 224.475,197.646 225.975,199.313 227,201.5C 227.667,215.5 227.667,229.5 227,243.5C 225.975,245.687 224.475,247.354 222.5,248.5C 210.162,248.667 197.829,248.5 185.5,248C 183.622,246.457 182.122,244.624 181,242.5C 180.333,229.167 180.333,215.833 181,202.5C 181.785,200.714 182.951,199.214 184.5,198C 197.067,196.539 209.734,196.039 222.5,196.5 Z"/></g>
<g><path style="opacity:1" fill="#3d3d54" d="M 222.5,196.5 C 225.85,196.335 229.183,196.502 232.5,197C 233.931,197.465 235.097,198.299 236,199.5C 237.135,207.067 237.635,214.734 237.5,222.5C 237.635,230.266 237.135,237.933 236,245.5C 235.097,246.701 233.931,247.535 232.5,248C 229.183,248.498 225.85,248.665 222.5,248.5C 224.475,247.354 225.975,245.687 227,243.5C 227.667,229.5 227.667,215.5 227,201.5C 225.975,199.313 224.475,197.646 222.5,196.5 Z"/></g>
<g><path style="opacity:1" fill="#484868" d="M 314.5,196.5 C 316.807,197.977 318.64,199.977 320,202.5C 320.667,215.5 320.667,228.5 320,241.5C 319.096,244.233 317.596,246.567 315.5,248.5C 302.401,248.962 289.401,248.462 276.5,247C 275.299,246.097 274.465,244.931 274,243.5C 273.333,229.5 273.333,215.5 274,201.5C 274.93,199.448 276.43,197.948 278.5,197C 290.495,196.5 302.495,196.333 314.5,196.5 Z"/></g>
<g><path style="opacity:1" fill="#403f56" d="M 314.5,196.5 C 317.85,196.335 321.183,196.502 324.5,197C 326.286,197.785 327.786,198.951 329,200.5C 330.133,207.733 330.633,215.066 330.5,222.5C 330.333,229.167 330.167,235.833 330,242.5C 329.315,245.057 327.815,246.891 325.5,248C 322.183,248.498 318.85,248.665 315.5,248.5C 317.596,246.567 319.096,244.233 320,241.5C 320.667,228.5 320.667,215.5 320,202.5C 318.64,199.977 316.807,197.977 314.5,196.5 Z"/></g>
<g><path style="opacity:1" fill="#d23231" d="M 411.5,199.5 C 422.497,198.985 425.664,203.652 421,213.5C 411.833,224 402.667,234.5 393.5,245C 390.5,247 387.5,247 384.5,245C 378.333,238.833 372.167,232.667 366,226.5C 363.491,217.339 366.991,213.505 376.5,215C 380.981,218.314 384.981,222.148 388.5,226.5C 396.412,217.655 404.078,208.655 411.5,199.5 Z"/></g>
<g><path style="opacity:1" fill="#484868" d="M 129.5,284.5 C 131.807,285.977 133.64,287.977 135,290.5C 135.667,303.833 135.667,317.167 135,330.5C 133.668,332.66 132.168,334.66 130.5,336.5C 117.401,336.962 104.401,336.462 91.5,335C 90.1068,333.829 89.2735,332.329 89,330.5C 88.3333,316.833 88.3333,303.167 89,289.5C 89.4652,288.069 90.2986,286.903 91.5,286C 104.067,284.539 116.734,284.039 129.5,284.5 Z"/></g>
<g><path style="opacity:1" fill="#3f3f56" d="M 129.5,284.5 C 133.182,284.335 136.848,284.501 140.5,285C 142.552,285.93 144.052,287.43 145,289.5C 145.667,303.167 145.667,316.833 145,330.5C 144.226,332.939 142.726,334.773 140.5,336C 137.183,336.498 133.85,336.665 130.5,336.5C 132.168,334.66 133.668,332.66 135,330.5C 135.667,317.167 135.667,303.833 135,290.5C 133.64,287.977 131.807,285.977 129.5,284.5 Z"/></g>
<g><path style="opacity:1" fill="#494969" d="M 221.5,284.5 C 224.06,285.22 225.893,286.887 227,289.5C 227.667,303.5 227.667,317.5 227,331.5C 225.975,333.687 224.475,335.354 222.5,336.5C 210.162,336.667 197.829,336.5 185.5,336C 183.622,334.457 182.122,332.624 181,330.5C 180.333,317.167 180.333,303.833 181,290.5C 182.122,288.376 183.622,286.543 185.5,285C 197.495,284.5 209.495,284.333 221.5,284.5 Z"/></g>
<g><path style="opacity:1" fill="#3d3d54" d="M 221.5,284.5 C 225.182,284.335 228.848,284.501 232.5,285C 233.931,285.465 235.097,286.299 236,287.5C 237.135,295.067 237.635,302.734 237.5,310.5C 237.635,318.266 237.135,325.933 236,333.5C 235.097,334.701 233.931,335.535 232.5,336C 229.183,336.498 225.85,336.665 222.5,336.5C 224.475,335.354 225.975,333.687 227,331.5C 227.667,317.5 227.667,303.5 227,289.5C 225.893,286.887 224.06,285.22 221.5,284.5 Z"/></g>
<g><path style="opacity:1" fill="#484868" d="M 313.5,284.5 C 316.397,285.558 318.564,287.558 320,290.5C 320.667,303.833 320.667,317.167 320,330.5C 318.64,333.023 316.807,335.023 314.5,336.5C 301.734,336.961 289.067,336.461 276.5,335C 275.299,334.097 274.465,332.931 274,331.5C 273.333,317.5 273.333,303.5 274,289.5C 274.465,288.069 275.299,286.903 276.5,286C 288.733,284.54 301.066,284.04 313.5,284.5 Z"/></g>
<g><path style="opacity:1" fill="#403f56" d="M 313.5,284.5 C 317.514,284.334 321.514,284.501 325.5,285C 327.726,286.227 329.226,288.061 330,290.5C 330.167,297.167 330.333,303.833 330.5,310.5C 330.633,317.934 330.133,325.267 329,332.5C 327.833,333.667 326.667,334.833 325.5,336C 321.848,336.499 318.182,336.665 314.5,336.5C 316.807,335.023 318.64,333.023 320,330.5C 320.667,317.167 320.667,303.833 320,290.5C 318.564,287.558 316.397,285.558 313.5,284.5 Z"/></g>
<g><path style="opacity:1" fill="#494968" d="M 406.5,284.5 C 409.06,285.22 410.893,286.887 412,289.5C 412.667,303.5 412.667,317.5 412,331.5C 410.975,333.687 409.475,335.354 407.5,336.5C 395.162,336.667 382.829,336.5 370.5,336C 368.622,334.457 367.122,332.624 366,330.5C 365.333,317.167 365.333,303.833 366,290.5C 367.122,288.376 368.622,286.543 370.5,285C 382.495,284.5 394.495,284.333 406.5,284.5 Z"/></g>
<g><path style="opacity:1" fill="#3d3d54" d="M 406.5,284.5 C 410.182,284.335 413.848,284.501 417.5,285C 418.931,285.465 420.097,286.299 421,287.5C 422.135,295.067 422.635,302.734 422.5,310.5C 422.635,318.266 422.135,325.933 421,333.5C 420.097,334.701 418.931,335.535 417.5,336C 414.183,336.498 410.85,336.665 407.5,336.5C 409.475,335.354 410.975,333.687 412,331.5C 412.667,317.5 412.667,303.5 412,289.5C 410.893,286.887 409.06,285.22 406.5,284.5 Z"/></g>
<g><path style="opacity:1" fill="#484868" d="M 130.5,372.5 C 132.168,374.34 133.668,376.34 135,378.5C 135.667,391.5 135.667,404.5 135,417.5C 134.062,420.598 132.228,422.931 129.5,424.5C 117.495,424.667 105.495,424.5 93.5,424C 91.2739,422.773 89.7739,420.939 89,418.5C 88.3333,404.833 88.3333,391.167 89,377.5C 89.4652,376.069 90.2986,374.903 91.5,374C 104.401,372.538 117.401,372.038 130.5,372.5 Z"/></g>
<g><path style="opacity:1" fill="#3f3f56" d="M 130.5,372.5 C 133.85,372.335 137.183,372.502 140.5,373C 142.552,373.93 144.052,375.43 145,377.5C 145.167,384.333 145.333,391.167 145.5,398C 145.634,405.6 145.134,413.1 144,420.5C 142.786,422.049 141.286,423.215 139.5,424C 136.183,424.498 132.85,424.665 129.5,424.5C 132.228,422.931 134.062,420.598 135,417.5C 135.667,404.5 135.667,391.5 135,378.5C 133.668,376.34 132.168,374.34 130.5,372.5 Z"/></g>
<g><path style="opacity:1" fill="#494969" d="M 222.5,372.5 C 224.475,373.646 225.975,375.313 227,377.5C 227.667,391.167 227.667,404.833 227,418.5C 226.727,420.329 225.893,421.829 224.5,423C 227.146,423.497 229.813,423.664 232.5,423.5C 217.339,424.661 202.006,424.828 186.5,424C 184,422.833 182.167,421 181,418.5C 180.036,404.406 180.369,390.406 182,376.5C 183.167,375.333 184.333,374.167 185.5,373C 197.829,372.5 210.162,372.333 222.5,372.5 Z"/></g>
<g><path style="opacity:1" fill="#3d3d54" d="M 222.5,372.5 C 225.85,372.335 229.183,372.502 232.5,373C 234.286,373.785 235.786,374.951 237,376.5C 237.667,390.833 237.667,405.167 237,419.5C 236.252,421.751 234.752,423.084 232.5,423.5C 229.813,423.664 227.146,423.497 224.5,423C 225.893,421.829 226.727,420.329 227,418.5C 227.667,404.833 227.667,391.167 227,377.5C 225.975,375.313 224.475,373.646 222.5,372.5 Z"/></g>
<g><path style="opacity:1" fill="#484868" d="M 315.5,372.5 C 317.168,374.34 318.668,376.34 320,378.5C 320.667,391.833 320.667,405.167 320,418.5C 318.64,421.023 316.807,423.023 314.5,424.5C 302.495,424.667 290.495,424.5 278.5,424C 276.43,423.052 274.93,421.552 274,419.5C 273.333,405.5 273.333,391.5 274,377.5C 274.465,376.069 275.299,374.903 276.5,374C 289.401,372.538 302.401,372.038 315.5,372.5 Z"/></g>
<g><path style="opacity:1" fill="#404056" d="M 315.5,372.5 C 319.911,372.021 324.078,372.688 328,374.5C 328.667,375.833 329.333,377.167 330,378.5C 330.167,385.167 330.333,391.833 330.5,398.5C 330.633,405.934 330.133,413.267 329,420.5C 327.786,422.049 326.286,423.215 324.5,424C 321.183,424.498 317.85,424.665 314.5,424.5C 316.807,423.023 318.64,421.023 320,418.5C 320.667,405.167 320.667,391.833 320,378.5C 318.668,376.34 317.168,374.34 315.5,372.5 Z"/></g>
<g><path style="opacity:1" fill="#bcb3b3" d="M 486.5,398.5 C 486.628,400.655 486.128,402.655 485,404.5C 462.167,427.333 439.333,450.167 416.5,473C 414.655,474.128 412.655,474.628 410.5,474.5C 410.333,452.831 410.5,431.164 411,409.5C 413.167,404.667 416.667,401.167 421.5,399C 443.164,398.5 464.831,398.333 486.5,398.5 Z"/></g>
<g><path style="opacity:1" fill="#d1c9c9" d="M 486.5,398.5 C 486.833,398.5 487.167,398.5 487.5,398.5C 487.954,424.543 487.454,450.543 486,476.5C 482.099,487.401 474.599,494.568 463.5,498C 324.833,498.667 186.167,498.667 47.5,498C 34.3384,493.841 26.505,485.008 24,471.5C 23.5003,463.507 23.3336,455.507 23.5,447.5C 26.8829,462.051 35.8829,471.217 50.5,475C 170.667,475.833 290.667,475.666 410.5,474.5C 412.655,474.628 414.655,474.128 416.5,473C 439.333,450.167 462.167,427.333 485,404.5C 486.128,402.655 486.628,400.655 486.5,398.5 Z"/></g>
</svg>
