<?xml version="1.0" encoding="UTF-8"?>
<!DOCTYPE svg PUBLIC "-//W3C//DTD SVG 1.1//EN" "http://www.w3.org/Graphics/SVG/1.1/DTD/svg11.dtd">
<svg xmlns="http://www.w3.org/2000/svg" version="1.1" width="512px" height="512px" style="shape-rendering:geometricPrecision; text-rendering:geometricPrecision; image-rendering:optimizeQuality; fill-rule:evenodd; clip-rule:evenodd" xmlns:xlink="http://www.w3.org/1999/xlink">
<g><path style="opacity:1" fill="#f0f7ff" d="M 130.5,-0.5 C 192.5,-0.5 254.5,-0.5 316.5,-0.5C 316.5,41.1667 316.5,82.8333 316.5,124.5C 278.5,124.5 240.5,124.5 202.5,124.5C 175.5,124.5 148.5,124.5 121.5,124.5C 121.333,85.8319 121.5,47.1652 122,8.5C 123.688,4.31481 126.521,1.31481 130.5,-0.5 Z"/></g>
<g><path style="opacity:1" fill="#c4daf0" d="M 316.5,-0.5 C 341.167,-0.5 365.833,-0.5 390.5,-0.5C 390.333,31.8351 390.5,64.1684 391,96.5C 391.504,100.02 393.337,102.52 396.5,104C 434.832,104.5 473.165,104.667 511.5,104.5C 511.5,237.167 511.5,369.833 511.5,502.5C 510.196,503.987 509.03,505.654 508,507.5C 505.985,508.697 504.151,510.03 502.5,511.5C 440.5,511.5 378.5,511.5 316.5,511.5C 316.5,499.833 316.5,488.167 316.5,476.5C 318.655,476.628 320.655,476.128 322.5,475C 345,452.5 367.5,430 390,407.5C 390.667,404.833 390.667,402.167 390,399.5C 389.097,398.299 387.931,397.465 386.5,397C 376.506,396.5 366.506,396.334 356.5,396.5C 356.5,376.167 356.5,355.833 356.5,335.5C 368.838,335.667 381.171,335.5 393.5,335C 400,333.833 403.833,330 405,323.5C 405.667,260.833 405.667,198.167 405,135.5C 403.395,129.562 399.562,126.062 393.5,125C 367.835,124.5 342.169,124.333 316.5,124.5C 316.5,82.8333 316.5,41.1667 316.5,-0.5 Z"/></g>
<g><path style="opacity:0.989" fill="#336699" d="M 390.5,-0.5 C 391.167,-0.5 391.833,-0.5 392.5,-0.5C 431.939,34.3925 471.606,69.0592 511.5,103.5C 511.5,103.833 511.5,104.167 511.5,104.5C 473.165,104.667 434.832,104.5 396.5,104C 393.337,102.52 391.504,100.02 391,96.5C 390.5,64.1684 390.333,31.8351 390.5,-0.5 Z"/></g>
<g><path style="opacity:1" fill="#ef4c8e" d="M 121.5,124.5 C 148.5,124.5 175.5,124.5 202.5,124.5C 202.5,139.833 202.5,155.167 202.5,170.5C 201.167,170.5 199.833,170.5 198.5,170.5C 189.827,170.334 181.16,170.5 172.5,171C 168.388,172.779 165.222,175.612 163,179.5C 162.333,213.167 162.333,246.833 163,280.5C 164.927,285.428 168.427,288.594 173.5,290C 183.189,290.693 192.856,290.527 202.5,289.5C 202.5,304.833 202.5,320.167 202.5,335.5C 175.5,335.5 148.5,335.5 121.5,335.5C 83.8319,335.667 46.1652,335.5 8.5,335C 4.31481,333.312 1.31481,330.479 -0.5,326.5C -0.5,262.167 -0.5,197.833 -0.5,133.5C 1.31481,129.521 4.31481,126.688 8.5,125C 46.1652,124.5 83.8319,124.333 121.5,124.5 Z"/></g>
<g><path style="opacity:1" fill="#d7588c" d="M 202.5,124.5 C 240.5,124.5 278.5,124.5 316.5,124.5C 342.169,124.333 367.835,124.5 393.5,125C 399.562,126.062 403.395,129.562 405,135.5C 405.667,198.167 405.667,260.833 405,323.5C 403.833,330 400,333.833 393.5,335C 381.171,335.5 368.838,335.667 356.5,335.5C 343.167,335.5 329.833,335.5 316.5,335.5C 303.167,335.5 289.833,335.5 276.5,335.5C 251.833,335.5 227.167,335.5 202.5,335.5C 202.5,320.167 202.5,304.833 202.5,289.5C 238.172,279.304 254.339,255.638 251,218.5C 244.466,192.798 228.299,177.131 202.5,171.5C 200.901,171.768 199.568,171.434 198.5,170.5C 199.833,170.5 201.167,170.5 202.5,170.5C 202.5,155.167 202.5,139.833 202.5,124.5 Z"/></g>
<g><path style="opacity:1" fill="#f0f5fe" d="M 69.5,169.5 C 81.8378,169.333 94.1712,169.5 106.5,170C 126.813,173.312 139.979,184.812 146,204.5C 149.587,228.831 140.42,246.331 118.5,257C 108.066,260.09 97.3993,261.256 86.5,260.5C 86.6662,266.842 86.4995,273.175 86,279.5C 82.9087,287.466 77.0754,290.966 68.5,290C 63.4268,288.594 59.9268,285.428 58,280.5C 57.3333,246.833 57.3333,213.167 58,179.5C 60.7942,174.866 64.6275,171.533 69.5,169.5 Z"/></g>
<g><path style="opacity:1" fill="#f0f6fe" d="M 198.5,170.5 C 199.568,171.434 200.901,171.768 202.5,171.5C 202.827,181.681 202.494,191.681 201.5,201.5C 198.57,200.701 195.57,200.368 192.5,200.5C 191.503,220.326 191.17,240.326 191.5,260.5C 193.735,260.795 195.735,260.461 197.5,259.5C 199.216,259.371 200.883,259.038 202.5,258.5C 202.5,268.833 202.5,279.167 202.5,289.5C 192.856,290.527 183.189,290.693 173.5,290C 168.427,288.594 164.927,285.428 163,280.5C 162.333,246.833 162.333,213.167 163,179.5C 165.222,175.612 168.388,172.779 172.5,171C 181.16,170.5 189.827,170.334 198.5,170.5 Z"/></g>
<g><path style="opacity:1" fill="#c5d9ef" d="M 297.5,200.5 C 296.506,210.319 296.173,220.319 296.5,230.5C 303.833,230.5 311.167,230.5 318.5,230.5C 331.502,234.181 335.002,242.181 329,254.5C 326.374,257.231 323.207,259.064 319.5,260C 311.841,260.5 304.174,260.666 296.5,260.5C 296.666,266.842 296.5,273.175 296,279.5C 293.844,286.257 289.177,289.923 282,290.5C 273.926,289.762 268.926,285.429 267,277.5C 266.333,245.833 266.333,214.167 267,182.5C 268.689,177.475 271.856,173.641 276.5,171C 296.5,170.333 316.5,170.333 336.5,171C 347.803,175.572 350.636,183.405 345,194.5C 342.374,197.231 339.207,199.064 335.5,200C 322.838,200.5 310.171,200.667 297.5,200.5 Z"/></g>
<g><path style="opacity:1" fill="#c5daf0" d="M 202.5,171.5 C 228.299,177.131 244.466,192.798 251,218.5C 254.339,255.638 238.172,279.304 202.5,289.5C 202.5,279.167 202.5,268.833 202.5,258.5C 221.633,248.211 226.466,233.211 217,213.5C 213.171,208.503 208.338,204.836 202.5,202.5C 201.833,202.5 201.5,202.167 201.5,201.5C 202.494,191.681 202.827,181.681 202.5,171.5 Z"/></g>
<g><path style="opacity:1" fill="#ef95be" d="M 104.5,200.5 C 98.8333,200.5 93.1667,200.5 87.5,200.5C 87.5,210.167 87.5,219.833 87.5,229.5C 93.1667,229.5 98.8333,229.5 104.5,229.5C 98.69,230.49 92.69,230.823 86.5,230.5C 86.5,220.167 86.5,209.833 86.5,199.5C 92.69,199.177 98.69,199.51 104.5,200.5 Z"/></g>
<g><path style="opacity:1" fill="#ef4c8e" d="M 104.5,200.5 C 112.668,201.838 116.668,206.671 116.5,215C 116.668,223.329 112.668,228.162 104.5,229.5C 98.8333,229.5 93.1667,229.5 87.5,229.5C 87.5,219.833 87.5,210.167 87.5,200.5C 93.1667,200.5 98.8333,200.5 104.5,200.5 Z"/></g>
<g><path style="opacity:1" fill="#efa1c6" d="M 192.5,200.5 C 192.5,220.167 192.5,239.833 192.5,259.5C 194.167,259.5 195.833,259.5 197.5,259.5C 195.735,260.461 193.735,260.795 191.5,260.5C 191.17,240.326 191.503,220.326 192.5,200.5 Z"/></g>
<g><path style="opacity:1" fill="#ef4b8e" d="M 192.5,200.5 C 195.57,200.368 198.57,200.701 201.5,201.5C 201.5,202.167 201.833,202.5 202.5,202.5C 202.5,221.167 202.5,239.833 202.5,258.5C 200.883,259.038 199.216,259.371 197.5,259.5C 195.833,259.5 194.167,259.5 192.5,259.5C 192.5,239.833 192.5,220.167 192.5,200.5 Z"/></g>
<g><path style="opacity:1" fill="#d7598d" d="M 202.5,202.5 C 208.338,204.836 213.171,208.503 217,213.5C 226.466,233.211 221.633,248.211 202.5,258.5C 202.5,239.833 202.5,221.167 202.5,202.5 Z"/></g>
<g><path style="opacity:1" fill="#d186af" d="M 297.5,200.5 C 297.5,210.167 297.5,219.833 297.5,229.5C 304.687,229.175 311.687,229.509 318.5,230.5C 311.167,230.5 303.833,230.5 296.5,230.5C 296.173,220.319 296.506,210.319 297.5,200.5 Z"/></g>
<g><path style="opacity:1" fill="#eff6fe" d="M 121.5,335.5 C 148.5,335.5 175.5,335.5 202.5,335.5C 227.167,335.5 251.833,335.5 276.5,335.5C 276.5,355.833 276.5,376.167 276.5,396.5C 266.161,396.334 255.828,396.5 245.5,397C 242.606,399.909 241.773,403.409 243,407.5C 265.5,430 288,452.5 310.5,475C 312.345,476.128 314.345,476.628 316.5,476.5C 316.5,488.167 316.5,499.833 316.5,511.5C 254.5,511.5 192.5,511.5 130.5,511.5C 126.521,509.685 123.688,506.685 122,502.5C 121.5,446.834 121.333,391.168 121.5,335.5 Z"/></g>
<g><path style="opacity:1" fill="#02ec86" d="M 276.5,335.5 C 289.833,335.5 303.167,335.5 316.5,335.5C 316.5,382.5 316.5,429.5 316.5,476.5C 314.345,476.628 312.345,476.128 310.5,475C 288,452.5 265.5,430 243,407.5C 241.773,403.409 242.606,399.909 245.5,397C 255.828,396.5 266.161,396.334 276.5,396.5C 276.5,376.167 276.5,355.833 276.5,335.5 Z"/></g>
<g><path style="opacity:1" fill="#01ca8f" d="M 316.5,335.5 C 329.833,335.5 343.167,335.5 356.5,335.5C 356.5,355.833 356.5,376.167 356.5,396.5C 366.506,396.334 376.506,396.5 386.5,397C 387.931,397.465 389.097,398.299 390,399.5C 390.667,402.167 390.667,404.833 390,407.5C 367.5,430 345,452.5 322.5,475C 320.655,476.128 318.655,476.628 316.5,476.5C 316.5,429.5 316.5,382.5 316.5,335.5 Z"/></g>
</svg>
