<?xml version="1.0" encoding="UTF-8"?>
<!DOCTYPE svg PUBLIC "-//W3C//DTD SVG 1.1//EN" "http://www.w3.org/Graphics/SVG/1.1/DTD/svg11.dtd">
<svg xmlns="http://www.w3.org/2000/svg" version="1.1" width="512px" height="512px" style="shape-rendering:geometricPrecision; text-rendering:geometricPrecision; image-rendering:optimizeQuality; fill-rule:evenodd; clip-rule:evenodd" xmlns:xlink="http://www.w3.org/1999/xlink">
<g><path style="opacity:0.993" fill="#46709a" d="M 250.5,-0.5 C 253.833,-0.5 257.167,-0.5 260.5,-0.5C 264.216,1.40532 268.216,2.73865 272.5,3.5C 272.333,19.8367 272.5,36.1701 273,52.5C 273.854,58.2278 276.687,62.5611 281.5,65.5C 269.55,63.8692 257.55,63.3692 245.5,64C 213.263,67.5289 181.263,71.6955 149.5,76.5C 135.641,73.5235 121.641,71.1902 107.5,69.5C 107.5,86.5 107.5,103.5 107.5,120.5C 102.167,120.5 96.8333,120.5 91.5,120.5C 91.6666,101.497 91.4999,82.4971 91,63.5C 88.6966,58.9617 89.1966,54.795 92.5,51C 145.263,33.8163 197.929,16.6496 250.5,-0.5 Z"/></g>
<g><path style="opacity:0.986" fill="#336599" d="M 272.5,3.5 C 321.248,19.027 369.915,34.8604 418.5,51C 422.78,56.3154 422.447,61.3154 417.5,66C 398.836,69.7 380.169,73.2 361.5,76.5C 337.554,73.0064 313.554,69.673 289.5,66.5C 286.763,66.5987 284.096,66.2653 281.5,65.5C 276.687,62.5611 273.854,58.2278 273,52.5C 272.5,36.1701 272.333,19.8367 272.5,3.5 Z"/></g>
<g><path style="opacity:0.996" fill="#4b81b7" d="M 281.5,65.5 C 284.096,66.2653 286.763,66.5987 289.5,66.5C 289.5,84.8333 289.5,103.167 289.5,121.5C 244.997,121.168 200.664,121.501 156.5,122.5C 152.921,122.089 150.754,120.089 150,116.5C 149.5,103.171 149.333,89.8375 149.5,76.5C 181.263,71.6955 213.263,67.5289 245.5,64C 257.55,63.3692 269.55,63.8692 281.5,65.5 Z"/></g>
<g><path style="opacity:0.999" fill="#456f9a" d="M 289.5,66.5 C 313.554,69.673 337.554,73.0064 361.5,76.5C 361.667,89.8375 361.5,103.171 361,116.5C 360.246,120.089 358.079,122.089 354.5,122.5C 333.006,121.503 311.34,121.169 289.5,121.5C 289.5,103.167 289.5,84.8333 289.5,66.5 Z"/></g>
<g><path style="opacity:0.991" fill="#fddf7d" d="M 91.5,120.5 C 96.8333,120.5 102.167,120.5 107.5,120.5C 111.493,120.245 114.326,121.911 116,125.5C 116.5,133.827 116.666,142.16 116.5,150.5C 105.167,150.5 93.8333,150.5 82.5,150.5C 82.3336,142.826 82.5003,135.159 83,127.5C 84.1801,123.153 87.0134,120.82 91.5,120.5 Z"/></g>
<g><path style="opacity:0.997" fill="#efc984" d="M 156.5,122.5 C 167.833,122.5 179.167,122.5 190.5,122.5C 190.666,131.506 190.5,140.506 190,149.5C 187.859,155.641 183.693,159.807 177.5,162C 170.508,162.5 163.508,162.666 156.5,162.5C 156.5,149.167 156.5,135.833 156.5,122.5 Z"/></g>
<g><path style="opacity:0.998" fill="#fedccd" d="M 156.5,122.5 C 200.664,121.501 244.997,121.168 289.5,121.5C 311.34,121.169 333.006,121.503 354.5,122.5C 343.167,122.5 331.833,122.5 320.5,122.5C 310.167,122.5 299.833,122.5 289.5,122.5C 289.667,155.502 289.5,188.502 289,221.5C 284.489,248.374 270.655,268.874 247.5,283C 267.375,284.537 285.708,280.037 302.5,269.5C 302.5,275.5 302.5,281.5 302.5,287.5C 301.601,303.125 298.934,318.459 294.5,333.5C 268.478,337.471 242.478,337.471 216.5,333.5C 212.066,318.462 209.4,303.129 208.5,287.5C 208.666,281.491 208.499,275.491 208,269.5C 186.371,253.248 174.371,231.582 172,204.5C 164.946,204.146 159.946,200.813 157,194.5C 156.5,183.839 156.333,173.172 156.5,162.5C 163.508,162.666 170.508,162.5 177.5,162C 183.693,159.807 187.859,155.641 190,149.5C 190.5,140.506 190.666,131.506 190.5,122.5C 179.167,122.5 167.833,122.5 156.5,122.5 Z"/></g>
<g><path style="opacity:0.994" fill="#fecbbd" d="M 320.5,122.5 C 320.334,131.506 320.5,140.506 321,149.5C 323.193,155.693 327.359,159.859 333.5,162C 340.492,162.5 347.492,162.666 354.5,162.5C 354.667,173.172 354.5,183.839 354,194.5C 351.054,200.813 346.054,204.146 339,204.5C 336.668,231.844 324.501,253.511 302.5,269.5C 285.708,280.037 267.375,284.537 247.5,283C 270.655,268.874 284.489,248.374 289,221.5C 289.5,188.502 289.667,155.502 289.5,122.5C 299.833,122.5 310.167,122.5 320.5,122.5 Z"/></g>
<g><path style="opacity:0.999" fill="#eabc6b" d="M 320.5,122.5 C 331.833,122.5 343.167,122.5 354.5,122.5C 354.5,135.833 354.5,149.167 354.5,162.5C 347.492,162.666 340.492,162.5 333.5,162C 327.359,159.859 323.193,155.693 321,149.5C 320.5,140.506 320.334,131.506 320.5,122.5 Z"/></g>
<g><path style="opacity:0.977" fill="#e4f6fe" d="M 82.5,150.5 C 93.8333,150.5 105.167,150.5 116.5,150.5C 120.272,171.462 123.938,192.462 127.5,213.5C 127.214,218.261 124.88,221.428 120.5,223C 106.5,223.667 92.5,223.667 78.5,223C 72.8912,219.723 71.0578,214.89 73,208.5C 76.2769,189.172 79.4436,169.839 82.5,150.5 Z"/></g>
<g><path style="opacity:0.993" fill="#4c82b7" d="M 208.5,287.5 C 209.4,303.129 212.066,318.462 216.5,333.5C 219.602,344.711 224.102,355.377 230,365.5C 238.427,378.025 246.593,390.692 254.5,403.5C 214.995,380.918 175.995,357.585 137.5,333.5C 161.167,318.167 184.833,302.833 208.5,287.5 Z"/></g>
<g><path style="opacity:0.993" fill="#4c82b7" d="M 302.5,287.5 C 326.167,302.833 349.833,318.167 373.5,333.5C 354.167,345.5 334.833,357.5 315.5,369.5C 295.833,380.833 276.167,392.167 256.5,403.5C 268.913,385.689 280.08,367.022 290,347.5C 291.802,342.905 293.302,338.238 294.5,333.5C 298.934,318.459 301.601,303.125 302.5,287.5 Z"/></g>
<g><path style="opacity:1" fill="#f3fafe" d="M 216.5,333.5 C 242.478,337.471 268.478,337.471 294.5,333.5C 293.302,338.238 291.802,342.905 290,347.5C 280.08,367.022 268.913,385.689 256.5,403.5C 255.833,403.5 255.167,403.5 254.5,403.5C 246.593,390.692 238.427,378.025 230,365.5C 224.102,355.377 219.602,344.711 216.5,333.5 Z"/></g>
<g><path style="opacity:0.999" fill="#466f9a" d="M 137.5,333.5 C 175.995,357.585 214.995,380.918 254.5,403.5C 255.167,403.5 255.833,403.5 256.5,403.5C 276.167,392.167 295.833,380.833 315.5,369.5C 332.719,372.614 348.719,378.78 363.5,388C 386.299,407.542 395.633,432.375 391.5,462.5C 386.977,462.345 383.811,464.345 382,468.5C 381.5,482.829 381.333,497.163 381.5,511.5C 297.5,511.5 213.5,511.5 129.5,511.5C 129.667,497.496 129.5,483.496 129,469.5C 126.675,462.914 122.508,461.247 116.5,464.5C 115.416,465.665 114.583,466.998 114,468.5C 113.5,482.829 113.333,497.163 113.5,511.5C 99.8333,511.5 86.1667,511.5 72.5,511.5C 61.0269,507.265 54.8603,498.932 54,486.5C 53.3333,461.5 53.3333,436.5 54,411.5C 55.814,378.686 71.9806,356.186 102.5,344C 114.247,340.648 125.914,337.148 137.5,333.5 Z"/></g>
<g><path style="opacity:0.995" fill="#336599" d="M 373.5,333.5 C 386.103,337.422 398.77,341.256 411.5,345C 440.514,357.682 455.68,379.849 457,411.5C 457.667,436.5 457.667,461.5 457,486.5C 456.14,498.932 449.973,507.265 438.5,511.5C 419.5,511.5 400.5,511.5 381.5,511.5C 381.333,497.163 381.5,482.829 382,468.5C 383.811,464.345 386.977,462.345 391.5,462.5C 395.633,432.375 386.299,407.542 363.5,388C 348.719,378.78 332.719,372.614 315.5,369.5C 334.833,357.5 354.167,345.5 373.5,333.5 Z"/></g>
<g><path style="opacity:1" fill="#336699" d="M 129.5,511.5 C 124.167,511.5 118.833,511.5 113.5,511.5C 113.333,497.163 113.5,482.829 114,468.5C 114.583,466.998 115.416,465.665 116.5,464.5C 122.508,461.247 126.675,462.914 129,469.5C 129.5,483.496 129.667,497.496 129.5,511.5 Z"/></g>
</svg>
