<?xml version="1.0" encoding="UTF-8"?>
<!DOCTYPE svg PUBLIC "-//W3C//DTD SVG 1.1//EN" "http://www.w3.org/Graphics/SVG/1.1/DTD/svg11.dtd">
<svg xmlns="http://www.w3.org/2000/svg" version="1.1" width="512px" height="512px" style="shape-rendering:geometricPrecision; text-rendering:geometricPrecision; image-rendering:optimizeQuality; fill-rule:evenodd; clip-rule:evenodd" xmlns:xlink="http://www.w3.org/1999/xlink">
<g><path style="opacity:0.993" fill="#0e9347" d="M 511.5,39.5 C 511.5,126.833 511.5,214.167 511.5,301.5C 507.958,284.583 500.291,269.75 488.5,257C 481.633,255.812 475.299,256.979 469.5,260.5C 456.254,246.041 439.921,237.041 420.5,233.5C 446.013,230.782 468.346,238.115 487.5,255.5C 488.5,201.171 488.833,146.837 488.5,92.5C 460.119,90.1192 444.786,74.7859 442.5,46.5C 317.833,46.5 193.167,46.5 68.5,46.5C 66.2307,74.7694 50.8973,90.1027 22.5,92.5C 22.5,146.833 22.5,201.167 22.5,255.5C 51.1804,258.18 66.8471,273.847 69.5,302.5C 122.167,302.5 174.833,302.5 227.5,302.5C 224.683,310.121 222.35,317.788 220.5,325.5C 152.499,325.667 84.4992,325.5 16.5,325C 7.98397,322.316 2.3173,316.816 -0.5,308.5C -0.5,218.833 -0.5,129.167 -0.5,39.5C 2.64896,31.5191 8.31563,26.0191 16.5,23C 175.833,22.3333 335.167,22.3333 494.5,23C 502.684,26.0191 508.351,31.5191 511.5,39.5 Z"/></g>
<g><path style="opacity:1" fill="#3ab449" d="M 420.5,233.5 C 412.889,232.566 405.222,232.233 397.5,232.5C 378.809,234.848 362.809,242.514 349.5,255.5C 347.806,256.527 346.473,257.861 345.5,259.5C 345.389,258.883 345.056,258.383 344.5,258C 338.559,256.712 332.559,255.878 326.5,255.5C 323.731,255.529 321.397,256.195 319.5,257.5C 316.72,256.922 314.053,256.255 311.5,255.5C 315.642,253.88 319.142,251.214 322,247.5C 345.898,216.9 353.564,182.566 345,144.5C 333.695,103.858 307.528,79.025 266.5,70C 219.949,68.5305 187.783,89.3638 170,132.5C 157.214,168.435 160.547,202.768 180,235.5C 195.28,259.723 217.114,273.723 245.5,277.5C 238.262,284.989 232.262,293.322 227.5,302.5C 174.833,302.5 122.167,302.5 69.5,302.5C 66.8471,273.847 51.1804,258.18 22.5,255.5C 22.5,201.167 22.5,146.833 22.5,92.5C 50.8973,90.1027 66.2307,74.7694 68.5,46.5C 193.167,46.5 317.833,46.5 442.5,46.5C 444.786,74.7859 460.119,90.1192 488.5,92.5C 488.833,146.837 488.5,201.171 487.5,255.5C 468.346,238.115 446.013,230.782 420.5,233.5 Z"/></g>
<g><path style="opacity:1" fill="#0f9347" d="M 311.5,255.5 C 306.167,255.5 300.833,255.5 295.5,255.5C 276.363,257.406 259.696,264.739 245.5,277.5C 217.114,273.723 195.28,259.723 180,235.5C 160.547,202.768 157.214,168.435 170,132.5C 187.783,89.3638 219.949,68.5305 266.5,70C 307.528,79.025 333.695,103.858 345,144.5C 353.564,182.566 345.898,216.9 322,247.5C 319.142,251.214 315.642,253.88 311.5,255.5 Z"/></g>
<g><path style="opacity:1" fill="#87c662" d="M 250.5,104.5 C 256.981,103.487 262.148,105.487 266,110.5C 266.494,112.134 266.66,113.801 266.5,115.5C 273.042,114.989 279.376,115.822 285.5,118C 292.144,124.279 292.144,130.612 285.5,137C 283.608,137.973 281.608,138.64 279.5,139C 265.833,139.333 252.167,139.667 238.5,140C 232.823,143.636 230.99,148.803 233,155.5C 234.5,158.333 236.667,160.5 239.5,162C 251.167,162.333 262.833,162.667 274.5,163C 294.812,169.45 303.645,183.283 301,204.5C 296.494,221.664 285.328,230.831 267.5,232C 265.672,241.422 260.005,245.089 250.5,243C 246.547,240.593 244.547,237.093 244.5,232.5C 239.489,232.666 234.489,232.499 229.5,232C 220.995,228.177 218.829,222.01 223,213.5C 224.214,211.951 225.714,210.785 227.5,210C 242.554,209.934 257.554,209.268 272.5,208C 278.177,204.364 280.01,199.197 278,192.5C 276.437,189.272 273.937,187.105 270.5,186C 258.833,185.667 247.167,185.333 235.5,185C 218.726,179.623 210.06,168.123 209.5,150.5C 209.962,133.529 218.295,122.362 234.5,117C 237.5,116.667 240.5,116.333 243.5,116C 244.42,111.259 246.754,107.426 250.5,104.5 Z"/></g>
<g><path style="opacity:1" fill="#0e9347" d="M 108.5,151.5 C 122.303,148.984 132.136,153.984 138,166.5C 140.885,185.28 132.885,195.613 114,197.5C 97.1927,193.225 90.526,182.559 94,165.5C 97.4084,159.257 102.242,154.59 108.5,151.5 Z"/></g>
<g><path style="opacity:1" fill="#0e9347" d="M 390.5,150.5 C 404.067,149.862 413.234,155.862 418,168.5C 418.827,187.695 409.66,197.195 390.5,197C 372.936,189.985 368.103,177.818 376,160.5C 379.977,155.774 384.811,152.441 390.5,150.5 Z"/></g>
<g><path style="opacity:1" fill="#fddf77" d="M 397.5,232.5 C 400.287,233.477 403.287,233.81 406.5,233.5C 406.135,237.737 404.135,240.904 400.5,243C 385.185,244.765 371.852,250.765 360.5,261C 356.396,260.282 352.73,258.448 349.5,255.5C 362.809,242.514 378.809,234.848 397.5,232.5 Z"/></g>
<g><path style="opacity:0.999" fill="#0f8944" d="M 511.5,301.5 C 511.5,304.167 511.5,306.833 511.5,309.5C 507.026,319.953 499.026,325.286 487.5,325.5C 488.272,321.548 488.605,317.548 488.5,313.5C 487.89,293.662 481.556,275.995 469.5,260.5C 475.299,256.979 481.633,255.812 488.5,257C 500.291,269.75 507.958,284.583 511.5,301.5 Z"/></g>
<g><path style="opacity:1" fill="#fee077" d="M 295.5,255.5 C 297.265,256.461 299.265,256.795 301.5,256.5C 301.857,260.664 300.19,263.831 296.5,266C 266.844,270.322 246.677,286.489 236,314.5C 235.072,321.226 233.072,327.56 230,333.5C 227.358,336.029 224.192,337.029 220.5,336.5C 220.5,332.833 220.5,329.167 220.5,325.5C 222.35,317.788 224.683,310.121 227.5,302.5C 232.262,293.322 238.262,284.989 245.5,277.5C 259.696,264.739 276.363,257.406 295.5,255.5 Z"/></g>
<g><path style="opacity:1" fill="#f6b545" d="M 449.5,274.5 C 461.923,288.049 466.757,304.049 464,322.5C 461.641,338.562 454.141,351.562 441.5,361.5C 443.079,364.994 444.913,368.327 447,371.5C 463.676,358.163 473.676,340.83 477,319.5C 479.937,315.781 483.771,313.781 488.5,313.5C 488.605,317.548 488.272,321.548 487.5,325.5C 483.837,350.85 471.17,370.183 449.5,383.5C 449.332,379.322 447.998,375.655 445.5,372.5C 442.634,374.432 439.634,376.099 436.5,377.5C 434.685,373.377 432.685,369.377 430.5,365.5C 434.217,364.473 437.55,362.639 440.5,360C 434.797,350.128 427.464,341.628 418.5,334.5C 418.667,318.497 418.5,302.497 418,286.5C 413.593,278.856 407.426,277.022 399.5,281C 398.213,282.41 397.046,283.91 396,285.5C 395.832,296.848 395.332,308.181 394.5,319.5C 391.246,304.495 384.913,290.995 375.5,279C 392.511,263.998 411.844,259.998 433.5,267C 439.196,268.93 444.363,271.764 449,275.5C 449.399,275.272 449.565,274.938 449.5,274.5 Z"/></g>
<g><path style="opacity:0.997" fill="#feca5a" d="M 397.5,232.5 C 405.222,232.233 412.889,232.566 420.5,233.5C 439.921,237.041 456.254,246.041 469.5,260.5C 481.556,275.995 487.89,293.662 488.5,313.5C 483.771,313.781 479.937,315.781 477,319.5C 473.676,340.83 463.676,358.163 447,371.5C 444.913,368.327 443.079,364.994 441.5,361.5C 454.141,351.562 461.641,338.562 464,322.5C 466.757,304.049 461.923,288.049 449.5,274.5C 432.58,257.017 412.246,251.517 388.5,258C 381.381,260.39 375.047,264.057 369.5,269C 368.072,269.579 366.738,269.412 365.5,268.5C 363.854,266.188 361.854,264.188 359.5,262.5C 357.211,265.291 354.711,267.958 352,270.5C 351.333,271.167 351.333,271.833 352,272.5C 354.663,274.334 357.163,276.334 359.5,278.5C 361.862,281.192 364.196,283.859 366.5,286.5C 372.418,294.336 376.752,303.003 379.5,312.5C 372.317,313.232 364.984,313.898 357.5,314.5C 353.557,308.554 349.224,302.887 344.5,297.5C 327.75,280.757 307.75,275.257 284.5,281C 255.984,292.522 242.484,313.689 244,344.5C 246.002,358.511 252.169,370.178 262.5,379.5C 267.535,384.687 273.535,388.354 280.5,390.5C 279.658,395.787 279.324,401.12 279.5,406.5C 282.862,406.93 285.695,405.93 288,403.5C 291.163,395.714 293.83,387.714 296,379.5C 307.235,354.471 326.402,339.971 353.5,336C 357.123,334.212 359.456,331.379 360.5,327.5C 354.536,326.825 348.536,326.825 342.5,327.5C 347.568,325.822 352.902,325.156 358.5,325.5C 366.988,325.304 375.322,326.304 383.5,328.5C 387.421,330.029 391.421,331.363 395.5,332.5C 402.085,336.41 408.418,340.743 414.5,345.5C 420.973,351.301 426.307,357.968 430.5,365.5C 432.685,369.377 434.685,373.377 436.5,377.5C 437.692,381.302 439.025,384.969 440.5,388.5C 440.878,393.58 441.545,398.58 442.5,403.5C 441.266,406.464 438.933,407.964 435.5,408C 433.333,409.5 431.5,411.333 430,413.5C 423.175,449.659 401.675,471.159 365.5,478C 362.288,480.019 360.622,482.853 360.5,486.5C 375.418,486.937 389.418,483.604 402.5,476.5C 394.971,481.629 386.638,485.129 377.5,487C 338.713,492.85 308.88,479.35 288,446.5C 283.322,436.967 280.155,426.967 278.5,416.5C 241.564,402.639 222.231,375.972 220.5,336.5C 224.192,337.029 227.358,336.029 230,333.5C 233.072,327.56 235.072,321.226 236,314.5C 246.677,286.489 266.844,270.322 296.5,266C 300.19,263.831 301.857,260.664 301.5,256.5C 299.265,256.795 297.265,256.461 295.5,255.5C 300.833,255.5 306.167,255.5 311.5,255.5C 314.053,256.255 316.72,256.922 319.5,257.5C 327.216,258.683 334.383,261.35 341,265.5C 342.332,263.34 343.832,261.34 345.5,259.5C 346.473,257.861 347.806,256.527 349.5,255.5C 352.73,258.448 356.396,260.282 360.5,261C 371.852,250.765 385.185,244.765 400.5,243C 404.135,240.904 406.135,237.737 406.5,233.5C 403.287,233.81 400.287,233.477 397.5,232.5 Z"/></g>
<g><path style="opacity:1" fill="#e78825" d="M 418.5,334.5 C 419.091,338.964 417.758,342.631 414.5,345.5C 408.418,340.743 402.085,336.41 395.5,332.5C 395.177,328.774 395.511,325.107 396.5,321.5C 404.521,324.837 411.854,329.17 418.5,334.5 Z"/></g>
<g><path style="opacity:1" fill="#feca5a" d="M 451.5,308.5 C 453.857,308.337 456.19,308.503 458.5,309C 459.126,309.75 459.626,310.584 460,311.5C 460.707,324.004 457.373,335.337 450,345.5C 446.95,349.13 443.117,350.297 438.5,349C 436.813,347.087 436.313,344.92 437,342.5C 445.082,333.781 449.082,323.448 449,311.5C 449.698,310.309 450.531,309.309 451.5,308.5 Z"/></g>
<g><path style="opacity:1" fill="#f19920" d="M 358.5,325.5 C 352.902,325.156 347.568,325.822 342.5,327.5C 320.854,332.492 303.854,344.159 291.5,362.5C 290.338,345.005 290.171,327.338 291,309.5C 294.193,302.877 299.36,300.71 306.5,303C 309.278,304.112 311.445,305.945 313,308.5C 313.333,318.167 313.667,327.833 314,337.5C 325.473,325.681 339.306,318.514 355.5,316C 357.002,319.005 358.002,322.171 358.5,325.5 Z"/></g>
<g><path style="opacity:1" fill="#f6b444" d="M 344.5,297.5 C 349.224,302.887 353.557,308.554 357.5,314.5C 364.984,313.898 372.317,313.232 379.5,312.5C 381.677,317.51 383.01,322.844 383.5,328.5C 375.322,326.304 366.988,325.304 358.5,325.5C 358.002,322.171 357.002,319.005 355.5,316C 339.306,318.514 325.473,325.681 314,337.5C 313.667,327.833 313.333,318.167 313,308.5C 311.445,305.945 309.278,304.112 306.5,303C 299.36,300.71 294.193,302.877 291,309.5C 290.171,327.338 290.338,345.005 291.5,362.5C 286.179,371.148 282.512,380.482 280.5,390.5C 273.535,388.354 267.535,384.687 262.5,379.5C 260.54,375.581 258.374,371.247 256,366.5C 246.635,335.922 255.135,311.755 281.5,294C 300.977,285.093 320.31,285.426 339.5,295C 341.09,296.046 342.59,297.213 344,298.5C 344.399,298.272 344.565,297.938 344.5,297.5 Z"/></g>
<g><path style="opacity:1" fill="#f19920" d="M 449.5,274.5 C 449.565,274.938 449.399,275.272 449,275.5C 444.363,271.764 439.196,268.93 433.5,267C 411.844,259.998 392.511,263.998 375.5,279C 384.913,290.995 391.246,304.495 394.5,319.5C 395.332,308.181 395.832,296.848 396,285.5C 397.046,283.91 398.213,282.41 399.5,281C 407.426,277.022 413.593,278.856 418,286.5C 418.5,302.497 418.667,318.497 418.5,334.5C 411.854,329.17 404.521,324.837 396.5,321.5C 395.511,325.107 395.177,328.774 395.5,332.5C 391.421,331.363 387.421,330.029 383.5,328.5C 383.01,322.844 381.677,317.51 379.5,312.5C 376.752,303.003 372.418,294.336 366.5,286.5C 369.287,284.28 371.62,281.614 373.5,278.5C 372.123,275.123 369.79,272.789 366.5,271.5C 365.89,270.609 365.557,269.609 365.5,268.5C 366.738,269.412 368.072,269.579 369.5,269C 375.047,264.057 381.381,260.39 388.5,258C 412.246,251.517 432.58,257.017 449.5,274.5 Z"/></g>
<g><path style="opacity:1" fill="#f19a22" d="M 344.5,297.5 C 344.565,297.938 344.399,298.272 344,298.5C 342.59,297.213 341.09,296.046 339.5,295C 320.31,285.426 300.977,285.093 281.5,294C 255.135,311.755 246.635,335.922 256,366.5C 258.374,371.247 260.54,375.581 262.5,379.5C 252.169,370.178 246.002,358.511 244,344.5C 242.484,313.689 255.984,292.522 284.5,281C 307.75,275.257 327.75,280.757 344.5,297.5 Z"/></g>
<g><path style="opacity:1" fill="#e78925" d="M 366.5,271.5 C 369.79,272.789 372.123,275.123 373.5,278.5C 371.62,281.614 369.287,284.28 366.5,286.5C 364.196,283.859 361.862,281.192 359.5,278.5C 361.605,275.973 363.939,273.64 366.5,271.5 Z"/></g>
<g><path style="opacity:1" fill="#f5b343" d="M 365.5,268.5 C 365.557,269.609 365.89,270.609 366.5,271.5C 363.939,273.64 361.605,275.973 359.5,278.5C 357.163,276.334 354.663,274.334 352,272.5C 351.333,271.833 351.333,271.167 352,270.5C 354.711,267.958 357.211,265.291 359.5,262.5C 361.854,264.188 363.854,266.188 365.5,268.5 Z"/></g>
<g><path style="opacity:1" fill="#1b9547" d="M 345.5,259.5 C 343.832,261.34 342.332,263.34 341,265.5C 334.383,261.35 327.216,258.683 319.5,257.5C 321.397,256.195 323.731,255.529 326.5,255.5C 332.559,255.878 338.559,256.712 344.5,258C 345.056,258.383 345.389,258.883 345.5,259.5 Z"/></g>
<g><path style="opacity:1" fill="#fee078" d="M 280.5,390.5 C 282.512,380.482 286.179,371.148 291.5,362.5C 303.854,344.159 320.854,332.492 342.5,327.5C 348.536,326.825 354.536,326.825 360.5,327.5C 359.456,331.379 357.123,334.212 353.5,336C 326.402,339.971 307.235,354.471 296,379.5C 293.83,387.714 291.163,395.714 288,403.5C 285.695,405.93 282.862,406.93 279.5,406.5C 279.324,401.12 279.658,395.787 280.5,390.5 Z"/></g>
<g><path style="opacity:1" fill="#f19921" d="M 418.5,334.5 C 427.464,341.628 434.797,350.128 440.5,360C 437.55,362.639 434.217,364.473 430.5,365.5C 426.307,357.968 420.973,351.301 414.5,345.5C 417.758,342.631 419.091,338.964 418.5,334.5 Z"/></g>
<g><path style="opacity:1" fill="#f19a21" d="M 402.5,367.5 C 374.63,350.624 348.797,353.291 325,375.5C 308.739,396.14 306.073,418.474 317,442.5C 318.75,444.734 320.25,447.068 321.5,449.5C 311.5,441.18 305.333,430.514 303,417.5C 299.175,386.642 311.342,364.808 339.5,352C 363.934,343.95 384.934,349.116 402.5,367.5 Z"/></g>
<g><path style="opacity:1" fill="#f6b444" d="M 402.5,367.5 C 413.372,378.252 418.705,391.418 418.5,407C 416.689,437.474 401.022,456.474 371.5,464C 352.212,467.508 335.545,462.675 321.5,449.5C 320.25,447.068 318.75,444.734 317,442.5C 306.073,418.474 308.739,396.14 325,375.5C 348.797,353.291 374.63,350.624 402.5,367.5 Z"/></g>
<g><path style="opacity:1" fill="#f19920" d="M 354.5,372.5 C 361.511,370.928 367.011,372.928 371,378.5C 371.667,396.833 371.667,415.167 371,433.5C 368.202,440.648 363.036,443.148 355.5,441C 351.184,438.874 349.017,435.374 349,430.5C 348.333,413.5 348.333,396.5 349,379.5C 350.371,376.734 352.204,374.401 354.5,372.5 Z"/></g>
<g><path style="opacity:1" fill="#f29d25" d="M 449.5,383.5 C 446.696,385.405 443.696,387.071 440.5,388.5C 439.025,384.969 437.692,381.302 436.5,377.5C 439.634,376.099 442.634,374.432 445.5,372.5C 447.998,375.655 449.332,379.322 449.5,383.5 Z"/></g>
<g><path style="opacity:1" fill="#feca5a" d="M 404.5,401.5 C 407.685,401.02 410.519,401.686 413,403.5C 413.837,417.148 410.17,429.482 402,440.5C 398.264,443.089 394.598,443.089 391,440.5C 390.333,438.5 390.333,436.5 391,434.5C 398.3,426.669 401.966,417.336 402,406.5C 402.366,404.548 403.199,402.882 404.5,401.5 Z"/></g>
<g><path style="opacity:1" fill="#f6b646" d="M 442.5,403.5 C 442.605,429.448 433.271,451.281 414.5,469C 410.612,471.772 406.612,474.272 402.5,476.5C 389.418,483.604 375.418,486.937 360.5,486.5C 360.622,482.853 362.288,480.019 365.5,478C 401.675,471.159 423.175,449.659 430,413.5C 431.5,411.333 433.333,409.5 435.5,408C 438.933,407.964 441.266,406.464 442.5,403.5 Z"/></g>
</svg>
