<?xml version="1.0" encoding="UTF-8"?>
<!DOCTYPE svg PUBLIC "-//W3C//DTD SVG 1.1//EN" "http://www.w3.org/Graphics/SVG/1.1/DTD/svg11.dtd">
<svg xmlns="http://www.w3.org/2000/svg" version="1.1" width="512px" height="512px" style="shape-rendering:geometricPrecision; text-rendering:geometricPrecision; image-rendering:optimizeQuality; fill-rule:evenodd; clip-rule:evenodd" xmlns:xlink="http://www.w3.org/1999/xlink">
<g><path style="opacity:0.99" fill="#61b1f1" d="M 247.5,-0.5 C 252.833,-0.5 258.167,-0.5 263.5,-0.5C 269.776,1.3059 275.11,4.63923 279.5,9.5C 280.028,10.8474 280.195,12.1807 280,13.5C 218.966,75.0371 157.799,135.704 96.5,195.5C 105.702,138.475 136.368,97.6416 188.5,73C 199.158,68.419 210.158,64.919 221.5,62.5C 222.333,50.8476 222.833,39.1809 223,27.5C 225.387,12.9549 233.554,3.6216 247.5,-0.5 Z"/></g>
<g><path style="opacity:0.994" fill="#5eabeb" d="M 279.5,9.5 C 284.176,14.5238 287.01,20.5238 288,27.5C 288.5,39.1619 288.667,50.8286 288.5,62.5C 287.683,60.0314 287.183,57.3647 287,54.5C 222.965,118.701 158.799,182.701 94.5,246.5C 94.3334,232.829 94.5001,219.163 95,205.5C 95.1787,201.975 95.6787,198.641 96.5,195.5C 157.799,135.704 218.966,75.0371 280,13.5C 280.195,12.1807 280.028,10.8474 279.5,9.5 Z"/></g>
<g><path style="opacity:0.996" fill="#5aa5e3" d="M 288.5,62.5 C 298.599,64.4359 308.266,67.4359 317.5,71.5C 316.761,71.369 316.094,71.5357 315.5,72C 241.965,145.701 168.299,219.201 94.5,292.5C 94.5,277.167 94.5,261.833 94.5,246.5C 158.799,182.701 222.965,118.701 287,54.5C 287.183,57.3647 287.683,60.0314 288.5,62.5 Z"/></g>
<g><path style="opacity:0.998" fill="#569fdd" d="M 317.5,71.5 C 326.729,74.7812 335.396,79.1145 343.5,84.5C 240.833,187.833 137.833,290.833 34.5,393.5C 31.3594,383.856 32.1928,374.523 37,365.5C 51.9709,349.529 67.3042,333.862 83,318.5C 88.7334,310.698 92.5667,302.031 94.5,292.5C 168.299,219.201 241.965,145.701 315.5,72C 316.094,71.5357 316.761,71.369 317.5,71.5 Z"/></g>
<g><path style="opacity:0.999" fill="#539ad7" d="M 343.5,84.5 C 351.764,89.7675 359.431,95.7675 366.5,102.5C 263.167,206.5 159.5,310.167 55.5,413.5C 45.2376,410.237 38.2376,403.571 34.5,393.5C 137.833,290.833 240.833,187.833 343.5,84.5 Z"/></g>
<g><path style="opacity:1" fill="#5096d1" d="M 366.5,102.5 C 374.337,109.191 381.004,116.858 386.5,125.5C 289.75,220.75 193.416,316.583 97.5,413C 99.3817,413.198 101.048,413.698 102.5,414.5C 86.798,414.787 71.1314,414.454 55.5,413.5C 159.5,310.167 263.167,206.5 366.5,102.5 Z"/></g>
<g><path style="opacity:0.998" fill="#4d91cc" d="M 386.5,125.5 C 391.167,130.824 394.834,136.824 397.5,143.5C 308.035,233.465 218.368,323.299 128.5,413C 125.305,413.181 122.305,413.681 119.5,414.5C 113.833,414.5 108.167,414.5 102.5,414.5C 101.048,413.698 99.3817,413.198 97.5,413C 193.416,316.583 289.75,220.75 386.5,125.5 Z"/></g>
<g><path style="opacity:0.998" fill="#4b8dc7" d="M 397.5,143.5 C 401.618,150.071 404.951,157.071 407.5,164.5C 323.215,247.118 239.549,330.451 156.5,414.5C 144.167,414.5 131.833,414.5 119.5,414.5C 122.305,413.681 125.305,413.181 128.5,413C 218.368,323.299 308.035,233.465 397.5,143.5 Z"/></g>
<g><path style="opacity:0.997" fill="#498ac3" d="M 407.5,164.5 C 409.811,171.746 411.811,179.079 413.5,186.5C 337.083,261.416 261.083,336.916 185.5,413C 182.635,413.183 179.969,413.683 177.5,414.5C 170.5,414.5 163.5,414.5 156.5,414.5C 239.549,330.451 323.215,247.118 407.5,164.5 Z"/></g>
<g><path style="opacity:0.996" fill="#4686be" d="M 413.5,186.5 C 415.968,200.713 416.968,215.046 416.5,229.5C 415.686,227.369 415.186,225.036 415,222.5C 350.886,287.115 286.386,351.115 221.5,414.5C 206.833,414.5 192.167,414.5 177.5,414.5C 179.969,413.683 182.635,413.183 185.5,413C 261.083,336.916 337.083,261.416 413.5,186.5 Z"/></g>
<g><path style="opacity:0.994" fill="#4380b8" d="M 416.5,229.5 C 416.5,238.833 416.5,248.167 416.5,257.5C 415.686,259.631 415.186,261.964 415,264.5C 365.5,314 316,363.5 266.5,413C 268.708,413.191 270.708,413.691 272.5,414.5C 255.5,414.5 238.5,414.5 221.5,414.5C 286.386,351.115 350.886,287.115 415,222.5C 415.186,225.036 415.686,227.369 416.5,229.5 Z"/></g>
<g><path style="opacity:0.994" fill="#407bb2" d="M 416.5,257.5 C 416.333,269.505 416.5,281.505 417,293.5C 417.867,297.932 419.034,302.265 420.5,306.5C 383.549,341.784 347.216,377.784 311.5,414.5C 298.5,414.5 285.5,414.5 272.5,414.5C 270.708,413.691 268.708,413.191 266.5,413C 316,363.5 365.5,314 415,264.5C 415.186,261.964 415.686,259.631 416.5,257.5 Z"/></g>
<g><path style="opacity:0.992" fill="#3c75ab" d="M 420.5,306.5 C 422.712,310.571 425.212,314.571 428,318.5C 432.037,322.369 435.87,326.369 439.5,330.5C 411.084,357.414 383.084,384.914 355.5,413C 352.635,413.183 349.969,413.683 347.5,414.5C 335.5,414.5 323.5,414.5 311.5,414.5C 347.216,377.784 383.549,341.784 420.5,306.5 Z"/></g>
<g><path style="opacity:0.987" fill="#3971a6" d="M 439.5,330.5 C 446.167,336.5 452.5,342.833 458.5,349.5C 458.631,350.239 458.464,350.906 458,351.5C 436.965,372.368 416.132,393.368 395.5,414.5C 379.5,414.5 363.5,414.5 347.5,414.5C 349.969,413.683 352.635,413.183 355.5,413C 383.084,384.914 411.084,357.414 439.5,330.5 Z"/></g>
<g><path style="opacity:0.986" fill="#366b9f" d="M 458.5,349.5 C 466.728,355.556 472.895,363.223 477,372.5C 481.529,393.954 473.362,407.787 452.5,414C 433.503,414.5 414.503,414.667 395.5,414.5C 416.132,393.368 436.965,372.368 458,351.5C 458.464,350.906 458.631,350.239 458.5,349.5 Z"/></g>
<g><path style="opacity:0.977" fill="#4380b8" d="M 245.5,433.5 C 230.202,449.299 214.702,464.965 199,480.5C 198.536,481.094 198.369,481.761 198.5,482.5C 188.11,467.949 183.776,451.615 185.5,433.5C 205.5,433.5 225.5,433.5 245.5,433.5 Z"/></g>
<g><path style="opacity:0.987" fill="#407ab1" d="M 245.5,433.5 C 263.833,433.5 282.167,433.5 300.5,433.5C 297.359,434.321 294.025,434.821 290.5,435C 267.632,457.701 244.965,480.535 222.5,503.5C 212.667,498.672 204.667,491.672 198.5,482.5C 198.369,481.761 198.536,481.094 199,480.5C 214.702,464.965 230.202,449.299 245.5,433.5 Z"/></g>
<g><path style="opacity:0.989" fill="#3c74aa" d="M 300.5,433.5 C 308.833,433.5 317.167,433.5 325.5,433.5C 327.251,466.509 313.584,490.676 284.5,506C 278.863,508.318 273.197,510.151 267.5,511.5C 259.5,511.5 251.5,511.5 243.5,511.5C 236.07,510.022 229.07,507.356 222.5,503.5C 244.965,480.535 267.632,457.701 290.5,435C 294.025,434.821 297.359,434.321 300.5,433.5 Z"/></g>
</svg>
