<?xml version="1.0" encoding="UTF-8"?>
<!DOCTYPE svg PUBLIC "-//W3C//DTD SVG 1.1//EN" "http://www.w3.org/Graphics/SVG/1.1/DTD/svg11.dtd">
<svg xmlns="http://www.w3.org/2000/svg" version="1.1" width="512px" height="512px" style="shape-rendering:geometricPrecision; text-rendering:geometricPrecision; image-rendering:optimizeQuality; fill-rule:evenodd; clip-rule:evenodd" xmlns:xlink="http://www.w3.org/1999/xlink">
<g><path style="opacity:0.999" fill="#dceafc" d="M 479.5,328.5 C 444.036,295.538 408.703,262.372 373.5,229C 367.5,225.667 361.5,225.667 355.5,229C 335.632,249.035 315.632,268.868 295.5,288.5C 269.368,262.868 243.368,237.035 217.5,211C 210.795,206.342 204.128,206.342 197.5,211C 142.299,266.368 86.9654,321.535 31.5,376.5C 31.3333,273.499 31.5,170.499 32,67.5C 38.5,39.6667 55.6667,22.5 83.5,16C 198.167,15.3333 312.833,15.3333 427.5,16C 455.333,22.5 472.5,39.6667 479,67.5C 479.5,154.499 479.667,241.499 479.5,328.5 Z"/></g>
<g><path style="opacity:1" fill="#3c93eb" d="M 294.5,127.5 C 323.639,125.803 342.472,138.803 351,166.5C 353.346,197.334 339.513,216.167 309.5,223C 280.031,224.2 262.198,210.367 256,181.5C 254.832,153.498 267.665,135.498 294.5,127.5 Z"/></g>
<g><path style="opacity:1" fill="#3c93eb" d="M 295.5,288.5 C 353.833,347.167 412.167,405.833 470.5,464.5C 460.833,481.021 446.499,491.187 427.5,495C 312.833,495.667 198.167,495.667 83.5,495C 72.8666,492.863 63.5332,488.363 55.5,481.5C 54.4154,479.413 52.7488,478.08 50.5,477.5C 45.3774,473.039 41.3774,467.706 38.5,461.5C 38.7148,459.821 38.0481,458.821 36.5,458.5C 34.5405,453.668 33.0405,448.668 32,443.5C 31.5,421.169 31.3334,398.836 31.5,376.5C 86.9654,321.535 142.299,266.368 197.5,211C 204.128,206.342 210.795,206.342 217.5,211C 243.368,237.035 269.368,262.868 295.5,288.5 Z"/></g>
<g><path style="opacity:1" fill="#336699" d="M 479.5,328.5 C 479.667,366.835 479.5,405.168 479,443.5C 478.249,448.211 476.749,452.544 474.5,456.5C 473.069,457.78 472.402,459.447 472.5,461.5C 472.068,462.71 471.401,463.71 470.5,464.5C 412.167,405.833 353.833,347.167 295.5,288.5C 315.632,268.868 335.632,249.035 355.5,229C 361.5,225.667 367.5,225.667 373.5,229C 408.703,262.372 444.036,295.538 479.5,328.5 Z"/></g>
<g><path style="opacity:0.969" fill="#abcbf6" d="M 36.5,458.5 C 38.0481,458.821 38.7148,459.821 38.5,461.5C 37.5987,460.71 36.9321,459.71 36.5,458.5 Z"/></g>
<g><path style="opacity:0.447" fill="#abc1db" d="M 474.5,456.5 C 474.598,458.553 473.931,460.22 472.5,461.5C 472.402,459.447 473.069,457.78 474.5,456.5 Z"/></g>
<g><path style="opacity:0.965" fill="#80b9f4" d="M 50.5,477.5 C 52.7488,478.08 54.4154,479.413 55.5,481.5C 53.2512,480.92 51.5846,479.587 50.5,477.5 Z"/></g>
</svg>
