<?xml version="1.0" encoding="UTF-8"?>
<!DOCTYPE svg PUBLIC "-//W3C//DTD SVG 1.1//EN" "http://www.w3.org/Graphics/SVG/1.1/DTD/svg11.dtd">
<svg xmlns="http://www.w3.org/2000/svg" version="1.1" width="512px" height="512px" style="shape-rendering:geometricPrecision; text-rendering:geometricPrecision; image-rendering:optimizeQuality; fill-rule:evenodd; clip-rule:evenodd" xmlns:xlink="http://www.w3.org/1999/xlink">
<g><path style="opacity:0.993" fill="#fd7e42" d="M 209.5,-0.5 C 213.833,-0.5 218.167,-0.5 222.5,-0.5C 222.333,12.8375 222.5,26.1708 223,39.5C 224.068,44.2353 226.901,47.4019 231.5,49C 239.5,49.3333 247.5,49.6667 255.5,50C 263.808,52.3042 269.641,57.4708 273,65.5C 274.377,72.0764 274.877,78.7431 274.5,85.5C 232.499,85.6667 190.499,85.5 148.5,85C 145.789,83.7394 143.622,81.906 142,79.5C 140.639,73.5933 140.139,67.5933 140.5,61.5C 140.5,60.8333 140.167,60.5 139.5,60.5C 141.057,47.1112 148.39,38.9446 161.5,36C 168.833,35.6667 176.167,35.3333 183.5,35C 187.333,33.8333 189.833,31.3333 191,27.5C 190.961,13.8757 197.128,4.54236 209.5,-0.5 Z"/></g>
<g><path style="opacity:1" fill="#fa6931" d="M 222.5,-0.5 C 229.167,-0.5 235.833,-0.5 242.5,-0.5C 254.81,5.02418 260.977,14.6909 261,28.5C 262.563,31.7284 265.063,33.8951 268.5,35C 275.833,35.3333 283.167,35.6667 290.5,36C 303.817,38.8135 310.817,46.9801 311.5,60.5C 311.666,65.8437 311.499,71.1771 311,76.5C 309.998,80.6803 307.498,83.5136 303.5,85C 293.839,85.4998 284.172,85.6665 274.5,85.5C 274.877,78.7431 274.377,72.0764 273,65.5C 269.641,57.4708 263.808,52.3042 255.5,50C 247.5,49.6667 239.5,49.3333 231.5,49C 226.901,47.4019 224.068,44.2353 223,39.5C 222.5,26.1708 222.333,12.8375 222.5,-0.5 Z"/></g>
<g><path style="opacity:0.99" fill="#0f80ac" d="M 73.5,60.5 C 73.1671,194.334 73.5004,328.001 74.5,461.5C 75.1828,465.02 77.1828,467.52 80.5,469C 120.165,469.5 159.832,469.667 199.5,469.5C 197.927,482.758 203.594,487.592 216.5,484C 222.348,478.918 228.348,474.085 234.5,469.5C 279.835,469.667 325.168,469.5 370.5,469C 373.358,467.306 375.691,465.139 377.5,462.5C 377.667,474.838 377.5,487.171 377,499.5C 374.915,505.754 370.748,509.754 364.5,511.5C 259.167,511.5 153.833,511.5 48.5,511.5C 42.4503,509.275 38.6169,504.942 37,498.5C 36.3333,356.833 36.3333,215.167 37,73.5C 38.6891,68.4748 41.8558,64.6415 46.5,62C 55.4178,60.5863 64.4178,60.0863 73.5,60.5 Z"/></g>
<g><path style="opacity:1" fill="#a0c6d6" d="M 73.5,60.5 C 95.5,60.5 117.5,60.5 139.5,60.5C 140.167,60.5 140.5,60.8333 140.5,61.5C 118.5,61.5 96.5,61.5 74.5,61.5C 74.5,194.833 74.5,328.167 74.5,461.5C 73.5004,328.001 73.1671,194.334 73.5,60.5 Z"/></g>
<g><path style="opacity:1" fill="#f6efef" d="M 311.5,60.5 C 333.5,60.5 355.5,60.5 377.5,60.5C 377.168,116.003 377.501,171.336 378.5,226.5C 328.5,288.833 278.5,351.167 228.5,413.5C 218.833,432.167 209.167,450.833 199.5,469.5C 159.832,469.667 120.165,469.5 80.5,469C 77.1828,467.52 75.1828,465.02 74.5,461.5C 74.5,328.167 74.5,194.833 74.5,61.5C 96.5,61.5 118.5,61.5 140.5,61.5C 140.139,67.5933 140.639,73.5933 142,79.5C 143.622,81.906 145.789,83.7394 148.5,85C 190.499,85.5 232.499,85.6667 274.5,85.5C 284.172,85.6665 293.839,85.4998 303.5,85C 307.498,83.5136 309.998,80.6803 311,76.5C 311.499,71.1771 311.666,65.8437 311.5,60.5 Z"/></g>
<g><path style="opacity:1" fill="#0d7296" d="M 377.5,60.5 C 385.84,60.3336 394.173,60.5003 402.5,61C 407.91,62.7425 411.744,66.2425 414,71.5C 415.474,107.118 415.974,142.785 415.5,178.5C 415.291,179.922 414.791,181.255 414,182.5C 410.287,186.708 406.787,191.041 403.5,195.5C 394.938,205.611 386.604,215.944 378.5,226.5C 377.501,171.336 377.168,116.003 377.5,60.5 Z"/></g>
<g><path style="opacity:1" fill="#fba71b" d="M 171.5,133.5 C 179.212,132.715 182.712,136.048 182,143.5C 172.609,158.224 162.442,172.391 151.5,186C 145.985,188.238 140.651,187.905 135.5,185C 129.333,179.5 123.167,174 117,168.5C 113.549,161.536 115.549,157.203 123,155.5C 124.627,155.625 126.127,156.125 127.5,157C 133,161.833 138.5,166.667 144,171.5C 152.943,158.589 162.11,145.923 171.5,133.5 Z"/></g>
<g><path style="opacity:1" fill="#786e79" d="M 216.5,137.5 C 254.835,137.333 293.168,137.5 331.5,138C 337.729,142.171 338.062,146.837 332.5,152C 293.833,152.667 255.167,152.667 216.5,152C 213.634,150.607 212.301,148.274 212.5,145C 212.43,141.634 213.763,139.134 216.5,137.5 Z"/></g>
<g><path style="opacity:0.982" fill="#fec2aa" d="M 440.5,225.5 C 428.191,215.53 415.858,205.53 403.5,195.5C 406.787,191.041 410.287,186.708 414,182.5C 414.791,181.255 415.291,179.922 415.5,178.5C 420.469,172.688 425.303,166.688 430,160.5C 443.346,147.247 456.679,147.247 470,160.5C 476.627,172.191 475.627,183.191 467,193.5C 458.302,204.356 449.469,215.023 440.5,225.5 Z"/></g>
<g><path style="opacity:1" fill="#7b717c" d="M 217.5,171.5 C 255.168,171.333 292.835,171.5 330.5,172C 336.643,174.508 337.976,178.675 334.5,184.5C 333.335,185.584 332.002,186.417 330.5,187C 292.833,187.667 255.167,187.667 217.5,187C 212.776,184.565 211.276,180.731 213,175.5C 214.397,173.93 215.897,172.596 217.5,171.5 Z"/></g>
<g><path style="opacity:0.999" fill="#f96931" d="M 403.5,195.5 C 415.858,205.53 428.191,215.53 440.5,225.5C 432.167,236.167 423.833,246.833 415.5,257.5C 413.583,258.909 411.75,260.576 410,262.5C 398.907,276.379 388.074,290.379 377.5,304.5C 339.937,350.611 302.604,396.944 265.5,443.5C 253.142,433.47 240.809,423.47 228.5,413.5C 278.5,351.167 328.5,288.833 378.5,226.5C 386.604,215.944 394.938,205.611 403.5,195.5 Z"/></g>
<g><path style="opacity:1" fill="#fba71a" d="M 171.5,246.5 C 179.161,245.663 182.661,248.996 182,256.5C 172.943,270.889 163.11,284.723 152.5,298C 148.405,300.22 144.072,300.887 139.5,300C 131.54,294.431 124.04,288.264 117,281.5C 113.67,274.794 115.503,270.461 122.5,268.5C 124.299,268.577 125.966,269.077 127.5,270C 133,274.833 138.5,279.667 144,284.5C 152.675,271.349 161.841,258.682 171.5,246.5 Z"/></g>
<g><path style="opacity:1" fill="#7b727c" d="M 217.5,247.5 C 255.168,247.333 292.835,247.5 330.5,248C 336.466,250.448 337.966,254.615 335,260.5C 333.581,261.46 332.081,262.293 330.5,263C 292.833,263.667 255.167,263.667 217.5,263C 212.776,260.565 211.276,256.731 213,251.5C 214.397,249.93 215.897,248.596 217.5,247.5 Z"/></g>
<g><path style="opacity:1" fill="#097195" d="M 415.5,257.5 C 415.667,337.167 415.5,416.834 415,496.5C 413.57,503.42 409.737,508.42 403.5,511.5C 390.5,511.5 377.5,511.5 364.5,511.5C 370.748,509.754 374.915,505.754 377,499.5C 377.5,487.171 377.667,474.838 377.5,462.5C 377.5,409.833 377.5,357.167 377.5,304.5C 388.074,290.379 398.907,276.379 410,262.5C 411.75,260.576 413.583,258.909 415.5,257.5 Z"/></g>
<g><path style="opacity:1" fill="#786e79" d="M 216.5,282.5 C 236.836,282.333 257.169,282.5 277.5,283C 281.212,285.513 282.378,289.013 281,293.5C 279.786,295.049 278.286,296.215 276.5,297C 256.5,297.667 236.5,297.667 216.5,297C 212.723,294.089 211.556,290.256 213,285.5C 214.145,284.364 215.312,283.364 216.5,282.5 Z"/></g>
<g><path style="opacity:1" fill="#f6efef" d="M 377.5,304.5 C 377.5,357.167 377.5,409.833 377.5,462.5C 375.691,465.139 373.358,467.306 370.5,469C 325.168,469.5 279.835,469.667 234.5,469.5C 244.833,460.833 255.167,452.167 265.5,443.5C 302.604,396.944 339.937,350.611 377.5,304.5 Z"/></g>
<g><path style="opacity:1" fill="#fba71b" d="M 171.5,357.5 C 179.658,356.823 183.158,360.49 182,368.5C 173,381.5 164,394.5 155,407.5C 149.348,411.743 143.181,412.577 136.5,410C 129.667,403.833 122.833,397.667 116,391.5C 114.874,380.938 119.041,377.771 128.5,382C 133.467,385.966 138.134,390.299 142.5,395C 143.167,395.667 143.833,395.667 144.5,395C 153.142,382.206 162.142,369.706 171.5,357.5 Z"/></g>
<g><path style="opacity:1" fill="#577980" d="M 228.5,413.5 C 240.809,423.47 253.142,433.47 265.5,443.5C 255.167,452.167 244.833,460.833 234.5,469.5C 228.348,474.085 222.348,478.918 216.5,484C 203.594,487.592 197.927,482.758 199.5,469.5C 209.167,450.833 218.833,432.167 228.5,413.5 Z"/></g>
</svg>
