<?xml version="1.0" encoding="UTF-8"?>
<!DOCTYPE svg PUBLIC "-//W3C//DTD SVG 1.1//EN" "http://www.w3.org/Graphics/SVG/1.1/DTD/svg11.dtd">
<svg xmlns="http://www.w3.org/2000/svg" version="1.1" width="512px" height="512px" style="shape-rendering:geometricPrecision; text-rendering:geometricPrecision; image-rendering:optimizeQuality; fill-rule:evenodd; clip-rule:evenodd" xmlns:xlink="http://www.w3.org/1999/xlink">
<g><path style="opacity:0.991" fill="#e2a66e" d="M 332.5,43.5 C 331.5,43.5 330.5,43.5 329.5,43.5C 329.667,55.5046 329.5,67.5046 329,79.5C 327.5,82.3333 325.333,84.5 322.5,86C 276.168,86.5 229.835,86.6667 183.5,86.5C 183.5,84.5 183.5,82.5 183.5,80.5C 183.827,70.985 183.494,61.6517 182.5,52.5C 182.865,48.2629 184.865,45.0962 188.5,43C 201.496,42.5001 214.496,42.3334 227.5,42.5C 234.575,21.1216 249.242,12.955 271.5,18C 282.994,22.315 290.661,30.315 294.5,42C 307.34,42.1691 320.007,42.6691 332.5,43.5 Z"/></g>
<g><path style="opacity:1" fill="#ebecec" d="M 258.5,35.5 C 266.962,35.7969 270.462,40.1302 269,48.5C 266.103,53.1549 261.937,54.6549 256.5,53C 249.394,46.1548 250.061,40.3215 258.5,35.5 Z"/></g>
<g><path style="opacity:1" fill="#c48a59" d="M 332.5,43.5 C 336.723,44.9308 338.723,47.9308 338.5,52.5C 338.5,61.8333 338.5,71.1667 338.5,80.5C 338.5,80.8333 338.5,81.1667 338.5,81.5C 339.427,87.8157 337.094,92.3157 331.5,95C 284.167,95.6667 236.833,95.6667 189.5,95C 185.677,93.359 183.677,90.5257 183.5,86.5C 229.835,86.6667 276.168,86.5 322.5,86C 325.333,84.5 327.5,82.3333 329,79.5C 329.5,67.5046 329.667,55.5046 329.5,43.5C 330.5,43.5 331.5,43.5 332.5,43.5 Z"/></g>
<g><path style="opacity:0.995" fill="#837683" d="M 182.5,52.5 C 183.494,61.6517 183.827,70.985 183.5,80.5C 162.164,80.3334 140.831,80.5 119.5,81C 117,82.1667 115.167,84 114,86.5C 113.333,200.5 113.333,314.5 114,428.5C 115.167,431.667 117.333,433.833 120.5,435C 186.499,435.5 252.499,435.667 318.5,435.5C 319.473,437.068 319.64,438.735 319,440.5C 317.021,444.955 315.188,449.455 313.5,454C 313.667,454.833 313.833,455.667 314,456.5C 316.372,458.703 318.539,461.037 320.5,463.5C 247.166,463.667 173.833,463.5 100.5,463C 93.4269,460.928 88.5936,456.428 86,449.5C 85.3333,321.833 85.3333,194.167 86,66.5C 88.5,60 93,55.5 99.5,53C 127.165,52.5 154.831,52.3334 182.5,52.5 Z"/></g>
<g><path style="opacity:0.993" fill="#827682" d="M 338.5,52.5 C 355.5,52.5 372.5,52.5 389.5,52.5C 389.5,61.8333 389.5,71.1667 389.5,80.5C 372.5,80.5 355.5,80.5 338.5,80.5C 338.5,71.1667 338.5,61.8333 338.5,52.5 Z"/></g>
<g><path style="opacity:1" fill="#695f69" d="M 389.5,52.5 C 401.243,52.0645 412.91,52.5645 424.5,54C 430.626,57.3993 434.459,62.5659 436,69.5C 436.5,151.833 436.667,234.166 436.5,316.5C 429.347,313.114 422.013,310.114 414.5,307.5C 412.532,301.9 410.198,296.566 407.5,291.5C 407.667,222.833 407.5,154.166 407,85.5C 405.457,83.6217 403.624,82.1217 401.5,81C 397.514,80.5012 393.514,80.3345 389.5,80.5C 389.5,71.1667 389.5,61.8333 389.5,52.5 Z"/></g>
<g><path style="opacity:1" fill="#d1d1d6" d="M 338.5,81.5 C 338.5,81.1667 338.5,80.8333 338.5,80.5C 355.5,80.5 372.5,80.5 389.5,80.5C 393.514,80.3345 397.514,80.5012 401.5,81C 403.624,82.1217 405.457,83.6217 407,85.5C 407.5,154.166 407.667,222.833 407.5,291.5C 405.167,291.5 402.833,291.5 400.5,291.5C 396.833,291.5 393.167,291.5 389.5,291.5C 389.5,221.5 389.5,151.5 389.5,81.5C 372.5,81.5 355.5,81.5 338.5,81.5 Z"/></g>
<g><path style="opacity:1" fill="#ebeef0" d="M 183.5,80.5 C 183.5,82.5 183.5,84.5 183.5,86.5C 183.677,90.5257 185.677,93.359 189.5,95C 236.833,95.6667 284.167,95.6667 331.5,95C 337.094,92.3157 339.427,87.8157 338.5,81.5C 355.5,81.5 372.5,81.5 389.5,81.5C 389.5,151.5 389.5,221.5 389.5,291.5C 386.223,291.216 383.057,291.549 380,292.5C 377.859,297.756 376.026,303.09 374.5,308.5C 365.421,310.36 356.921,313.693 349,318.5C 343.442,316.304 337.942,313.971 332.5,311.5C 326.181,317.318 320.014,323.318 314,329.5C 313.517,330.448 313.351,331.448 313.5,332.5C 293.831,332.333 274.164,332.5 254.5,333C 247.462,337.186 246.795,342.186 252.5,348C 274.831,348.5 297.164,348.667 319.5,348.5C 315.694,355.117 312.694,362.117 310.5,369.5C 291.164,369.333 271.83,369.5 252.5,370C 246.795,375.814 247.462,380.814 254.5,385C 267.162,385.5 279.829,385.667 292.5,385.5C 292.334,392.508 292.5,399.508 293,406.5C 298.667,408.833 304.333,411.167 310,413.5C 311.759,421.283 314.593,428.616 318.5,435.5C 252.499,435.667 186.499,435.5 120.5,435C 117.333,433.833 115.167,431.667 114,428.5C 113.333,314.5 113.333,200.5 114,86.5C 115.167,84 117,82.1667 119.5,81C 140.831,80.5 162.164,80.3334 183.5,80.5 Z"/></g>
<g><path style="opacity:1" fill="#8bc9fd" d="M 156.5,127.5 C 175.503,127.333 194.503,127.5 213.5,128C 214,128.5 214.5,129 215,129.5C 216.143,139.238 216.643,149.072 216.5,159C 216.333,168.167 216.167,177.333 216,186.5C 215.626,187.416 215.126,188.25 214.5,189C 195.257,190.641 175.923,190.975 156.5,190C 155.333,188.833 154.167,187.667 153,186.5C 152.333,168.167 152.333,149.833 153,131.5C 154.032,129.973 155.199,128.64 156.5,127.5 Z"/></g>
<g><path style="opacity:1" fill="#a89ca8" d="M 254.5,132.5 C 293.168,132.333 331.835,132.5 370.5,133C 378.1,137.579 378.433,142.579 371.5,148C 332.167,148.667 292.833,148.667 253.5,148C 249.139,145.774 247.639,142.274 249,137.5C 250.73,135.598 252.563,133.931 254.5,132.5 Z"/></g>
<g><path style="opacity:1" fill="#837682" d="M 47.5,140.5 C 43.4862,140.334 39.4862,140.501 35.5,141C 41.9097,143.075 46.4097,147.242 49,153.5C 49.4997,161.159 49.6664,168.826 49.5,176.5C 38.1667,176.5 26.8333,176.5 15.5,176.5C 15.3336,168.826 15.5003,161.159 16,153.5C 18.7036,146.127 23.8703,141.627 31.5,140C 37.0164,139.183 42.3497,139.349 47.5,140.5 Z"/></g>
<g><path style="opacity:1" fill="#6a5f68" d="M 47.5,140.5 C 57.4102,142.411 62.7435,148.411 63.5,158.5C 63.5,164.5 63.5,170.5 63.5,176.5C 58.8333,176.5 54.1667,176.5 49.5,176.5C 49.6664,168.826 49.4997,161.159 49,153.5C 46.4097,147.242 41.9097,143.075 35.5,141C 39.4862,140.501 43.4862,140.334 47.5,140.5 Z"/></g>
<g><path style="opacity:1" fill="#eaeef1" d="M 194.5,141.5 C 203.778,140.376 207.278,144.376 205,153.5C 199.167,160.667 193.333,167.833 187.5,175C 184.634,176.457 181.634,176.79 178.5,176C 174,171.5 169.5,167 165,162.5C 161.993,152.511 165.493,148.677 175.5,151C 177.35,153.018 179.35,154.851 181.5,156.5C 185.595,151.322 189.928,146.322 194.5,141.5 Z"/></g>
<g><path style="opacity:1" fill="#a89da8" d="M 252.5,169.5 C 292.501,169.333 332.501,169.5 372.5,170C 378.205,175.814 377.538,180.814 370.5,185C 331.833,185.667 293.167,185.667 254.5,185C 247.395,180.645 246.728,175.479 252.5,169.5 Z"/></g>
<g><path style="opacity:1" fill="#ac8874" d="M 63.5,158.5 C 64.4902,164.645 64.8235,170.978 64.5,177.5C 59.5,177.5 54.5,177.5 49.5,177.5C 38.1667,177.5 26.8333,177.5 15.5,177.5C 15.5,177.167 15.5,176.833 15.5,176.5C 26.8333,176.5 38.1667,176.5 49.5,176.5C 54.1667,176.5 58.8333,176.5 63.5,176.5C 63.5,170.5 63.5,164.5 63.5,158.5 Z"/></g>
<g><path style="opacity:1" fill="#e2a76e" d="M 15.5,177.5 C 26.8333,177.5 38.1667,177.5 49.5,177.5C 49.5,239.5 49.5,301.5 49.5,363.5C 38.1667,363.5 26.8333,363.5 15.5,363.5C 15.5,301.5 15.5,239.5 15.5,177.5 Z"/></g>
<g><path style="opacity:1" fill="#c58a59" d="M 49.5,177.5 C 54.5,177.5 59.5,177.5 64.5,177.5C 64.8324,240.002 64.4991,302.336 63.5,364.5C 59.03,363.514 54.3633,363.181 49.5,363.5C 49.5,301.5 49.5,239.5 49.5,177.5 Z"/></g>
<g><path style="opacity:1" fill="#6ef4c2" d="M 156.5,227.5 C 175.17,227.333 193.836,227.5 212.5,228C 213.416,228.374 214.25,228.874 215,229.5C 216.143,239.238 216.643,249.072 216.5,259C 216.333,268.167 216.167,277.333 216,286.5C 215.626,287.416 215.126,288.25 214.5,289C 195.257,290.641 175.923,290.975 156.5,290C 155.333,288.833 154.167,287.667 153,286.5C 152.333,268.167 152.333,249.833 153,231.5C 154.376,230.295 155.542,228.962 156.5,227.5 Z"/></g>
<g><path style="opacity:1" fill="#a89ca8" d="M 254.5,232.5 C 293.168,232.333 331.835,232.5 370.5,233C 378.1,237.579 378.433,242.579 371.5,248C 331.833,248.667 292.167,248.667 252.5,248C 246.706,241.94 247.372,236.774 254.5,232.5 Z"/></g>
<g><path style="opacity:1" fill="#eaeff0" d="M 194.5,241.5 C 203.493,240.66 206.993,244.66 205,253.5C 199.167,260.667 193.333,267.833 187.5,275C 184.634,276.457 181.634,276.79 178.5,276C 174,271.5 169.5,267 165,262.5C 161.993,252.511 165.493,248.677 175.5,251C 177.35,253.018 179.35,254.851 181.5,256.5C 186.067,251.696 190.401,246.696 194.5,241.5 Z"/></g>
<g><path style="opacity:1" fill="#a89da8" d="M 252.5,269.5 C 292.168,269.333 331.835,269.5 371.5,270C 378.311,275.33 377.977,280.33 370.5,285C 331.833,285.667 293.167,285.667 254.5,285C 247.395,280.645 246.728,275.479 252.5,269.5 Z"/></g>
<g><path style="opacity:1" fill="#fbce65" d="M 400.5,291.5 C 402.833,291.5 405.167,291.5 407.5,291.5C 410.198,296.566 412.532,301.9 414.5,307.5C 422.013,310.114 429.347,313.114 436.5,316.5C 437.71,316.932 438.71,317.599 439.5,318.5C 437.881,320.238 435.881,320.738 433.5,320C 424.953,315.059 415.953,311.225 406.5,308.5C 403.703,303.11 401.703,297.443 400.5,291.5 Z"/></g>
<g><path style="opacity:0.998" fill="#fee077" d="M 389.5,291.5 C 393.167,291.5 396.833,291.5 400.5,291.5C 401.703,297.443 403.703,303.11 406.5,308.5C 415.953,311.225 424.953,315.059 433.5,320C 435.881,320.738 437.881,320.238 439.5,318.5C 443.048,316.559 446.714,314.893 450.5,313.5C 455.464,318.965 460.63,324.298 466,329.5C 465.564,334.809 463.897,339.809 461,344.5C 460.333,346.167 460.333,347.833 461,349.5C 465.141,356.786 468.475,364.453 471,372.5C 476.251,375.028 481.584,377.361 487,379.5C 487.667,388.5 487.667,397.5 487,406.5C 481.333,408.833 475.667,411.167 470,413.5C 468.184,421.613 465.184,429.28 461,436.5C 461.436,441.809 463.103,446.809 466,451.5C 466.667,453.167 466.667,454.833 466,456.5C 460.581,461.749 455.415,467.083 450.5,472.5C 446.917,470.64 443.251,468.973 439.5,467.5C 437.545,465.674 435.212,465.174 432.5,466C 424.03,471.1 415.03,474.934 405.5,477.5C 403.786,483.263 401.786,488.93 399.5,494.5C 392.8,494.83 386.134,494.497 379.5,493.5C 377.777,488.387 375.777,483.387 373.5,478.5C 364.739,475.802 356.405,472.135 348.5,467.5C 343.459,470.124 338.293,472.458 333,474.5C 328.677,471.01 324.51,467.343 320.5,463.5C 318.539,461.037 316.372,458.703 314,456.5C 313.833,455.667 313.667,454.833 313.5,454C 315.188,449.455 317.021,444.955 319,440.5C 319.64,438.735 319.473,437.068 318.5,435.5C 314.593,428.616 311.759,421.283 310,413.5C 304.333,411.167 298.667,408.833 293,406.5C 292.5,399.508 292.334,392.508 292.5,385.5C 292.244,383.208 292.577,381.041 293.5,379C 298.42,376.804 303.42,374.804 308.5,373C 309.305,371.887 309.972,370.721 310.5,369.5C 312.694,362.117 315.694,355.117 319.5,348.5C 318.07,342.969 316.07,337.636 313.5,332.5C 313.351,331.448 313.517,330.448 314,329.5C 320.014,323.318 326.181,317.318 332.5,311.5C 337.942,313.971 343.442,316.304 349,318.5C 356.921,313.693 365.421,310.36 374.5,308.5C 376.026,303.09 377.859,297.756 380,292.5C 383.057,291.549 386.223,291.216 389.5,291.5 Z"/></g>
<g><path style="opacity:0.998" fill="#ffd165" d="M 450.5,472.5 C 455.415,467.083 460.581,461.749 466,456.5C 466.667,454.833 466.667,453.167 466,451.5C 463.103,446.809 461.436,441.809 461,436.5C 465.184,429.28 468.184,421.613 470,413.5C 475.667,411.167 481.333,408.833 487,406.5C 487.667,397.5 487.667,388.5 487,379.5C 481.584,377.361 476.251,375.028 471,372.5C 468.475,364.453 465.141,356.786 461,349.5C 460.333,347.833 460.333,346.167 461,344.5C 463.897,339.809 465.564,334.809 466,329.5C 460.63,324.298 455.464,318.965 450.5,313.5C 452.601,311.891 454.935,311.391 457.5,312C 463.333,317.833 469.167,323.667 475,329.5C 474.564,334.809 472.897,339.809 470,344.5C 469.333,346.167 469.333,347.833 470,349.5C 473.971,356.408 476.971,363.742 479,371.5C 484.216,374.108 489.55,376.442 495,378.5C 495.832,388.184 495.665,397.851 494.5,407.5C 489.072,409.36 483.905,411.694 479,414.5C 476.98,422.224 473.98,429.558 470,436.5C 471.667,443.167 473.333,449.833 475,456.5C 469.167,462.333 463.333,468.167 457.5,474C 455.041,474.239 452.707,473.739 450.5,472.5 Z"/></g>
<g><path style="opacity:1" fill="#fd656f" d="M 156.5,327.5 C 175.17,327.333 193.836,327.5 212.5,328C 213.416,328.374 214.25,328.874 215,329.5C 216.143,339.238 216.643,349.072 216.5,359C 216.333,368.167 216.167,377.333 216,386.5C 215.626,387.416 215.126,388.25 214.5,389C 195.257,390.641 175.923,390.975 156.5,390C 155.333,388.833 154.167,387.667 153,386.5C 152.333,368.167 152.333,349.833 153,331.5C 154.376,330.295 155.542,328.962 156.5,327.5 Z"/></g>
<g><path style="opacity:1" fill="#a89da8" d="M 313.5,332.5 C 316.07,337.636 318.07,342.969 319.5,348.5C 297.164,348.667 274.831,348.5 252.5,348C 246.795,342.186 247.462,337.186 254.5,333C 274.164,332.5 293.831,332.333 313.5,332.5 Z"/></g>
<g><path style="opacity:1" fill="#ebeef0" d="M 387.5,334.5 C 420.226,333.016 441.726,348.016 452,379.5C 456.218,406.219 447.384,427.385 425.5,443C 414.95,448.971 403.616,451.804 391.5,451.5C 352.816,438.813 337.982,412.48 347,372.5C 355.324,352.843 369.824,340.343 390.5,335C 389.552,334.517 388.552,334.351 387.5,334.5 Z"/></g>
<g><path style="opacity:1" fill="#d2d2d5" d="M 387.5,334.5 C 388.552,334.351 389.552,334.517 390.5,335C 369.824,340.343 355.324,352.843 347,372.5C 337.982,412.48 352.816,438.813 391.5,451.5C 367.706,449.533 350.539,437.866 340,416.5C 329.162,384.679 337.662,359.512 365.5,341C 372.339,337.109 379.672,334.942 387.5,334.5 Z"/></g>
<g><path style="opacity:1" fill="#867782" d="M 15.5,363.5 C 26.8333,363.5 38.1667,363.5 49.5,363.5C 44.3515,373.797 38.6849,383.797 32.5,393.5C 26.3305,383.833 20.6639,373.833 15.5,363.5 Z"/></g>
<g><path style="opacity:1" fill="#6c6068" d="M 49.5,363.5 C 54.3633,363.181 59.03,363.514 63.5,364.5C 56.2249,378.216 48.5582,391.716 40.5,405C 38.8866,405.089 37.7199,404.255 37,402.5C 35.4734,399.447 33.9734,396.447 32.5,393.5C 38.6849,383.797 44.3515,373.797 49.5,363.5 Z"/></g>
<g><path style="opacity:1" fill="#a89ca8" d="M 310.5,369.5 C 309.972,370.721 309.305,371.887 308.5,373C 303.42,374.804 298.42,376.804 293.5,379C 292.577,381.041 292.244,383.208 292.5,385.5C 279.829,385.667 267.162,385.5 254.5,385C 247.462,380.814 246.795,375.814 252.5,370C 271.83,369.5 291.164,369.333 310.5,369.5 Z"/></g>
<g><path style="opacity:1" fill="#8bc9fd" d="M 415.5,369.5 C 425.752,369.671 428.585,374.337 424,383.5C 412.167,394 400.333,404.5 388.5,415C 385.97,416.422 383.303,416.755 380.5,416C 374.667,410.167 368.833,404.333 363,398.5C 360.696,392.11 362.862,388.11 369.5,386.5C 374.756,388.235 379.089,391.402 382.5,396C 384.289,396.52 385.956,396.187 387.5,395C 396.73,386.265 406.063,377.765 415.5,369.5 Z"/></g>
<g><path style="opacity:0.994" fill="#ffd265" d="M 439.5,467.5 C 431.997,472.746 423.664,476.079 414.5,477.5C 412.967,482.908 411.134,488.241 409,493.5C 405.943,494.451 402.777,494.784 399.5,494.5C 401.786,488.93 403.786,483.263 405.5,477.5C 415.03,474.934 424.03,471.1 432.5,466C 435.212,465.174 437.545,465.674 439.5,467.5 Z"/></g>
</svg>
