<?xml version="1.0" encoding="UTF-8"?>
<!DOCTYPE svg PUBLIC "-//W3C//DTD SVG 1.1//EN" "http://www.w3.org/Graphics/SVG/1.1/DTD/svg11.dtd">
<svg xmlns="http://www.w3.org/2000/svg" version="1.1" width="512px" height="512px" style="shape-rendering:geometricPrecision; text-rendering:geometricPrecision; image-rendering:optimizeQuality; fill-rule:evenodd; clip-rule:evenodd" xmlns:xlink="http://www.w3.org/1999/xlink">
<g><path style="opacity:0.998" fill="#e4e5e7" d="M 255.5,15.5 C 255.5,82.8333 255.5,150.167 255.5,217.5C 215.33,217.168 175.33,217.501 135.5,218.5C 122.737,222.711 119.237,231.044 125,243.5C 127.51,246.665 130.676,248.665 134.5,249.5C 174.663,250.499 214.997,250.832 255.5,250.5C 255.5,260.833 255.5,271.167 255.5,281.5C 215.33,281.168 175.33,281.501 135.5,282.5C 122.737,286.711 119.237,295.044 125,307.5C 127.51,310.665 130.676,312.665 134.5,313.5C 174.663,314.499 214.997,314.832 255.5,314.5C 255.5,324.833 255.5,335.167 255.5,345.5C 215.33,345.168 175.33,345.501 135.5,346.5C 122.737,350.711 119.237,359.044 125,371.5C 127.51,374.665 130.676,376.665 134.5,377.5C 174.663,378.499 214.997,378.832 255.5,378.5C 255.5,388.833 255.5,399.167 255.5,409.5C 215.33,409.168 175.33,409.501 135.5,410.5C 122.737,414.711 119.237,423.044 125,435.5C 127.51,438.665 130.676,440.665 134.5,441.5C 174.663,442.499 214.997,442.832 255.5,442.5C 255.5,460.167 255.5,477.833 255.5,495.5C 196.499,495.667 137.499,495.5 78.5,495C 73.5995,493.098 70.4329,489.598 69,484.5C 68.3333,331.833 68.3333,179.167 69,26.5C 70.4056,21.4268 73.5723,17.9268 78.5,16C 137.499,15.5 196.499,15.3333 255.5,15.5 Z"/></g>
<g><path style="opacity:1" fill="#ebeef0" d="M 255.5,15.5 C 289.5,15.5 323.5,15.5 357.5,15.5C 353.238,17.9262 349.738,21.2595 347,25.5C 346.333,60.8333 346.333,96.1667 347,131.5C 348.743,136.91 352.243,140.744 357.5,143C 381.833,143.667 406.167,143.667 430.5,143C 436.35,140.981 440.35,137.148 442.5,131.5C 442.667,249.167 442.5,366.834 442,484.5C 440.567,489.598 437.4,493.098 432.5,495C 373.501,495.5 314.501,495.667 255.5,495.5C 255.5,477.833 255.5,460.167 255.5,442.5C 262.877,443.311 269.877,442.144 276.5,439C 284.977,429.335 284.31,420.335 274.5,412C 268.376,409.822 262.042,408.989 255.5,409.5C 255.5,399.167 255.5,388.833 255.5,378.5C 295.835,378.667 336.168,378.5 376.5,378C 388.895,372.913 392.062,364.413 386,352.5C 383.222,349.193 379.722,347.026 375.5,346C 335.501,345.5 295.501,345.333 255.5,345.5C 255.5,335.167 255.5,324.833 255.5,314.5C 295.835,314.667 336.168,314.5 376.5,314C 388.895,308.913 392.062,300.413 386,288.5C 383.222,285.193 379.722,283.026 375.5,282C 335.501,281.5 295.501,281.333 255.5,281.5C 255.5,271.167 255.5,260.833 255.5,250.5C 295.835,250.667 336.168,250.5 376.5,250C 388.895,244.913 392.062,236.413 386,224.5C 383.222,221.193 379.722,219.026 375.5,218C 335.501,217.5 295.501,217.333 255.5,217.5C 255.5,150.167 255.5,82.8333 255.5,15.5 Z"/></g>
<g><path style="opacity:1" fill="#356799" d="M 357.5,15.5 C 364.251,14.295 370.085,15.9616 375,20.5C 396.752,53.672 418.752,86.672 441,119.5C 442.266,123.395 442.766,127.395 442.5,131.5C 440.35,137.148 436.35,140.981 430.5,143C 406.167,143.667 381.833,143.667 357.5,143C 352.243,140.744 348.743,136.91 347,131.5C 346.333,96.1667 346.333,60.8333 347,25.5C 349.738,21.2595 353.238,17.9262 357.5,15.5 Z"/></g>
<g><path style="opacity:1" fill="#d8598c" d="M 204.5,132.5 C 198.167,132.5 191.833,132.5 185.5,132.5C 185.5,138.833 185.5,145.167 185.5,151.5C 182.639,162.274 175.639,166.441 164.5,164C 158.609,161.382 155.276,156.882 154.5,150.5C 154.5,144.5 154.5,138.5 154.5,132.5C 148.167,132.5 141.833,132.5 135.5,132.5C 126.918,130.689 122.584,125.355 122.5,116.5C 122.837,108.503 126.837,103.503 134.5,101.5C 141.167,101.5 147.833,101.5 154.5,101.5C 154.5,95.1667 154.5,88.8333 154.5,82.5C 158.254,69.9276 166.254,66.0943 178.5,71C 182.194,73.6867 184.694,77.1867 186,81.5C 186.5,87.8246 186.666,94.1579 186.5,100.5C 194.685,99.8975 202.685,100.731 210.5,103C 220.769,111.619 221.102,120.619 211.5,130C 209.257,131.136 206.924,131.97 204.5,132.5 Z"/></g>
<g><path style="opacity:1" fill="#de98b5" d="M 154.5,82.5 C 154.5,88.8333 154.5,95.1667 154.5,101.5C 147.833,101.5 141.167,101.5 134.5,101.5C 140.645,100.51 146.978,100.177 153.5,100.5C 153.177,94.31 153.51,88.31 154.5,82.5 Z"/></g>
<g><path style="opacity:1" fill="#e0b5c9" d="M 135.5,132.5 C 141.833,132.5 148.167,132.5 154.5,132.5C 154.5,138.5 154.5,144.5 154.5,150.5C 153.511,145.025 153.178,139.358 153.5,133.5C 147.31,133.823 141.31,133.49 135.5,132.5 Z"/></g>
<g><path style="opacity:1" fill="#de98b5" d="M 204.5,132.5 C 198.69,133.49 192.69,133.823 186.5,133.5C 186.823,139.69 186.49,145.69 185.5,151.5C 185.5,145.167 185.5,138.833 185.5,132.5C 191.833,132.5 198.167,132.5 204.5,132.5 Z"/></g>
<g><path style="opacity:1" fill="#7a7a7a" d="M 135.5,218.5 C 175.5,218.5 215.5,218.5 255.5,218.5C 255.5,228.833 255.5,239.167 255.5,249.5C 215.167,249.5 174.833,249.5 134.5,249.5C 130.676,248.665 127.51,246.665 125,243.5C 119.237,231.044 122.737,222.711 135.5,218.5 Z"/></g>
<g><path style="opacity:1" fill="#b9b9b9" d="M 135.5,218.5 C 175.33,217.501 215.33,217.168 255.5,217.5C 295.501,217.333 335.501,217.5 375.5,218C 379.722,219.026 383.222,221.193 386,224.5C 392.062,236.413 388.895,244.913 376.5,250C 336.168,250.5 295.835,250.667 255.5,250.5C 214.997,250.832 174.663,250.499 134.5,249.5C 174.833,249.5 215.167,249.5 255.5,249.5C 255.5,239.167 255.5,228.833 255.5,218.5C 215.5,218.5 175.5,218.5 135.5,218.5 Z"/></g>
<g><path style="opacity:1" fill="#7a7a7a" d="M 135.5,282.5 C 175.5,282.5 215.5,282.5 255.5,282.5C 255.5,292.833 255.5,303.167 255.5,313.5C 215.167,313.5 174.833,313.5 134.5,313.5C 130.676,312.665 127.51,310.665 125,307.5C 119.237,295.044 122.737,286.711 135.5,282.5 Z"/></g>
<g><path style="opacity:1" fill="#b9b9b9" d="M 135.5,282.5 C 175.33,281.501 215.33,281.168 255.5,281.5C 295.501,281.333 335.501,281.5 375.5,282C 379.722,283.026 383.222,285.193 386,288.5C 392.062,300.413 388.895,308.913 376.5,314C 336.168,314.5 295.835,314.667 255.5,314.5C 214.997,314.832 174.663,314.499 134.5,313.5C 174.833,313.5 215.167,313.5 255.5,313.5C 255.5,303.167 255.5,292.833 255.5,282.5C 215.5,282.5 175.5,282.5 135.5,282.5 Z"/></g>
<g><path style="opacity:1" fill="#7a7a7a" d="M 135.5,346.5 C 175.5,346.5 215.5,346.5 255.5,346.5C 255.5,356.833 255.5,367.167 255.5,377.5C 215.167,377.5 174.833,377.5 134.5,377.5C 130.676,376.665 127.51,374.665 125,371.5C 119.237,359.044 122.737,350.711 135.5,346.5 Z"/></g>
<g><path style="opacity:1" fill="#b9b9b9" d="M 135.5,346.5 C 175.33,345.501 215.33,345.168 255.5,345.5C 295.501,345.333 335.501,345.5 375.5,346C 379.722,347.026 383.222,349.193 386,352.5C 392.062,364.413 388.895,372.913 376.5,378C 336.168,378.5 295.835,378.667 255.5,378.5C 214.997,378.832 174.663,378.499 134.5,377.5C 174.833,377.5 215.167,377.5 255.5,377.5C 255.5,367.167 255.5,356.833 255.5,346.5C 215.5,346.5 175.5,346.5 135.5,346.5 Z"/></g>
<g><path style="opacity:1" fill="#7a7a7a" d="M 135.5,410.5 C 175.5,410.5 215.5,410.5 255.5,410.5C 255.5,420.833 255.5,431.167 255.5,441.5C 215.167,441.5 174.833,441.5 134.5,441.5C 130.676,440.665 127.51,438.665 125,435.5C 119.237,423.044 122.737,414.711 135.5,410.5 Z"/></g>
<g><path style="opacity:1" fill="#b7b7b8" d="M 135.5,410.5 C 175.33,409.501 215.33,409.168 255.5,409.5C 262.042,408.989 268.376,409.822 274.5,412C 284.31,420.335 284.977,429.335 276.5,439C 269.877,442.144 262.877,443.311 255.5,442.5C 214.997,442.832 174.663,442.499 134.5,441.5C 174.833,441.5 215.167,441.5 255.5,441.5C 255.5,431.167 255.5,420.833 255.5,410.5C 215.5,410.5 175.5,410.5 135.5,410.5 Z"/></g>
</svg>
