<?xml version="1.0" encoding="UTF-8"?>
<svg version="1.1" xmlns="http://www.w3.org/2000/svg" width="512" height="512">
<path d="M0 0 C1.01790619 0.00215515 2.03581238 0.0043103 3.08456421 0.00653076 C17.69363523 0.05620146 32.02575853 0.30709809 46.375 3.3125 C47.34985352 3.51117676 48.32470703 3.70985352 49.32910156 3.91455078 C97.7109774 14.03517194 141.69928269 35.9516877 177.375 70.3125 C178.3640332 71.26068604 178.3640332 71.26068604 179.37304688 72.22802734 C188.86130305 81.37247479 197.6012044 90.66984009 205.375 101.3125 C206.23306152 102.46355017 207.09113451 103.61459177 207.94921875 104.765625 C213.98736829 112.95680614 219.34595521 121.47054105 224.375 130.3125 C224.73948242 130.94430176 225.10396484 131.57610352 225.47949219 132.22705078 C247.08534998 169.97532572 256.85198095 212.74189997 256.6875 255.9375 C256.68534485 256.95540619 256.6831897 257.97331238 256.68096924 259.02206421 C256.63129854 273.63113523 256.38040191 287.96325853 253.375 302.3125 C253.07698486 303.77478027 253.07698486 303.77478027 252.77294922 305.26660156 C242.65232806 353.6484774 220.7358123 397.63678269 186.375 433.3125 C185.74287598 433.97185547 185.11075195 434.63121094 184.45947266 435.31054688 C175.31502521 444.79880305 166.01765991 453.5387044 155.375 461.3125 C154.22394983 462.17056152 153.07290823 463.02863451 151.921875 463.88671875 C143.73224019 469.92427396 135.22961724 475.30707302 126.375 480.3125 C125.66778809 480.7146875 124.96057617 481.116875 124.23193359 481.53125 C101.09654164 494.5566741 75.92537591 503.30551461 49.9375 508.625 C49.21860596 508.77235596 48.49971191 508.91971191 47.7590332 509.0715332 C33.08339502 511.86090125 18.55831162 512.66142619 3.64770508 512.62817383 C0.70811513 512.6250221 -2.2304558 512.64854926 -5.16992188 512.67382812 C-18.54306192 512.71848737 -31.43916711 511.51301542 -44.625 509.3125 C-46.33055054 509.03031616 -46.33055054 509.03031616 -48.07055664 508.74243164 C-91.33802759 500.97044532 -132.38793216 480.98345309 -165.625 452.3125 C-166.37007813 451.67828125 -167.11515625 451.0440625 -167.8828125 450.390625 C-181.38779833 438.57948485 -194.05918743 425.82889772 -204.625 411.3125 C-205.48149066 410.16255169 -206.33826433 409.01281411 -207.1953125 407.86328125 C-213.23534209 399.67315742 -218.61867614 391.16870382 -223.625 382.3125 C-224.0271875 381.60528809 -224.429375 380.89807617 -224.84375 380.16943359 C-237.8691741 357.03404164 -246.61801461 331.86287591 -251.9375 305.875 C-252.08485596 305.15610596 -252.23221191 304.43721191 -252.3840332 303.6965332 C-255.35789088 288.05024391 -255.99800362 272.57681954 -255.9375 256.6875 C-255.93534485 255.66959381 -255.9331897 254.65168762 -255.93096924 253.60293579 C-255.88129854 238.99386477 -255.63040191 224.66174147 -252.625 210.3125 C-252.42632324 209.33764648 -252.22764648 208.36279297 -252.02294922 207.35839844 C-241.90232806 158.9765226 -219.9858123 114.98821731 -185.625 79.3125 C-184.99287598 78.65314453 -184.36075195 77.99378906 -183.70947266 77.31445312 C-174.56502521 67.82619695 -165.26765991 59.0862956 -154.625 51.3125 C-153.47394983 50.45443848 -152.32290823 49.59636549 -151.171875 48.73828125 C-142.98224019 42.70072604 -134.47961724 37.31792698 -125.625 32.3125 C-124.91778809 31.9103125 -124.21057617 31.508125 -123.48193359 31.09375 C-100.34654164 18.0683259 -75.17537591 9.31948539 -49.1875 4 C-48.46860596 3.85264404 -47.74971191 3.70528809 -47.0090332 3.5534668 C-31.36274391 0.57960912 -15.88931954 -0.06050362 0 0 Z " fill="#336699" transform="translate(255.625,-0.3125)"/>
<path d="M0 0 C7.06944869 6.74063712 11.43572225 16.19574569 16.1875 24.625 C17.59294818 27.11317487 19.00050524 29.60014127 20.41015625 32.0859375 C20.76412979 32.71040268 21.11810333 33.33486786 21.48280334 33.97825623 C23.86417613 38.16208413 26.31458331 42.29633799 28.80859375 46.4140625 C29.45183594 47.48390381 30.09507812 48.55374512 30.7578125 49.65600586 C31.97005503 51.66473357 33.19465373 53.66607517 34.43359375 55.65844727 C38.19778663 61.93006757 40.87077887 67.66802832 39.0859375 75.05078125 C36.76298846 79.19130493 34.66606186 81.82171294 30.6875 84.5625 C20.24472588 92.17333537 12.84224758 100.09825727 8.6875 112.5625 C7.20431222 128.43567793 9.66269041 140.91734414 19.6875 153.5625 C20.36941406 154.43519531 21.05132812 155.30789062 21.75390625 156.20703125 C26.59763976 162.26386438 31.74418316 168.00154287 37.0234375 173.67578125 C39.33723883 176.1829648 41.57698201 178.73604394 43.8125 181.3125 C70.71520098 211.41554511 70.71520098 211.41554511 106.109375 226.93359375 C118.73051994 227.4258184 129.64274658 225.967296 139.58984375 217.5546875 C144.20966651 213.16714633 148.36126096 208.57080483 151.875 203.25 C154.50692034 199.34749743 157.22230045 197.05089985 161.6875 195.5625 C172.32542945 193.97812753 183.03473354 202.79324483 191.8125 208 C198.45922342 211.92449959 205.11583165 215.8211626 211.84765625 219.59765625 C213.03320699 220.2667133 214.2185927 220.93606285 215.40380859 221.60571289 C217.67101903 222.88378939 219.94329928 224.15292515 222.22119141 225.41186523 C228.48115875 228.95826985 233.3893437 231.9661874 236.6875 238.5625 C237.93034838 247.21583186 234.95617803 254.31373408 231.6875 262.1875 C231.18215551 263.43358484 230.67743998 264.67992492 230.17333984 265.92651367 C215.84613912 301.04718147 215.84613912 301.04718147 196.4375 309.4375 C180.00415732 316.14408039 158.26669944 314.04430034 141.6875 308.5625 C140.9557959 308.32644043 140.2240918 308.09038086 139.47021484 307.84716797 C89.33984588 291.35677512 47.00912543 257.07484037 10.16821289 220.22851562 C8.4957835 218.55828905 6.81546331 216.89627621 5.13476562 215.234375 C-0.75015302 209.37925532 -6.27078577 203.4412304 -11.421875 196.9206543 C-13.24202429 194.65040352 -15.14653401 192.5075302 -17.125 190.375 C-47.76733479 156.1063534 -77.14370142 108.37392889 -77.75 61.3125 C-77.77239746 60.23556885 -77.79479492 59.1586377 -77.81787109 58.04907227 C-77.78318058 46.12192459 -73.97099855 36.34820895 -67.3125 26.5625 C-66.260625 24.9846875 -66.260625 24.9846875 -65.1875 23.375 C-57.03948819 14.31603035 -42.80789243 10.12902591 -31.84228516 5.6171875 C-29.54989822 4.6614732 -27.27929941 3.66907051 -25.01171875 2.65625 C-16.58183553 -1.04469998 -8.8456497 -3.83867817 0 0 Z " fill="#FEFEFE" transform="translate(176.3125,100.4375)"/>
</svg>
