<?xml version="1.0" encoding="UTF-8"?>
<svg version="1.1" xmlns="http://www.w3.org/2000/svg" width="512" height="512">
<path d="M0 0 C2.20997389 1.69064898 4.34387111 3.44159123 6.46484375 5.2421875 C7.12871094 5.77328125 7.79257813 6.304375 8.4765625 6.8515625 C28.06647371 23.01612577 38.97870932 47.33967562 41.46484375 72.2421875 C41.56057781 74.81399006 41.61827901 77.38745075 41.640625 79.9609375 C41.66381004 81.40235857 41.68792683 82.84376489 41.71289062 84.28515625 C41.7479784 86.51654215 41.77737489 88.74737543 41.79077148 90.97900391 C41.8505759 99.34610187 42.05688742 105.88098806 46.46484375 113.2421875 C47.2207487 118.5489488 45.94359624 123.13648199 42.96484375 127.5546875 C37.27919743 134.27408769 30.94733898 136.39393798 22.46484375 137.2421875 C22.4390625 138.34433594 22.41328125 139.44648438 22.38671875 140.58203125 C21.59439058 164.65435309 15.1216808 184.29689463 -2.53515625 201.2421875 C-3.21320313 201.91636719 -3.89125 202.59054688 -4.58984375 203.28515625 C-9.3983397 207.80434435 -17.75309362 215.2421875 -24.53515625 215.2421875 C-24.20515625 225.4721875 -23.87515625 235.7021875 -23.53515625 246.2421875 C-20.96992188 246.80421875 -18.4046875 247.36625 -15.76171875 247.9453125 C-6.61005962 249.97274792 2.51250043 252.10436304 11.60644531 254.37695312 C13.26376371 254.78753535 14.92298192 255.19052266 16.58398438 255.5859375 C31.01111733 259.02581861 45.70597457 263.48331832 56.46484375 274.2421875 C59.31989926 272.91527844 61.64319247 271.40262545 64.08984375 269.4296875 C72.00988052 263.42306876 80.53175306 260.34536192 90.08984375 257.9296875 C91.18490234 257.64407959 92.27996094 257.35847168 93.40820312 257.06420898 C96.42840279 256.28115527 99.45120957 255.5095625 102.47619629 254.74523926 C104.57169094 254.21515925 106.66627675 253.68159239 108.76074219 253.14746094 C113.16041946 252.0264706 117.56201922 250.9132485 121.96484375 249.8046875 C122.67650696 249.62529633 123.38817017 249.44590515 124.12139893 249.26107788 C126.14142803 248.75321878 128.16231706 248.24896166 130.18359375 247.74609375 C131.34826172 247.45549072 132.51292969 247.1648877 133.71289062 246.86547852 C136.46484375 246.2421875 136.46484375 246.2421875 138.46484375 246.2421875 C138.79484375 236.0121875 139.12484375 225.7821875 139.46484375 215.2421875 C137.48484375 214.5821875 135.50484375 213.9221875 133.46484375 213.2421875 C116.30296021 203.972265 102.92241298 188.84456464 96.78027344 170.15966797 C95.51233005 165.89131476 94.44438641 161.58624623 93.46484375 157.2421875 C91.15484375 157.2421875 88.84484375 157.2421875 86.46484375 157.2421875 C86.04525391 158.32306641 86.04525391 158.32306641 85.6171875 159.42578125 C84.51812946 162.11195361 83.29173094 164.6931962 82.02734375 167.3046875 C75.97212626 180.55829039 75.26317716 193.70229893 75.6796875 208.01757812 C75.81492893 217.41685768 75.81492893 217.41685768 72.46484375 221.2421875 C67.61967763 224.47229824 62.46649691 223.5181579 56.95703125 222.5078125 C55.41604015 222.17816075 53.87694492 221.83952571 52.33984375 221.4921875 C51.56769531 221.33492187 50.79554688 221.17765625 50 221.015625 C43.95747655 219.67741708 39.1537294 217.77551597 35.58984375 212.4296875 C33.00040736 205.09295105 35.17619385 199.25730334 37.90234375 192.3671875 C38.26070312 191.44824707 38.6190625 190.52930664 38.98828125 189.58251953 C45.10521875 174.27694711 52.65417235 160.03429939 64.40234375 148.3046875 C68.74559828 143.64960957 69.33164606 140.1933864 69.34765625 133.94140625 C69.46484375 131.2421875 69.46484375 131.2421875 71.21484375 127.8046875 C71.62734375 126.9590625 72.03984375 126.1134375 72.46484375 125.2421875 C71.29089918 122.56337183 71.29089918 122.56337183 69.46484375 120.2421875 C68.19909423 116.19943328 68.28471805 112.1524596 68.26171875 107.953125 C68.25601868 107.13582916 68.2503186 106.31853333 68.2444458 105.47647095 C68.23500199 103.73986091 68.22846427 102.003233 68.22460938 100.26660156 C68.21505605 97.67478407 68.18409415 95.08381373 68.15234375 92.4921875 C67.97987044 65.45493478 74.3145135 39.93930322 92.46484375 19.2421875 C93.05523437 18.50871094 93.645625 17.77523437 94.25390625 17.01953125 C109.7297974 -1.65032041 133.58986255 -13.66220629 157.46484375 -16.7578125 C173.04858953 -17.79573712 188.57917292 -17.78781743 203.46484375 -12.7578125 C204.71652344 -12.3453125 205.96820313 -11.9328125 207.2578125 -11.5078125 C231.47835471 -2.95497261 253.29309286 16.0575186 264.46484375 39.2421875 C265.79834291 42.27472064 267.02817536 45.33693889 268.21484375 48.4296875 C268.49674561 49.14648682 268.77864746 49.86328613 269.0690918 50.60180664 C274.26437508 64.87215927 274.95679012 79.53864256 274.85595703 94.56665039 C274.83964603 97.46481829 274.8560214 100.36163559 274.875 103.25976562 C274.873021 105.12239888 274.86918445 106.9850313 274.86328125 108.84765625 C274.86935394 109.70393112 274.87542664 110.56020599 274.88168335 111.44242859 C274.82200867 116.52592947 274.02355505 119.73162245 271.46484375 124.2421875 C271.27112337 127.2063724 271.27112337 127.2063724 272.453125 129.59375 C273.54811705 132.46017705 273.63049586 134.56722266 273.65234375 137.6171875 C274.07622059 142.93684186 275.36301459 144.7953482 279.30859375 148.19921875 C290.82707799 159.11256523 297.94481874 175.14235888 303.90234375 189.5546875 C304.24475098 190.36631348 304.5871582 191.17793945 304.93994141 192.01416016 C307.5886407 198.65682273 309.60522966 205.61978519 307.40234375 212.6171875 C303.05650443 218.50509883 297.41554348 220.10197821 290.58984375 221.4921875 C289.82542969 221.66492188 289.06101562 221.83765625 288.2734375 222.015625 C275.74280079 224.69620263 275.74280079 224.69620263 270.52734375 221.3671875 C268.41959102 219.19556347 267.50562361 218.24366792 267.38305664 215.23364258 C267.40102295 214.41790771 267.41898926 213.60217285 267.4375 212.76171875 C267.45143799 211.85228516 267.46537598 210.94285156 267.47973633 210.00585938 C267.49544678 209.03197266 267.51115723 208.05808594 267.52734375 207.0546875 C267.63166156 189.86311308 265.64756435 174.20662107 256.46484375 159.2421875 C256.46484375 158.5821875 256.46484375 157.9221875 256.46484375 157.2421875 C254.15484375 157.5721875 251.84484375 157.9021875 249.46484375 158.2421875 C249.34109375 158.9228125 249.21734375 159.6034375 249.08984375 160.3046875 C245.1291999 178.91971359 233.80387432 197.62254957 217.83886719 208.33300781 C213.49203225 211.14310733 209.09704811 213.92608532 204.46484375 216.2421875 C204.46484375 226.1421875 204.46484375 236.0421875 204.46484375 246.2421875 C207.05585938 246.81066406 209.646875 247.37914062 212.31640625 247.96484375 C221.0860142 249.90664387 229.8253144 251.95753002 238.54443359 254.11450195 C240.08442523 254.49368517 241.62546486 254.86863539 243.16748047 255.23950195 C261.35882385 259.61635216 279.35923624 265.01467576 289.96484375 281.5859375 C295.90228684 292.47124982 297.01669049 305.10070411 298.3659668 317.23022461 C298.5332898 318.68418231 298.70123668 320.13806832 298.86975098 321.59188843 C299.32097616 325.50283142 299.76265717 329.41479345 300.20182014 333.32710719 C300.57184656 336.6165942 300.9463298 339.9055683 301.32066947 343.19456679 C302.20563189 350.97177806 303.0824637 358.7498768 303.9543457 366.52856445 C304.84722172 374.49311642 305.75462566 382.45591798 306.66918343 390.41800684 C307.45947458 397.30333327 308.24005293 404.18971687 309.01329452 411.07697874 C309.47274839 415.16827128 309.93566416 419.25908723 310.40820885 423.3488903 C313.77118442 452.51720267 313.77118442 452.51720267 313.81567383 466.04125977 C313.818837 466.908086 313.82200018 467.77491224 313.82525921 468.66800594 C313.70327417 476.3656644 311.83060058 481.58069471 306.59765625 487.2734375 C300.19140976 493.35563261 294.04147311 495.70288708 285.25724983 495.62250423 C284.45495691 495.62716415 283.65266399 495.63182407 282.82605916 495.6366252 C280.1387652 495.64857221 277.4519771 495.63918094 274.76467896 495.62986755 C272.8181429 495.6340406 270.87160928 495.63951795 268.92508018 495.64618737 C263.57667991 495.66066456 258.22843344 495.6563901 252.88002467 495.64902055 C247.11167239 495.64429681 241.34335376 495.65679171 235.57501221 495.66703796 C224.27446964 495.68424699 212.97398261 495.68506159 201.67343034 495.67982506 C192.48936199 495.67578597 183.30531008 495.67722381 174.12124252 495.68257332 C172.81481895 495.68332174 171.50839538 495.68407016 170.16238322 495.68484126 C167.50850154 495.68637272 164.85461985 495.68791107 162.20073818 495.68945623 C144.37807716 495.69951586 126.55542201 495.70344638 108.73275948 495.69583035 C108.03583851 495.69553317 107.33891755 495.695236 106.62087776 495.69492982 C100.9614134 495.69248089 95.30194912 495.6898693 89.64248483 495.68724569 C67.56810553 495.67714383 45.49380229 495.68549743 23.41943359 495.70874023 C-1.38355405 495.73481385 -26.18649545 495.74761094 -50.9894973 495.74055248 C-64.12137789 495.73705696 -77.253196 495.73931432 -90.38506699 495.75680351 C-101.56420675 495.77150718 -112.74324006 495.77218493 -123.92237769 495.7547326 C-129.62675859 495.74620509 -135.33094918 495.74411589 -141.03532028 495.75938416 C-146.25753031 495.7731889 -151.47938621 495.76852222 -156.70157553 495.74914492 C-158.59047654 495.74537166 -160.47940563 495.74834491 -162.36828171 495.75875657 C-172.66729435 495.81148763 -181.0798714 495.70866686 -189.8046875 489.671875 C-197.82963738 481.58597614 -198.85862604 473.65059183 -198.84042072 462.69697952 C-198.6484876 449.26760746 -196.92796016 435.92452474 -195.40308547 422.59496212 C-194.95627534 418.66942118 -194.52202726 414.74248688 -194.08601379 410.81573486 C-193.35319274 404.23237679 -192.61158763 397.65005767 -191.86401367 391.06835938 C-191.005239 383.50709686 -190.15833878 375.94458049 -189.31824988 368.38122058 C-188.41524532 360.2523628 -187.50385547 352.1244609 -186.58990693 343.99682713 C-186.33066018 341.68665371 -186.07290073 339.37631852 -185.81548119 337.06594086 C-179.61443959 281.50561417 -179.61443959 281.50561417 -163.03515625 268.2421875 C-149.99939822 259.24130696 -133.13662004 256.46246959 -118.00561523 252.73803711 C-114.68242667 251.91978193 -111.3616019 251.09241812 -108.04101562 250.26367188 C-105.9285149 249.73906165 -103.8158893 249.21495396 -101.703125 248.69140625 C-100.71056198 248.44460617 -99.71799896 248.19780609 -98.69535828 247.94352722 C-97.78292862 247.71941666 -96.87049896 247.49530609 -95.93041992 247.2644043 C-95.12738937 247.06630661 -94.32435883 246.86820892 -93.49699402 246.66410828 C-91.53515625 246.2421875 -91.53515625 246.2421875 -89.53515625 246.2421875 C-89.20515625 236.0121875 -88.87515625 225.7821875 -88.53515625 215.2421875 C-90.18515625 214.9121875 -91.83515625 214.5821875 -93.53515625 214.2421875 C-112.39056071 203.89602717 -125.73198157 187.60619644 -132.53125 167.26171875 C-135.43977514 157.17233729 -135.66723174 147.69082636 -135.53515625 137.2421875 C-136.69015625 137.1596875 -137.84515625 137.0771875 -139.03515625 136.9921875 C-147.13402828 135.92090813 -151.99470951 132.3072735 -157.1875 126.14453125 C-159.39388487 123.03001115 -159.7379548 120.21048927 -159.84765625 116.4921875 C-159.90373047 115.26242188 -159.90373047 115.26242188 -159.9609375 114.0078125 C-159.53515625 111.2421875 -159.53515625 111.2421875 -157.54003906 108.07128906 C-155.26900835 104.19352317 -154.97978506 100.64053292 -155.03125 96.2109375 C-155.02182877 95.45735962 -155.01240753 94.70378174 -155.00270081 93.92736816 C-154.97424742 91.53202875 -154.9709611 89.13768115 -154.97265625 86.7421875 C-154.92951681 58.7993355 -148.2417692 33.31479937 -128.22265625 12.890625 C-93.95958022 -20.87444121 -40.45729413 -28.05205294 0 0 Z " fill="#D8588C" transform="translate(198.53515625,16.7578125)"/>
<path d="M0 0 C2.20997389 1.69064898 4.34387111 3.44159123 6.46484375 5.2421875 C7.12871094 5.77328125 7.79257813 6.304375 8.4765625 6.8515625 C28.06647371 23.01612577 38.97870932 47.33967562 41.46484375 72.2421875 C41.56057781 74.81399006 41.61827901 77.38745075 41.640625 79.9609375 C41.66381004 81.40235857 41.68792683 82.84376489 41.71289062 84.28515625 C41.7479784 86.51654215 41.77737489 88.74737543 41.79077148 90.97900391 C41.8505759 99.34610187 42.05688742 105.88098806 46.46484375 113.2421875 C47.2207487 118.5489488 45.94359624 123.13648199 42.96484375 127.5546875 C37.27919743 134.27408769 30.94733898 136.39393798 22.46484375 137.2421875 C22.4390625 138.34433594 22.41328125 139.44648438 22.38671875 140.58203125 C21.59439058 164.65435309 15.1216808 184.29689463 -2.53515625 201.2421875 C-3.21320313 201.91636719 -3.89125 202.59054688 -4.58984375 203.28515625 C-9.3983397 207.80434435 -17.75309362 215.2421875 -24.53515625 215.2421875 C-24.20515625 225.4721875 -23.87515625 235.7021875 -23.53515625 246.2421875 C-20.96992188 246.80421875 -18.4046875 247.36625 -15.76171875 247.9453125 C-6.61005962 249.97274792 2.51250043 252.10436304 11.60644531 254.37695312 C13.26376371 254.78753535 14.92298192 255.19052266 16.58398438 255.5859375 C31.49563131 259.14134194 46.59803065 263.80343687 57.46484375 275.2421875 C56.19579285 278.56394286 54.73848986 281.62907432 53.02734375 284.7421875 C47.84658703 295.1247243 46.87936935 306.70376563 45.75723267 318.09768677 C45.44061996 321.30941646 45.10540264 324.51912671 44.77104187 327.72904968 C44.59778303 329.39246704 44.42535208 331.05597083 44.2537384 332.71955872 C43.41304072 340.84155917 42.49273375 348.9535534 41.54025269 357.06314087 C41.36594195 358.54930427 41.19285276 360.0356115 41.02102661 361.52206421 C40.78234323 363.58665065 40.54017892 365.65079736 40.296875 367.71484375 C40.15999268 368.88281494 40.02311035 370.05078613 39.88208008 371.25415039 C39.46484375 374.2421875 39.46484375 374.2421875 38.46484375 378.2421875 C32.52484375 378.2421875 26.58484375 378.2421875 20.46484375 378.2421875 C20.58456543 379.7986499 20.70428711 381.3551123 20.82763672 382.95874023 C22.28125048 402.31720872 23.34501747 421.68793995 24.32470703 441.07543945 C24.54717447 445.47705766 24.77481427 449.87839158 25.00386238 454.27967167 C25.18263758 457.72588329 25.35871352 461.17222887 25.53399277 464.61861992 C25.61688947 466.24235691 25.70059729 467.86605274 25.78519058 469.48970222 C25.90266709 471.75220107 26.0164748 474.0148576 26.12939453 476.27758789 C26.19442169 477.55436905 26.25944885 478.83115021 26.32644653 480.1466217 C26.53714337 485.17665409 26.49276114 490.20881968 26.46484375 495.2421875 C-0.10836511 495.33566033 -26.6815493 495.40618126 -53.25488949 495.44943619 C-65.59356624 495.47005471 -77.9321408 495.4981619 -90.27075195 495.54394531 C-101.02603667 495.58383462 -111.78124736 495.60962548 -122.53660399 495.61854148 C-128.2306364 495.62375263 -133.92445706 495.63598628 -139.61842155 495.66510773 C-144.98065678 495.6923097 -150.34259353 495.70062273 -155.7048912 495.69461823 C-157.67005982 495.69571631 -159.63523869 495.70364154 -161.60034752 495.7190094 C-164.29068539 495.73901222 -166.97990727 495.7340894 -169.67027283 495.72320557 C-170.82741607 495.74068262 -170.82741607 495.74068262 -172.00793594 495.75851274 C-179.12366869 495.68109488 -186.24416908 493.25943533 -191.34765625 488.1171875 C-200.35964918 478.05728842 -199.16639043 465.95663233 -198.53515625 453.2421875 C-197.7638861 443.00065499 -196.57022763 432.79743618 -195.40308547 422.59496212 C-194.95627534 418.66942118 -194.52202726 414.74248688 -194.08601379 410.81573486 C-193.35319274 404.23237679 -192.61158763 397.65005767 -191.86401367 391.06835938 C-191.005239 383.50709686 -190.15833878 375.94458049 -189.31824988 368.38122058 C-188.41524532 360.2523628 -187.50385547 352.1244609 -186.58990693 343.99682713 C-186.33066018 341.68665371 -186.07290073 339.37631852 -185.81548119 337.06594086 C-179.61443959 281.50561417 -179.61443959 281.50561417 -163.03515625 268.2421875 C-149.99939822 259.24130696 -133.13662004 256.46246959 -118.00561523 252.73803711 C-114.68242667 251.91978193 -111.3616019 251.09241812 -108.04101562 250.26367188 C-105.9285149 249.73906165 -103.8158893 249.21495396 -101.703125 248.69140625 C-100.71056198 248.44460617 -99.71799896 248.19780609 -98.69535828 247.94352722 C-97.78292862 247.71941666 -96.87049896 247.49530609 -95.93041992 247.2644043 C-95.12738937 247.06630661 -94.32435883 246.86820892 -93.49699402 246.66410828 C-91.53515625 246.2421875 -91.53515625 246.2421875 -89.53515625 246.2421875 C-89.20515625 236.0121875 -88.87515625 225.7821875 -88.53515625 215.2421875 C-90.18515625 214.9121875 -91.83515625 214.5821875 -93.53515625 214.2421875 C-112.39056071 203.89602717 -125.73198157 187.60619644 -132.53125 167.26171875 C-135.43977514 157.17233729 -135.66723174 147.69082636 -135.53515625 137.2421875 C-136.69015625 137.1596875 -137.84515625 137.0771875 -139.03515625 136.9921875 C-147.13402828 135.92090813 -151.99470951 132.3072735 -157.1875 126.14453125 C-159.39388487 123.03001115 -159.7379548 120.21048927 -159.84765625 116.4921875 C-159.90373047 115.26242188 -159.90373047 115.26242188 -159.9609375 114.0078125 C-159.53515625 111.2421875 -159.53515625 111.2421875 -157.54003906 108.07128906 C-155.26900835 104.19352317 -154.97978506 100.64053292 -155.03125 96.2109375 C-155.02182877 95.45735962 -155.01240753 94.70378174 -155.00270081 93.92736816 C-154.97424742 91.53202875 -154.9709611 89.13768115 -154.97265625 86.7421875 C-154.92951681 58.7993355 -148.2417692 33.31479937 -128.22265625 12.890625 C-93.95958022 -20.87444121 -40.45729413 -28.05205294 0 0 Z " fill="#336698" transform="translate(198.53515625,16.7578125)"/>
<path d="M0 0 C2.20997389 1.69064898 4.34387111 3.44159123 6.46484375 5.2421875 C7.12871094 5.77328125 7.79257813 6.304375 8.4765625 6.8515625 C28.06647371 23.01612577 38.97870932 47.33967562 41.46484375 72.2421875 C41.56057781 74.81399006 41.61827901 77.38745075 41.640625 79.9609375 C41.66381004 81.40235857 41.68792683 82.84376489 41.71289062 84.28515625 C41.7479784 86.51654215 41.77737489 88.74737543 41.79077148 90.97900391 C41.8505759 99.34610187 42.05688742 105.88098806 46.46484375 113.2421875 C47.2207487 118.5489488 45.94359624 123.13648199 42.96484375 127.5546875 C37.27919743 134.27408769 30.94733898 136.39393798 22.46484375 137.2421875 C22.4390625 138.34433594 22.41328125 139.44648438 22.38671875 140.58203125 C21.59439058 164.65435309 15.1216808 184.29689463 -2.53515625 201.2421875 C-3.21320313 201.91636719 -3.89125 202.59054688 -4.58984375 203.28515625 C-9.3983397 207.80434435 -17.75309362 215.2421875 -24.53515625 215.2421875 C-24.20515625 225.4721875 -23.87515625 235.7021875 -23.53515625 246.2421875 C-16.60515625 247.7271875 -16.60515625 247.7271875 -9.53515625 249.2421875 C-9.53515625 254.36235746 -11.00631801 255.53809117 -14.35546875 259.15625 C-26.39842724 270.68123178 -42.24140402 276.54154627 -58.83496094 276.39086914 C-76.16108197 275.69236289 -90.07838675 268.08861545 -102.1953125 255.8828125 C-103.53515625 254.2421875 -103.53515625 254.2421875 -105.53515625 250.2421875 C-97.61515625 248.2621875 -97.61515625 248.2621875 -89.53515625 246.2421875 C-89.20515625 236.0121875 -88.87515625 225.7821875 -88.53515625 215.2421875 C-90.18515625 214.9121875 -91.83515625 214.5821875 -93.53515625 214.2421875 C-112.39056071 203.89602717 -125.73198157 187.60619644 -132.53125 167.26171875 C-135.43977514 157.17233729 -135.66723174 147.69082636 -135.53515625 137.2421875 C-136.69015625 137.1596875 -137.84515625 137.0771875 -139.03515625 136.9921875 C-147.13402828 135.92090813 -151.99470951 132.3072735 -157.1875 126.14453125 C-159.39388487 123.03001115 -159.7379548 120.21048927 -159.84765625 116.4921875 C-159.88503906 115.67234375 -159.92242187 114.8525 -159.9609375 114.0078125 C-159.53515625 111.2421875 -159.53515625 111.2421875 -157.54003906 108.07128906 C-155.26900835 104.19352317 -154.97978506 100.64053292 -155.03125 96.2109375 C-155.02182877 95.45735962 -155.01240753 94.70378174 -155.00270081 93.92736816 C-154.97424742 91.53202875 -154.9709611 89.13768115 -154.97265625 86.7421875 C-154.92951681 58.7993355 -148.2417692 33.31479937 -128.22265625 12.890625 C-93.95958022 -20.87444121 -40.45729413 -28.05205294 0 0 Z " fill="#F6CE9B" transform="translate(198.53515625,16.7578125)"/>
<path d="M0 0 C3.63881358 0.77421566 4.60171439 1.76177893 6.9375 4.625 C7.60845703 5.38296875 7.60845703 5.38296875 8.29296875 6.15625 C11.9375 10.32142857 11.9375 10.32142857 11.9375 12.625 C12.51371094 12.89570312 13.08992188 13.16640625 13.68359375 13.4453125 C15.95712393 14.6352711 17.92067563 15.99977718 20 17.5 C28.71825811 23.40358869 38.02980799 25.79066369 48.421875 25.72265625 C49.23746887 25.7212413 50.05306274 25.71982635 50.89337158 25.71836853 C53.49145212 25.71278303 56.08944563 25.70023321 58.6875 25.6875 C60.45182167 25.68248312 62.21614469 25.67792054 63.98046875 25.67382812 C68.29951256 25.66281835 72.61849154 25.64556369 76.9375 25.625 C77.2675 26.615 77.5975 27.605 77.9375 28.625 C78.9275 28.728125 79.9175 28.83125 80.9375 28.9375 C87.44408798 29.88582861 93.16444312 31.98452803 97.9375 36.625 C102.35555143 42.63845889 103.69124239 47.27601166 102.9375 54.625 C101.4375 58 101.4375 58 99.9375 60.625 C99.74377962 63.5891849 99.74377962 63.5891849 100.92578125 65.9765625 C102.0207733 68.84298955 102.10315211 70.95003516 102.125 74 C102.54887684 79.31965436 103.83567084 81.1781607 107.78125 84.58203125 C119.29973424 95.49537773 126.41747499 111.52517138 132.375 125.9375 C132.71740723 126.74912598 133.05981445 127.56075195 133.41259766 128.39697266 C136.06129695 135.03963523 138.07788591 142.00259769 135.875 149 C131.52916068 154.88791133 125.88819973 156.48479071 119.0625 157.875 C117.91587891 158.13410156 117.91587891 158.13410156 116.74609375 158.3984375 C104.21545704 161.07901513 104.21545704 161.07901513 99 157.75 C96.89224727 155.57837597 95.97827986 154.62648042 95.85571289 151.61645508 C95.8736792 150.80072021 95.89164551 149.98498535 95.91015625 149.14453125 C95.92409424 148.23509766 95.93803223 147.32566406 95.95239258 146.38867188 C95.96810303 145.41478516 95.98381348 144.44089844 96 143.4375 C96.10431781 126.24592558 94.1202206 110.58943357 84.9375 95.625 C84.9375 94.965 84.9375 94.305 84.9375 93.625 C81.4725 94.12 81.4725 94.12 77.9375 94.625 C77.81375 95.305625 77.69 95.98625 77.5625 96.6875 C73.0334162 117.97419387 59.87165042 135.94946835 41.8125 147.8125 C34.78924286 151.99026888 27.80661766 154.51157983 19.9375 156.625 C19.14988281 156.85574219 18.36226563 157.08648437 17.55078125 157.32421875 C6.50337812 159.61787007 -6.67898872 152.47097036 -15.8125 146.78515625 C-34.53293144 134.34236949 -46.38911918 117.10489148 -51.61448669 95.32417297 C-52.13254354 92.20300445 -52.18217011 89.25510888 -52.17602539 86.09057617 C-52.17594986 84.78960495 -52.17587433 83.48863373 -52.17579651 82.14823914 C-52.17069062 80.73814861 -52.16547464 79.32805849 -52.16015625 77.91796875 C-52.15828979 76.46779937 -52.15686696 75.01762935 -52.15586853 73.56745911 C-52.1520613 69.76167034 -52.14224642 65.95592009 -52.13116455 62.15014648 C-52.12091177 58.26221233 -52.11636264 54.37427192 -52.11132812 50.48632812 C-52.10062246 42.86586791 -52.0835677 35.24543936 -52.0625 27.625 C-51.05219727 27.42874023 -50.04189453 27.23248047 -49.00097656 27.03027344 C-47.65166699 26.76510477 -46.30238458 26.49979793 -44.953125 26.234375 C-44.29006348 26.10595215 -43.62700195 25.9775293 -42.94384766 25.84521484 C-28.00901387 22.89489799 -15.76816422 17.48950794 -6.8046875 4.8515625 C-4.66466159 1.98473533 -3.56964384 0.72849874 0 0 Z " fill="#FBE2BA" transform="translate(370.0625,80.375)"/>
<path d="M0 0 C1.25167969 0.4125 2.50335938 0.825 3.79296875 1.25 C28.01351096 9.80283989 49.82824911 28.8153311 61 52 C71.22894274 75.26181284 71.41593843 97.08848757 71 122 C69.96727546 120.45091319 68.93748844 118.89909182 67.95703125 117.31640625 C62.99275336 109.70903159 56.80925804 107.69151753 48.2578125 105.7109375 C47.51273438 105.47632812 46.76765625 105.24171875 46 105 C45.67 104.34 45.34 103.68 45 103 C43.94723877 103.02094727 42.89447754 103.04189453 41.80981445 103.06347656 C37.84202087 103.13678321 33.87428489 103.18212324 29.90600586 103.21972656 C28.20017375 103.23963837 26.49440802 103.26677813 24.78881836 103.30175781 C9.76571861 103.6017786 -2.31914982 101.71659193 -15 93 C-15.886875 92.401875 -16.77375 91.80375 -17.6875 91.1875 C-21.2304269 87.83608266 -24.28545836 84.05225524 -27 80 C-27 79.34 -27 78.68 -27 78 C-30.28833001 77.342334 -31.85138005 77.05541401 -35 78 C-37.53813796 80.52026374 -39.57720901 83.24822239 -41.7265625 86.10546875 C-47.85808409 93.91209675 -55.76965882 97.78263565 -65 101 C-66.01191406 101.37125 -67.02382813 101.7425 -68.06640625 102.125 C-73.51474313 103.63336833 -79.20914027 103.24788788 -84.8125 103.1875 C-86.49956055 103.1865332 -86.49956055 103.1865332 -88.22070312 103.18554688 C-94.87055687 103.15077135 -101.39921096 102.81236166 -108 102 C-108.28214355 102.64727051 -108.56428711 103.29454102 -108.85498047 103.96142578 C-109.23283691 104.63415527 -109.61069336 105.30688477 -110 106 C-112.3203125 106.6171875 -112.3203125 106.6171875 -115.125 106.875 C-122.57986013 107.98883231 -126.91718546 111.20464364 -131.375 117.1875 C-131.91125 118.115625 -132.4475 119.04375 -133 120 C-133.66 120.99 -134.32 121.98 -135 123 C-135.57920266 89.62010493 -134.17034902 58.42152447 -111 32 C-110.11441406 30.89978516 -110.11441406 30.89978516 -109.2109375 29.77734375 C-83.76861805 -0.91583738 -37.41192782 -12.64183411 0 0 Z " fill="#996123" transform="translate(402,4)"/>
<path d="M0 0 C2.20997389 1.69064898 4.34387111 3.44159123 6.46484375 5.2421875 C7.12871094 5.77328125 7.79257813 6.304375 8.4765625 6.8515625 C28.03065357 22.98656889 39.03774755 47.35788813 41.46484375 72.2421875 C41.5413841 74.83501227 41.57295941 77.42950433 41.5625 80.0234375 C41.56037758 81.07186829 41.56037758 81.07186829 41.55821228 82.14147949 C41.55268045 84.34176179 41.54014152 86.54193673 41.52734375 88.7421875 C41.52231991 90.24739435 41.51775857 91.75260282 41.51367188 93.2578125 C41.50273352 96.91930485 41.48551734 100.58073567 41.46484375 104.2421875 C40.65225098 103.82211426 39.8396582 103.40204102 39.00244141 102.96923828 C37.3944165 102.14915283 37.3944165 102.14915283 35.75390625 101.3125 C34.69381348 100.76867676 33.6337207 100.22485352 32.54150391 99.66455078 C29.90717438 98.4466803 27.66437391 97.68105772 24.83984375 97.1171875 C23.72609375 96.8284375 22.61234375 96.5396875 21.46484375 96.2421875 C21.21992188 95.64019531 20.975 95.03820312 20.72265625 94.41796875 C18.7631539 91.02839481 15.41076005 90.08371963 11.96484375 88.5546875 C-0.3539353 82.67770043 -7.41886936 74.6926326 -14.6015625 63.3046875 C-16.23415353 60.46972312 -16.23415353 60.46972312 -17.53515625 59.2421875 C-19.92079186 58.75154091 -19.92079186 58.75154091 -22.53515625 59.2421875 C-24.5488775 61.3158047 -24.5488775 61.3158047 -26.22265625 64.1171875 C-36.33138902 78.80879726 -49.58185655 87.87746091 -66.53515625 93.2421875 C-67.76234375 93.63535156 -68.98953125 94.02851562 -70.25390625 94.43359375 C-87.98205437 99.59198784 -106.68506947 98.38319079 -124.453125 94.1171875 C-127.87132752 93.30900478 -131.00805328 93.06217587 -134.53515625 93.2421875 C-134.86515625 94.2321875 -135.19515625 95.2221875 -135.53515625 96.2421875 C-138.265625 97.26953125 -138.265625 97.26953125 -141.72265625 98.1796875 C-146.74657441 99.50600189 -150.26987899 101.29321088 -154.53515625 104.2421875 C-154.61048394 99.38992538 -154.66430089 94.53801887 -154.69995117 89.68530273 C-154.71484508 88.04168759 -154.73516714 86.39811076 -154.76147461 84.75463867 C-155.17115757 58.46263192 -148.05893727 33.71098698 -129.62231445 14.31860352 C-95.42942691 -20.56613383 -41.13731302 -28.52356064 0 0 Z " fill="#996123" transform="translate(198.53515625,16.7578125)"/>
<path d="M0 0 C2.14943689 0.05426057 4.29708351 0.18203645 6.44140625 0.33984375 C7.74658203 0.43330078 9.05175781 0.52675781 10.39648438 0.62304688 C11.78516482 0.72775092 13.17383659 0.83257014 14.5625 0.9375 C15.9550429 1.0388964 17.34762074 1.13981417 18.74023438 1.24023438 C22.16053011 1.48876798 25.58038892 1.74224354 29 2 C29 2.33 29 2.66 29 3 C27.35 3 25.7 3 24 3 C24.03835157 11.21618823 24.09813132 19.43184362 24.18390274 27.64766026 C24.22310312 31.46425951 24.25542374 35.28063752 24.27099609 39.09741211 C24.28634664 42.79357305 24.32110689 46.48912453 24.36830902 50.18501091 C24.38293628 51.58205752 24.39103004 52.97919124 24.39188385 54.37631416 C24.41955197 76.98825682 32.78049884 96.74289002 48.74609375 112.75390625 C59.28182331 122.11741081 75.12418974 131.44069967 89.48828125 132.1171875 C94.23533531 131.74004676 98.61255607 130.28490283 103.0546875 128.62109375 C105 128 105 128 108 128 C108.33 137.9 108.66 147.8 109 158 C111.97 158.66 114.94 159.32 118 160 C118.61060373 174.16261433 118.06079652 186.98915248 108 198 C107.49855469 198.60328125 106.99710938 199.2065625 106.48046875 199.828125 C100.03876607 207.03781656 90.71290077 211.60009695 81.09375 212.2734375 C67.77133169 212.68930867 57.10502951 210.27567504 47 201 C39.30702171 193.40180173 33.97704118 184.46547092 33.8046875 173.37890625 C33.81779433 171.77331993 33.84136787 170.16778755 33.875 168.5625 C33.88402344 167.73556641 33.89304687 166.90863281 33.90234375 166.05664062 C33.92568488 164.03763292 33.96154712 162.01877644 34 160 C38.455 159.01 38.455 159.01 43 158 C43.33 147.77 43.66 137.54 44 127 C42.02 126.34 40.04 125.68 38 125 C20.83811646 115.7300775 7.45756923 100.60237714 1.31542969 81.91748047 C0.0474863 77.64912726 -1.02045734 73.34405873 -2 69 C-4.31 69 -6.62 69 -9 69 C-9.27972656 69.72058594 -9.55945313 70.44117188 -9.84765625 71.18359375 C-10.94671429 73.86976611 -12.17311281 76.4510087 -13.4375 79.0625 C-19.49271749 92.31610289 -20.20166659 105.46011143 -19.78515625 119.77539062 C-19.64991482 129.17467018 -19.64991482 129.17467018 -23 133 C-27.84516612 136.23011074 -32.99834684 135.2759704 -38.5078125 134.265625 C-40.0488036 133.93597325 -41.58789883 133.59733821 -43.125 133.25 C-43.89714844 133.09273437 -44.66929687 132.93546875 -45.46484375 132.7734375 C-51.5073672 131.43522958 -56.31111435 129.53332847 -59.875 124.1875 C-62.46443639 116.85076355 -60.2886499 111.01511584 -57.5625 104.125 C-57.20414063 103.20605957 -56.84578125 102.28711914 -56.4765625 101.34033203 C-50.359625 86.03475961 -42.8106714 71.79211189 -31.0625 60.0625 C-26.71924547 55.40742207 -26.13319769 51.9511989 -26.1171875 45.69921875 C-26 43 -26 43 -24.25 39.5625 C-23.63125 38.2940625 -23.63125 38.2940625 -23 37 C-23.94392019 35.30094366 -24.95650161 33.63978318 -26 32 C-27.49989524 26.11265608 -27.53764289 21.19356058 -24.4375 15.88671875 C-20.83465274 11.15798172 -15.93306156 6.33493885 -10 5 C-7.30907422 4.86368669 -4.69874463 4.90851713 -2 5 C-1.855625 4.360625 -1.71125 3.72125 -1.5625 3.0625 C-1 1 -1 1 0 0 Z " fill="#EECFA3" transform="translate(294,105)"/>
<path d="M0 0 C0.56170898 0.13051758 1.12341797 0.26103516 1.70214844 0.39550781 C12.81018573 2.96860692 23.9242379 5.42579234 35.11523438 7.61132812 C41.47221956 8.86416462 47.73507229 10.34375474 54 12 C54.10844536 21.80139526 53.81937978 31.46869075 53.125 41.25 C52.25061682 54.20180089 51.58284475 67.15703048 51 80.125 C50.83508539 83.76955174 50.66966289 87.41408021 50.50390625 91.05859375 C50.46285263 91.96160721 50.42179901 92.86462067 50.37950134 93.79499817 C49.96932259 102.76455033 49.52921096 111.73245239 49.06567383 120.69940186 C48.9812504 122.33822139 48.89789021 123.97709609 48.81567383 125.61602783 C48.70167417 127.88350448 48.58380972 130.15074792 48.46484375 132.41796875 C48.36610962 134.33258911 48.36610962 134.33258911 48.26538086 136.28588867 C47.98547233 140.20332057 47.4871364 144.10290883 47 148 C26.54 148 6.08 148 -15 148 C-16.38974171 126.19607944 -17.67990644 104.39013986 -18.85986328 82.57397461 C-19.08327485 78.44603698 -19.31071875 74.3183312 -19.53901863 70.19066143 C-19.71777821 66.94691296 -19.89383262 63.70302168 -20.06914902 60.45908546 C-20.15190118 58.93581691 -20.23560113 57.41259948 -20.32034683 55.88944054 C-20.78132298 47.58467412 -21.09316097 39.31981691 -21 31 C-15.06 31 -9.12 31 -3 31 C-2.86722656 29.51628906 -2.73445313 28.03257812 -2.59765625 26.50390625 C-2.4193198 24.52343309 -2.24093163 22.54296459 -2.0625 20.5625 C-1.97548828 19.58861328 -1.88847656 18.61472656 -1.79882812 17.61132812 C-1.26788872 11.73166588 -0.67324335 5.86510194 0 0 Z " fill="#E1BE91" transform="translate(240,364)"/>
<path d="M0 0 C4.33142908 0.62691175 8.63002682 1.41347052 12.92626953 2.24487305 C13.65330078 2.38344727 14.38033203 2.52202148 15.12939453 2.66479492 C16.8954499 3.0017397 18.6609238 3.34172988 20.42626953 3.68237305 C20.4196077 4.32557999 20.41294586 4.96878693 20.40608215 5.63148499 C20.33910297 12.39750102 20.2942125 19.16342111 20.26147461 25.9296875 C20.24649748 28.44632805 20.22610867 30.96294301 20.19995117 33.47949219 C19.93112526 60.03000473 22.3279001 78.13469713 41.42626953 97.68237305 C48.82555313 104.8098554 57.09149678 110.94728965 65.68896484 116.55004883 C66.90157415 117.34039199 68.10887382 118.13891548 69.31201172 118.94360352 C78.49066028 125.52388341 78.49066028 125.52388341 89.22705078 127.2644043 C92.96469595 126.27522289 96.55890538 125.00839397 100.14111328 123.55737305 C102.42626953 122.68237305 102.42626953 122.68237305 104.42626953 122.68237305 C104.75626953 132.91237305 105.08626953 143.14237305 105.42626953 153.68237305 C110.04626953 154.67237305 114.66626953 155.66237305 119.42626953 156.68237305 C119.42626953 161.80254301 117.95510777 162.97827672 114.60595703 166.59643555 C102.56299854 178.12141733 86.72002176 183.98173181 70.12646484 183.83105469 C52.80034381 183.13254844 38.88303903 175.528801 26.76611328 163.32299805 C25.42626953 161.68237305 25.42626953 161.68237305 23.42626953 157.68237305 C31.34626953 155.70237305 31.34626953 155.70237305 39.42626953 153.68237305 C39.75626953 143.45237305 40.08626953 133.22237305 40.42626953 122.68237305 C38.77626953 122.35237305 37.12626953 122.02237305 35.42626953 121.68237305 C16.57086507 111.33621272 3.22944421 95.04638198 -3.56982422 74.7019043 C-6.47834936 64.61252284 -6.70580596 55.13101191 -6.57373047 44.68237305 C-7.72873047 44.59987305 -8.88373047 44.51737305 -10.07373047 44.43237305 C-18.1726025 43.36109368 -23.03328373 39.74745904 -28.22607422 33.5847168 C-31.39900415 29.1058273 -31.1188233 23.94091567 -30.57373047 18.68237305 C-28.94757596 13.05675745 -24.98025677 9.97602631 -20.15576172 6.9597168 C-16.54296794 5.17244968 -12.88992292 4.24431078 -8.95654297 3.4206543 C-6.49827045 2.90254997 -6.49827045 2.90254997 -5.25341797 1.0378418 C-3.57373047 -0.31762695 -3.57373047 -0.31762695 0 0 Z " fill="#E9B883" transform="translate(69.57373046875,109.317626953125)"/>
<path d="M0 0 C0.33 0 0.66 0 1 0 C2.57936418 13.5694341 4.14498534 27.14038008 5.69381714 40.71333504 C6.41367413 47.01800204 7.1379832 53.32208638 7.87304688 59.625 C8.58429203 65.7251844 9.28308504 71.82668589 9.97381592 77.92922592 C10.23739572 80.23931112 10.50521079 82.54891775 10.77764893 84.85797501 C12.12696146 96.31747299 13.23260319 107.67826344 13.2890625 119.22607422 C13.29594086 120.12738634 13.30281921 121.02869846 13.30990601 121.95732307 C13.24056939 129.87909644 11.5326168 135.15698591 6.1328125 141.03125 C-0.70630885 147.52442358 -7.0012224 149.46759715 -16.21484375 149.29296875 C-17.07058487 149.28872391 -17.92632599 149.28447906 -18.80799866 149.28010559 C-21.5181642 149.26342789 -24.22756248 149.22579705 -26.9375 149.1875 C-28.7844944 149.17243902 -30.63150056 149.1587531 -32.47851562 149.14648438 C-36.98596884 149.11356026 -41.49285472 149.06185469 -46 149 C-47.13726398 131.16599375 -48.16648527 113.32963434 -49.03515625 95.48046875 C-49.09862307 94.17766653 -49.09862307 94.17766653 -49.16337204 92.84854507 C-49.51012411 85.71551407 -49.85200877 78.58225118 -50.19366455 71.44897461 C-50.45197255 66.05932263 -50.7119991 60.66975878 -50.97427177 55.28029823 C-51.09390994 52.80788894 -51.21109505 50.33537192 -51.32814026 47.86283875 C-51.68684849 40.41589373 -52.10427655 32.9875093 -52.80686951 25.56318665 C-53.1223697 21.37593554 -53.08354795 17.19596366 -53 13 C-47.46821549 11.75472661 -41.93639454 10.50961521 -36.40454102 9.26464844 C-34.52595047 8.8418405 -32.64736957 8.41898969 -30.76879883 7.99609375 C-28.0555272 7.38530152 -25.34221996 6.77466776 -22.62890625 6.1640625 C-21.38615685 5.88425034 -21.38615685 5.88425034 -20.11830139 5.5987854 C-18.52635592 5.24059391 -16.93412461 4.88366998 -15.34158325 4.52813721 C-13.73928211 4.1667429 -12.13881135 3.7971625 -10.54000854 3.42059326 C-9.75070953 3.2371637 -8.96141052 3.05373413 -8.14819336 2.86474609 C-7.44617294 2.69864838 -6.74415253 2.53255066 -6.02085876 2.36141968 C-4 2 -4 2 0 2 C0 1.34 0 0.68 0 0 Z " fill="#EECFA2" transform="translate(499,363)"/>
<path d="M0 0 C18.48 0 36.96 0 56 0 C55.855625 4.558125 55.71125 9.11625 55.5625 13.8125 C55.51939697 15.22635986 55.47629395 16.64021973 55.43188477 18.09692383 C55.39377686 19.24700928 55.35566895 20.39709473 55.31640625 21.58203125 C55.27974854 22.73936768 55.24309082 23.8967041 55.20532227 25.08911133 C55.04695616 28.10559952 54.81519588 31.07741178 54.52514648 34.08178711 C53.8977785 40.74847513 53.58737756 47.42135914 53.28125 54.109375 C53.2180635 55.44778605 53.15462219 56.78618509 53.09094238 58.12457275 C52.92494616 61.62356571 52.76152347 65.12267324 52.59893799 68.62182617 C52.33939536 74.20463461 52.07711183 79.78731105 51.81248474 85.36988068 C51.72202803 87.28979978 51.63349971 89.20980944 51.54504395 91.12982178 C51.13831357 99.76223388 50.60289236 108.37939998 50 117 C44.61064933 117.09952633 39.2218439 117.17177659 33.83178711 117.21972656 C32.00161407 117.23973374 30.17150408 117.26694851 28.34155273 117.30175781 C25.69759488 117.35076003 23.05448835 117.37307761 20.41015625 117.390625 C19.20021751 117.42159271 19.20021751 117.42159271 17.96583557 117.45318604 C11.02496021 117.45587406 5.43133974 115.37417999 -0.26953125 111.4296875 C-8.15033226 103.48903231 -9.34231071 95.65418088 -9.34422302 84.75784302 C-9.12487447 69.89807026 -7.06927445 55.10050069 -5.34979248 40.35644531 C-4.96261215 37.01223386 -4.5868203 33.66678395 -4.21134281 30.32124138 C-3.76120265 26.31521816 -3.30472362 22.30992527 -2.84765625 18.3046875 C-2.71877864 17.16853312 -2.71877864 17.16853312 -2.58729744 16.00942612 C-2.3443441 13.87809299 -2.09688514 11.74733511 -1.84790039 9.61669922 C-1.70800186 8.40762909 -1.56810333 7.19855896 -1.42396545 5.95285034 C-1 3 -1 3 0 0 Z " fill="#E8B783" transform="translate(9,395)"/>
<path d="M0 0 C6.30417167 -0.349746 11.84539417 0.95927604 17.9375 2.5 C18.90751953 2.73847656 19.87753906 2.97695313 20.87695312 3.22265625 C23.25318032 3.80793388 25.62732042 4.40053251 28 5 C28.10844536 14.80139526 27.81937978 24.46869075 27.125 34.25 C26.25061682 47.20180089 25.58284475 60.15703048 25 73.125 C24.83508539 76.76955174 24.66966289 80.41408021 24.50390625 84.05859375 C24.46285263 84.96160721 24.42179901 85.86462067 24.37950134 86.79499817 C23.96932259 95.76455033 23.52921096 104.73245239 23.06567383 113.69940186 C22.9812504 115.33822139 22.89789021 116.97709609 22.81567383 118.61602783 C22.70167417 120.88350448 22.58380972 123.15074792 22.46484375 125.41796875 C22.399021 126.69438232 22.33319824 127.9707959 22.26538086 129.28588867 C21.98413813 133.22199316 21.52229688 137.08940706 21 141 C10.70962279 141.35427676 3.01407939 139.92820222 -5 133 C-10.84233896 126.00904585 -12.3596819 118.3244147 -12.25732422 109.45263672 C-12.25175947 108.63054152 -12.24619473 107.80844631 -12.24046135 106.96143913 C-12.08345069 96.83784926 -10.9849497 86.81380801 -9.8828125 76.7578125 C-9.66273729 74.6895135 -9.44333942 72.62114232 -9.22457886 70.55270386 C-8.76850995 66.26115439 -8.30562052 61.9704163 -7.83740234 57.68017578 C-7.23819831 52.18617247 -6.6546166 46.69064183 -6.07577705 41.19445992 C-5.62656817 36.94226128 -5.17021288 32.69085394 -4.71157455 28.43966293 C-4.49351158 26.41209961 -4.27743902 24.38432116 -4.06341934 22.35632706 C-3.76440869 19.53506417 -3.45601875 16.71498265 -3.14501953 13.89501953 C-3.0587027 13.06387634 -2.97238586 12.23273315 -2.88345337 11.37640381 C-2.42032426 7.27045401 -1.80366581 3.77671246 0 0 Z " fill="#EECFA2" transform="translate(266,371)"/>
<path d="M0 0 C8.58 0 17.16 0 26 0 C25.690625 3.526875 25.38125 7.05375 25.0625 10.6875 C24.96718994 11.79053467 24.87187988 12.89356934 24.77368164 14.0300293 C24.65561157 15.35127808 24.65561157 15.35127808 24.53515625 16.69921875 C24.456604 17.59471436 24.37805176 18.49020996 24.29711914 19.4128418 C24.001887 21.98356899 23.5198574 24.46658804 23 27 C22.84916932 28.93566044 22.72742845 30.8736757 22.625 32.8125 C22.18093341 39.60242145 21.37211827 46.31516826 20.5 53.0625 C18.90340627 65.4985505 18.90340627 65.4985505 18 78 C17.95681641 78.68755371 17.91363281 79.37510742 17.86914062 80.08349609 C17.25314889 90.46831336 17.2317368 99.40844957 24 108 C28.22538061 111.78060371 32.73996136 113.98473036 38 116 C38 116.33 38 116.66 38 117 C33.68773255 117.11719343 29.37588066 117.18758416 25.0625 117.25 C23.85013672 117.28351563 22.63777344 117.31703125 21.38867188 117.3515625 C12.80908671 117.44456613 6.80142109 116.32215366 -0.26953125 111.4296875 C-8.15033226 103.48903231 -9.34231071 95.65418088 -9.34422302 84.75784302 C-9.12487447 69.89807026 -7.06927445 55.10050069 -5.34979248 40.35644531 C-4.96261215 37.01223386 -4.5868203 33.66678395 -4.21134281 30.32124138 C-3.76120265 26.31521816 -3.30472362 22.30992527 -2.84765625 18.3046875 C-2.71877864 17.16853312 -2.71877864 17.16853312 -2.58729744 16.00942612 C-2.3443441 13.87809299 -2.09688514 11.74733511 -1.84790039 9.61669922 C-1.70800186 8.40762909 -1.56810333 7.19855896 -1.42396545 5.95285034 C-1 3 -1 3 0 0 Z " fill="#D8A373" transform="translate(9,395)"/>
<path d="M0 0 C1.051875 0.78375 2.10375 1.5675 3.1875 2.375 C7.42809134 5.37733867 10.98967401 6.93672654 16.16015625 7.546875 C17.42730469 7.69640625 18.69445312 7.8459375 20 8 C20.1958691 11.81211903 20.38029565 15.62470534 20.5625 19.4375 C20.64661133 21.07041992 20.64661133 21.07041992 20.73242188 22.73632812 C20.78076172 23.77080078 20.82910156 24.80527344 20.87890625 25.87109375 C20.9260376 26.82943115 20.97316895 27.78776855 21.02172852 28.77514648 C21 31 21 31 20 32 C17.66702567 32.04092937 15.33294775 32.04241723 13 32 C12.72027344 32.72058594 12.44054687 33.44117188 12.15234375 34.18359375 C11.05328571 36.86976611 9.82688719 39.4510087 8.5625 42.0625 C2.50728251 55.31610289 1.79833341 68.46011143 2.21484375 82.77539062 C2.35008518 92.17467018 2.35008518 92.17467018 -1 96 C-5.84516612 99.23011074 -10.99834684 98.2759704 -16.5078125 97.265625 C-18.0488036 96.93597325 -19.58789883 96.59733821 -21.125 96.25 C-21.89714844 96.09273438 -22.66929687 95.93546875 -23.46484375 95.7734375 C-29.5073672 94.43522958 -34.31111435 92.53332847 -37.875 87.1875 C-40.46443639 79.85076355 -38.2886499 74.01511584 -35.5625 67.125 C-35.20414063 66.20605957 -34.84578125 65.28711914 -34.4765625 64.34033203 C-28.359625 49.03475961 -20.8106714 34.79211189 -9.0625 23.0625 C-4.70190363 18.39681071 -4.20412122 14.97451744 -4.171875 8.71875 C-3.92270488 4.77733174 -2.53147217 2.93977413 0 0 Z " fill="#8E551C" transform="translate(272,142)"/>
<path d="M0 0 C3 1 3 1 4.17578125 3.2265625 C5.02611861 6.08788728 5.16620072 8.40162019 5.1875 11.375 C5.61137684 16.69465436 6.89817084 18.5531607 10.84375 21.95703125 C22.36223424 32.87037773 29.47997499 48.90017138 35.4375 63.3125 C35.77990723 64.12412598 36.12231445 64.93575195 36.47509766 65.77197266 C39.12379695 72.41463523 41.14038591 79.37759769 38.9375 86.375 C34.59166068 92.26291133 28.95069973 93.85979071 22.125 95.25 C21.36058594 95.42273438 20.59617187 95.59546875 19.80859375 95.7734375 C7.27795704 98.45401513 7.27795704 98.45401513 2.0625 95.125 C-0.04525273 92.95337597 -0.95922014 92.00148042 -1.08178711 88.99145508 C-1.0638208 88.17572021 -1.04585449 87.35998535 -1.02734375 86.51953125 C-1.01340576 85.61009766 -0.99946777 84.70066406 -0.98510742 83.76367188 C-0.96939697 82.78978516 -0.95368652 81.81589844 -0.9375 80.8125 C-0.83318219 63.62092558 -2.8172794 47.96443357 -12 33 C-12 32.34 -12 31.68 -12 31 C-14.31 31 -16.62 31 -19 31 C-19 23.08 -19 15.16 -19 7 C-13.555 6.01 -13.555 6.01 -8 5 C-4.75353939 3.07389808 -4.75353939 3.07389808 -1.65625 0.92578125 C-1.1096875 0.62027344 -0.563125 0.31476563 0 0 Z " fill="#996022" transform="translate(467,143)"/>
<path d="M0 0 C-0.33 0.66 -0.66 1.32 -1 2 C-3.85016704 2.77814084 -6.68463796 3.46672722 -9.5625 4.125 C-34.10708746 10.19531581 -55.17505788 25.56615984 -69.0078125 46.6953125 C-81.14958446 66.83636951 -85.0206665 86.80525932 -86 110 C-87.051875 110.11214844 -87.051875 110.11214844 -88.125 110.2265625 C-95.16514479 111.20223474 -99.9322763 112.9322763 -105 118 C-107.36702059 121.04797373 -107.36702059 121.04797373 -109 124 C-109.66 124.99 -110.32 125.98 -111 127 C-111.57920266 93.62010493 -110.17034902 62.42152447 -87 36 C-86.11441406 34.89978516 -86.11441406 34.89978516 -85.2109375 33.77734375 C-71.88751431 17.70419279 -52.90518988 7.46416977 -33 2 C-31.71029297 1.63261719 -31.71029297 1.63261719 -30.39453125 1.2578125 C-20.55586646 -1.02588394 -10.03437076 -0.1726172 0 0 Z " fill="#8E551C" transform="translate(378,0)"/>
<path d="M0 0 C9.57 2.31 19.14 4.62 29 7 C28.34 7.33 27.68 7.66 27 8 C27.04640625 8.62003906 27.0928125 9.24007813 27.140625 9.87890625 C27.82388584 26.64319911 20.9788904 42.54971192 10 55 C9.34386719 55.75023437 8.68773437 56.50046875 8.01171875 57.2734375 C-1.25886643 67.20499676 -13.55550829 74.5515958 -27 77 C-31.41618577 76.8288728 -34.94156763 75.70192325 -39 74 C-40.69962891 73.29423828 -40.69962891 73.29423828 -42.43359375 72.57421875 C-59.47430066 64.7537848 -70.66847773 52.19220257 -79.1015625 35.59375 C-80.05885641 32.8300841 -80.04970378 31.68117111 -79 29 C-78.6596875 29.56847656 -78.319375 30.13695312 -77.96875 30.72265625 C-71.37235048 41.23128207 -62.96968794 47.67115188 -51 51 C-39.0346286 52.34008637 -27.90371032 51.29273989 -17.8125 44.3125 C-8.74815327 36.88606397 -2.86083816 28.71331163 -1 17 C-0.74877203 14.06528245 -0.58807369 11.12889377 -0.4375 8.1875 C-0.293125 5.485625 -0.14875 2.78375 0 0 Z " fill="#EA5D95" transform="translate(412,265)"/>
<path d="M0 0 C-1.299375 1.4540625 -1.299375 1.4540625 -2.625 2.9375 C-9.88064732 11.42815112 -14.87997788 19.90593467 -16.49609375 31.0546875 C-16.67850868 32.26195999 -16.67850868 32.26195999 -16.86460876 33.49362183 C-18.62057096 45.65279324 -19.70006906 57.90134087 -20.87078857 70.12744141 C-21.43886985 76.04662768 -22.0190428 81.9646486 -22.59765625 87.8828125 C-22.71863678 89.12484436 -22.83961731 90.36687622 -22.96426392 91.64654541 C-23.86098738 100.78079795 -24.8787706 109.89068173 -26 119 C-34.58 119 -43.16 119 -52 119 C-51.39128988 109.09432585 -50.57780779 99.25975024 -49.4765625 89.39453125 C-49.3281857 88.05466774 -49.17986131 86.71479842 -49.03158569 85.37492371 C-48.72306626 82.59577769 -48.41170045 79.81696719 -48.09863281 77.03833008 C-47.70198813 73.51299616 -47.31604844 69.98657738 -46.93264198 66.4597826 C-46.63106151 63.70245768 -46.32199527 60.9460072 -46.01096725 58.18973351 C-45.79606672 56.26961343 -45.58865671 54.34865959 -45.38150024 52.4276886 C-43.55219205 36.47585967 -40.22353257 22.20316954 -28 11 C-20.24177694 5.04300323 -10.15712017 -1.09806705 0 0 Z " fill="#0D5BAA" transform="translate(61,276)"/>
<path d="M0 0 C1.53333984 0.00676758 1.53333984 0.00676758 3.09765625 0.01367188 C5.60683194 0.025397 8.1158849 0.04180824 10.625 0.0625 C10.625 0.3925 10.625 0.7225 10.625 1.0625 C9.49964844 1.28164063 8.37429687 1.50078125 7.21484375 1.7265625 C-18.58350644 6.96256738 -42.0131299 19.0836574 -57.375 41.0625 C-72.12694953 63.77741638 -75.04756271 85.46386539 -75.375 112.0625 C-75.97393066 112.25513428 -76.57286133 112.44776855 -77.18994141 112.64624023 C-83.09803144 114.56634989 -83.09803144 114.56634989 -88.75 117.125 C-89.37648438 117.44597656 -90.00296875 117.76695313 -90.6484375 118.09765625 C-92.27196353 119.0049208 -93.82752833 120.03085222 -95.375 121.0625 C-95.45032769 116.21023788 -95.50414464 111.35833137 -95.53979492 106.50561523 C-95.55468883 104.86200009 -95.57501089 103.21842326 -95.60131836 101.57495117 C-96.01100132 75.28294442 -88.89878102 50.53129948 -70.4621582 31.13891602 C-51.33631533 11.62608592 -27.50015629 -0.23064647 0 0 Z " fill="#8E551C" transform="translate(139.375,-0.0625)"/>
<path d="M0 0 C10.49510537 1.61277995 20.72816444 4.35845522 31 7 C30.36167236 7.11770752 29.72334473 7.23541504 29.06567383 7.35668945 C28.04316528 7.67512817 28.04316528 7.67512817 27 8 C25.88914122 10.33091153 25.88914122 10.33091153 25 13 C22.85631186 16.15048626 20.4156475 19.05469209 18 22 C17.4740625 22.67417969 16.948125 23.34835937 16.40625 24.04296875 C11.44750268 30.13201876 5.45241244 34.58176551 -1 39 C-2.33224609 39.94166016 -2.33224609 39.94166016 -3.69140625 40.90234375 C-11.30262881 45.72316281 -18.21683272 45.85994697 -27 45 C-27.74878418 44.93135742 -28.49756836 44.86271484 -29.26904297 44.79199219 C-56.27176309 42.06761561 -75.43702171 27.99190082 -93 8 C-92.67 7.34 -92.34 6.68 -92 6 C-91.41734375 6.58007812 -90.8346875 7.16015625 -90.234375 7.7578125 C-84.00694437 13.6914964 -77.89944716 17.63461909 -70 21 C-69.28585938 21.32871094 -68.57171875 21.65742188 -67.8359375 21.99609375 C-55.42583269 27.00325959 -39.12905976 25.99304965 -26.92285156 21.18115234 C-15.58595212 16.29616798 -6.83151972 10.46076457 0 0 Z " fill="#5A84AE" transform="translate(190,267)"/>
<path d="M0 0 C-1.299375 1.485 -1.299375 1.485 -2.625 3 C-18.27305872 21.37908783 -18.47157803 40.62883098 -20.82275391 63.87915039 C-21.13818076 66.98627247 -21.4594509 70.0927511 -21.78125 73.19921875 C-21.87402222 74.13489182 -21.96679443 75.07056488 -22.06237793 76.03459167 C-22.69485162 82.11097842 -23.69705332 88.03160347 -25 94 C-33.0195251 92.42237155 -41.01129426 90.72666551 -49 89 C-49.07252515 83.50043341 -48.83648945 78.15527988 -48.265625 72.6875 C-48.18632751 71.9155127 -48.10703003 71.14352539 -48.02532959 70.34814453 C-47.8561238 68.72094813 -47.68455949 67.09399541 -47.51074219 65.46728516 C-47.25371831 63.03518468 -47.01331734 60.60181135 -46.7734375 58.16796875 C-44.92713503 40.27525773 -42.26033726 21.85609912 -27.53125 9.75 C-19.24366895 4.02031433 -10.19166291 -0.40766652 0 0 Z " fill="#ED3680" transform="translate(290,276)"/>
<path d="M0 0 C0.01417969 1.10214844 0.02835937 2.20429688 0.04296875 3.33984375 C0.58023319 23.82874185 6.31250717 41.41346926 20.4375 56.625 C21.283125 57.40875 22.12875 58.1925 23 59 C23.5259375 59.53109375 24.051875 60.0621875 24.59375 60.609375 C32.90831676 68.57162961 43.90494515 73.31571254 55 76 C50.83003798 78.77997468 47.40423908 78.34328534 42.5 78.3125 C41.59378906 78.30758545 40.68757813 78.3026709 39.75390625 78.29760742 C33.08059693 78.18092025 27.25682994 77.42231504 21 75 C20.05382812 74.67128906 19.10765625 74.34257812 18.1328125 74.00390625 C-0.18176189 67.12999456 -13.32030133 54.11955675 -21.61328125 36.58984375 C-25.60100021 26.72053341 -27.14320911 17.571436 -27 7 C-24.167031 6.20701081 -21.33364215 5.41557728 -18.5 4.625 C-17.70851563 4.40328125 -16.91703125 4.1815625 -16.1015625 3.953125 C-1.91681985 0 -1.91681985 0 0 0 Z " fill="#E74084" transform="translate(328,265)"/>
<path d="M0 0 C1.12158014 1.83531295 2.23922565 3.67315677 3.3359375 5.5234375 C14.68148832 22.40859999 33.22224107 35.27434079 53 40 C62.25993449 41.6482084 71.62104615 42.39898778 81 43 C78.32571041 45.67428959 75.88408823 46.05430885 72.25 47.0625 C71.03828125 47.40410156 69.8265625 47.74570312 68.578125 48.09765625 C48.23099149 53.22886568 25.51678793 50.89978873 7 41 C6.0615625 40.53207031 5.123125 40.06414062 4.15625 39.58203125 C-7.61494377 33.30922404 -17.13936012 24.11888511 -24.9375 13.375 C-25.36885254 12.78323975 -25.80020508 12.19147949 -26.24462891 11.58178711 C-27.40234375 9.8984375 -27.40234375 9.8984375 -29 7 C-28.67 6.01 -28.34 5.02 -28 4 C-24.20901259 2.44688228 -20.1650875 1.64808165 -16.1875 0.6875 C-15.08083984 0.39810547 -13.97417969 0.10871094 -12.83398438 -0.18945312 C-11.76857422 -0.45306641 -10.70316406 -0.71667969 -9.60546875 -0.98828125 C-8.13823364 -1.35240112 -8.13823364 -1.35240112 -6.64135742 -1.72387695 C-3.61782698 -2.03995172 -2.45212398 -1.75671037 0 0 Z " fill="#2C6AA8" transform="translate(95,269)"/>
<path d="M0 0 C7.9375 2.375 7.9375 2.375 10.37866211 3.11083984 C15.5419369 4.64194485 20.72909698 5.89731368 26 7 C26.09951569 11.83799361 26.17177037 16.67538025 26.21972656 21.51416016 C26.23973571 23.1571695 26.26695213 24.80010859 26.30175781 26.44287109 C26.35075305 28.81625788 26.37307504 31.18869649 26.390625 33.5625 C26.41127014 34.28679199 26.43191528 35.01108398 26.45318604 35.75732422 C26.45556368 41.26713016 25.05487094 45.40067092 22 50 C17.37678148 54.4837812 10.71453684 56.42000045 4.6875 58.3125 C3.89021484 58.57611328 3.09292969 58.83972656 2.27148438 59.11132812 C-3.56132305 61 -3.56132305 61 -7 61 C-10.85298845 51.87208689 -10.28526127 42.69888308 -10 33 C-7.03 32.34 -4.06 31.68 -1 31 C-0.67 20.77 -0.34 10.54 0 0 Z " fill="#E2BF91" transform="translate(338,232)"/>
<path d="M0 0 C3.03423618 0.60684724 6.02676621 1.22116002 9.03125 1.9375 C10.12373047 2.19660156 10.12373047 2.19660156 11.23828125 2.4609375 C12.74609375 2.8203125 14.25390625 3.1796875 15.76171875 3.5390625 C16.49003906 3.71179688 17.21835938 3.88453125 17.96875 4.0625 C18.95004883 4.29646484 18.95004883 4.29646484 19.95117188 4.53515625 C22.29289765 5.06645342 24.64384073 5.53736577 27 6 C27.14906961 10.85622918 27.25754856 15.71110811 27.32958984 20.5690918 C27.35963934 22.21906755 27.40049264 23.8688852 27.45263672 25.51831055 C27.92949966 40.99765561 27.92949966 40.99765561 24.328125 45.46875 C21.61729271 47.84283045 18.822225 49.34506954 15.375 50.4375 C14.45460938 50.74558594 13.53421875 51.05367188 12.5859375 51.37109375 C10 52 10 52 6 52 C5.67 52.66 5.34 53.32 5 54 C-3.79154829 48.88939903 -12.34499058 43.31001885 -17 34 C-11.72 32.68 -6.44 31.36 -1 30 C-0.67 20.1 -0.34 10.2 0 0 Z " fill="#D8A373" transform="translate(110,233)"/>
<path d="M0 0 C5.94 0 11.88 0 18 0 C17.37485108 9.56198044 16.49528147 19.03438282 15.37109375 28.55078125 C15.21504425 29.90245988 15.05954456 31.25420208 14.90455627 32.60600281 C14.25581749 38.26157767 13.6029444 43.91663334 12.93579102 49.57006836 C7.54917299 80.14666814 7.54917299 80.14666814 16.25 108.4375 C19.08560279 111.07976624 21.62279947 112.58365424 25.1328125 114.140625 C27 115 27 115 30 117 C22.08 117 14.16 117 6 117 C4.60077431 95.19712593 3.32007488 73.38979455 2.14013672 51.57397461 C1.91672515 47.44603698 1.68928125 43.3183312 1.46098137 39.19066143 C1.28222179 35.94691296 1.10616738 32.70302168 0.93085098 29.45908546 C0.84809882 27.93581691 0.76439887 26.41259948 0.67965317 24.88944054 C0.21867702 16.58467412 -0.09316097 8.31981691 0 0 Z " fill="#E6B683" transform="translate(219,395)"/>
<path d="M0 0 C7.85830701 1.12261529 14.1788425 2.34054132 20 8 C24.45502225 14.06378028 25.6725222 18.61494487 25 26 C22.73369893 32.79890322 17.65853515 36.54988992 11.5625 39.875 C8 41 8 41 0 41 C0 27.47 0 13.94 0 0 Z " fill="#E2BE90" transform="translate(448,109)"/>
<path d="M0 0 C9.27198215 1.15899777 15.39887472 3.39887472 22 10 C24.98470655 14.91032368 25.4957624 18.93658781 24.69140625 24.5078125 C22.98078601 30.67377698 19.04953027 34.65079143 13.6875 37.9375 C8.96311133 40.59215649 6.03914196 40.32898423 0 41 C0 27.47 0 13.94 0 0 Z " fill="#D9A473" transform="translate(220,113)"/>
<path d="M0 0 C1.5778125 1.175625 1.5778125 1.175625 3.1875 2.375 C7.42809134 5.37733867 10.98967401 6.93672654 16.16015625 7.546875 C17.42730469 7.69640625 18.69445312 7.8459375 20 8 C20.1958691 11.81211903 20.38029565 15.62470534 20.5625 19.4375 C20.61857422 20.52611328 20.67464844 21.61472656 20.73242188 22.73632812 C20.78076172 23.77080078 20.82910156 24.80527344 20.87890625 25.87109375 C20.9260376 26.82943115 20.97316895 27.78776855 21.02172852 28.77514648 C21 31 21 31 20 32 C13.50752046 32.86661105 8.33823319 31.79857435 3 28 C-1.51145525 24.13875448 -3.89550466 20.14062394 -4.88671875 14.2734375 C-5.12436665 9.50409003 -3.99688676 5.53367193 -1.375 1.5 C-0.694375 0.7575 -0.694375 0.7575 0 0 Z " fill="#B82D2C" transform="translate(272,142)"/>
<path d="M0 0 C3 1 3 1 4.1640625 3.2265625 C5.88627413 8.9404422 6.2151156 15.47878037 3.375 20.875 C-0.19969224 25.57854243 -4.10898531 29.49299624 -10 31 C-12.97 31 -15.94 31 -19 31 C-19 23.08 -19 15.16 -19 7 C-13.555 6.01 -13.555 6.01 -8 5 C-4.75353939 3.07389808 -4.75353939 3.07389808 -1.65625 0.92578125 C-1.1096875 0.62027344 -0.563125 0.31476563 0 0 Z " fill="#B72D2C" transform="translate(467,143)"/>
<path d="M0 0 C0.4125 0.38671875 0.825 0.7734375 1.25 1.171875 C7.73641801 7.0212341 13.57514678 9.59289908 22 12 C22 17.94 22 23.88 22 30 C11.70790635 28.71348829 6.97489917 26.76747715 0.34765625 18.90234375 C-1.92896376 15.68868014 -2.15873461 12.88829709 -2.1875 9.0625 C-2.20167969 8.20785156 -2.21585938 7.35320312 -2.23046875 6.47265625 C-1.98703556 3.86090697 -1.3178268 2.24499348 0 0 Z " fill="#D9A473" transform="translate(41,124)"/>
<path d="M0 0 C0.66 0 1.32 0 2 0 C2.556875 0.7425 3.11375 1.485 3.6875 2.25 C9.00985342 8.57928515 15.1641354 9.71191267 23 11 C23 16.61 23 22.22 23 28 C14.29739942 28 10.4469411 26.67354352 3.6875 21.75 C-0.15450814 17.81864283 -2.01493915 14.11730267 -1.98828125 8.5546875 C-1.68429581 5.45503267 -1.39992519 2.79985038 0 0 Z " fill="#E1BE90" transform="translate(269,122)"/>
<path d="M0 0 C7.97384129 1.13912018 14.02753756 2.37885888 20 8 C22 11 22 11 21.8203125 12.99609375 C19.90015465 17.68676507 14.89670676 20.77947077 10.4375 22.875 C7 24 7 24 1 24 C1 29.61 1 35.22 1 41 C0.67 41 0.34 41 0 41 C0 27.47 0 13.94 0 0 Z " fill="#ECCDA0" transform="translate(448,109)"/>
<path d="M0 0 C9.68563797 1.21070475 14.88374275 3.59536847 22 10 C19.52060788 15.59979782 14.93811239 19.29582397 9.4375 21.875 C6 23 6 23 0 23 C0 15.41 0 7.82 0 0 Z " fill="#E9B782" transform="translate(220,113)"/>
<path d="M0 0 C3 1 3 1 4.1796875 3.19921875 C5.06563092 6.2240827 5.2007492 8.66890834 5.125 11.8125 C5.10695313 12.78832031 5.08890625 13.76414063 5.0703125 14.76953125 C5.04710937 15.50558594 5.02390625 16.24164063 5 17 C-6.48212512 18.03339126 -6.48212512 18.03339126 -11.5625 14.1875 C-13.82031275 12.22101793 -15.879761 10.120239 -18 8 C-18 12.95 -18 17.9 -18 23 C-18.33 23 -18.66 23 -19 23 C-19 17.72 -19 12.44 -19 7 C-17.35 6.773125 -15.7 6.54625 -14 6.3125 C-9.02703551 5.44094952 -5.66987823 3.94450587 -1.65625 0.92578125 C-1.1096875 0.62027344 -0.563125 0.31476563 0 0 Z " fill="#D63F3E" transform="translate(467,143)"/>
<path d="M0 0 C1.41152344 0.06960937 1.41152344 0.06960937 2.8515625 0.140625 C3.0474316 3.95274403 3.23185815 7.76533034 3.4140625 11.578125 C3.47013672 12.66673828 3.52621094 13.75535156 3.58398438 14.87695312 C3.63232422 15.91142578 3.68066406 16.94589844 3.73046875 18.01171875 C3.7776001 18.97005615 3.82473145 19.92839355 3.87329102 20.91577148 C3.8515625 23.140625 3.8515625 23.140625 2.8515625 24.140625 C0.51858817 24.18155437 -1.81548975 24.18304223 -4.1484375 24.140625 C-7.9033421 18.50826811 -7.95314005 12.75907746 -7.1484375 6.140625 C-5.83777628 2.14199756 -4.43921771 0.19827771 0 0 Z " fill="#D73E3D" transform="translate(289.1484375,149.859375)"/>
<path d="M0 0 C0.66 0.33 1.32 0.66 2 1 C-2.29 5.29 -6.58 9.58 -11 14 C-11.66 13.67 -12.32 13.34 -13 13 C-11.58791833 11.39179588 -10.17013964 9.78859292 -8.75 8.1875 C-7.96109375 7.29417969 -7.1721875 6.40085937 -6.359375 5.48046875 C-4.34120555 3.35871775 -2.40083295 1.65745577 0 0 Z " fill="#3666A4" transform="translate(37,284)"/>
</svg>
