<?xml version="1.0" encoding="UTF-8"?>
<svg version="1.1" xmlns="http://www.w3.org/2000/svg" width="512" height="512">
<path d="M0 0 C50.91387345 17.53298873 105.08985001 13.62280021 155.54321289 -3.24682617 C172.2886945 -8.83967104 188.96471222 -8.06833447 205.0625 -0.625 C213.14922894 3.81930313 224.45941387 11.32357678 227.46693707 20.50429821 C227.6875 23.125 227.6875 23.125 226.44739246 25.09222126 C225.80272368 25.72616401 225.1580549 26.36010675 224.49385071 27.01325989 C223.76056046 27.74901749 223.0272702 28.48477509 222.27175903 29.24282837 C221.45158295 30.03514862 220.63140686 30.82746887 219.78637695 31.64379883 C218.93463394 32.48999283 218.08289093 33.33618683 217.20533752 34.20802307 C215.34928501 36.04790955 213.48875793 37.88136325 211.61824989 39.7063694 C208.65702351 42.59599243 205.71776862 45.50729844 202.78129578 48.42204285 C197.06900748 54.08603568 191.3344902 59.72721978 185.59774017 65.36641693 C178.31159135 72.53100179 171.03637517 79.70658315 163.77942437 86.90074366 C161.33895867 89.31889474 158.89399138 91.73212459 156.4382267 94.13474464 C153.69518487 96.82037057 150.96439312 99.51793073 148.2355957 102.21801758 C147.42554077 103.00426514 146.61548584 103.7905127 145.78088379 104.60058594 C139.16640645 111.18698806 135.47606218 117.33116419 134.25 126.75 C134.14002686 127.51417236 134.03005371 128.27834473 133.91674805 129.06567383 C133.49039775 132.08333341 133.09034168 135.10410875 132.6875 138.125 C132.48309706 139.61353688 132.27796634 141.10197393 132.07226562 142.59033203 C131.4904233 146.80306602 130.91645693 151.01680811 130.34811401 155.23138428 C130.11737899 156.94218524 129.88555985 158.65284035 129.65261841 160.36334229 C129.32137037 162.80792128 128.99756712 165.25337827 128.67578125 167.69921875 C128.57593933 168.42891373 128.47609741 169.1586087 128.37322998 169.91041565 C127.43440865 177.16361974 127.58952619 183.86313825 128.6875 191.125 C100.48838253 191.2185422 72.28928839 191.28902771 44.09004688 191.33224869 C30.99593219 191.35285251 17.90191404 191.38093155 4.80786133 191.42675781 C-6.60814824 191.46669217 -18.02408786 191.49244865 -29.44016534 191.50135398 C-35.48196436 191.50655751 -41.52356333 191.51874249 -47.56529808 191.54792023 C-53.2591346 191.57519346 -58.95268982 191.58342093 -64.64658546 191.57743073 C-66.72940223 191.57852564 -68.812229 191.58640808 -70.89498901 191.6018219 C-86.41710377 191.71100208 -100.11531931 191.0122722 -112.3125 180.125 C-121.02271741 170.96252131 -124.99009787 160.65071251 -124.82299805 148.09155273 C-124.41546657 142.21891003 -122.6321752 136.86678997 -120.828125 131.29296875 C-120.47095901 130.16222427 -120.11379303 129.0314798 -119.74580383 127.86647034 C-118.61110438 124.28280056 -117.46227348 120.70385825 -116.3125 117.125 C-115.58896996 114.84888455 -114.86622047 112.57252082 -114.14428711 110.29589844 C-109.6282505 96.08479628 -105.03214065 81.89919649 -100.44042969 67.71240234 C-98.8549458 62.81092506 -97.28190495 57.90565682 -95.71739197 52.99745178 C-94.74762756 49.96358162 -93.76656701 46.93347211 -92.78140259 43.90457153 C-92.15315947 41.962068 -91.53853459 40.01517591 -90.92456055 38.06811523 C-85.37688957 21.15539943 -76.23362749 8.16025379 -60.37109375 -0.44140625 C-39.72806145 -10.11700377 -20.78348831 -7.20569842 0 0 Z " fill="#326599" transform="translate(131.3125,276.875)"/>
<path d="M0 0 C1.0003125 0.556875 2.000625 1.11375 3.03125 1.6875 C25.06190726 14.85524917 40.88756206 37.20320525 48.17578125 61.57421875 C55.04930851 90.14333441 51.49403929 118.49024105 37 144 C34.58545556 147.92542769 31.97636233 151.4844416 29 155 C28.58492187 155.49048828 28.16984375 155.98097656 27.7421875 156.48632812 C13.97939157 172.56304443 -2.77744333 183.8015152 -23 190 C-24.09699219 190.3403125 -25.19398438 190.680625 -26.32421875 191.03125 C-44.56659489 195.60773461 -66.1787249 195.0344191 -84 189 C-84.94456055 188.68651611 -84.94456055 188.68651611 -85.90820312 188.36669922 C-101.5714112 183.0486975 -114.29603332 174.56166921 -126 163 C-126.96292969 162.14535156 -126.96292969 162.14535156 -127.9453125 161.2734375 C-144.91773422 145.87984571 -154.33255602 120.36396081 -156 98 C-157.20288658 70.16576414 -149.88681853 43.06114753 -131 22 C-130.16400481 20.93959312 -129.33034947 19.87733354 -128.5 18.8125 C-96.25765701 -17.46013586 -41.19333324 -23.01453618 0 0 Z " fill="#90CAF9" transform="translate(256,58)"/>
<path d="M0 0 C5.26790344 3.21186518 9.68528828 7.6729782 14.09033203 11.95410156 C15.35353494 13.18101546 16.62342596 14.40106084 17.89794922 15.61621094 C20.04880903 17.66892329 22.18253744 19.73812713 24.3125 21.8125 C24.98667969 22.45670898 25.66085937 23.10091797 26.35546875 23.76464844 C33.03815351 30.37048233 37.92454215 37.64899351 38.25 47.25 C38.29898438 48.22066406 38.34796875 49.19132812 38.3984375 50.19140625 C36.54034645 62.60179049 26.68424226 70.60810295 18.23754883 79.01953125 C16.724949 80.54383054 15.21338963 82.06916288 13.70278931 83.59544373 C9.61323329 87.72049192 5.50788865 91.82946866 1.39833665 95.93458557 C-2.03556339 99.36729343 -5.46210533 102.8073011 -8.88884717 106.24715233 C-16.97292539 114.36151643 -25.0703836 122.46235662 -33.17602539 130.55517578 C-41.53181937 138.89827551 -49.8633549 147.26505672 -58.18358058 155.64361477 C-65.33712153 162.8454696 -72.50604655 170.03175542 -79.68735868 177.20591831 C-83.97241729 181.48709847 -88.25127335 185.77404602 -92.5151577 190.07632446 C-96.52350431 194.11951335 -100.55071733 198.14291093 -104.59316635 202.15199471 C-106.07145158 203.624505 -107.54297121 205.10384424 -109.00704765 206.59048271 C-111.0105813 208.62270648 -113.03734897 210.62857703 -115.07170105 212.62988281 C-115.64225902 213.22033292 -116.212817 213.81078302 -116.8006646 214.41912556 C-121.43348764 218.89374803 -125.82280757 219.91788475 -132.125 220.6875 C-133.06783844 220.84425705 -134.01067688 221.0010141 -134.98208618 221.16252136 C-135.73517059 221.2676857 -136.488255 221.37285004 -137.26416016 221.48120117 C-138.13851715 221.60440231 -139.01287415 221.72760345 -139.91372681 221.85453796 C-140.82133759 221.97859512 -141.72894836 222.10265228 -142.6640625 222.23046875 C-143.62976166 222.3631868 -144.59546082 222.49590485 -145.59042358 222.63264465 C-147.61537333 222.90917797 -149.64057528 223.18387035 -151.66601562 223.45678711 C-154.75010025 223.87501359 -157.83197941 224.30753658 -160.9140625 224.74023438 C-162.8931093 225.00869761 -164.87227241 225.27630511 -166.8515625 225.54296875 C-167.76322174 225.6730986 -168.67488098 225.80322845 -169.61416626 225.93730164 C-175.03918382 226.64816492 -179.79078048 227.06309991 -185.125 225.6875 C-188.55863565 222.68271957 -189.98400163 220.94524632 -190.49560547 216.3815918 C-190.37072754 215.16640869 -190.24584961 213.95122559 -190.1171875 212.69921875 C-190.05280487 212.01687668 -189.98842224 211.33453461 -189.92208862 210.6315155 C-189.69022021 208.31181796 -189.4113607 206.00107857 -189.125 203.6875 C-189.02562134 202.83818909 -188.92624268 201.98887817 -188.82385254 201.11383057 C-188.16560161 195.52736891 -187.43071204 189.95425769 -186.65087891 184.38354492 C-186.24548993 181.46755882 -185.8588146 178.54944713 -185.47265625 175.63085938 C-185.21466818 173.76026096 -184.95559408 171.88981192 -184.6953125 170.01953125 C-184.58269073 169.15495804 -184.47006897 168.29038483 -184.35403442 167.39961243 C-184.2373642 166.59074081 -184.12069397 165.7818692 -184.00048828 164.94848633 C-183.90357697 164.24395828 -183.80666565 163.53943024 -183.70681763 162.81355286 C-182.15201223 157.13205008 -178.06067075 153.33218838 -174.0163269 149.30467224 C-173.39533021 148.67843887 -172.77433352 148.0522055 -172.13451874 147.40699536 C-170.0552015 145.31269265 -167.96881259 143.22558436 -165.88232422 141.13842773 C-164.38872075 139.63720183 -162.89552087 138.1355743 -161.4026947 136.63357544 C-157.34747893 132.55641625 -153.2857104 128.4858474 -149.22205114 124.41710544 C-146.68267612 121.87408665 -144.14460422 119.32977459 -141.60696793 116.78502083 C-132.75151309 107.90507202 -123.89035205 99.03085866 -115.02441406 90.16137695 C-106.76413556 81.89746328 -98.51707964 73.62051279 -90.27594936 65.33750767 C-83.19678438 58.22363784 -76.10801728 51.11943169 -69.01182759 44.02254444 C-64.77519327 39.78511739 -60.54262615 35.54381236 -56.31985092 31.29257011 C-52.3467177 27.2932536 -48.361766 23.30610165 -44.36750984 19.32788467 C-42.90593001 17.86811906 -41.44859124 16.40409248 -39.99591255 14.93546867 C-38.00720815 12.92627821 -36.00356713 10.93323236 -33.99557495 8.94334412 C-33.42852179 8.36309099 -32.86146864 7.78283787 -32.27723205 7.18500131 C-23.86015967 -1.06053985 -11.30892138 -4.79271616 0 0 Z " fill="#90CAF8" transform="translate(467.125,241.3125)"/>
<path d="M0 0 C5.26790344 3.21186518 9.68528828 7.6729782 14.09033203 11.95410156 C15.35353494 13.18101546 16.62342596 14.40106084 17.89794922 15.61621094 C20.04880903 17.66892329 22.18253744 19.73812713 24.3125 21.8125 C24.98667969 22.45670898 25.66085937 23.10091797 26.35546875 23.76464844 C33.03815351 30.37048233 37.92454215 37.64899351 38.25 47.25 C38.29898438 48.22066406 38.34796875 49.19132812 38.3984375 50.19140625 C36.94693226 59.88616138 30.95027142 66.30000532 24.0625 72.8125 C23.27423828 73.57820313 22.48597656 74.34390625 21.67382812 75.1328125 C19.7519289 76.99647235 17.81934072 78.84731467 15.875 80.6875 C9.12414687 75.14876863 3.03862708 68.97836401 -3.11328125 62.796875 C-4.26411829 61.64416926 -5.41517899 60.49168679 -6.56645203 59.3394165 C-9.57796042 56.32411397 -12.58645337 53.30582058 -15.59429932 50.28686523 C-18.66325211 47.20764838 -21.73506653 44.13128917 -24.80664062 41.0546875 C-30.19250149 35.6592841 -35.57588279 30.26141762 -40.95747375 24.86175537 C-42.34561472 23.4693049 -43.73470261 22.07779739 -45.125 20.6875 C-42.33390877 17.7496993 -39.51363031 14.84157717 -36.6875 11.9375 C-35.90439453 11.1125 -35.12128906 10.2875 -34.31445312 9.4375 C-25.14646699 0.08087218 -13.15905758 -5.57680311 0 0 Z " fill="#4E8ECF" transform="translate(467.125,241.3125)"/>
<path d="M0 0 C3.21127396 1.46800772 5.41627219 3.84894764 7.85296631 6.33631897 C8.40950394 6.89241852 8.96604156 7.44851807 9.53944397 8.02146912 C11.37543645 9.85954998 13.20057726 11.70802502 15.02581787 13.55677795 C16.29739973 14.83395557 17.56964598 16.11047201 18.8425293 17.38635254 C22.189737 20.74501052 25.5278377 24.11258035 28.86413574 27.48207092 C32.27065914 30.91929102 35.68569873 34.34802647 39.10003662 37.77748108 C45.79721191 44.50682379 52.48479908 51.24560982 59.16644287 57.9903717 C57.59056283 61.31516621 55.88472798 63.50668787 53.25238037 66.0997467 C52.11156006 67.23089905 52.11156006 67.23089905 50.94769287 68.38490295 C50.15363037 69.16220764 49.35956787 69.93951233 48.54144287 70.7403717 C47.739646 71.53314514 46.93784912 72.32591858 46.11175537 73.14271545 C44.13441441 75.09651664 42.15255378 77.04549273 40.16644287 78.9903717 C36.15073032 77.38177666 33.46164674 74.55396806 30.47991943 71.53089905 C29.92338181 70.97465347 29.36684418 70.4184079 28.79344177 69.8453064 C26.95986845 68.01034265 25.13347615 66.1684024 23.30706787 64.3263092 C22.03526763 63.05077781 20.76302434 61.77568803 19.49035645 60.50102234 C16.14538029 57.14841775 12.80645436 53.78984998 9.46875 50.43000793 C6.06041456 47.00119714 2.64639542 43.57805597 -0.76715088 40.1544342 C-7.4615301 33.43861899 -14.14953179 26.71649076 -20.83355713 19.9903717 C-16.74847559 15.19147635 -12.60877797 10.50368234 -8.20855713 5.9903717 C-7.649104 5.39353577 -7.08965088 4.79669983 -6.51324463 4.18177795 C-2.4060141 -0.01263436 -2.4060141 -0.01263436 0 0 Z " fill="#BADDFA" transform="translate(422.83355712890625,263.00962829589844)"/>
</svg>
