<?xml version="1.0" standalone="no"?>
<!DOCTYPE svg PUBLIC "-//W3C//DTD SVG 20010904//EN"
 "http://www.w3.org/TR/2001/REC-SVG-20010904/DTD/svg10.dtd">
<svg version="1.0" xmlns="http://www.w3.org/2000/svg"
 width="512.000000pt" height="512.000000pt" viewBox="0 0 512.000000 512.000000"
 preserveAspectRatio="xMidYMid meet">
<metadata>
Created by potrace 1.16, written by Peter Selinger 2001-2019
</metadata>
<g transform="translate(0.000000,512.000000) scale(0.100000,-0.100000)"
fill="#000000" stroke="none">
<path d="M3512 2970 c-368 -384 -665 -685 -695 -705 -140 -95 -340 -101 -495
-15 l-57 32 91 -92 90 -91 75 -6 c97 -7 202 16 299 64 65 32 95 57 221 185
l145 149 488 -508 487 -508 -1603 -3 -1603 -2 735 -735 735 -735 165 0 c847 0
1642 434 2117 1156 269 410 413 886 413 1369 l0 160 -478 478 c-262 262 -479
477 -482 477 -3 0 -294 -302 -648 -670z m728 -410 c0 -545 -2 -990 -4 -990 -2
0 -221 223 -486 496 l-481 495 283 291 c156 161 371 383 478 494 107 111 198
202 203 203 4 1 7 -444 7 -989z"/>
<path d="M1367 2063 l-485 -498 36 -37 c20 -21 39 -38 42 -38 6 0 842 866 925
958 l38 43 -35 35 -35 36 -486 -499z"/>
</g>
</svg>
