<?xml version="1.0" encoding="UTF-8"?>
<!DOCTYPE svg PUBLIC "-//W3C//DTD SVG 1.1//EN" "http://www.w3.org/Graphics/SVG/1.1/DTD/svg11.dtd">
<svg xmlns="http://www.w3.org/2000/svg" version="1.1" width="512px" height="512px" style="shape-rendering:geometricPrecision; text-rendering:geometricPrecision; image-rendering:optimizeQuality; fill-rule:evenodd; clip-rule:evenodd" xmlns:xlink="http://www.w3.org/1999/xlink">
<g><path style="opacity:1" fill="#3d85ce" d="M 201.5,-0.5 C 237.167,-0.5 272.833,-0.5 308.5,-0.5C 329.683,0.785848 351.017,2.11918 372.5,3.5C 411.96,95.8115 406.127,185.145 355,271.5C 338.521,297.093 318.355,319.426 294.5,338.5C 294.667,305.498 294.5,272.498 294,239.5C 287.817,212.317 270.984,196.483 243.5,192C 228.833,191.333 214.167,191.333 199.5,192C 177.364,198.129 166.864,212.629 168,235.5C 170.711,252.881 180.544,264.047 197.5,269C 203.825,269.5 210.158,269.666 216.5,269.5C 216.5,307.5 216.5,345.5 216.5,383.5C 144.423,408.498 73.4226,405.831 3.5,375.5C 2.27516,353.34 0.941827,331.34 -0.5,309.5C -0.5,273.167 -0.5,236.833 -0.5,200.5C 1.1486,170.953 3.31526,141.286 6,111.5C 9.70447,63.8055 33.5378,30.6388 77.5,12C 81.1228,10.8443 84.7894,9.84428 88.5,9C 126.188,4.31994 163.854,1.15327 201.5,-0.5 Z"/></g>
<g><path style="opacity:0.996" fill="#336699" d="M 372.5,3.5 C 387.519,4.73519 402.519,6.23519 417.5,8C 454.45,16.6163 480.95,38.1163 497,72.5C 499.776,79.2694 501.776,86.2694 503,93.5C 506.925,129.57 509.758,165.57 511.5,201.5C 511.5,237.5 511.5,273.5 511.5,309.5C 509.896,339.383 507.729,369.383 505,399.5C 501.296,447.195 477.462,480.361 433.5,499C 429.877,500.156 426.211,501.156 422.5,502C 384.475,506.643 346.475,509.81 308.5,511.5C 273.167,511.5 237.833,511.5 202.5,511.5C 166.241,509.719 129.907,506.885 93.5,503C 56.5501,494.384 30.0501,472.884 14,438.5C 11.224,431.731 9.22403,424.731 8,417.5C 6.46808,403.478 4.96808,389.478 3.5,375.5C 73.4226,405.831 144.423,408.498 216.5,383.5C 220.706,412.873 237.373,430.373 266.5,436C 282.546,436.921 298.546,436.588 314.5,435C 330.627,430.537 340.127,420.037 343,403.5C 345.068,387.355 339.568,374.522 326.5,365C 316.568,359.352 305.901,357.185 294.5,358.5C 294.5,351.833 294.5,345.167 294.5,338.5C 318.355,319.426 338.521,297.093 355,271.5C 406.127,185.145 411.96,95.8115 372.5,3.5 Z"/></g>
<g><path style="opacity:1" fill="#fdfefe" d="M 240.5,74.5 C 252.203,74.2321 263.869,74.7321 275.5,76C 287.128,79.6242 293.628,87.4575 295,99.5C 295.667,108.5 295.667,117.5 295,126.5C 294.929,140.167 288.429,149 275.5,153C 264.199,154.425 252.865,154.759 241.5,154C 223.518,151.338 215.018,140.838 216,122.5C 215.176,112.788 215.509,103.121 217,93.5C 221.188,82.4626 229.022,76.1293 240.5,74.5 Z"/></g>
<g><path style="opacity:1" fill="#fefefe" d="M 294.5,338.5 C 294.5,345.167 294.5,351.833 294.5,358.5C 305.901,357.185 316.568,359.352 326.5,365C 339.568,374.522 345.068,387.355 343,403.5C 340.127,420.037 330.627,430.537 314.5,435C 298.546,436.588 282.546,436.921 266.5,436C 237.373,430.373 220.706,412.873 216.5,383.5C 216.5,345.5 216.5,307.5 216.5,269.5C 210.158,269.666 203.825,269.5 197.5,269C 180.544,264.047 170.711,252.881 168,235.5C 166.864,212.629 177.364,198.129 199.5,192C 214.167,191.333 228.833,191.333 243.5,192C 270.984,196.483 287.817,212.317 294,239.5C 294.5,272.498 294.667,305.498 294.5,338.5 Z"/></g>
</svg>
