<?xml version="1.0" encoding="UTF-8"?>
<!DOCTYPE svg PUBLIC "-//W3C//DTD SVG 1.1//EN" "http://www.w3.org/Graphics/SVG/1.1/DTD/svg11.dtd">
<svg xmlns="http://www.w3.org/2000/svg" version="1.1" width="512px" height="512px" style="shape-rendering:geometricPrecision; text-rendering:geometricPrecision; image-rendering:optimizeQuality; fill-rule:evenodd; clip-rule:evenodd" xmlns:xlink="http://www.w3.org/1999/xlink">
<g><path style="opacity:0.996" fill="#ffbb85" d="M 193.5,-0.5 C 198.833,-0.5 204.167,-0.5 209.5,-0.5C 209.5,81.8333 209.5,164.167 209.5,246.5C 163.217,245.333 127.717,225.333 103,186.5C 85.5911,154.836 81.5911,121.502 91,86.5C 108.324,37.4513 142.491,8.45131 193.5,-0.5 Z"/></g>
<g><path style="opacity:1" fill="#f5a86c" d="M 209.5,-0.5 C 215.167,-0.5 220.833,-0.5 226.5,-0.5C 266.496,6.08643 296.996,26.7531 318,61.5C 334.717,93.4551 338.05,126.788 328,161.5C 317.274,192.231 297.774,215.731 269.5,232C 250.73,241.859 230.73,246.692 209.5,246.5C 209.5,164.167 209.5,81.8333 209.5,-0.5 Z"/></g>
<g><path style="opacity:0.998" fill="#69a9ff" d="M 209.5,285.5 C 209.5,360.833 209.5,436.167 209.5,511.5C 164.167,511.5 118.833,511.5 73.5,511.5C 32.2436,503.91 7.57693,479.577 -0.5,438.5C -0.5,423.5 -0.5,408.5 -0.5,393.5C 1.80025,366.512 7.63358,340.178 17,314.5C 24.6823,295.505 36.1823,279.339 51.5,266C 71.0428,251.377 93.0428,245.044 117.5,247C 133.964,256.067 150.297,265.4 166.5,275C 180.18,281.17 194.514,284.67 209.5,285.5 Z"/></g>
<g><path style="opacity:1" fill="#336699" d="M 352.5,511.5 C 305.167,511.5 257.833,511.5 210.5,511.5C 210.5,436.5 210.5,361.5 210.5,286.5C 214.702,286.817 218.702,286.483 222.5,285.5C 238.504,283.223 253.837,278.39 268.5,271C 280.665,263.083 292.999,255.416 305.5,248C 346.504,243.919 377.671,259.419 399,294.5C 411.606,316.904 419.606,340.904 423,366.5C 425.647,384.736 427.147,403.07 427.5,421.5C 426.299,471.676 401.299,501.676 352.5,511.5 Z"/></g>
<g><path style="opacity:1" fill="#4379b7" d="M 209.5,285.5 C 213.833,285.5 218.167,285.5 222.5,285.5C 218.702,286.483 214.702,286.817 210.5,286.5C 210.5,361.5 210.5,436.5 210.5,511.5C 210.167,511.5 209.833,511.5 209.5,511.5C 209.5,436.167 209.5,360.833 209.5,285.5 Z"/></g>
</svg>
