<?xml version="1.0" encoding="UTF-8"?>
<!DOCTYPE svg PUBLIC "-//W3C//DTD SVG 1.1//EN" "http://www.w3.org/Graphics/SVG/1.1/DTD/svg11.dtd">
<svg xmlns="http://www.w3.org/2000/svg" version="1.1" width="512px" height="512px" style="shape-rendering:geometricPrecision; text-rendering:geometricPrecision; image-rendering:optimizeQuality; fill-rule:evenodd; clip-rule:evenodd" xmlns:xlink="http://www.w3.org/1999/xlink">
<g><path style="opacity:1" fill="#2792ff" d="M 24.5,-0.5 C 101.5,-0.5 178.5,-0.5 255.5,-0.5C 255.5,29.5 255.5,59.5 255.5,89.5C 175.5,89.5 95.5,89.5 15.5,89.5C 15.3334,62.4979 15.5,35.4979 16,8.5C 17.6878,4.31481 20.5212,1.31481 24.5,-0.5 Z"/></g>
<g><path style="opacity:1" fill="#2687e8" d="M 255.5,-0.5 C 332.5,-0.5 409.5,-0.5 486.5,-0.5C 490.479,1.31481 493.312,4.31481 495,8.5C 495.5,35.4979 495.667,62.4979 495.5,89.5C 415.5,89.5 335.5,89.5 255.5,89.5C 255.5,59.5 255.5,29.5 255.5,-0.5 Z"/></g>
<g><path style="opacity:0.998" fill="#2687e8" d="M 15.5,89.5 C 95.5,89.5 175.5,89.5 255.5,89.5C 255.5,150.167 255.5,210.833 255.5,271.5C 235.5,271.5 215.5,271.5 195.5,271.5C 167.201,243.702 139.035,215.702 111,187.5C 78.964,154.965 47.1306,122.298 15.5,89.5 Z"/></g>
<g><path style="opacity:1" fill="#326699" d="M 255.5,89.5 C 335.5,89.5 415.5,89.5 495.5,89.5C 493.5,91.671 491.666,94.0043 490,96.5C 431.605,154.728 373.438,213.062 315.5,271.5C 295.5,271.5 275.5,271.5 255.5,271.5C 255.5,210.833 255.5,150.167 255.5,89.5 Z"/></g>
<g><path style="opacity:0.998" fill="#2793ff" d="M 195.5,271.5 C 215.5,271.5 235.5,271.5 255.5,271.5C 255.5,342.833 255.5,414.167 255.5,485.5C 242.477,494.2 229.477,502.867 216.5,511.5C 212.5,511.5 208.5,511.5 204.5,511.5C 201.196,509.027 198.362,506.027 196,502.5C 195.5,425.501 195.333,348.501 195.5,271.5 Z"/></g>
<g><path style="opacity:1" fill="#2687e8" d="M 255.5,271.5 C 275.5,271.5 295.5,271.5 315.5,271.5C 315.667,328.501 315.5,385.501 315,442.5C 313.539,446.26 311.039,449.093 307.5,451C 290.013,462.33 272.68,473.83 255.5,485.5C 255.5,414.167 255.5,342.833 255.5,271.5 Z"/></g>
</svg>
